%TF.GenerationSoftware,KiCad,Pcbnew,9.0.7-9.0.7~ubuntu24.04.1*%
%TF.CreationDate,2026-02-26T22:41:36+11:00*%
%TF.ProjectId,flipcab-rounded,666c6970-6361-4622-9d72-6f756e646564,rev?*%
%TF.SameCoordinates,Original*%
%TF.FileFunction,Copper,L1,Top*%
%TF.FilePolarity,Positive*%
%FSLAX46Y46*%
G04 Gerber Fmt 4.6, Leading zero omitted, Abs format (unit mm)*
G04 Created by KiCad (PCBNEW 9.0.7-9.0.7~ubuntu24.04.1) date 2026-02-26 22:41:36*
%MOMM*%
%LPD*%
G01*
G04 APERTURE LIST*
G04 Aperture macros list*
%AMRoundRect*
0 Rectangle with rounded corners*
0 $1 Rounding radius*
0 $2 $3 $4 $5 $6 $7 $8 $9 X,Y pos of 4 corners*
0 Add a 4 corners polygon primitive as box body*
4,1,4,$2,$3,$4,$5,$6,$7,$8,$9,$2,$3,0*
0 Add four circle primitives for the rounded corners*
1,1,$1+$1,$2,$3*
1,1,$1+$1,$4,$5*
1,1,$1+$1,$6,$7*
1,1,$1+$1,$8,$9*
0 Add four rect primitives between the rounded corners*
20,1,$1+$1,$2,$3,$4,$5,0*
20,1,$1+$1,$4,$5,$6,$7,0*
20,1,$1+$1,$6,$7,$8,$9,0*
20,1,$1+$1,$8,$9,$2,$3,0*%
%AMOutline5P*
0 Free polygon, 5 corners , with rotation*
0 The origin of the aperture is its center*
0 number of corners: always 5*
0 $1 to $10 corner X, Y*
0 $11 Rotation angle, in degrees counterclockwise*
0 create outline with 5 corners*
4,1,5,$1,$2,$3,$4,$5,$6,$7,$8,$9,$10,$1,$2,$11*%
%AMOutline6P*
0 Free polygon, 6 corners , with rotation*
0 The origin of the aperture is its center*
0 number of corners: always 6*
0 $1 to $12 corner X, Y*
0 $13 Rotation angle, in degrees counterclockwise*
0 create outline with 6 corners*
4,1,6,$1,$2,$3,$4,$5,$6,$7,$8,$9,$10,$11,$12,$1,$2,$13*%
%AMOutline7P*
0 Free polygon, 7 corners , with rotation*
0 The origin of the aperture is its center*
0 number of corners: always 7*
0 $1 to $14 corner X, Y*
0 $15 Rotation angle, in degrees counterclockwise*
0 create outline with 7 corners*
4,1,7,$1,$2,$3,$4,$5,$6,$7,$8,$9,$10,$11,$12,$13,$14,$1,$2,$15*%
%AMOutline8P*
0 Free polygon, 8 corners , with rotation*
0 The origin of the aperture is its center*
0 number of corners: always 8*
0 $1 to $16 corner X, Y*
0 $17 Rotation angle, in degrees counterclockwise*
0 create outline with 8 corners*
4,1,8,$1,$2,$3,$4,$5,$6,$7,$8,$9,$10,$11,$12,$13,$14,$15,$16,$1,$2,$17*%
G04 Aperture macros list end*
%TA.AperFunction,SMDPad,CuDef*%
%ADD10R,2.200000X0.500000*%
%TD*%
%TA.AperFunction,ComponentPad*%
%ADD11C,0.630000*%
%TD*%
%TA.AperFunction,SMDPad,CuDef*%
%ADD12R,2.950000X4.900000*%
%TD*%
%TA.AperFunction,SMDPad,CuDef*%
%ADD13RoundRect,0.135000X-0.135000X-0.185000X0.135000X-0.185000X0.135000X0.185000X-0.135000X0.185000X0*%
%TD*%
%TA.AperFunction,SMDPad,CuDef*%
%ADD14RoundRect,0.140000X-0.170000X0.140000X-0.170000X-0.140000X0.170000X-0.140000X0.170000X0.140000X0*%
%TD*%
%TA.AperFunction,ComponentPad*%
%ADD15R,1.000000X1.000000*%
%TD*%
%TA.AperFunction,ComponentPad*%
%ADD16C,1.000000*%
%TD*%
%TA.AperFunction,ComponentPad*%
%ADD17R,2.000000X2.000000*%
%TD*%
%TA.AperFunction,ComponentPad*%
%ADD18C,2.000000*%
%TD*%
%TA.AperFunction,SMDPad,CuDef*%
%ADD19RoundRect,0.250000X-0.312500X-0.625000X0.312500X-0.625000X0.312500X0.625000X-0.312500X0.625000X0*%
%TD*%
%TA.AperFunction,SMDPad,CuDef*%
%ADD20RoundRect,0.150000X-0.512500X-0.150000X0.512500X-0.150000X0.512500X0.150000X-0.512500X0.150000X0*%
%TD*%
%TA.AperFunction,SMDPad,CuDef*%
%ADD21RoundRect,0.135000X-0.185000X0.135000X-0.185000X-0.135000X0.185000X-0.135000X0.185000X0.135000X0*%
%TD*%
%TA.AperFunction,SMDPad,CuDef*%
%ADD22RoundRect,0.140000X-0.140000X-0.170000X0.140000X-0.170000X0.140000X0.170000X-0.140000X0.170000X0*%
%TD*%
%TA.AperFunction,SMDPad,CuDef*%
%ADD23RoundRect,0.225000X-0.250000X0.225000X-0.250000X-0.225000X0.250000X-0.225000X0.250000X0.225000X0*%
%TD*%
%TA.AperFunction,SMDPad,CuDef*%
%ADD24R,0.800000X0.400000*%
%TD*%
%TA.AperFunction,SMDPad,CuDef*%
%ADD25R,0.400000X0.800000*%
%TD*%
%TA.AperFunction,HeatsinkPad*%
%ADD26Outline5P,-0.725000X0.130500X-0.130500X0.725000X0.725000X0.725000X0.725000X-0.725000X-0.725000X-0.725000X0.000000*%
%TD*%
%TA.AperFunction,HeatsinkPad*%
%ADD27R,1.450000X1.450000*%
%TD*%
%TA.AperFunction,SMDPad,CuDef*%
%ADD28R,0.700000X0.700000*%
%TD*%
%TA.AperFunction,ComponentPad*%
%ADD29R,1.700000X1.700000*%
%TD*%
%TA.AperFunction,ComponentPad*%
%ADD30C,1.700000*%
%TD*%
%TA.AperFunction,SMDPad,CuDef*%
%ADD31RoundRect,0.225000X-0.225000X-0.250000X0.225000X-0.250000X0.225000X0.250000X-0.225000X0.250000X0*%
%TD*%
%TA.AperFunction,SMDPad,CuDef*%
%ADD32RoundRect,0.250000X1.045000X-0.785000X1.045000X0.785000X-1.045000X0.785000X-1.045000X-0.785000X0*%
%TD*%
%TA.AperFunction,SMDPad,CuDef*%
%ADD33RoundRect,0.150000X-0.587500X-0.150000X0.587500X-0.150000X0.587500X0.150000X-0.587500X0.150000X0*%
%TD*%
%TA.AperFunction,SMDPad,CuDef*%
%ADD34RoundRect,0.140000X0.140000X0.170000X-0.140000X0.170000X-0.140000X-0.170000X0.140000X-0.170000X0*%
%TD*%
%TA.AperFunction,SMDPad,CuDef*%
%ADD35RoundRect,0.225000X0.250000X-0.225000X0.250000X0.225000X-0.250000X0.225000X-0.250000X-0.225000X0*%
%TD*%
%TA.AperFunction,SMDPad,CuDef*%
%ADD36R,0.750000X1.000000*%
%TD*%
%TA.AperFunction,SMDPad,CuDef*%
%ADD37RoundRect,0.225000X0.225000X0.250000X-0.225000X0.250000X-0.225000X-0.250000X0.225000X-0.250000X0*%
%TD*%
%TA.AperFunction,SMDPad,CuDef*%
%ADD38RoundRect,0.135000X0.185000X-0.135000X0.185000X0.135000X-0.185000X0.135000X-0.185000X-0.135000X0*%
%TD*%
%TA.AperFunction,SMDPad,CuDef*%
%ADD39RoundRect,0.200000X0.200000X1.150000X-0.200000X1.150000X-0.200000X-1.150000X0.200000X-1.150000X0*%
%TD*%
%TA.AperFunction,SMDPad,CuDef*%
%ADD40R,0.600000X1.450000*%
%TD*%
%TA.AperFunction,SMDPad,CuDef*%
%ADD41R,0.300000X1.450000*%
%TD*%
%TA.AperFunction,HeatsinkPad*%
%ADD42O,1.000000X2.100000*%
%TD*%
%TA.AperFunction,HeatsinkPad*%
%ADD43O,1.000000X1.600000*%
%TD*%
%TA.AperFunction,ViaPad*%
%ADD44C,0.500000*%
%TD*%
%TA.AperFunction,ViaPad*%
%ADD45C,0.800000*%
%TD*%
%TA.AperFunction,Conductor*%
%ADD46C,0.160000*%
%TD*%
%TA.AperFunction,Conductor*%
%ADD47C,0.750000*%
%TD*%
%TA.AperFunction,Conductor*%
%ADD48C,0.500000*%
%TD*%
%TA.AperFunction,Conductor*%
%ADD49C,0.262600*%
%TD*%
%TA.AperFunction,Conductor*%
%ADD50C,1.000000*%
%TD*%
%TA.AperFunction,Conductor*%
%ADD51C,0.650000*%
%TD*%
G04 APERTURE END LIST*
D10*
%TO.P,U4,1,GND*%
%TO.N,GND*%
X86245000Y-96745000D03*
%TO.P,U4,2,IN2*%
%TO.N,MOTOR_IN2*%
X86245000Y-98015000D03*
%TO.P,U4,3,IN1*%
%TO.N,MOTOR_IN1*%
X86245000Y-99285000D03*
%TO.P,U4,4,VREF*%
%TO.N,+3V3*%
X86245000Y-100555000D03*
%TO.P,U4,5,VM*%
%TO.N,+12V*%
X91995000Y-100555000D03*
%TO.P,U4,6,OUT1*%
%TO.N,Net-(J4-Pin_1)*%
X91995000Y-99285000D03*
%TO.P,U4,7,ISEN*%
%TO.N,Net-(U4-ISEN)*%
X91995000Y-98015000D03*
%TO.P,U4,8,OUT2*%
%TO.N,Net-(J4-Pin_2)*%
X91995000Y-96745000D03*
D11*
%TO.P,U4,9,GND*%
%TO.N,GND*%
X88470000Y-97350000D03*
X88470000Y-98650000D03*
X88470000Y-99950000D03*
D12*
X89120000Y-98650000D03*
D11*
X89770000Y-97350000D03*
X89770000Y-98650000D03*
X89770000Y-99950000D03*
%TD*%
D13*
%TO.P,R5,1*%
%TO.N,+3V3*%
X85320000Y-92220000D03*
%TO.P,R5,2*%
%TO.N,IO9{slash}BOOT*%
X86340000Y-92220000D03*
%TD*%
D14*
%TO.P,C6,1*%
%TO.N,Net-(U2-BST)*%
X55970000Y-98412500D03*
%TO.P,C6,2*%
%TO.N,Net-(U2-SW)*%
X55970000Y-99372500D03*
%TD*%
D15*
%TO.P,J2,1,Pin_1*%
%TO.N,+3V3*%
X91080000Y-83930000D03*
D16*
%TO.P,J2,2,Pin_2*%
%TO.N,UART_TXD*%
X91080000Y-85200000D03*
%TO.P,J2,3,Pin_3*%
%TO.N,UART_RXD*%
X91080000Y-86470000D03*
%TO.P,J2,4,Pin_4*%
%TO.N,EN*%
X91080000Y-87740000D03*
%TO.P,J2,5,Pin_5*%
%TO.N,IO9{slash}BOOT*%
X91080000Y-89010000D03*
%TO.P,J2,6,Pin_6*%
%TO.N,GND*%
X91080000Y-90280000D03*
%TD*%
D17*
%TO.P,SW2,1,A*%
%TO.N,Net-(SW2-A)*%
X58000000Y-83300000D03*
D18*
%TO.P,SW2,2,B*%
%TO.N,GND*%
X63080000Y-83300000D03*
%TO.P,SW2,3,C*%
%TO.N,+3V3*%
X68160000Y-83300000D03*
%TD*%
D13*
%TO.P,R6,1*%
%TO.N,+3V3*%
X83330000Y-92210000D03*
%TO.P,R6,2*%
%TO.N,IO8*%
X84350000Y-92210000D03*
%TD*%
D19*
%TO.P,R10,1*%
%TO.N,Net-(U4-ISEN)*%
X94477500Y-97670000D03*
%TO.P,R10,2*%
%TO.N,GND*%
X97402500Y-97670000D03*
%TD*%
D20*
%TO.P,U2,1,FB*%
%TO.N,+3V3*%
X52162500Y-98450000D03*
%TO.P,U2,2,EN*%
%TO.N,+12V*%
X52162500Y-99400000D03*
%TO.P,U2,3,IN*%
X52162500Y-100350000D03*
%TO.P,U2,4,GND*%
%TO.N,GND*%
X54437500Y-100350000D03*
%TO.P,U2,5,SW*%
%TO.N,Net-(U2-SW)*%
X54437500Y-99400000D03*
%TO.P,U2,6,BST*%
%TO.N,Net-(U2-BST)*%
X54437500Y-98450000D03*
%TD*%
D21*
%TO.P,R1,1*%
%TO.N,+3V3*%
X74340000Y-86410000D03*
%TO.P,R1,2*%
%TO.N,EN*%
X74340000Y-87430000D03*
%TD*%
D13*
%TO.P,R8,1*%
%TO.N,Net-(U3-VDD)*%
X69380000Y-92680000D03*
%TO.P,R8,2*%
%TO.N,Net-(U3-CFG)*%
X70400000Y-92680000D03*
%TD*%
D22*
%TO.P,C10,1*%
%TO.N,GND*%
X90010000Y-102030000D03*
%TO.P,C10,2*%
%TO.N,+12V*%
X90970000Y-102030000D03*
%TD*%
D23*
%TO.P,C8,1*%
%TO.N,Net-(U3-VDD)*%
X66090000Y-94295000D03*
%TO.P,C8,2*%
%TO.N,GND*%
X66090000Y-95845000D03*
%TD*%
D24*
%TO.P,U1,1,GND*%
%TO.N,GND*%
X76075000Y-81560000D03*
%TO.P,U1,2,GND*%
X76075000Y-82360000D03*
%TO.P,U1,3,3V3*%
%TO.N,+3V3*%
X76075000Y-83160000D03*
%TO.P,U1,4,NC*%
%TO.N,unconnected-(U1-NC-Pad4)*%
X76075000Y-83960000D03*
%TO.P,U1,5,IO2*%
%TO.N,CLOSE_SW*%
X76075000Y-84760000D03*
%TO.P,U1,6,IO3*%
%TO.N,OPEN_SW*%
X76075000Y-85560000D03*
%TO.P,U1,7,NC*%
%TO.N,unconnected-(U1-NC-Pad7)*%
X76075000Y-86360000D03*
%TO.P,U1,8,EN*%
%TO.N,EN*%
X76075000Y-87160000D03*
%TO.P,U1,9,IO4*%
%TO.N,unconnected-(U1-IO4-Pad9)*%
X76075000Y-87960000D03*
%TO.P,U1,10,IO5*%
%TO.N,unconnected-(U1-IO5-Pad10)*%
X76075000Y-88760000D03*
%TO.P,U1,11,GND*%
%TO.N,GND*%
X76075000Y-89560000D03*
D25*
%TO.P,U1,12,IO0*%
%TO.N,unconnected-(U1-IO0-Pad12)*%
X77175000Y-90460000D03*
%TO.P,U1,13,IO1*%
%TO.N,unconnected-(U1-IO1-Pad13)*%
X77975000Y-90460000D03*
%TO.P,U1,14,GND*%
%TO.N,GND*%
X78775000Y-90460000D03*
%TO.P,U1,15,IO6*%
%TO.N,unconnected-(U1-IO6-Pad15)*%
X79575000Y-90460000D03*
%TO.P,U1,16,IO7*%
%TO.N,unconnected-(U1-IO7-Pad16)*%
X80375000Y-90460000D03*
%TO.P,U1,17,IO12*%
%TO.N,JTAG_DM*%
X81175000Y-90460000D03*
%TO.P,U1,18,IO13*%
%TO.N,JTAG_DP*%
X81975000Y-90460000D03*
%TO.P,U1,19,IO14*%
%TO.N,LED_CTRL*%
X82775000Y-90460000D03*
%TO.P,U1,20,IO15*%
%TO.N,unconnected-(U1-IO15-Pad20)*%
X83575000Y-90460000D03*
%TO.P,U1,21,NC*%
%TO.N,unconnected-(U1-NC-Pad21)*%
X84375000Y-90460000D03*
%TO.P,U1,22,IO8*%
%TO.N,IO8*%
X85175000Y-90460000D03*
%TO.P,U1,23,IO9*%
%TO.N,IO9{slash}BOOT*%
X85975000Y-90460000D03*
%TO.P,U1,24,IO18*%
%TO.N,unconnected-(U1-IO18-Pad24)*%
X86775000Y-90460000D03*
D24*
%TO.P,U1,25,IO19*%
%TO.N,unconnected-(U1-IO19-Pad25)*%
X87875000Y-89560000D03*
%TO.P,U1,26,IO20*%
%TO.N,MOTOR_IN1*%
X87875000Y-88760000D03*
%TO.P,U1,27,IO21*%
%TO.N,MOTOR_IN2*%
X87875000Y-87960000D03*
%TO.P,U1,28,IO22*%
%TO.N,unconnected-(U1-IO22-Pad28)*%
X87875000Y-87160000D03*
%TO.P,U1,29,IO23*%
%TO.N,unconnected-(U1-IO23-Pad29)*%
X87875000Y-86360000D03*
%TO.P,U1,30,RXD0*%
%TO.N,UART_RXD*%
X87875000Y-85560000D03*
%TO.P,U1,31,TXD0*%
%TO.N,UART_TXD*%
X87875000Y-84760000D03*
%TO.P,U1,32,NC*%
%TO.N,unconnected-(U1-NC-Pad32)*%
X87875000Y-83960000D03*
%TO.P,U1,33,NC*%
%TO.N,unconnected-(U1-NC-Pad33)*%
X87875000Y-83160000D03*
%TO.P,U1,34,NC*%
%TO.N,unconnected-(U1-NC-Pad34)*%
X87875000Y-82360000D03*
%TO.P,U1,35,NC*%
%TO.N,unconnected-(U1-NC-Pad35)*%
X87875000Y-81560000D03*
D25*
%TO.P,U1,36,GND*%
%TO.N,GND*%
X86775000Y-80660000D03*
%TO.P,U1,37,GND*%
X85975000Y-80660000D03*
%TO.P,U1,38,GND*%
X85175000Y-80660000D03*
%TO.P,U1,39,GND*%
X84375000Y-80660000D03*
%TO.P,U1,40,GND*%
X83575000Y-80660000D03*
%TO.P,U1,41,GND*%
X82775000Y-80660000D03*
%TO.P,U1,42,GND*%
X81975000Y-80660000D03*
%TO.P,U1,43,GND*%
X81175000Y-80660000D03*
%TO.P,U1,44,GND*%
X80375000Y-80660000D03*
%TO.P,U1,45,GND*%
X79575000Y-80660000D03*
%TO.P,U1,46,GND*%
X78775000Y-80660000D03*
%TO.P,U1,47,GND*%
X77975000Y-80660000D03*
%TO.P,U1,48,GND*%
X77175000Y-80660000D03*
D26*
%TO.P,U1,49,GND*%
X80000000Y-83585000D03*
D27*
X80000000Y-85560000D03*
X80000000Y-87535000D03*
X81975000Y-83585000D03*
X81975000Y-85560000D03*
X81975000Y-87535000D03*
X83950000Y-83585000D03*
X83950000Y-85560000D03*
X83950000Y-87535000D03*
D28*
%TO.P,U1,50,GND*%
X87925000Y-80610000D03*
%TO.P,U1,51,GND*%
X87925000Y-90510000D03*
%TO.P,U1,52,GND*%
X76025000Y-90510000D03*
%TO.P,U1,53,GND*%
X76025000Y-80610000D03*
%TD*%
D29*
%TO.P,J4,1,Pin_1*%
%TO.N,Net-(J4-Pin_1)*%
X95395000Y-93930000D03*
D30*
%TO.P,J4,2,Pin_2*%
%TO.N,Net-(J4-Pin_2)*%
X92855000Y-93930000D03*
%TD*%
D21*
%TO.P,R11,1*%
%TO.N,CC1*%
X75040000Y-91950000D03*
%TO.P,R11,2*%
%TO.N,GND*%
X75040000Y-92970000D03*
%TD*%
D20*
%TO.P,U3,1,VDD*%
%TO.N,Net-(U3-VDD)*%
X67890000Y-94070000D03*
%TO.P,U3,2,GND*%
%TO.N,GND*%
X67890000Y-95020000D03*
%TO.P,U3,3,PG*%
%TO.N,unconnected-(U3-PG-Pad3)*%
X67890000Y-95970000D03*
%TO.P,U3,4,CC1*%
%TO.N,CC1*%
X70165000Y-95970000D03*
%TO.P,U3,5,CC2*%
%TO.N,CC2*%
X70165000Y-95020000D03*
%TO.P,U3,6,CFG*%
%TO.N,Net-(U3-CFG)*%
X70165000Y-94070000D03*
%TD*%
D31*
%TO.P,C4,1*%
%TO.N,+12V*%
X51745000Y-101900000D03*
%TO.P,C4,2*%
%TO.N,GND*%
X53295000Y-101900000D03*
%TD*%
D32*
%TO.P,C9,1*%
%TO.N,+12V*%
X60840000Y-101230000D03*
%TO.P,C9,2*%
%TO.N,GND*%
X60840000Y-94990000D03*
%TD*%
D33*
%TO.P,Q1,1,G*%
%TO.N,LED_CTRL*%
X65962500Y-97800000D03*
%TO.P,Q1,2,S*%
%TO.N,GND*%
X65962500Y-99700000D03*
%TO.P,Q1,3,D*%
%TO.N,Net-(J1-Pin_1)*%
X67837500Y-98750000D03*
%TD*%
D34*
%TO.P,C1,1*%
%TO.N,+3V3*%
X74290000Y-82700000D03*
%TO.P,C1,2*%
%TO.N,GND*%
X73330000Y-82700000D03*
%TD*%
D13*
%TO.P,R3,1*%
%TO.N,Net-(SW2-A)*%
X72560000Y-84760000D03*
%TO.P,R3,2*%
%TO.N,CLOSE_SW*%
X73580000Y-84760000D03*
%TD*%
D21*
%TO.P,R9,1*%
%TO.N,CC2*%
X82330000Y-91940000D03*
%TO.P,R9,2*%
%TO.N,GND*%
X82330000Y-92960000D03*
%TD*%
D35*
%TO.P,C7,1*%
%TO.N,+3V3*%
X50400000Y-98475000D03*
%TO.P,C7,2*%
%TO.N,GND*%
X50400000Y-96925000D03*
%TD*%
D21*
%TO.P,R7,1*%
%TO.N,+12V*%
X67830000Y-91530000D03*
%TO.P,R7,2*%
%TO.N,Net-(U3-VDD)*%
X67830000Y-92550000D03*
%TD*%
D36*
%TO.P,SW3,1,1*%
%TO.N,GND*%
X97610000Y-84500000D03*
X97610000Y-90500000D03*
%TO.P,SW3,2,2*%
%TO.N,IO9{slash}BOOT*%
X93860000Y-84500000D03*
X93860000Y-90500000D03*
%TD*%
D37*
%TO.P,C3,1*%
%TO.N,+3V3*%
X73185000Y-80950000D03*
%TO.P,C3,2*%
%TO.N,GND*%
X71635000Y-80950000D03*
%TD*%
D38*
%TO.P,R4,1*%
%TO.N,GND*%
X64320000Y-98710000D03*
%TO.P,R4,2*%
%TO.N,LED_CTRL*%
X64320000Y-97690000D03*
%TD*%
D22*
%TO.P,C5,1*%
%TO.N,IO9{slash}BOOT*%
X87370000Y-92230000D03*
%TO.P,C5,2*%
%TO.N,GND*%
X88330000Y-92230000D03*
%TD*%
D39*
%TO.P,L1,1,1*%
%TO.N,Net-(U2-SW)*%
X54440000Y-95772500D03*
%TO.P,L1,2,2*%
%TO.N,+3V3*%
X52140000Y-95772500D03*
%TD*%
D13*
%TO.P,R2,1*%
%TO.N,Net-(SW1-A)*%
X67690000Y-90160000D03*
%TO.P,R2,2*%
%TO.N,OPEN_SW*%
X68710000Y-90160000D03*
%TD*%
D29*
%TO.P,J1,1,Pin_1*%
%TO.N,Net-(J1-Pin_1)*%
X71490000Y-98610000D03*
D30*
%TO.P,J1,2,Pin_2*%
%TO.N,+12V*%
X71490000Y-101150000D03*
%TD*%
D17*
%TO.P,SW1,1,A*%
%TO.N,Net-(SW1-A)*%
X63000000Y-90000000D03*
D18*
%TO.P,SW1,2,B*%
%TO.N,GND*%
X57920000Y-90000000D03*
%TO.P,SW1,3,C*%
%TO.N,+3V3*%
X52840000Y-90000000D03*
%TD*%
D40*
%TO.P,J3,A1,GND*%
%TO.N,GND*%
X75530000Y-94785000D03*
%TO.P,J3,A4,VBUS*%
%TO.N,+12V*%
X76330000Y-94785000D03*
D41*
%TO.P,J3,A5,CC1*%
%TO.N,CC1*%
X77530000Y-94785000D03*
%TO.P,J3,A6,D+*%
%TO.N,JTAG_DP*%
X78530000Y-94785000D03*
%TO.P,J3,A7,D-*%
%TO.N,JTAG_DM*%
X79030000Y-94785000D03*
%TO.P,J3,A8,SBU1*%
%TO.N,unconnected-(J3-SBU1-PadA8)*%
X80030000Y-94785000D03*
D40*
%TO.P,J3,A9,VBUS*%
%TO.N,+12V*%
X81230000Y-94785000D03*
%TO.P,J3,A12,GND*%
%TO.N,GND*%
X82030000Y-94785000D03*
%TO.P,J3,B1,GND*%
X82030000Y-94785000D03*
%TO.P,J3,B4,VBUS*%
%TO.N,+12V*%
X81230000Y-94785000D03*
D41*
%TO.P,J3,B5,CC2*%
%TO.N,CC2*%
X80530000Y-94785000D03*
%TO.P,J3,B6,D+*%
%TO.N,JTAG_DP*%
X79530000Y-94785000D03*
%TO.P,J3,B7,D-*%
%TO.N,JTAG_DM*%
X78030000Y-94785000D03*
%TO.P,J3,B8,SBU2*%
%TO.N,unconnected-(J3-SBU2-PadB8)*%
X77030000Y-94785000D03*
D40*
%TO.P,J3,B9,VBUS*%
%TO.N,+12V*%
X76330000Y-94785000D03*
%TO.P,J3,B12,GND*%
%TO.N,GND*%
X75530000Y-94785000D03*
D42*
%TO.P,J3,S1,SHIELD*%
X74460000Y-95700000D03*
D43*
X74460000Y-99880000D03*
D42*
X83100000Y-95700000D03*
D43*
X83100000Y-99880000D03*
%TD*%
D14*
%TO.P,C2,1*%
%TO.N,EN*%
X74340000Y-88400000D03*
%TO.P,C2,2*%
%TO.N,GND*%
X74340000Y-89360000D03*
%TD*%
D44*
%TO.N,GND*%
X96400000Y-84600000D03*
X55500000Y-96000000D03*
X80200000Y-88900000D03*
X73920000Y-92180000D03*
X67400000Y-99800000D03*
X60800000Y-92700000D03*
X65181250Y-98918750D03*
X98500000Y-96300000D03*
X88600000Y-95400000D03*
X86700000Y-88300000D03*
X55500000Y-95200000D03*
X97500000Y-99300000D03*
X86700000Y-81800000D03*
X89300000Y-80600000D03*
X53300000Y-100800000D03*
X83000000Y-88700000D03*
X53300000Y-95900000D03*
X56700000Y-97500000D03*
X51600000Y-82900000D03*
X53300000Y-96800000D03*
X54300000Y-93700000D03*
X53300000Y-93700000D03*
X55500000Y-96700000D03*
X49500000Y-95900000D03*
X56000000Y-100500000D03*
X97700000Y-94800000D03*
X96600000Y-101300000D03*
X97700000Y-95800000D03*
X78100000Y-92000000D03*
X86800000Y-89300000D03*
X95400000Y-100700000D03*
X96300000Y-90500000D03*
X87800000Y-91370000D03*
X92600000Y-87500000D03*
X78800000Y-88900000D03*
X68800000Y-100400000D03*
X87300000Y-95400000D03*
X98500000Y-98900000D03*
X79600000Y-81900000D03*
X89700000Y-95400000D03*
X50900000Y-93900000D03*
X82000000Y-81800000D03*
X51100000Y-95800000D03*
X77500000Y-84100000D03*
X81500000Y-88900000D03*
X71300000Y-83500000D03*
X92500000Y-86100000D03*
X84600000Y-94300000D03*
X53300000Y-94900000D03*
X72000000Y-88200000D03*
X77300000Y-88800000D03*
X50700000Y-100600000D03*
X84500000Y-81800000D03*
X69200000Y-97500000D03*
X98600000Y-97700000D03*
X69700000Y-90500000D03*
X86700000Y-86000000D03*
X86700000Y-83800000D03*
X50700000Y-99800000D03*
X72200000Y-93800000D03*
X71500000Y-86100000D03*
X64700000Y-96500000D03*
X55500000Y-97500000D03*
X84500000Y-89300000D03*
X57100000Y-99200000D03*
X97700000Y-91800000D03*
X69400000Y-87400000D03*
X71700000Y-89900000D03*
X60900000Y-96800000D03*
X77500000Y-81900000D03*
X66817500Y-95117500D03*
X94000000Y-96000000D03*
X97700000Y-83200000D03*
X77400000Y-86200000D03*
X58000000Y-94900000D03*
X63600000Y-95000000D03*
X50400000Y-95400000D03*
X74600000Y-80900000D03*
X79000000Y-100600000D03*
X55500000Y-94400000D03*
X66400000Y-98800000D03*
%TO.N,+3V3*%
X52140000Y-91700000D03*
X75100000Y-86200000D03*
X84880000Y-93000000D03*
X84660000Y-100630000D03*
X52140000Y-92700000D03*
X74002500Y-81767500D03*
X52140000Y-93700000D03*
X75150000Y-83160000D03*
%TO.N,EN*%
X75100000Y-87160000D03*
%TO.N,CC1*%
X77540000Y-96460000D03*
X77450000Y-97650000D03*
%TO.N,JTAG_DM*%
X78500000Y-96040000D03*
D45*
%TO.N,+12V*%
X76210000Y-93260000D03*
D44*
X69910000Y-91580000D03*
D45*
X50800000Y-101950000D03*
X58430000Y-101870000D03*
X92100000Y-102020000D03*
X81250000Y-93390000D03*
D44*
%TO.N,LED_CTRL*%
X67260000Y-97720000D03*
X82770000Y-89730000D03*
%TO.N,MOTOR_IN1*%
X89130000Y-89900000D03*
X84630000Y-99290000D03*
%TO.N,MOTOR_IN2*%
X84700000Y-98030000D03*
X89450000Y-89150000D03*
%TD*%
D46*
%TO.N,GND*%
X66817500Y-95117500D02*
X66866250Y-95068750D01*
D47*
X75427129Y-94887870D02*
X74669800Y-95645199D01*
D46*
X86245000Y-96745000D02*
X89165000Y-96745000D01*
D47*
X82132870Y-94887870D02*
X82890199Y-95645199D01*
D46*
X75757500Y-90510000D02*
X75989644Y-90510000D01*
D47*
X83022500Y-95700000D02*
X83100000Y-95700000D01*
D46*
X76075000Y-89560000D02*
X76075000Y-90424644D01*
D48*
X65181250Y-98918750D02*
X65076875Y-98814375D01*
D46*
X66983942Y-95020000D02*
X67890000Y-95020000D01*
X89700000Y-95400000D02*
X89770000Y-95470000D01*
X66817500Y-95117500D02*
X66090000Y-95845000D01*
D47*
X74537500Y-95700000D02*
X74460000Y-95700000D01*
D46*
X87800000Y-91370000D02*
X88213327Y-91783327D01*
D48*
X64824891Y-98710000D02*
X64320000Y-98710000D01*
X65181250Y-98918750D02*
X65962500Y-99700000D01*
D46*
X75300848Y-90320848D02*
X74340000Y-89360000D01*
X87925000Y-91156611D02*
X87925000Y-90510000D01*
D47*
X75454000Y-94823000D02*
X75454000Y-94785000D01*
D46*
X87800000Y-91370000D02*
X87862500Y-91307500D01*
X88600000Y-95400000D02*
X88470000Y-95530000D01*
X78775000Y-90140416D02*
X78775000Y-90460000D01*
X89650000Y-99830000D02*
X89890000Y-100070000D01*
D47*
X82106000Y-94823000D02*
X82106000Y-94785000D01*
D46*
X97610000Y-84500000D02*
X97610000Y-90500000D01*
D48*
X88167500Y-97047500D02*
X88470000Y-97350000D01*
D46*
X89650000Y-99830000D02*
X89120000Y-99300000D01*
D48*
X87437200Y-96745000D02*
X86245000Y-96745000D01*
D46*
X78194583Y-89560000D02*
X76075000Y-89560000D01*
X88470000Y-98650000D02*
X88470000Y-96570000D01*
X88600000Y-95400000D02*
X88600000Y-95500000D01*
D48*
X90010000Y-100359705D02*
X90010000Y-102030000D01*
D46*
X89770000Y-97350000D02*
X89770000Y-98650000D01*
X88330000Y-92065000D02*
X88330000Y-92230000D01*
D47*
X75454000Y-94823000D02*
G75*
G02*
X75427121Y-94887862I-91700J0D01*
G01*
D48*
X88167500Y-97047500D02*
G75*
G03*
X87437200Y-96745000I-730300J-730300D01*
G01*
D47*
X82890199Y-95645199D02*
G75*
G03*
X83022500Y-95700000I132301J132299D01*
G01*
D46*
X78605000Y-89730000D02*
G75*
G03*
X78194583Y-89560007I-410400J-410400D01*
G01*
X75300848Y-90320848D02*
G75*
G03*
X75757500Y-90510001I456652J456648D01*
G01*
X66983942Y-95020000D02*
G75*
G03*
X66866237Y-95068737I-42J-166400D01*
G01*
X88213327Y-91783327D02*
G75*
G02*
X88330013Y-92065000I-281627J-281673D01*
G01*
D47*
X74669800Y-95645199D02*
G75*
G02*
X74537500Y-95700000I-132300J132299D01*
G01*
D46*
X78605000Y-89730000D02*
G75*
G02*
X78774993Y-90140416I-410400J-410400D01*
G01*
D47*
X82106000Y-94823000D02*
G75*
G03*
X82132878Y-94887862I91700J0D01*
G01*
D46*
X76075000Y-90424644D02*
G75*
G02*
X76049987Y-90484987I-85400J44D01*
G01*
X76050000Y-90485000D02*
G75*
G02*
X75989644Y-90510018I-60400J60400D01*
G01*
D48*
X89890000Y-100070000D02*
G75*
G02*
X90009998Y-100359705I-289700J-289700D01*
G01*
D46*
X87925000Y-91156611D02*
G75*
G02*
X87862497Y-91307497I-213400J11D01*
G01*
D48*
X65076875Y-98814375D02*
G75*
G03*
X64824891Y-98710018I-251975J-252025D01*
G01*
D46*
%TO.N,+3V3*%
X83851299Y-92731299D02*
X83330000Y-92210000D01*
D49*
X74290000Y-82700000D02*
X74608578Y-83018578D01*
D46*
X74741507Y-86410000D02*
X74340000Y-86410000D01*
D48*
X84788033Y-100555000D02*
X86245000Y-100555000D01*
X52150000Y-98462500D02*
X52151250Y-98461250D01*
X74146250Y-81911250D02*
X74002500Y-81767500D01*
D46*
X75100000Y-86200000D02*
X74995000Y-86305000D01*
D50*
X52140000Y-93700000D02*
X52140000Y-92700000D01*
X52140000Y-91700000D02*
X52140000Y-92700000D01*
D46*
X84500000Y-93000000D02*
X84880000Y-93000000D01*
D48*
X74002500Y-81767500D02*
X73185000Y-80950000D01*
X74290000Y-82258293D02*
X74290000Y-82700000D01*
D46*
X84905000Y-93000000D02*
X84880000Y-93000000D01*
X84947677Y-92982322D02*
X85182114Y-92747885D01*
D49*
X75150000Y-83160000D02*
X74950000Y-83160000D01*
D51*
X52140000Y-95772500D02*
X52140000Y-98411590D01*
D48*
X52119822Y-98475000D02*
X50400000Y-98475000D01*
D47*
X52140000Y-95772500D02*
X52140000Y-93700000D01*
D48*
X84660000Y-100630000D02*
X84697500Y-100592500D01*
D49*
X75150000Y-83160000D02*
X76075000Y-83160000D01*
D46*
X85320000Y-92415000D02*
X85320000Y-92220000D01*
D50*
X52490000Y-90350000D02*
X52840000Y-90000000D01*
X52140000Y-91700000D02*
X52140000Y-91194974D01*
D51*
X52140000Y-98411590D02*
G75*
G03*
X52151247Y-98438753I38400J-10D01*
G01*
D46*
X74995000Y-86305000D02*
G75*
G02*
X74741507Y-86410003I-253500J253500D01*
G01*
X84947677Y-92982322D02*
G75*
G02*
X84905000Y-92999986I-42677J42722D01*
G01*
D51*
X52151250Y-98438750D02*
G75*
G02*
X52151250Y-98461250I-11250J-11250D01*
G01*
D46*
X83851299Y-92731299D02*
G75*
G03*
X84500000Y-93000000I648701J648699D01*
G01*
D48*
X52150000Y-98462500D02*
G75*
G02*
X52119822Y-98475009I-30200J30200D01*
G01*
D49*
X74608578Y-83018578D02*
G75*
G03*
X74950000Y-83160013I341422J341378D01*
G01*
D46*
X85320000Y-92415000D02*
G75*
G02*
X85182120Y-92747891I-470800J0D01*
G01*
D50*
X52490000Y-90350000D02*
G75*
G03*
X52139990Y-91194974I845000J-845000D01*
G01*
D48*
X74146250Y-81911250D02*
G75*
G02*
X74290003Y-82258293I-347050J-347050D01*
G01*
X84788033Y-100555000D02*
G75*
G03*
X84697490Y-100592490I-33J-128000D01*
G01*
D46*
%TO.N,EN*%
X75100000Y-87160000D02*
X76075000Y-87160000D01*
X75100000Y-87160000D02*
X74800918Y-87160000D01*
X74340000Y-87620918D02*
X74340000Y-88400000D01*
X74800918Y-87160000D02*
G75*
G03*
X74474994Y-87294994I-18J-460900D01*
G01*
X74475000Y-87295000D02*
G75*
G03*
X74340008Y-87620918I325900J-325900D01*
G01*
%TO.N,IO9{slash}BOOT*%
X92917704Y-89557704D02*
X93658232Y-90298232D01*
X93860000Y-90500000D02*
X93860000Y-84500000D01*
X88357451Y-93200000D02*
X87813847Y-93200000D01*
X90074021Y-90170978D02*
X91025199Y-89219800D01*
X87377071Y-92230000D02*
X87440000Y-92230000D01*
X87370000Y-92237071D02*
X87370000Y-92756152D01*
X86157500Y-92037500D02*
X86340000Y-92220000D01*
X87352928Y-92220000D02*
X87105000Y-92220000D01*
X87105000Y-92220000D02*
X86595000Y-92220000D01*
X89450000Y-92107451D02*
X89450000Y-91677500D01*
X91002500Y-89010000D02*
X90660000Y-89010000D01*
X85975000Y-91596906D02*
X85975000Y-90460000D01*
X93662500Y-90300000D02*
X93665000Y-90300000D01*
X91607500Y-89015000D02*
X90840000Y-89015000D01*
X86595000Y-92220000D02*
X86340000Y-92220000D01*
X87365000Y-92225000D02*
G75*
G03*
X87377071Y-92230012I12100J12100D01*
G01*
X87365000Y-92225000D02*
G75*
G03*
X87352928Y-92219988I-12100J-12100D01*
G01*
X87370000Y-92237071D02*
G75*
G03*
X87364992Y-92225008I-17100J-29D01*
G01*
X87370000Y-92756152D02*
G75*
G03*
X87499986Y-93070014I443800J-48D01*
G01*
X85975000Y-91596906D02*
G75*
G03*
X86157502Y-92037498I623100J6D01*
G01*
X92917704Y-89557704D02*
G75*
G03*
X91607500Y-89014997I-1310204J-1310196D01*
G01*
X89450000Y-92107451D02*
G75*
G02*
X89129985Y-92879985I-1092600J51D01*
G01*
X90074021Y-90170978D02*
G75*
G03*
X89449987Y-91677500I1506479J-1506522D01*
G01*
X87500000Y-93070000D02*
G75*
G03*
X87813847Y-93199980I313800J313800D01*
G01*
X87377071Y-92230000D02*
G75*
G03*
X87370000Y-92237071I29J-7100D01*
G01*
X91080000Y-89087500D02*
G75*
G03*
X91002500Y-89010000I-77500J0D01*
G01*
X89130000Y-92880000D02*
G75*
G02*
X88357451Y-93200021I-772600J772600D01*
G01*
X93658232Y-90298232D02*
G75*
G03*
X93662500Y-90300010I4268J4232D01*
G01*
X91080000Y-89087500D02*
G75*
G02*
X91025199Y-89219800I-187100J0D01*
G01*
%TO.N,Net-(U3-VDD)*%
X68051923Y-92680000D02*
X69380000Y-92680000D01*
X66474099Y-94070000D02*
X67847573Y-94070000D01*
X66202500Y-94182500D02*
X66090000Y-94295000D01*
X67830000Y-92641923D02*
X67830000Y-93967573D01*
X67860000Y-94040000D02*
G75*
G02*
X67847573Y-94069936I-12400J-12400D01*
G01*
X66474099Y-94070000D02*
G75*
G03*
X66202500Y-94182500I1J-384100D01*
G01*
X67895000Y-92615000D02*
G75*
G03*
X67830058Y-92641923I-26900J-26900D01*
G01*
X67895000Y-92615000D02*
G75*
G03*
X68051923Y-92679990I156900J156900D01*
G01*
X67830000Y-93967573D02*
G75*
G03*
X67859992Y-94040008I102400J-27D01*
G01*
%TO.N,JTAG_DP*%
X79285000Y-93615000D02*
X79405000Y-93735000D01*
X78530000Y-94166274D02*
X78530000Y-94785000D01*
X79262928Y-93620000D02*
X79060000Y-93620000D01*
X81975000Y-90607500D02*
X81975000Y-90477677D01*
X78689999Y-93779999D02*
X78701507Y-93768492D01*
X81987500Y-90472500D02*
X82000000Y-90485000D01*
X79530000Y-94036776D02*
X79530000Y-94785000D01*
X79336568Y-93393431D02*
X81870701Y-90859298D01*
X79280000Y-93530000D02*
X79280000Y-93602928D01*
X79405000Y-93735000D02*
G75*
G02*
X79530010Y-94036776I-301800J-301800D01*
G01*
X79275000Y-93615000D02*
G75*
G03*
X79280012Y-93602928I-12100J12100D01*
G01*
X79275000Y-93615000D02*
G75*
G02*
X79262928Y-93620012I-12100J12100D01*
G01*
X79060000Y-93620000D02*
G75*
G03*
X78701504Y-93768489I0J-507000D01*
G01*
X79280000Y-93602928D02*
G75*
G03*
X79285008Y-93614992I17100J28D01*
G01*
X79336568Y-93393431D02*
G75*
G03*
X79279988Y-93530000I136532J-136569D01*
G01*
X81987500Y-90472500D02*
G75*
G03*
X81974946Y-90477677I-5200J-5200D01*
G01*
X78689999Y-93779999D02*
G75*
G03*
X78529988Y-94166274I386301J-386301D01*
G01*
X81975000Y-90607500D02*
G75*
G02*
X81870702Y-90859299I-356100J0D01*
G01*
X79285000Y-93615000D02*
G75*
G03*
X79275000Y-93615000I-5000J-4997D01*
G01*
%TO.N,CC2*%
X75312203Y-97300000D02*
X76857426Y-97300000D01*
X80470000Y-93903172D02*
X80470000Y-94682573D01*
X77366825Y-97089000D02*
X78196385Y-97089000D01*
X81044999Y-92514999D02*
X81368977Y-92191022D01*
X70792500Y-95020000D02*
X70165000Y-95020000D01*
X81975000Y-91940000D02*
X82330000Y-91940000D01*
X80530000Y-94827426D02*
X80530000Y-95253500D01*
X71863709Y-95463709D02*
X72560000Y-96160000D01*
X80198720Y-96053279D02*
X79846500Y-96405500D01*
X77366825Y-97089000D02*
G75*
G03*
X77112113Y-97194487I-25J-360200D01*
G01*
X79846500Y-96405500D02*
G75*
G02*
X78196385Y-97088994I-1650100J1650100D01*
G01*
X72560000Y-96160000D02*
G75*
G03*
X75312203Y-97299999I2752200J2752200D01*
G01*
X77112126Y-97194500D02*
G75*
G02*
X76857426Y-97300019I-254726J254700D01*
G01*
X81044999Y-92514999D02*
G75*
G03*
X80469987Y-93903172I1388201J-1388201D01*
G01*
X71863709Y-95463709D02*
G75*
G03*
X70792500Y-95019994I-1071209J-1071191D01*
G01*
X81975000Y-91940000D02*
G75*
G03*
X81368987Y-92191032I0J-857000D01*
G01*
X80530000Y-95253500D02*
G75*
G02*
X80198729Y-96053288I-1131100J0D01*
G01*
X80470000Y-94682573D02*
G75*
G03*
X80499992Y-94755008I102400J-27D01*
G01*
X80500000Y-94755000D02*
G75*
G02*
X80529989Y-94827426I-72400J-72400D01*
G01*
%TO.N,CC1*%
X77540000Y-96460000D02*
X77540000Y-96267071D01*
X77530000Y-94022500D02*
X77530000Y-94785000D01*
X70975000Y-95970000D02*
X70165000Y-95970000D01*
X76990831Y-92720831D02*
X76637193Y-92367193D01*
X72357756Y-96542756D02*
X72650000Y-96835000D01*
X74738294Y-97700000D02*
X77364644Y-97700000D01*
X75630000Y-91950000D02*
X75040000Y-91950000D01*
X77530000Y-96242928D02*
X77530000Y-94785000D01*
X77450000Y-97650000D02*
X77425000Y-97675000D01*
X72650000Y-96835000D02*
G75*
G03*
X74738294Y-97700002I2088300J2088300D01*
G01*
X77535000Y-96255000D02*
G75*
G02*
X77540012Y-96267071I-12100J-12100D01*
G01*
X76990831Y-92720831D02*
G75*
G02*
X77530011Y-94022500I-1301631J-1301669D01*
G01*
X76637193Y-92367193D02*
G75*
G03*
X75630000Y-91950004I-1007193J-1007207D01*
G01*
X77425000Y-97675000D02*
G75*
G02*
X77364644Y-97700018I-60400J60400D01*
G01*
X72357756Y-96542756D02*
G75*
G03*
X70975000Y-95969996I-1382756J-1382744D01*
G01*
X77530000Y-96242928D02*
G75*
G03*
X77535008Y-96254992I17100J28D01*
G01*
%TO.N,JTAG_DM*%
X78585000Y-96040000D02*
X78500000Y-96040000D01*
X78424000Y-96040000D02*
X78500000Y-96040000D01*
X78730104Y-95979895D02*
X78850000Y-95860000D01*
X79030000Y-95425441D02*
X79030000Y-94785000D01*
X78189000Y-95881000D02*
X78294259Y-95986259D01*
X81175000Y-90577500D02*
X81175000Y-90460000D01*
X78030000Y-94312500D02*
X78030000Y-94785000D01*
X78030000Y-95497140D02*
X78030000Y-94785000D01*
X81091914Y-90778085D02*
X78364107Y-93505892D01*
X81175000Y-90577500D02*
G75*
G02*
X81091921Y-90778092I-283700J0D01*
G01*
X78364107Y-93505892D02*
G75*
G03*
X78029995Y-94312500I806593J-806608D01*
G01*
X78030000Y-95497140D02*
G75*
G03*
X78189012Y-95880988I542900J40D01*
G01*
X79030000Y-95425441D02*
G75*
G02*
X78849988Y-95859988I-614600J41D01*
G01*
X78730104Y-95979895D02*
G75*
G02*
X78585000Y-96040002I-145104J145095D01*
G01*
X78294259Y-95986259D02*
G75*
G03*
X78424000Y-96039994I129741J129759D01*
G01*
D48*
%TO.N,+12V*%
X76270000Y-93320000D02*
X76210000Y-93260000D01*
X81250000Y-93390000D02*
X81250000Y-93825857D01*
X92047500Y-100607500D02*
X91995000Y-100555000D01*
X52162500Y-100350000D02*
X52162500Y-101187282D01*
X92082928Y-102030000D02*
X90970000Y-102030000D01*
D46*
X69824644Y-91530000D02*
X67830000Y-91530000D01*
D48*
X92100000Y-102020000D02*
X92095000Y-102025000D01*
X50825000Y-101925000D02*
X50800000Y-101950000D01*
D47*
X60515000Y-101555000D02*
X60800000Y-101270000D01*
D48*
X92100000Y-102020000D02*
X92045000Y-101965000D01*
X92100000Y-100734246D02*
X92100000Y-102020000D01*
X76330000Y-93464852D02*
X76330000Y-94785000D01*
D47*
X60880000Y-101190000D02*
X60920000Y-101150000D01*
D48*
X50885355Y-101900000D02*
X51449782Y-101900000D01*
D47*
X60880000Y-101190000D02*
X60800000Y-101270000D01*
D48*
X81250000Y-93390000D02*
X81400000Y-93390000D01*
D46*
X69910000Y-91580000D02*
X69885000Y-91555000D01*
D47*
X58436464Y-101876464D02*
X58430000Y-101870000D01*
X58445000Y-101880000D02*
X59730380Y-101880000D01*
D51*
X52162500Y-100350000D02*
X52162500Y-99400000D01*
D48*
X81230000Y-93874142D02*
X81230000Y-94785000D01*
D47*
X58445000Y-101880000D02*
X58450000Y-101880000D01*
D48*
X92047500Y-100607500D02*
G75*
G02*
X92099952Y-100734246I-126800J-126700D01*
G01*
D47*
X58445000Y-101880000D02*
X58445000Y-101880000D01*
D48*
X76270000Y-93320000D02*
G75*
G02*
X76330020Y-93464852I-144900J-144900D01*
G01*
X50885355Y-101900000D02*
G75*
G03*
X50825013Y-101925013I45J-85400D01*
G01*
D47*
X58445000Y-101880000D02*
G75*
G02*
X58436458Y-101876470I0J12100D01*
G01*
D48*
X92095000Y-102025000D02*
G75*
G02*
X92082928Y-102030012I-12100J12100D01*
G01*
X51953750Y-101691250D02*
G75*
G02*
X51449782Y-101899993I-503950J503950D01*
G01*
X81250000Y-93825857D02*
G75*
G02*
X81240012Y-93850012I-34100J-43D01*
G01*
X81240000Y-93850000D02*
G75*
G03*
X81230017Y-93874142I24100J-24100D01*
G01*
D47*
X60515000Y-101555000D02*
G75*
G02*
X59730380Y-101879992I-784600J784600D01*
G01*
D48*
X52162500Y-101187282D02*
G75*
G02*
X51953755Y-101691255I-712700J-18D01*
G01*
D47*
X58436464Y-101876464D02*
G75*
G03*
X58445000Y-101879992I8536J8564D01*
G01*
D46*
X69885000Y-91555000D02*
G75*
G03*
X69824644Y-91529982I-60400J-60400D01*
G01*
D48*
%TO.N,Net-(U2-SW)*%
X53836671Y-99353726D02*
X53911817Y-99376526D01*
X54475185Y-99372900D02*
X54484445Y-99372500D01*
X53324000Y-98046900D02*
X53324000Y-98048498D01*
X54311878Y-96938955D02*
X54261942Y-97036956D01*
X54458073Y-99379978D02*
X54475185Y-99372900D01*
X53276000Y-98096498D02*
X53276000Y-99046000D01*
X54444413Y-99392498D02*
X54451250Y-99386250D01*
X54440000Y-95772500D02*
X54440000Y-96352500D01*
X54139819Y-97219719D02*
X54068385Y-97303355D01*
X54427307Y-99399559D02*
X54444413Y-99392498D01*
X53800397Y-99390000D02*
X53836671Y-99353726D01*
X53988836Y-99391851D02*
X54066986Y-99399553D01*
X54066986Y-99399553D02*
X54106250Y-99400000D01*
X53620000Y-99390000D02*
X53800397Y-99390000D01*
X53911817Y-99376526D02*
X53988836Y-99391851D01*
X54484445Y-99372500D02*
X55970000Y-99372500D01*
X54430844Y-96517146D02*
X54413637Y-96625781D01*
X54418054Y-99400000D02*
X54427307Y-99399559D01*
X54451250Y-99386250D02*
X54458073Y-99379978D01*
X54413637Y-96625781D02*
X54387960Y-96732732D01*
X54353970Y-96837338D02*
X54311878Y-96938955D01*
X54439474Y-96407495D02*
X54430844Y-96517146D01*
X54106250Y-99400000D02*
X54418054Y-99400000D01*
X54068385Y-97303355D02*
X54029877Y-97342621D01*
X53671900Y-97699000D02*
X53324000Y-98046900D01*
X53276000Y-99046000D02*
X53620000Y-99390000D01*
X53324000Y-98048498D02*
X53276000Y-98096498D01*
X54261942Y-97036956D02*
X54204471Y-97130737D01*
X54204471Y-97130737D02*
X54139819Y-97219719D01*
X54440000Y-96352500D02*
X54439474Y-96407495D01*
X54387960Y-96732732D02*
X54353970Y-96837338D01*
X53673498Y-97699000D02*
X53671900Y-97699000D01*
X54029877Y-97342621D02*
X53673498Y-97699000D01*
D46*
%TO.N,LED_CTRL*%
X82770000Y-89730000D02*
X82772500Y-89732500D01*
X65132218Y-97690000D02*
X64320000Y-97690000D01*
X67220000Y-97760000D02*
X67260000Y-97720000D01*
X66283750Y-97800000D02*
X65641250Y-97800000D01*
X65397781Y-97800000D02*
X65641250Y-97800000D01*
X67123431Y-97800000D02*
X66283750Y-97800000D01*
X82775000Y-89738535D02*
X82775000Y-90460000D01*
X65265000Y-97745000D02*
G75*
G03*
X65397781Y-97800008I132800J132800D01*
G01*
X65265000Y-97745000D02*
G75*
G03*
X65132218Y-97689992I-132800J-132800D01*
G01*
X67220000Y-97760000D02*
G75*
G02*
X67123431Y-97800013I-96600J96600D01*
G01*
X82772500Y-89732500D02*
G75*
G02*
X82774985Y-89738535I-6000J-6000D01*
G01*
%TO.N,IO8*%
X85175000Y-90922500D02*
X85175000Y-90460000D01*
X84847963Y-91712036D02*
X84350000Y-92210000D01*
X85175000Y-90922500D02*
G75*
G02*
X84847969Y-91712042I-1116600J0D01*
G01*
%TO.N,Net-(U3-CFG)*%
X70282500Y-93952500D02*
X70165000Y-94070000D01*
X70400000Y-93668829D02*
X70400000Y-92680000D01*
X70400000Y-93668829D02*
G75*
G02*
X70282491Y-93952491I-401200J29D01*
G01*
D51*
%TO.N,Net-(U4-ISEN)*%
X94318253Y-98015000D02*
X91995000Y-98015000D01*
X94445000Y-97962500D02*
X94497500Y-97910000D01*
X94445000Y-97962500D02*
G75*
G02*
X94318253Y-98015022I-126800J126800D01*
G01*
D46*
%TO.N,OPEN_SW*%
X72332424Y-86537575D02*
X68710000Y-90160000D01*
X74692500Y-85560000D02*
X76075000Y-85560000D01*
X74692500Y-85560000D02*
G75*
G03*
X72332435Y-86537586I0J-3337600D01*
G01*
%TO.N,CLOSE_SW*%
X73580000Y-84760000D02*
X76075000Y-84760000D01*
%TO.N,UART_TXD*%
X87994497Y-84830000D02*
X90203370Y-84830000D01*
X90957500Y-85200000D02*
X91080000Y-85200000D01*
X90650000Y-85015000D02*
X90748379Y-85113379D01*
X87910000Y-84795000D02*
X87875000Y-84760000D01*
X90650000Y-85015000D02*
G75*
G03*
X90203370Y-84830012I-446600J-446600D01*
G01*
X90748379Y-85113379D02*
G75*
G03*
X90957500Y-85200012I209121J209079D01*
G01*
X87910000Y-84795000D02*
G75*
G03*
X87994497Y-84830001I84500J84500D01*
G01*
%TO.N,MOTOR_IN1*%
X84630000Y-99290000D02*
X84632500Y-99287500D01*
X89130000Y-89900000D02*
X89130000Y-89765000D01*
X88067500Y-88760000D02*
X87875000Y-88760000D01*
X84638535Y-99285000D02*
X86245000Y-99285000D01*
X89034540Y-89534540D02*
X88396118Y-88896118D01*
X84638535Y-99285000D02*
G75*
G03*
X84632490Y-99287490I-35J-8500D01*
G01*
X89034540Y-89534540D02*
G75*
G02*
X89130006Y-89765000I-230440J-230460D01*
G01*
X88396118Y-88896118D02*
G75*
G03*
X88067500Y-88759989I-328618J-328582D01*
G01*
%TO.N,MOTOR_IN2*%
X86237500Y-98022500D02*
X86245000Y-98015000D01*
X89450000Y-89150000D02*
X88396118Y-88096118D01*
X88067500Y-87960000D02*
X87875000Y-87960000D01*
X84700000Y-98030000D02*
X86219393Y-98030000D01*
X88396118Y-88096118D02*
G75*
G03*
X88067500Y-87959989I-328618J-328582D01*
G01*
X86237500Y-98022500D02*
G75*
G02*
X86219393Y-98029997I-18100J18100D01*
G01*
%TO.N,UART_RXD*%
X91055000Y-86470000D02*
X91080000Y-86470000D01*
X89476532Y-85560000D02*
X87875000Y-85560000D01*
X90575000Y-86015000D02*
X91012322Y-86452322D01*
X90835000Y-86470000D02*
X90840000Y-86475000D01*
X90575000Y-86015000D02*
G75*
G03*
X89476532Y-85559986I-1098500J-1098500D01*
G01*
X91012322Y-86452322D02*
G75*
G03*
X91055000Y-86469987I42678J42722D01*
G01*
D48*
%TO.N,Net-(U2-BST)*%
X55905983Y-98450000D02*
X54437500Y-98450000D01*
X55951250Y-98431250D02*
X55970000Y-98412500D01*
X55951250Y-98431250D02*
G75*
G02*
X55905983Y-98449993I-45250J45250D01*
G01*
%TO.N,Net-(J1-Pin_1)*%
X71251005Y-98750000D02*
X67837500Y-98750000D01*
X71420000Y-98680000D02*
X71490000Y-98610000D01*
X71420000Y-98680000D02*
G75*
G02*
X71251005Y-98750002I-169000J169000D01*
G01*
D51*
%TO.N,Net-(J4-Pin_2)*%
X92425000Y-94360000D02*
X92855000Y-93930000D01*
X91995000Y-95398111D02*
X91995000Y-96745000D01*
X92425000Y-94360000D02*
G75*
G03*
X91995005Y-95398111I1038100J-1038100D01*
G01*
%TO.N,Net-(J4-Pin_1)*%
X95586000Y-94256057D02*
X95586000Y-95665684D01*
X94862815Y-99311000D02*
X92021000Y-99311000D01*
X95490500Y-94025500D02*
X95395000Y-93930000D01*
X95940000Y-96520315D02*
X95940000Y-98233815D01*
X95586000Y-95665684D02*
G75*
G03*
X95762995Y-96093005I604300J-16D01*
G01*
X95940000Y-98233815D02*
G75*
G02*
X95624495Y-98995495I-1077200J15D01*
G01*
X95624500Y-98995500D02*
G75*
G02*
X94862815Y-99311006I-761700J761700D01*
G01*
X95490500Y-94025500D02*
G75*
G02*
X95586018Y-94256057I-230600J-230600D01*
G01*
X95763000Y-96093000D02*
G75*
G02*
X95939993Y-96520315I-427300J-427300D01*
G01*
D46*
%TO.N,Net-(SW1-A)*%
X67416862Y-90000000D02*
X63000000Y-90000000D01*
X67610000Y-90080000D02*
X67670000Y-90140000D01*
X67670000Y-90180000D02*
X67650000Y-90200000D01*
X67610000Y-90080000D02*
G75*
G03*
X67416862Y-90000015I-193100J-193100D01*
G01*
X67670000Y-90140000D02*
G75*
G02*
X67670000Y-90180000I-20000J-20000D01*
G01*
%TO.N,Net-(SW2-A)*%
X58880000Y-84180000D02*
X58000000Y-83300000D01*
X72410000Y-84910000D02*
X72560000Y-84760000D01*
X72047867Y-85060000D02*
X61004507Y-85060000D01*
X72410000Y-84910000D02*
G75*
G02*
X72047867Y-85059987I-362100J362100D01*
G01*
X58880000Y-84180000D02*
G75*
G03*
X61004507Y-85059997I2124500J2124500D01*
G01*
%TD*%
%TA.AperFunction,Conductor*%
%TO.N,GND*%
G36*
X90912779Y-96194500D02*
G01*
X90850140Y-96194500D01*
X90850135Y-96194501D01*
X90825009Y-96197414D01*
X90722235Y-96242794D01*
X90642794Y-96322235D01*
X90597414Y-96425011D01*
X90594500Y-96450130D01*
X90594500Y-97039860D01*
X90594501Y-97039863D01*
X90597414Y-97064990D01*
X90622756Y-97122385D01*
X90642794Y-97167765D01*
X90722235Y-97247206D01*
X90817877Y-97289436D01*
X90863471Y-97330234D01*
X90876377Y-97390043D01*
X90851664Y-97446015D01*
X90817877Y-97470563D01*
X90722236Y-97512793D01*
X90642794Y-97592235D01*
X90597414Y-97695011D01*
X90594500Y-97720130D01*
X90594500Y-98309860D01*
X90594501Y-98309863D01*
X90597414Y-98334990D01*
X90622756Y-98392385D01*
X90642794Y-98437765D01*
X90722235Y-98517206D01*
X90817877Y-98559436D01*
X90863471Y-98600234D01*
X90876377Y-98660043D01*
X90851664Y-98716015D01*
X90817877Y-98740563D01*
X90722236Y-98782793D01*
X90642794Y-98862235D01*
X90597414Y-98965011D01*
X90594500Y-98990130D01*
X90594500Y-99579860D01*
X90594501Y-99579863D01*
X90597414Y-99604990D01*
X90622756Y-99662385D01*
X90642794Y-99707765D01*
X90722235Y-99787206D01*
X90817877Y-99829436D01*
X90863471Y-99870234D01*
X90876377Y-99930043D01*
X90851664Y-99986015D01*
X90817877Y-100010563D01*
X90722236Y-100052793D01*
X90642794Y-100132235D01*
X90597414Y-100235011D01*
X90594500Y-100260130D01*
X90594500Y-100849860D01*
X90594501Y-100849863D01*
X90597414Y-100874990D01*
X90622756Y-100932385D01*
X90642794Y-100977765D01*
X90722235Y-101057206D01*
X90825009Y-101102585D01*
X90850135Y-101105500D01*
X90982936Y-101105499D01*
X90987421Y-101419500D01*
X90776923Y-101419500D01*
X90747185Y-101422289D01*
X90747176Y-101422291D01*
X90621841Y-101466148D01*
X90515004Y-101544997D01*
X90514997Y-101545004D01*
X90474408Y-101600000D01*
X87600000Y-101600000D01*
X87600000Y-101300000D01*
X87403874Y-101103874D01*
X87414991Y-101102585D01*
X87517765Y-101057206D01*
X87597206Y-100977765D01*
X87642585Y-100874991D01*
X87645500Y-100849865D01*
X87645499Y-100260136D01*
X87642585Y-100235009D01*
X87597206Y-100132235D01*
X87517765Y-100052794D01*
X87422120Y-100010563D01*
X87400000Y-99990768D01*
X87400000Y-99845508D01*
X87422119Y-99829437D01*
X87517765Y-99787206D01*
X87597206Y-99707765D01*
X87642585Y-99604991D01*
X87645500Y-99579865D01*
X87645499Y-98990136D01*
X87642585Y-98965009D01*
X87597206Y-98862235D01*
X87517765Y-98782794D01*
X87422120Y-98740563D01*
X87400000Y-98720768D01*
X87400000Y-98575508D01*
X87422119Y-98559437D01*
X87517765Y-98517206D01*
X87597206Y-98437765D01*
X87642585Y-98334991D01*
X87645500Y-98309865D01*
X87645499Y-97720136D01*
X87642585Y-97695009D01*
X87597206Y-97592235D01*
X87517765Y-97512794D01*
X87414991Y-97467415D01*
X87414990Y-97467414D01*
X87414988Y-97467414D01*
X87400000Y-97465675D01*
X87400000Y-96000000D01*
X87600000Y-96000000D01*
X87600000Y-94600000D01*
X90200000Y-94600000D01*
X90890000Y-94600000D01*
X90912779Y-96194500D01*
G37*
%TD.AperFunction*%
%TD*%
%TA.AperFunction,Conductor*%
%TO.N,GND*%
G36*
X91508691Y-101124406D02*
G01*
X91544655Y-101173906D01*
X91549500Y-101204499D01*
X91549500Y-101380500D01*
X91544655Y-101395411D01*
X91544655Y-101411093D01*
X91535438Y-101423778D01*
X91530593Y-101438691D01*
X91517907Y-101447907D01*
X91508691Y-101460593D01*
X91493778Y-101465438D01*
X91481093Y-101474655D01*
X91450500Y-101479500D01*
X91367972Y-101479500D01*
X91321708Y-101468025D01*
X91318154Y-101466146D01*
X91192823Y-101422291D01*
X91192814Y-101422289D01*
X91163076Y-101419500D01*
X91163066Y-101419500D01*
X90987421Y-101419500D01*
X90982943Y-101106058D01*
X90985020Y-101105499D01*
X91450500Y-101105499D01*
X91508691Y-101124406D01*
G37*
%TD.AperFunction*%
%TA.AperFunction,Conductor*%
G36*
X71290007Y-80019407D02*
G01*
X71325971Y-80068907D01*
X71325971Y-80130093D01*
X71290007Y-80179593D01*
X71268135Y-80191598D01*
X71150270Y-80238077D01*
X71035282Y-80325276D01*
X71035276Y-80325282D01*
X70948077Y-80440270D01*
X70895132Y-80574531D01*
X70885000Y-80658895D01*
X70885000Y-80699999D01*
X70885001Y-80700000D01*
X71536000Y-80700000D01*
X71594191Y-80718907D01*
X71630155Y-80768407D01*
X71635000Y-80799000D01*
X71635000Y-80949999D01*
X71635001Y-80950000D01*
X71786000Y-80950000D01*
X71844191Y-80968907D01*
X71880155Y-81018407D01*
X71885000Y-81049000D01*
X71885000Y-81724999D01*
X71885001Y-81725000D01*
X71901100Y-81725000D01*
X71901104Y-81724999D01*
X71985468Y-81714867D01*
X72119729Y-81661922D01*
X72234717Y-81574723D01*
X72234723Y-81574717D01*
X72321922Y-81459729D01*
X72323412Y-81457079D01*
X72325137Y-81455489D01*
X72326015Y-81454332D01*
X72326222Y-81454489D01*
X72368409Y-81415620D01*
X72429182Y-81408527D01*
X72482517Y-81438510D01*
X72496006Y-81457075D01*
X72497634Y-81459970D01*
X72497636Y-81459975D01*
X72584922Y-81575078D01*
X72700025Y-81662364D01*
X72700026Y-81662364D01*
X72700027Y-81662365D01*
X72767217Y-81688861D01*
X72834410Y-81715359D01*
X72918856Y-81725500D01*
X73140968Y-81725500D01*
X73199159Y-81744407D01*
X73210971Y-81754496D01*
X73551003Y-82094527D01*
X73578781Y-82149044D01*
X73580000Y-82164531D01*
X73580000Y-83297667D01*
X73677924Y-83263403D01*
X73750789Y-83209625D01*
X73808836Y-83190282D01*
X73867167Y-83208752D01*
X73868366Y-83209624D01*
X73941841Y-83263851D01*
X73941842Y-83263851D01*
X73941843Y-83263852D01*
X74067181Y-83307710D01*
X74094619Y-83310282D01*
X74096923Y-83310499D01*
X74096928Y-83310500D01*
X74096934Y-83310500D01*
X74248835Y-83310500D01*
X74256420Y-83312964D01*
X74264300Y-83311715D01*
X74284952Y-83322235D01*
X74307026Y-83329407D01*
X74318823Y-83339481D01*
X74321083Y-83341740D01*
X74343447Y-83364104D01*
X74343469Y-83364116D01*
X74348212Y-83368857D01*
X74348213Y-83368859D01*
X74348227Y-83368872D01*
X74354138Y-83374783D01*
X74470610Y-83459414D01*
X74589524Y-83520010D01*
X74598892Y-83524784D01*
X74735813Y-83569275D01*
X74735821Y-83569277D01*
X74757435Y-83572700D01*
X74806115Y-83597502D01*
X74806839Y-83596560D01*
X74811922Y-83600461D01*
X74811952Y-83600476D01*
X74811985Y-83600509D01*
X74811987Y-83600510D01*
X74811989Y-83600512D01*
X74937511Y-83672982D01*
X74937512Y-83672982D01*
X74937515Y-83672984D01*
X75077525Y-83710500D01*
X75077526Y-83710500D01*
X75222476Y-83710500D01*
X75222476Y-83710499D01*
X75242829Y-83705045D01*
X75249876Y-83703158D01*
X75310977Y-83706359D01*
X75358528Y-83744864D01*
X75374500Y-83798784D01*
X75374500Y-84204860D01*
X75374501Y-84204863D01*
X75377414Y-84229990D01*
X75377415Y-84229992D01*
X75382060Y-84240511D01*
X75388269Y-84301380D01*
X75357514Y-84354274D01*
X75301542Y-84378989D01*
X75291496Y-84379500D01*
X74161956Y-84379500D01*
X74103765Y-84360593D01*
X74082301Y-84339288D01*
X74026426Y-84263580D01*
X74026418Y-84263572D01*
X73920795Y-84185619D01*
X73796883Y-84142260D01*
X73796874Y-84142258D01*
X73767465Y-84139500D01*
X73392542Y-84139500D01*
X73363124Y-84142258D01*
X73363119Y-84142259D01*
X73239204Y-84185619D01*
X73128788Y-84267110D01*
X73070740Y-84286452D01*
X73012410Y-84267981D01*
X73011212Y-84267110D01*
X72900795Y-84185619D01*
X72776883Y-84142260D01*
X72776874Y-84142258D01*
X72747465Y-84139500D01*
X72372542Y-84139500D01*
X72343124Y-84142258D01*
X72343119Y-84142259D01*
X72219204Y-84185619D01*
X72113581Y-84263572D01*
X72113572Y-84263581D01*
X72035619Y-84369204D01*
X71992260Y-84493116D01*
X71992258Y-84493125D01*
X71989500Y-84522532D01*
X71989500Y-84580500D01*
X71970593Y-84638691D01*
X71921093Y-84674655D01*
X71890500Y-84679500D01*
X68729540Y-84679500D01*
X68671349Y-84660593D01*
X68635385Y-84611093D01*
X68635385Y-84549907D01*
X68671349Y-84500407D01*
X68684592Y-84492291D01*
X68841610Y-84412287D01*
X68842201Y-84411858D01*
X68927727Y-84349720D01*
X69007219Y-84291966D01*
X69151966Y-84147219D01*
X69272287Y-83981610D01*
X69365220Y-83799219D01*
X69428477Y-83604534D01*
X69428478Y-83604529D01*
X69460500Y-83402355D01*
X69460500Y-83197644D01*
X69428477Y-82995464D01*
X69414589Y-82952724D01*
X69413704Y-82950000D01*
X72752531Y-82950000D01*
X72752786Y-82952724D01*
X72796594Y-83077920D01*
X72875358Y-83184639D01*
X72875360Y-83184641D01*
X72982077Y-83263404D01*
X73080000Y-83297668D01*
X73080000Y-82950001D01*
X73079999Y-82950000D01*
X72752531Y-82950000D01*
X69413704Y-82950000D01*
X69365220Y-82800781D01*
X69272287Y-82618390D01*
X69265552Y-82609121D01*
X69217145Y-82542492D01*
X69217143Y-82542490D01*
X69169514Y-82476934D01*
X69151966Y-82452781D01*
X69149184Y-82449999D01*
X72752530Y-82449999D01*
X72752531Y-82450000D01*
X73079999Y-82450000D01*
X73080000Y-82449999D01*
X73080000Y-82102330D01*
X73079999Y-82102329D01*
X72982080Y-82136594D01*
X72875363Y-82215355D01*
X72875358Y-82215360D01*
X72796594Y-82322079D01*
X72752788Y-82447267D01*
X72752786Y-82447277D01*
X72752530Y-82449999D01*
X69149184Y-82449999D01*
X69007219Y-82308034D01*
X69007215Y-82308031D01*
X69007213Y-82308029D01*
X68841613Y-82187714D01*
X68841609Y-82187712D01*
X68659219Y-82094780D01*
X68464529Y-82031521D01*
X68262355Y-81999500D01*
X68262352Y-81999500D01*
X68057648Y-81999500D01*
X68057645Y-81999500D01*
X67855470Y-82031521D01*
X67660780Y-82094780D01*
X67478390Y-82187712D01*
X67478386Y-82187714D01*
X67312786Y-82308029D01*
X67168029Y-82452786D01*
X67047714Y-82618386D01*
X67047712Y-82618390D01*
X66954780Y-82800780D01*
X66891521Y-82995470D01*
X66859500Y-83197644D01*
X66859500Y-83402355D01*
X66891521Y-83604529D01*
X66954780Y-83799219D01*
X67047712Y-83981609D01*
X67047714Y-83981613D01*
X67168029Y-84147213D01*
X67168031Y-84147215D01*
X67168034Y-84147219D01*
X67312781Y-84291966D01*
X67312784Y-84291968D01*
X67312786Y-84291970D01*
X67478386Y-84412285D01*
X67478390Y-84412287D01*
X67635405Y-84492290D01*
X67678670Y-84535555D01*
X67688241Y-84595987D01*
X67660464Y-84650504D01*
X67605947Y-84678281D01*
X67590460Y-84679500D01*
X63648440Y-84679500D01*
X63590249Y-84660593D01*
X63554285Y-84611093D01*
X63554285Y-84549907D01*
X63590249Y-84500407D01*
X63603495Y-84492290D01*
X63761342Y-84411863D01*
X63761350Y-84411858D01*
X63805920Y-84379475D01*
X63250232Y-83823787D01*
X63292292Y-83812518D01*
X63417708Y-83740110D01*
X63520110Y-83637708D01*
X63592518Y-83512292D01*
X63603787Y-83470232D01*
X64159475Y-84025920D01*
X64191858Y-83981350D01*
X64191863Y-83981342D01*
X64284756Y-83799027D01*
X64347991Y-83604412D01*
X64380000Y-83402315D01*
X64380000Y-83197684D01*
X64347991Y-82995587D01*
X64284756Y-82800972D01*
X64191858Y-82618647D01*
X64159475Y-82574078D01*
X63603787Y-83129765D01*
X63592518Y-83087708D01*
X63520110Y-82962292D01*
X63417708Y-82859890D01*
X63292292Y-82787482D01*
X63250232Y-82776212D01*
X63805920Y-82220524D01*
X63805920Y-82220523D01*
X63761353Y-82188143D01*
X63761348Y-82188139D01*
X63579027Y-82095243D01*
X63384412Y-82032008D01*
X63182315Y-82000000D01*
X62977685Y-82000000D01*
X62775587Y-82032008D01*
X62580972Y-82095243D01*
X62398651Y-82188139D01*
X62398647Y-82188141D01*
X62354078Y-82220523D01*
X62909767Y-82776212D01*
X62867708Y-82787482D01*
X62742292Y-82859890D01*
X62639890Y-82962292D01*
X62567482Y-83087708D01*
X62556212Y-83129767D01*
X62000523Y-82574078D01*
X61968141Y-82618647D01*
X61968139Y-82618651D01*
X61875243Y-82800972D01*
X61812008Y-82995587D01*
X61780000Y-83197684D01*
X61780000Y-83402315D01*
X61812008Y-83604412D01*
X61875243Y-83799027D01*
X61968139Y-83981348D01*
X61968143Y-83981353D01*
X62000523Y-84025920D01*
X62000524Y-84025920D01*
X62556212Y-83470232D01*
X62567482Y-83512292D01*
X62639890Y-83637708D01*
X62742292Y-83740110D01*
X62867708Y-83812518D01*
X62909765Y-83823787D01*
X62354078Y-84379475D01*
X62398647Y-84411858D01*
X62556505Y-84492290D01*
X62599770Y-84535555D01*
X62609341Y-84595987D01*
X62581564Y-84650503D01*
X62527047Y-84678281D01*
X62511560Y-84679500D01*
X61007279Y-84679500D01*
X61001728Y-84679344D01*
X60716260Y-84663312D01*
X60705228Y-84662069D01*
X60426094Y-84614643D01*
X60415270Y-84612173D01*
X60143191Y-84533789D01*
X60132712Y-84530122D01*
X59871125Y-84421769D01*
X59861123Y-84416952D01*
X59613317Y-84279995D01*
X59603917Y-84274089D01*
X59372997Y-84110243D01*
X59364317Y-84103321D01*
X59333531Y-84075809D01*
X59302740Y-84022935D01*
X59300499Y-84001990D01*
X59300499Y-82255139D01*
X59300499Y-82255136D01*
X59297585Y-82230009D01*
X59252206Y-82127235D01*
X59172765Y-82047794D01*
X59069991Y-82002415D01*
X59069990Y-82002414D01*
X59069988Y-82002414D01*
X59044868Y-81999500D01*
X56955139Y-81999500D01*
X56955136Y-81999501D01*
X56930009Y-82002414D01*
X56827235Y-82047794D01*
X56747794Y-82127235D01*
X56702414Y-82230011D01*
X56699500Y-82255130D01*
X56699500Y-84344860D01*
X56699501Y-84344863D01*
X56702414Y-84369990D01*
X56721090Y-84412287D01*
X56747794Y-84472765D01*
X56827235Y-84552206D01*
X56930009Y-84597585D01*
X56955135Y-84600500D01*
X58734361Y-84600499D01*
X58792552Y-84619406D01*
X58797166Y-84622971D01*
X58985627Y-84777637D01*
X59167496Y-84899158D01*
X59262158Y-84962409D01*
X59262171Y-84962417D01*
X59463427Y-85069990D01*
X59555484Y-85119195D01*
X59862757Y-85246472D01*
X59862759Y-85246472D01*
X59862765Y-85246475D01*
X60181021Y-85343016D01*
X60181025Y-85343016D01*
X60181026Y-85343017D01*
X60507225Y-85407901D01*
X60544001Y-85411523D01*
X60838205Y-85440500D01*
X60838213Y-85440500D01*
X72104952Y-85440500D01*
X72105101Y-85440488D01*
X72118096Y-85440490D01*
X72256875Y-85418517D01*
X72358982Y-85385343D01*
X72389571Y-85380499D01*
X72747457Y-85380499D01*
X72753340Y-85379947D01*
X72776879Y-85377741D01*
X72900794Y-85334381D01*
X72976044Y-85278844D01*
X73011212Y-85252889D01*
X73011948Y-85252643D01*
X73012410Y-85252018D01*
X73040910Y-85242993D01*
X73069259Y-85233547D01*
X73070000Y-85233781D01*
X73070741Y-85233547D01*
X73099089Y-85242993D01*
X73127590Y-85252018D01*
X73128788Y-85252889D01*
X73220057Y-85320249D01*
X73255650Y-85370017D01*
X73255192Y-85431200D01*
X73218859Y-85480430D01*
X73203109Y-85489628D01*
X72974010Y-85596459D01*
X72692832Y-85758801D01*
X72692830Y-85758802D01*
X72484036Y-85905004D01*
X72426872Y-85945031D01*
X72360297Y-86000895D01*
X72178155Y-86153733D01*
X72090523Y-86241367D01*
X72090523Y-86241368D01*
X68821386Y-89510504D01*
X68766869Y-89538281D01*
X68751382Y-89539500D01*
X68522542Y-89539500D01*
X68493124Y-89542258D01*
X68493119Y-89542259D01*
X68369204Y-89585619D01*
X68258788Y-89667110D01*
X68200740Y-89686452D01*
X68142410Y-89667981D01*
X68141212Y-89667110D01*
X68030795Y-89585619D01*
X67906883Y-89542260D01*
X67906874Y-89542258D01*
X67877465Y-89539500D01*
X67502542Y-89539500D01*
X67473124Y-89542258D01*
X67473119Y-89542259D01*
X67349206Y-89585618D01*
X67339522Y-89592766D01*
X67329510Y-89600155D01*
X67271463Y-89619497D01*
X67270722Y-89619500D01*
X64399499Y-89619500D01*
X64341308Y-89600593D01*
X64305344Y-89551093D01*
X64300499Y-89520500D01*
X64300499Y-88955139D01*
X64300499Y-88955136D01*
X64297585Y-88930009D01*
X64252206Y-88827235D01*
X64172765Y-88747794D01*
X64069991Y-88702415D01*
X64069990Y-88702414D01*
X64069988Y-88702414D01*
X64044868Y-88699500D01*
X61955139Y-88699500D01*
X61955136Y-88699501D01*
X61930009Y-88702414D01*
X61827235Y-88747794D01*
X61747794Y-88827235D01*
X61702414Y-88930011D01*
X61699500Y-88955130D01*
X61699500Y-91044860D01*
X61699501Y-91044863D01*
X61702414Y-91069990D01*
X61723541Y-91117837D01*
X61747794Y-91172765D01*
X61827235Y-91252206D01*
X61930009Y-91297585D01*
X61955135Y-91300500D01*
X64044864Y-91300499D01*
X64069991Y-91297585D01*
X64172765Y-91252206D01*
X64252206Y-91172765D01*
X64297585Y-91069991D01*
X64300500Y-91044865D01*
X64300500Y-90479500D01*
X64319407Y-90421309D01*
X64368907Y-90385345D01*
X64399500Y-90380500D01*
X67035786Y-90380500D01*
X67093977Y-90399407D01*
X67129230Y-90446802D01*
X67165619Y-90550795D01*
X67243572Y-90656418D01*
X67243581Y-90656427D01*
X67349204Y-90734380D01*
X67349205Y-90734380D01*
X67349206Y-90734381D01*
X67473121Y-90777741D01*
X67502543Y-90780500D01*
X67502564Y-90780499D01*
X67504525Y-90780592D01*
X67561775Y-90802181D01*
X67595401Y-90853298D01*
X67592559Y-90914418D01*
X67554335Y-90962194D01*
X67532626Y-90972929D01*
X67439203Y-91005619D01*
X67333581Y-91083572D01*
X67333572Y-91083581D01*
X67255619Y-91189204D01*
X67212260Y-91313116D01*
X67212258Y-91313125D01*
X67209500Y-91342532D01*
X67209500Y-91717457D01*
X67212258Y-91746875D01*
X67212259Y-91746880D01*
X67255619Y-91870795D01*
X67337110Y-91981212D01*
X67356452Y-92039260D01*
X67337981Y-92097590D01*
X67337110Y-92098788D01*
X67255619Y-92209204D01*
X67212260Y-92333116D01*
X67212258Y-92333125D01*
X67209500Y-92362532D01*
X67209500Y-92737457D01*
X67212258Y-92766875D01*
X67212259Y-92766880D01*
X67255619Y-92890795D01*
X67333572Y-92996418D01*
X67333580Y-92996426D01*
X67409288Y-93052301D01*
X67444881Y-93102068D01*
X67449500Y-93131956D01*
X67449500Y-93370500D01*
X67430593Y-93428691D01*
X67381093Y-93464655D01*
X67350500Y-93469500D01*
X67323225Y-93469500D01*
X67292805Y-93472353D01*
X67292796Y-93472355D01*
X67164616Y-93517207D01*
X67055355Y-93597845D01*
X67055346Y-93597854D01*
X67017387Y-93649288D01*
X67004928Y-93658198D01*
X66995923Y-93670593D01*
X66980667Y-93675549D01*
X66967620Y-93684881D01*
X66937732Y-93689500D01*
X66741220Y-93689500D01*
X66683029Y-93670593D01*
X66681400Y-93669383D01*
X66599977Y-93607637D01*
X66599972Y-93607634D01*
X66465591Y-93554641D01*
X66381148Y-93544500D01*
X66381144Y-93544500D01*
X65798856Y-93544500D01*
X65798851Y-93544500D01*
X65714408Y-93554641D01*
X65580027Y-93607634D01*
X65464922Y-93694922D01*
X65377634Y-93810027D01*
X65324641Y-93944408D01*
X65314500Y-94028851D01*
X65314500Y-94561148D01*
X65324641Y-94645591D01*
X65377634Y-94779972D01*
X65377635Y-94779974D01*
X65377636Y-94779975D01*
X65464922Y-94895078D01*
X65580025Y-94982364D01*
X65580033Y-94982367D01*
X65582921Y-94983991D01*
X65584658Y-94985876D01*
X65585421Y-94986455D01*
X65585317Y-94986591D01*
X65624380Y-95028989D01*
X65631472Y-95089762D01*
X65601488Y-95143097D01*
X65582932Y-95156581D01*
X65580272Y-95158076D01*
X65465282Y-95245276D01*
X65465276Y-95245282D01*
X65378077Y-95360270D01*
X65325132Y-95494531D01*
X65315000Y-95578895D01*
X65315000Y-95594999D01*
X65315001Y-95595000D01*
X65991000Y-95595000D01*
X66049191Y-95613907D01*
X66085155Y-95663407D01*
X66090000Y-95694000D01*
X66090000Y-95844999D01*
X66090001Y-95845000D01*
X66241000Y-95845000D01*
X66299191Y-95863907D01*
X66335155Y-95913407D01*
X66340000Y-95944000D01*
X66340000Y-96594999D01*
X66340001Y-96595000D01*
X66381100Y-96595000D01*
X66381104Y-96594999D01*
X66465468Y-96584867D01*
X66599729Y-96531922D01*
X66714717Y-96444723D01*
X66714723Y-96444717D01*
X66806015Y-96324332D01*
X66807381Y-96325368D01*
X66846140Y-96289659D01*
X66906913Y-96282567D01*
X66960248Y-96312552D01*
X66972641Y-96330084D01*
X67055345Y-96442144D01*
X67055347Y-96442146D01*
X67055350Y-96442150D01*
X67055353Y-96442152D01*
X67055355Y-96442154D01*
X67164616Y-96522792D01*
X67164617Y-96522792D01*
X67164618Y-96522793D01*
X67292801Y-96567646D01*
X67323225Y-96570499D01*
X67323227Y-96570500D01*
X67323234Y-96570500D01*
X68456773Y-96570500D01*
X68456773Y-96570499D01*
X68487199Y-96567646D01*
X68615382Y-96522793D01*
X68724650Y-96442150D01*
X68805293Y-96332882D01*
X68850146Y-96204699D01*
X68852999Y-96174273D01*
X68853000Y-96174273D01*
X68853000Y-95765727D01*
X68852999Y-95765725D01*
X68850146Y-95735305D01*
X68850146Y-95735301D01*
X68805293Y-95607118D01*
X68792476Y-95589751D01*
X68765623Y-95553366D01*
X68746281Y-95495318D01*
X68764752Y-95436988D01*
X68765624Y-95435788D01*
X68804844Y-95382647D01*
X68844261Y-95270000D01*
X66935738Y-95270000D01*
X66916051Y-95297746D01*
X66866958Y-95334263D01*
X66805776Y-95334949D01*
X66756428Y-95300277D01*
X66714724Y-95245283D01*
X66714717Y-95245276D01*
X66599725Y-95158074D01*
X66597072Y-95156583D01*
X66595482Y-95154857D01*
X66594332Y-95153985D01*
X66594488Y-95153778D01*
X66555616Y-95111582D01*
X66548529Y-95050809D01*
X66578516Y-94997476D01*
X66597082Y-94983989D01*
X66599966Y-94982367D01*
X66599975Y-94982364D01*
X66715078Y-94895078D01*
X66793387Y-94791811D01*
X66843613Y-94756870D01*
X66904785Y-94758124D01*
X66920598Y-94770000D01*
X68844261Y-94770000D01*
X68804845Y-94657352D01*
X68765623Y-94604210D01*
X68746281Y-94546162D01*
X68764752Y-94487832D01*
X68765568Y-94486707D01*
X68805293Y-94432882D01*
X68850146Y-94304699D01*
X68852999Y-94274273D01*
X68853000Y-94274273D01*
X68853000Y-93865727D01*
X68852999Y-93865725D01*
X68850146Y-93835301D01*
X68805293Y-93707118D01*
X68804867Y-93706541D01*
X68724654Y-93597855D01*
X68724652Y-93597853D01*
X68724650Y-93597850D01*
X68724646Y-93597847D01*
X68724644Y-93597845D01*
X68615383Y-93517207D01*
X68487203Y-93472355D01*
X68487194Y-93472353D01*
X68456774Y-93469500D01*
X68456766Y-93469500D01*
X68309500Y-93469500D01*
X68251309Y-93450593D01*
X68215345Y-93401093D01*
X68210500Y-93370500D01*
X68210500Y-93159500D01*
X68229407Y-93101309D01*
X68278907Y-93065345D01*
X68309500Y-93060500D01*
X68798044Y-93060500D01*
X68856235Y-93079407D01*
X68877699Y-93100712D01*
X68933573Y-93176419D01*
X68933581Y-93176427D01*
X69039204Y-93254380D01*
X69039205Y-93254380D01*
X69039206Y-93254381D01*
X69163121Y-93297741D01*
X69192543Y-93300500D01*
X69476261Y-93300499D01*
X69534451Y-93319406D01*
X69570415Y-93368906D01*
X69570416Y-93430091D01*
X69534452Y-93479591D01*
X69508959Y-93492943D01*
X69439616Y-93517207D01*
X69330355Y-93597845D01*
X69330345Y-93597855D01*
X69249707Y-93707116D01*
X69204855Y-93835296D01*
X69204853Y-93835305D01*
X69202000Y-93865725D01*
X69202000Y-94274274D01*
X69204853Y-94304694D01*
X69204855Y-94304703D01*
X69249706Y-94432881D01*
X69289066Y-94486212D01*
X69308407Y-94544260D01*
X69289935Y-94602591D01*
X69289066Y-94603788D01*
X69249706Y-94657118D01*
X69204855Y-94785296D01*
X69204853Y-94785305D01*
X69202000Y-94815725D01*
X69202000Y-95224274D01*
X69204853Y-95254694D01*
X69204855Y-95254703D01*
X69249706Y-95382881D01*
X69289066Y-95436212D01*
X69308407Y-95494260D01*
X69289935Y-95552591D01*
X69289066Y-95553788D01*
X69249706Y-95607118D01*
X69204855Y-95735296D01*
X69204853Y-95735305D01*
X69202000Y-95765725D01*
X69202000Y-96174274D01*
X69204853Y-96204694D01*
X69204855Y-96204703D01*
X69249707Y-96332883D01*
X69330345Y-96442144D01*
X69330347Y-96442146D01*
X69330350Y-96442150D01*
X69330353Y-96442152D01*
X69330355Y-96442154D01*
X69439616Y-96522792D01*
X69439617Y-96522792D01*
X69439618Y-96522793D01*
X69567801Y-96567646D01*
X69598225Y-96570499D01*
X69598227Y-96570500D01*
X69598234Y-96570500D01*
X70731773Y-96570500D01*
X70731773Y-96570499D01*
X70762199Y-96567646D01*
X70890382Y-96522793D01*
X70934185Y-96490465D01*
X70999648Y-96442152D01*
X70999648Y-96442150D01*
X70999650Y-96442150D01*
X71030899Y-96399808D01*
X71045918Y-96389066D01*
X71057727Y-96374869D01*
X71070198Y-96371701D01*
X71080665Y-96364216D01*
X71117026Y-96359808D01*
X71174107Y-96363549D01*
X71186936Y-96365238D01*
X71376283Y-96402902D01*
X71388783Y-96406251D01*
X71571596Y-96468308D01*
X71583543Y-96473257D01*
X71756694Y-96558647D01*
X71767889Y-96565110D01*
X71851764Y-96621154D01*
X71928405Y-96672365D01*
X71938678Y-96680248D01*
X72086310Y-96809718D01*
X72091039Y-96814147D01*
X72421025Y-97144134D01*
X72421041Y-97144148D01*
X72496752Y-97219858D01*
X72496759Y-97219865D01*
X72628340Y-97327850D01*
X72749961Y-97427662D01*
X72867443Y-97506161D01*
X73022317Y-97609645D01*
X73300774Y-97758483D01*
X73311195Y-97764053D01*
X73613818Y-97889404D01*
X73927271Y-97984490D01*
X74248534Y-98048393D01*
X74574515Y-98080500D01*
X74688200Y-98080500D01*
X77068122Y-98080500D01*
X77117622Y-98093764D01*
X77237511Y-98162982D01*
X77237512Y-98162982D01*
X77237515Y-98162984D01*
X77377525Y-98200500D01*
X77377526Y-98200500D01*
X77522474Y-98200500D01*
X77522475Y-98200500D01*
X77662485Y-98162984D01*
X77662487Y-98162982D01*
X77662489Y-98162982D01*
X77788010Y-98090512D01*
X77788010Y-98090511D01*
X77788015Y-98090509D01*
X77890509Y-97988015D01*
X77892545Y-97984489D01*
X77962982Y-97862489D01*
X77962982Y-97862487D01*
X77962984Y-97862485D01*
X78000500Y-97722475D01*
X78000500Y-97577525D01*
X78000500Y-97571036D01*
X78002939Y-97571036D01*
X78005011Y-97559854D01*
X78005010Y-97537912D01*
X78010469Y-97530397D01*
X78012161Y-97521266D01*
X78028076Y-97506161D01*
X78040972Y-97488410D01*
X78049803Y-97485540D01*
X78056541Y-97479146D01*
X78099161Y-97469500D01*
X78141675Y-97469500D01*
X78196383Y-97469500D01*
X78246479Y-97469500D01*
X78246503Y-97469493D01*
X78253046Y-97469493D01*
X78348804Y-97469493D01*
X78651730Y-97435364D01*
X78948930Y-97367531D01*
X79236667Y-97266849D01*
X79511321Y-97134583D01*
X79769439Y-96972398D01*
X80007775Y-96782331D01*
X80074488Y-96715618D01*
X80074499Y-96715610D01*
X80131214Y-96658895D01*
X80429092Y-96361015D01*
X80429098Y-96361012D01*
X80436567Y-96353542D01*
X80438788Y-96351322D01*
X80438822Y-96351304D01*
X80467790Y-96322335D01*
X80537843Y-96252279D01*
X80658462Y-96095077D01*
X80757531Y-95923478D01*
X80779423Y-95870623D01*
X80819157Y-95824100D01*
X80878652Y-95809815D01*
X80882280Y-95810168D01*
X80885135Y-95810500D01*
X81390166Y-95810499D01*
X81448357Y-95829406D01*
X81484321Y-95878906D01*
X81484321Y-95940091D01*
X81460170Y-95979502D01*
X81409537Y-96030135D01*
X81409535Y-96030137D01*
X81409535Y-96030138D01*
X81366682Y-96104362D01*
X81344500Y-96187147D01*
X81344500Y-96272853D01*
X81366682Y-96355638D01*
X81409535Y-96429862D01*
X81470138Y-96490465D01*
X81544362Y-96533318D01*
X81627147Y-96555500D01*
X81627149Y-96555500D01*
X81712851Y-96555500D01*
X81712853Y-96555500D01*
X81795638Y-96533318D01*
X81869862Y-96490465D01*
X81930465Y-96429862D01*
X81973318Y-96355638D01*
X81995500Y-96272853D01*
X81995500Y-96187147D01*
X81973318Y-96104362D01*
X81930465Y-96030138D01*
X81869862Y-95969535D01*
X81823481Y-95942757D01*
X81782542Y-95897289D01*
X81774064Y-95853011D01*
X81780081Y-95704633D01*
X81781858Y-95699833D01*
X81788434Y-95668659D01*
X81827585Y-95579991D01*
X81830500Y-95554865D01*
X81830499Y-94015136D01*
X81827585Y-93990009D01*
X81808634Y-93947091D01*
X81800212Y-93905518D01*
X81800316Y-93899018D01*
X81800500Y-93898332D01*
X81800500Y-93887522D01*
X81800513Y-93886718D01*
X81800567Y-93886558D01*
X81800562Y-93882838D01*
X81800564Y-93882833D01*
X81800535Y-93857070D01*
X81817219Y-93801961D01*
X81845257Y-93760001D01*
X82280000Y-93760001D01*
X82280000Y-95818658D01*
X82298781Y-95855519D01*
X82300000Y-95871006D01*
X82300000Y-96328795D01*
X82330742Y-96483349D01*
X82391048Y-96628940D01*
X82391052Y-96628949D01*
X82478599Y-96759969D01*
X82478602Y-96759973D01*
X82590026Y-96871397D01*
X82590030Y-96871400D01*
X82721058Y-96958951D01*
X82849999Y-97012360D01*
X82850000Y-97012359D01*
X82850000Y-96416988D01*
X82859940Y-96434205D01*
X82915795Y-96490060D01*
X82984204Y-96529556D01*
X83060504Y-96550000D01*
X83139496Y-96550000D01*
X83215796Y-96529556D01*
X83284205Y-96490060D01*
X83340060Y-96434205D01*
X83350000Y-96416988D01*
X83350000Y-97012360D01*
X83478941Y-96958951D01*
X83609969Y-96871400D01*
X83609973Y-96871397D01*
X83721397Y-96759973D01*
X83721400Y-96759969D01*
X83808947Y-96628949D01*
X83808951Y-96628940D01*
X83869257Y-96483349D01*
X83875850Y-96450202D01*
X84845000Y-96450202D01*
X84845000Y-96494999D01*
X84845001Y-96495000D01*
X85994999Y-96495000D01*
X85995000Y-96494999D01*
X85995000Y-96195001D01*
X85994999Y-96195000D01*
X85100210Y-96195000D01*
X85100208Y-96195001D01*
X85075125Y-96197909D01*
X84972522Y-96243213D01*
X84893213Y-96322522D01*
X84847909Y-96425127D01*
X84845000Y-96450202D01*
X83875850Y-96450202D01*
X83880260Y-96428034D01*
X83899999Y-96328795D01*
X83900000Y-96328792D01*
X83900000Y-95950001D01*
X83899999Y-95950000D01*
X83400000Y-95950000D01*
X83400000Y-95450000D01*
X83899999Y-95450000D01*
X83900000Y-95449999D01*
X83900000Y-95071207D01*
X83899999Y-95071204D01*
X83869257Y-94916650D01*
X83808951Y-94771059D01*
X83808947Y-94771050D01*
X83721400Y-94640030D01*
X83721397Y-94640026D01*
X83609973Y-94528602D01*
X83609969Y-94528599D01*
X83478949Y-94441052D01*
X83478940Y-94441048D01*
X83350000Y-94387639D01*
X83350000Y-94983011D01*
X83340060Y-94965795D01*
X83284205Y-94909940D01*
X83215796Y-94870444D01*
X83139496Y-94850000D01*
X83060504Y-94850000D01*
X82984204Y-94870444D01*
X82915795Y-94909940D01*
X82859940Y-94965795D01*
X82850000Y-94983011D01*
X82850000Y-94387639D01*
X82849999Y-94387638D01*
X82766884Y-94422066D01*
X82705887Y-94426866D01*
X82653718Y-94394897D01*
X82630304Y-94338369D01*
X82629999Y-94330602D01*
X82629999Y-94015210D01*
X82629998Y-94015208D01*
X82627090Y-93990125D01*
X82581786Y-93887522D01*
X82502477Y-93808213D01*
X82399872Y-93762909D01*
X82374797Y-93760000D01*
X82280001Y-93760000D01*
X82280000Y-93760001D01*
X81845257Y-93760001D01*
X81870775Y-93721811D01*
X81923580Y-93594328D01*
X81924702Y-93588682D01*
X81928124Y-93580154D01*
X81942117Y-93563391D01*
X81952782Y-93544335D01*
X81961313Y-93540398D01*
X81967336Y-93533185D01*
X81988512Y-93527849D01*
X82008339Y-93518701D01*
X82019820Y-93519960D01*
X82026667Y-93518235D01*
X82035163Y-93521643D01*
X82052705Y-93523567D01*
X82063208Y-93527242D01*
X82063218Y-93527244D01*
X82080000Y-93528817D01*
X82080000Y-93210001D01*
X82580000Y-93210001D01*
X82580000Y-93528816D01*
X82596781Y-93527244D01*
X82596791Y-93527242D01*
X82720554Y-93483935D01*
X82826063Y-93406065D01*
X82826065Y-93406063D01*
X82903935Y-93300553D01*
X82935623Y-93210000D01*
X82580001Y-93210000D01*
X82580000Y-93210001D01*
X82080000Y-93210001D01*
X82080000Y-93059000D01*
X82098907Y-93000809D01*
X82148407Y-92964845D01*
X82179000Y-92960000D01*
X82329999Y-92960000D01*
X82330000Y-92959999D01*
X82330000Y-92809000D01*
X82348907Y-92750809D01*
X82398407Y-92714845D01*
X82429000Y-92710000D01*
X82855847Y-92710000D01*
X82914038Y-92728907D01*
X82914518Y-92729258D01*
X82969695Y-92769981D01*
X82989206Y-92784381D01*
X82989208Y-92784382D01*
X83050512Y-92805833D01*
X83113121Y-92827741D01*
X83142543Y-92830500D01*
X83371383Y-92830499D01*
X83429573Y-92849406D01*
X83441387Y-92859495D01*
X83543558Y-92961666D01*
X83543560Y-92961669D01*
X83582244Y-93000353D01*
X83582244Y-93000352D01*
X83629017Y-93047125D01*
X83654475Y-93072582D01*
X83817471Y-93191007D01*
X83819751Y-93192663D01*
X84001779Y-93285410D01*
X84001781Y-93285410D01*
X84001782Y-93285411D01*
X84001785Y-93285413D01*
X84196068Y-93348540D01*
X84196073Y-93348541D01*
X84397850Y-93380500D01*
X84397853Y-93380500D01*
X84440968Y-93380500D01*
X84499159Y-93399407D01*
X84510971Y-93409495D01*
X84541985Y-93440509D01*
X84541987Y-93440510D01*
X84541988Y-93440511D01*
X84541989Y-93440512D01*
X84667511Y-93512982D01*
X84667512Y-93512982D01*
X84667515Y-93512984D01*
X84807525Y-93550500D01*
X84807526Y-93550500D01*
X84952474Y-93550500D01*
X84952475Y-93550500D01*
X85092485Y-93512984D01*
X85092487Y-93512982D01*
X85092489Y-93512982D01*
X85218010Y-93440512D01*
X85218010Y-93440511D01*
X85218015Y-93440509D01*
X85320509Y-93338015D01*
X85322322Y-93334875D01*
X85392982Y-93212489D01*
X85392982Y-93212487D01*
X85392984Y-93212485D01*
X85430500Y-93072475D01*
X85430500Y-93072472D01*
X85431347Y-93066042D01*
X85434455Y-93066451D01*
X85449407Y-93020435D01*
X85459494Y-93008625D01*
X85463243Y-93004876D01*
X85498557Y-92969559D01*
X85577310Y-92861156D01*
X85582569Y-92850832D01*
X85616925Y-92812702D01*
X85626881Y-92806246D01*
X85660794Y-92794381D01*
X85766423Y-92716423D01*
X85767337Y-92715183D01*
X85776143Y-92709475D01*
X85802942Y-92702315D01*
X85829259Y-92693547D01*
X85832237Y-92694490D01*
X85835256Y-92693684D01*
X85861147Y-92703644D01*
X85887590Y-92712018D01*
X85888788Y-92712889D01*
X85999204Y-92794380D01*
X85999205Y-92794380D01*
X85999206Y-92794381D01*
X86123121Y-92837741D01*
X86152543Y-92840500D01*
X86527456Y-92840499D01*
X86527457Y-92840499D01*
X86533340Y-92839947D01*
X86556879Y-92837741D01*
X86680794Y-92794381D01*
X86786423Y-92716423D01*
X86786424Y-92716421D01*
X86792392Y-92712017D01*
X86792724Y-92712467D01*
X86794009Y-92710726D01*
X86815720Y-92703850D01*
X86835998Y-92693488D01*
X86844315Y-92694795D01*
X86852340Y-92692254D01*
X86873943Y-92699451D01*
X86896441Y-92702988D01*
X86910388Y-92711595D01*
X86949301Y-92740313D01*
X86984894Y-92790080D01*
X86989075Y-92817133D01*
X86989210Y-92817123D01*
X86989350Y-92818910D01*
X86989514Y-92819969D01*
X86989514Y-92821000D01*
X87009801Y-92949157D01*
X87009801Y-92949159D01*
X87049892Y-93072572D01*
X87049892Y-93072574D01*
X87108798Y-93188194D01*
X87108802Y-93188200D01*
X87131905Y-93220000D01*
X87183056Y-93290407D01*
X87185069Y-93293177D01*
X87185073Y-93293181D01*
X87192261Y-93300370D01*
X87192262Y-93300370D01*
X87201936Y-93310044D01*
X87201964Y-93310099D01*
X87230932Y-93339067D01*
X87230932Y-93339068D01*
X87276811Y-93384947D01*
X87276814Y-93384949D01*
X87276818Y-93384953D01*
X87381790Y-93461215D01*
X87381792Y-93461216D01*
X87381795Y-93461218D01*
X87497419Y-93520126D01*
X87620836Y-93560217D01*
X87748997Y-93580505D01*
X87748998Y-93580505D01*
X87748998Y-93580504D01*
X87749005Y-93580506D01*
X87813887Y-93580500D01*
X88295524Y-93580500D01*
X88302752Y-93580500D01*
X88302761Y-93580503D01*
X88316451Y-93580502D01*
X88316515Y-93580522D01*
X88357469Y-93580520D01*
X88357469Y-93580521D01*
X88454016Y-93580517D01*
X88645459Y-93555306D01*
X88831973Y-93505323D01*
X89010369Y-93431424D01*
X89177593Y-93334874D01*
X89330785Y-93217324D01*
X89399054Y-93149054D01*
X89437738Y-93110370D01*
X89437770Y-93110310D01*
X89441221Y-93106857D01*
X89442913Y-93105164D01*
X89442916Y-93105163D01*
X89442924Y-93105153D01*
X89467308Y-93080771D01*
X89584857Y-92927581D01*
X89681406Y-92760359D01*
X89755303Y-92581967D01*
X89805285Y-92395455D01*
X89830496Y-92204015D01*
X89830497Y-92157552D01*
X89830500Y-92157545D01*
X89830500Y-92100499D01*
X89830503Y-92052761D01*
X89830501Y-92052756D01*
X89830502Y-92046189D01*
X89830500Y-92046143D01*
X89830500Y-91680740D01*
X89830712Y-91674265D01*
X89833461Y-91632329D01*
X89845047Y-91455544D01*
X89846736Y-91442720D01*
X89888867Y-91230917D01*
X89892218Y-91218413D01*
X89894768Y-91210901D01*
X89961635Y-91013920D01*
X89966579Y-91001984D01*
X89969607Y-90995845D01*
X90717706Y-90995845D01*
X90846645Y-91049255D01*
X90846651Y-91049257D01*
X91001204Y-91079999D01*
X91001208Y-91080000D01*
X91158792Y-91080000D01*
X91158795Y-91079999D01*
X91313348Y-91049257D01*
X91313354Y-91049255D01*
X91442292Y-90995846D01*
X91079999Y-90633553D01*
X90717706Y-90995845D01*
X89969607Y-90995845D01*
X90062102Y-90808289D01*
X90068562Y-90797100D01*
X90187721Y-90618770D01*
X90235770Y-90580892D01*
X90296908Y-90578490D01*
X90347782Y-90612483D01*
X90361499Y-90635887D01*
X90364152Y-90642292D01*
X90755000Y-90251445D01*
X90755000Y-90322787D01*
X90777149Y-90405445D01*
X90819936Y-90479554D01*
X90880446Y-90540064D01*
X90954555Y-90582851D01*
X91037213Y-90605000D01*
X91122787Y-90605000D01*
X91205445Y-90582851D01*
X91279554Y-90540064D01*
X91340064Y-90479554D01*
X91382851Y-90405445D01*
X91405000Y-90322787D01*
X91405000Y-90279999D01*
X91433553Y-90279999D01*
X91795846Y-90642292D01*
X91849255Y-90513354D01*
X91849257Y-90513348D01*
X91879999Y-90358795D01*
X91880000Y-90358792D01*
X91880000Y-90201207D01*
X91879999Y-90201204D01*
X91849257Y-90046651D01*
X91849255Y-90046645D01*
X91795845Y-89917706D01*
X91433553Y-90279999D01*
X91405000Y-90279999D01*
X91405000Y-90237213D01*
X91382851Y-90154555D01*
X91340064Y-90080446D01*
X91279554Y-90019936D01*
X91205445Y-89977149D01*
X91122787Y-89955000D01*
X91051445Y-89955000D01*
X91183922Y-89822522D01*
X91234609Y-89795428D01*
X91313497Y-89779737D01*
X91459179Y-89719394D01*
X91590289Y-89631789D01*
X91701789Y-89520289D01*
X91742692Y-89459071D01*
X91763815Y-89442418D01*
X91783560Y-89424167D01*
X91787569Y-89423692D01*
X91790741Y-89421192D01*
X91844321Y-89416975D01*
X91982228Y-89444406D01*
X91994728Y-89447755D01*
X92164831Y-89505498D01*
X92176778Y-89510447D01*
X92259199Y-89551093D01*
X92337883Y-89589896D01*
X92349094Y-89596368D01*
X92498459Y-89696171D01*
X92508707Y-89704035D01*
X92646254Y-89824660D01*
X92650955Y-89829063D01*
X92687333Y-89865442D01*
X92687335Y-89865443D01*
X92687336Y-89865444D01*
X93155504Y-90333612D01*
X93183281Y-90388129D01*
X93184500Y-90403616D01*
X93184500Y-91044860D01*
X93184501Y-91044863D01*
X93187414Y-91069990D01*
X93208541Y-91117837D01*
X93232794Y-91172765D01*
X93312235Y-91252206D01*
X93415009Y-91297585D01*
X93440135Y-91300500D01*
X94279864Y-91300499D01*
X94304991Y-91297585D01*
X94407765Y-91252206D01*
X94487206Y-91172765D01*
X94532585Y-91069991D01*
X94535500Y-91044865D01*
X94535499Y-90750001D01*
X96935001Y-90750001D01*
X96935001Y-91044791D01*
X96937909Y-91069874D01*
X96983213Y-91172477D01*
X97062522Y-91251786D01*
X97165127Y-91297090D01*
X97190203Y-91299999D01*
X97360000Y-91299999D01*
X97360000Y-90750001D01*
X97860000Y-90750001D01*
X97860000Y-91299998D01*
X97860001Y-91299999D01*
X98029790Y-91299999D01*
X98029791Y-91299998D01*
X98054874Y-91297090D01*
X98157477Y-91251786D01*
X98236786Y-91172477D01*
X98282090Y-91069872D01*
X98284999Y-91044797D01*
X98285000Y-91044795D01*
X98285000Y-90750001D01*
X98284999Y-90750000D01*
X97860001Y-90750000D01*
X97860000Y-90750001D01*
X97360000Y-90750001D01*
X97359999Y-90750000D01*
X96935002Y-90750000D01*
X96935001Y-90750001D01*
X94535499Y-90750001D01*
X94535499Y-90499219D01*
X94535499Y-89955202D01*
X96935000Y-89955202D01*
X96935000Y-90249999D01*
X96935001Y-90250000D01*
X97359999Y-90250000D01*
X97360000Y-90249999D01*
X97360000Y-89700001D01*
X97860000Y-89700001D01*
X97860000Y-90249999D01*
X97860001Y-90250000D01*
X98284998Y-90250000D01*
X98284999Y-90249999D01*
X98284999Y-89955210D01*
X98284998Y-89955208D01*
X98282090Y-89930125D01*
X98236786Y-89827522D01*
X98157477Y-89748213D01*
X98054872Y-89702909D01*
X98029797Y-89700000D01*
X97860001Y-89700000D01*
X97860000Y-89700001D01*
X97360000Y-89700001D01*
X97359999Y-89700000D01*
X97190210Y-89700000D01*
X97190207Y-89700001D01*
X97165125Y-89702909D01*
X97062522Y-89748213D01*
X96983213Y-89827522D01*
X96937909Y-89930127D01*
X96935000Y-89955202D01*
X94535499Y-89955202D01*
X94535499Y-89955139D01*
X94535499Y-89955136D01*
X94532585Y-89930009D01*
X94487206Y-89827235D01*
X94407765Y-89747794D01*
X94304991Y-89702415D01*
X94304990Y-89702414D01*
X94299512Y-89699996D01*
X94253916Y-89659195D01*
X94240500Y-89609431D01*
X94240500Y-85390568D01*
X94259407Y-85332377D01*
X94299512Y-85300003D01*
X94304987Y-85297585D01*
X94304991Y-85297585D01*
X94407765Y-85252206D01*
X94487206Y-85172765D01*
X94532585Y-85069991D01*
X94535500Y-85044865D01*
X94535499Y-84750001D01*
X96935001Y-84750001D01*
X96935001Y-85044791D01*
X96937909Y-85069874D01*
X96983213Y-85172477D01*
X97062522Y-85251786D01*
X97165127Y-85297090D01*
X97190203Y-85299999D01*
X97360000Y-85299999D01*
X97360000Y-84750001D01*
X97860000Y-84750001D01*
X97860000Y-85299998D01*
X97860001Y-85299999D01*
X98029790Y-85299999D01*
X98029791Y-85299998D01*
X98054874Y-85297090D01*
X98157477Y-85251786D01*
X98236786Y-85172477D01*
X98282090Y-85069872D01*
X98284999Y-85044797D01*
X98285000Y-85044795D01*
X98285000Y-84750001D01*
X98284999Y-84750000D01*
X97860001Y-84750000D01*
X97860000Y-84750001D01*
X97360000Y-84750001D01*
X97359999Y-84750000D01*
X96935002Y-84750000D01*
X96935001Y-84750001D01*
X94535499Y-84750001D01*
X94535499Y-84499991D01*
X94535499Y-83955202D01*
X96935000Y-83955202D01*
X96935000Y-84249999D01*
X96935001Y-84250000D01*
X97359999Y-84250000D01*
X97360000Y-84249999D01*
X97360000Y-83700001D01*
X97860000Y-83700001D01*
X97860000Y-84249999D01*
X97860001Y-84250000D01*
X98284998Y-84250000D01*
X98284999Y-84249999D01*
X98284999Y-83955210D01*
X98284998Y-83955208D01*
X98282090Y-83930125D01*
X98236786Y-83827522D01*
X98157477Y-83748213D01*
X98054872Y-83702909D01*
X98029797Y-83700000D01*
X97860001Y-83700000D01*
X97860000Y-83700001D01*
X97360000Y-83700001D01*
X97359999Y-83700000D01*
X97190210Y-83700000D01*
X97190207Y-83700001D01*
X97165125Y-83702909D01*
X97062522Y-83748213D01*
X96983213Y-83827522D01*
X96937909Y-83930127D01*
X96935000Y-83955202D01*
X94535499Y-83955202D01*
X94535499Y-83955139D01*
X94535499Y-83955136D01*
X94532585Y-83930009D01*
X94487206Y-83827235D01*
X94407765Y-83747794D01*
X94304991Y-83702415D01*
X94304990Y-83702414D01*
X94304988Y-83702414D01*
X94279868Y-83699500D01*
X93440139Y-83699500D01*
X93440136Y-83699501D01*
X93415009Y-83702414D01*
X93312235Y-83747794D01*
X93232794Y-83827235D01*
X93187414Y-83930011D01*
X93184500Y-83955130D01*
X93184500Y-85044860D01*
X93184501Y-85044863D01*
X93187414Y-85069990D01*
X93209136Y-85119185D01*
X93232794Y-85172765D01*
X93312235Y-85252206D01*
X93415009Y-85297585D01*
X93415012Y-85297585D01*
X93420488Y-85300003D01*
X93466083Y-85340804D01*
X93479500Y-85390568D01*
X93479500Y-89342384D01*
X93460593Y-89400575D01*
X93411093Y-89436539D01*
X93349907Y-89436539D01*
X93310497Y-89412388D01*
X93146481Y-89248373D01*
X93146441Y-89248337D01*
X93141600Y-89243496D01*
X93098068Y-89199963D01*
X92901945Y-89043560D01*
X92845406Y-89008034D01*
X92689544Y-88910098D01*
X92689539Y-88910095D01*
X92463531Y-88801256D01*
X92463532Y-88801256D01*
X92226762Y-88718406D01*
X91982198Y-88662586D01*
X91842337Y-88646827D01*
X91786629Y-88621523D01*
X91771107Y-88603452D01*
X91749091Y-88570504D01*
X91701789Y-88499711D01*
X91701784Y-88499706D01*
X91701781Y-88499702D01*
X91647082Y-88445004D01*
X91619304Y-88390488D01*
X91628875Y-88330056D01*
X91647082Y-88304996D01*
X91701781Y-88250297D01*
X91701789Y-88250289D01*
X91789394Y-88119179D01*
X91849737Y-87973497D01*
X91880500Y-87818842D01*
X91880500Y-87661158D01*
X91849737Y-87506503D01*
X91807639Y-87404869D01*
X91789396Y-87360825D01*
X91789390Y-87360814D01*
X91754017Y-87307876D01*
X91701789Y-87229711D01*
X91701784Y-87229706D01*
X91701781Y-87229702D01*
X91647082Y-87175004D01*
X91619304Y-87120488D01*
X91628875Y-87060056D01*
X91647082Y-87034996D01*
X91701781Y-86980297D01*
X91701789Y-86980289D01*
X91789394Y-86849179D01*
X91849737Y-86703497D01*
X91880500Y-86548842D01*
X91880500Y-86391158D01*
X91849737Y-86236503D01*
X91815453Y-86153733D01*
X91789396Y-86090825D01*
X91789390Y-86090814D01*
X91729307Y-86000895D01*
X91701789Y-85959711D01*
X91701784Y-85959706D01*
X91701781Y-85959702D01*
X91647082Y-85905004D01*
X91619304Y-85850488D01*
X91628875Y-85790056D01*
X91647082Y-85764996D01*
X91701781Y-85710297D01*
X91701789Y-85710289D01*
X91789394Y-85579179D01*
X91849737Y-85433497D01*
X91880500Y-85278842D01*
X91880500Y-85121158D01*
X91849737Y-84966503D01*
X91789394Y-84820821D01*
X91764338Y-84783323D01*
X91747731Y-84724436D01*
X91768909Y-84667033D01*
X91776643Y-84658327D01*
X91832206Y-84602765D01*
X91877585Y-84499991D01*
X91880500Y-84474865D01*
X91880499Y-83385136D01*
X91877585Y-83360009D01*
X91832206Y-83257235D01*
X91752765Y-83177794D01*
X91649991Y-83132415D01*
X91649990Y-83132414D01*
X91649988Y-83132414D01*
X91624868Y-83129500D01*
X90535139Y-83129500D01*
X90535136Y-83129501D01*
X90510009Y-83132414D01*
X90407235Y-83177794D01*
X90327794Y-83257235D01*
X90282414Y-83360011D01*
X90279500Y-83385130D01*
X90279500Y-84350500D01*
X90260593Y-84408691D01*
X90211093Y-84444655D01*
X90180500Y-84449500D01*
X88627596Y-84449500D01*
X88569405Y-84430593D01*
X88533441Y-84381093D01*
X88533441Y-84319907D01*
X88537026Y-84310522D01*
X88572585Y-84229991D01*
X88575500Y-84204865D01*
X88575499Y-83715136D01*
X88572585Y-83690009D01*
X88532835Y-83599985D01*
X88526628Y-83539118D01*
X88532834Y-83520017D01*
X88572585Y-83429991D01*
X88575500Y-83404865D01*
X88575499Y-82915136D01*
X88572585Y-82890009D01*
X88532835Y-82799985D01*
X88526628Y-82739118D01*
X88532834Y-82720017D01*
X88572585Y-82629991D01*
X88575500Y-82604865D01*
X88575499Y-82115136D01*
X88572585Y-82090009D01*
X88532835Y-81999985D01*
X88526628Y-81939118D01*
X88532834Y-81920017D01*
X88572585Y-81829991D01*
X88575500Y-81804865D01*
X88575499Y-81315136D01*
X88572585Y-81290009D01*
X88551009Y-81241144D01*
X88532564Y-81199369D01*
X88526355Y-81138500D01*
X88532563Y-81119393D01*
X88572090Y-81029872D01*
X88574999Y-81004797D01*
X88575000Y-81004795D01*
X88575000Y-80860001D01*
X88574999Y-80860000D01*
X86975001Y-80860000D01*
X86975000Y-80860001D01*
X86975000Y-81359998D01*
X86975001Y-81359999D01*
X87019790Y-81359999D01*
X87019791Y-81359998D01*
X87044874Y-81357090D01*
X87049505Y-81355830D01*
X87110619Y-81358794D01*
X87158318Y-81397114D01*
X87174500Y-81451356D01*
X87174500Y-81804860D01*
X87174501Y-81804863D01*
X87177414Y-81829990D01*
X87217163Y-81920012D01*
X87223371Y-81980882D01*
X87217163Y-81999987D01*
X87177415Y-82090009D01*
X87177414Y-82090011D01*
X87174500Y-82115130D01*
X87174500Y-82604860D01*
X87174501Y-82604863D01*
X87177414Y-82629990D01*
X87217163Y-82720012D01*
X87223371Y-82780882D01*
X87217163Y-82799987D01*
X87177415Y-82890009D01*
X87177414Y-82890011D01*
X87174500Y-82915130D01*
X87174500Y-83404860D01*
X87174501Y-83404863D01*
X87177414Y-83429990D01*
X87217163Y-83520012D01*
X87223371Y-83580882D01*
X87217163Y-83599987D01*
X87177415Y-83690009D01*
X87177414Y-83690011D01*
X87174500Y-83715130D01*
X87174500Y-84204860D01*
X87174501Y-84204863D01*
X87177414Y-84229990D01*
X87217163Y-84320012D01*
X87223371Y-84380882D01*
X87217163Y-84399987D01*
X87177415Y-84490009D01*
X87177414Y-84490011D01*
X87174500Y-84515130D01*
X87174500Y-85004860D01*
X87174501Y-85004863D01*
X87177414Y-85029990D01*
X87217163Y-85120012D01*
X87223371Y-85180882D01*
X87217163Y-85199987D01*
X87177415Y-85290009D01*
X87177414Y-85290011D01*
X87174500Y-85315130D01*
X87174500Y-85804860D01*
X87174501Y-85804863D01*
X87177414Y-85829990D01*
X87217163Y-85920012D01*
X87223371Y-85980882D01*
X87217163Y-85999987D01*
X87177415Y-86090009D01*
X87177414Y-86090011D01*
X87174500Y-86115130D01*
X87174500Y-86604860D01*
X87174501Y-86604863D01*
X87177414Y-86629990D01*
X87217163Y-86720012D01*
X87223371Y-86780882D01*
X87217163Y-86799987D01*
X87177415Y-86890009D01*
X87177414Y-86890011D01*
X87174500Y-86915130D01*
X87174500Y-87404860D01*
X87174501Y-87404863D01*
X87177414Y-87429990D01*
X87217163Y-87520012D01*
X87223371Y-87580882D01*
X87217163Y-87599987D01*
X87177415Y-87690009D01*
X87177414Y-87690011D01*
X87174500Y-87715130D01*
X87174500Y-88204860D01*
X87174501Y-88204863D01*
X87177414Y-88229990D01*
X87217163Y-88320012D01*
X87223371Y-88380882D01*
X87217163Y-88399987D01*
X87177415Y-88490009D01*
X87177414Y-88490011D01*
X87174500Y-88515130D01*
X87174500Y-89004860D01*
X87174501Y-89004863D01*
X87177414Y-89029990D01*
X87217163Y-89120012D01*
X87223371Y-89180882D01*
X87217163Y-89199987D01*
X87177415Y-89290009D01*
X87177414Y-89290011D01*
X87174500Y-89315130D01*
X87174500Y-89668117D01*
X87155593Y-89726308D01*
X87106093Y-89762272D01*
X87049510Y-89763645D01*
X87044993Y-89762415D01*
X87044991Y-89762415D01*
X87044988Y-89762414D01*
X87044986Y-89762414D01*
X87019868Y-89759500D01*
X86530139Y-89759500D01*
X86530136Y-89759501D01*
X86505009Y-89762414D01*
X86414987Y-89802163D01*
X86354117Y-89808371D01*
X86335014Y-89802164D01*
X86244991Y-89762415D01*
X86244990Y-89762414D01*
X86244988Y-89762414D01*
X86219868Y-89759500D01*
X85730139Y-89759500D01*
X85730136Y-89759501D01*
X85705009Y-89762414D01*
X85614987Y-89802163D01*
X85554117Y-89808371D01*
X85535014Y-89802164D01*
X85444991Y-89762415D01*
X85444990Y-89762414D01*
X85444988Y-89762414D01*
X85419868Y-89759500D01*
X84930139Y-89759500D01*
X84930136Y-89759501D01*
X84905009Y-89762414D01*
X84814987Y-89802163D01*
X84754117Y-89808371D01*
X84735014Y-89802164D01*
X84644991Y-89762415D01*
X84644990Y-89762414D01*
X84644988Y-89762414D01*
X84619868Y-89759500D01*
X84130139Y-89759500D01*
X84130136Y-89759501D01*
X84105009Y-89762414D01*
X84014987Y-89802163D01*
X83954117Y-89808371D01*
X83935014Y-89802164D01*
X83844991Y-89762415D01*
X83844990Y-89762414D01*
X83844988Y-89762414D01*
X83819869Y-89759500D01*
X83419500Y-89759500D01*
X83361309Y-89740593D01*
X83325345Y-89691093D01*
X83320500Y-89660500D01*
X83320500Y-89657525D01*
X83307766Y-89610001D01*
X83282984Y-89517515D01*
X83282982Y-89517512D01*
X83282982Y-89517510D01*
X83210512Y-89391989D01*
X83210510Y-89391987D01*
X83210509Y-89391985D01*
X83108015Y-89289491D01*
X83108012Y-89289489D01*
X83108010Y-89289487D01*
X82982488Y-89217017D01*
X82982489Y-89217017D01*
X82921239Y-89200605D01*
X82842475Y-89179500D01*
X82697525Y-89179500D01*
X82668658Y-89187235D01*
X82557510Y-89217017D01*
X82431989Y-89289487D01*
X82329487Y-89391989D01*
X82257017Y-89517510D01*
X82219500Y-89657525D01*
X82219500Y-89660500D01*
X82218841Y-89662527D01*
X82218653Y-89663958D01*
X82218387Y-89663923D01*
X82200593Y-89718691D01*
X82151093Y-89754655D01*
X82120500Y-89759500D01*
X81730139Y-89759500D01*
X81730136Y-89759501D01*
X81705009Y-89762414D01*
X81614987Y-89802163D01*
X81554117Y-89808371D01*
X81535014Y-89802164D01*
X81444991Y-89762415D01*
X81444990Y-89762414D01*
X81444988Y-89762414D01*
X81419868Y-89759500D01*
X80930139Y-89759500D01*
X80930136Y-89759501D01*
X80905009Y-89762414D01*
X80814987Y-89802163D01*
X80754117Y-89808371D01*
X80735014Y-89802164D01*
X80644991Y-89762415D01*
X80644990Y-89762414D01*
X80644988Y-89762414D01*
X80619868Y-89759500D01*
X80130139Y-89759500D01*
X80130136Y-89759501D01*
X80105009Y-89762414D01*
X80014987Y-89802163D01*
X79954117Y-89808371D01*
X79935014Y-89802164D01*
X79844991Y-89762415D01*
X79844990Y-89762414D01*
X79844988Y-89762414D01*
X79819868Y-89759500D01*
X79330139Y-89759500D01*
X79330136Y-89759501D01*
X79305009Y-89762414D01*
X79214369Y-89802436D01*
X79153499Y-89808644D01*
X79134393Y-89802436D01*
X79044872Y-89762909D01*
X79019797Y-89760000D01*
X78975001Y-89760000D01*
X78975000Y-89760001D01*
X78975000Y-91159998D01*
X78975001Y-91159999D01*
X79019790Y-91159999D01*
X79019791Y-91159998D01*
X79044874Y-91157090D01*
X79134394Y-91117563D01*
X79195263Y-91111355D01*
X79214360Y-91117559D01*
X79305009Y-91157585D01*
X79330135Y-91160500D01*
X79819864Y-91160499D01*
X79844991Y-91157585D01*
X79935012Y-91117836D01*
X79945229Y-91116794D01*
X79954110Y-91111630D01*
X79974995Y-91113758D01*
X79995881Y-91111628D01*
X80014976Y-91117831D01*
X80020865Y-91120432D01*
X80066462Y-91161227D01*
X80079373Y-91221035D01*
X80054664Y-91277009D01*
X80050887Y-91281002D01*
X78133740Y-93198151D01*
X78133739Y-93198151D01*
X78095054Y-93236835D01*
X78055361Y-93276529D01*
X78055321Y-93276574D01*
X78024552Y-93307344D01*
X77976556Y-93369893D01*
X77926131Y-93404549D01*
X77864967Y-93402946D01*
X77816426Y-93365698D01*
X77804571Y-93342323D01*
X77746517Y-93176419D01*
X77744651Y-93171087D01*
X77636397Y-92946299D01*
X77636210Y-92946002D01*
X77576410Y-92850833D01*
X77503654Y-92735045D01*
X77503651Y-92735041D01*
X77503650Y-92735039D01*
X77348090Y-92539978D01*
X77259882Y-92451774D01*
X76944931Y-92136823D01*
X76944930Y-92136821D01*
X76935243Y-92127134D01*
X76935236Y-92127121D01*
X76822601Y-92014488D01*
X76822598Y-92014485D01*
X76693101Y-91915119D01*
X76634896Y-91870457D01*
X76634895Y-91870456D01*
X76429989Y-91752155D01*
X76211411Y-91661619D01*
X76211410Y-91661618D01*
X76211406Y-91661617D01*
X75982871Y-91600381D01*
X75982868Y-91600380D01*
X75982866Y-91600380D01*
X75748299Y-91569500D01*
X75748298Y-91569500D01*
X75680094Y-91569500D01*
X75635054Y-91569500D01*
X75576863Y-91550593D01*
X75555401Y-91529291D01*
X75536423Y-91503577D01*
X75536419Y-91503574D01*
X75536417Y-91503572D01*
X75430795Y-91425619D01*
X75306883Y-91382260D01*
X75306874Y-91382258D01*
X75277465Y-91379500D01*
X74802542Y-91379500D01*
X74773124Y-91382258D01*
X74773119Y-91382259D01*
X74649204Y-91425619D01*
X74543581Y-91503572D01*
X74543572Y-91503581D01*
X74465619Y-91609204D01*
X74422260Y-91733116D01*
X74422258Y-91733125D01*
X74419500Y-91762532D01*
X74419500Y-92137457D01*
X74422258Y-92166875D01*
X74422259Y-92166880D01*
X74465619Y-92290795D01*
X74547421Y-92401634D01*
X74566763Y-92459682D01*
X74548291Y-92518012D01*
X74547421Y-92519210D01*
X74466065Y-92629442D01*
X74466064Y-92629445D01*
X74434377Y-92720000D01*
X74941000Y-92720000D01*
X74999191Y-92738907D01*
X75035155Y-92788407D01*
X75040000Y-92819000D01*
X75040000Y-92969999D01*
X75040001Y-92970000D01*
X75191000Y-92970000D01*
X75249191Y-92988907D01*
X75285155Y-93038407D01*
X75290000Y-93069000D01*
X75290000Y-93538816D01*
X75306781Y-93537244D01*
X75306791Y-93537242D01*
X75430552Y-93493936D01*
X75431340Y-93493520D01*
X75432139Y-93493380D01*
X75437561Y-93491484D01*
X75437875Y-93492383D01*
X75491621Y-93483040D01*
X75546549Y-93509993D01*
X75569072Y-93543158D01*
X75589222Y-93591806D01*
X75589228Y-93591817D01*
X75665885Y-93706541D01*
X75665893Y-93706550D01*
X75750503Y-93791159D01*
X75754129Y-93798275D01*
X75760593Y-93802972D01*
X75767757Y-93825021D01*
X75778281Y-93845675D01*
X75779500Y-93861163D01*
X75779500Y-93862488D01*
X75771065Y-93902473D01*
X75757367Y-93933498D01*
X75732414Y-93990011D01*
X75729500Y-94015130D01*
X75729500Y-94015132D01*
X75729500Y-94015135D01*
X75729500Y-94779975D01*
X75729501Y-94785000D01*
X75729501Y-95554863D01*
X75732414Y-95579990D01*
X75732416Y-95579995D01*
X75771564Y-95668656D01*
X75779919Y-95704633D01*
X75785935Y-95853011D01*
X75779152Y-95877175D01*
X75775226Y-95901967D01*
X75770920Y-95906504D01*
X75769400Y-95911920D01*
X75754921Y-95923363D01*
X75736517Y-95942758D01*
X75690139Y-95969534D01*
X75690138Y-95969535D01*
X75629535Y-96030138D01*
X75586682Y-96104362D01*
X75564500Y-96187147D01*
X75564500Y-96272853D01*
X75586682Y-96355638D01*
X75629535Y-96429862D01*
X75690138Y-96490465D01*
X75764362Y-96533318D01*
X75847147Y-96555500D01*
X75847149Y-96555500D01*
X75932851Y-96555500D01*
X75932853Y-96555500D01*
X76015638Y-96533318D01*
X76089862Y-96490465D01*
X76150465Y-96429862D01*
X76193318Y-96355638D01*
X76215500Y-96272853D01*
X76215500Y-96187147D01*
X76193318Y-96104362D01*
X76150465Y-96030138D01*
X76099827Y-95979500D01*
X76072052Y-95924986D01*
X76081623Y-95864554D01*
X76124888Y-95821289D01*
X76169829Y-95810499D01*
X76674864Y-95810499D01*
X76699991Y-95807585D01*
X76715011Y-95800953D01*
X76775880Y-95794744D01*
X76794986Y-95800951D01*
X76810009Y-95807585D01*
X76835135Y-95810500D01*
X77050500Y-95810499D01*
X77065411Y-95815344D01*
X77081093Y-95815344D01*
X77093779Y-95824561D01*
X77108690Y-95829406D01*
X77117905Y-95842089D01*
X77130593Y-95851308D01*
X77135438Y-95866222D01*
X77144654Y-95878906D01*
X77149500Y-95909499D01*
X77149500Y-96030968D01*
X77130593Y-96089159D01*
X77120505Y-96100970D01*
X77099492Y-96121983D01*
X77099487Y-96121989D01*
X77027017Y-96247510D01*
X76995746Y-96364216D01*
X76989500Y-96387525D01*
X76989500Y-96532475D01*
X77006591Y-96596257D01*
X77027017Y-96672489D01*
X77027713Y-96673694D01*
X77027920Y-96674668D01*
X77029500Y-96678483D01*
X77028792Y-96678775D01*
X77030035Y-96684625D01*
X77036494Y-96693747D01*
X77036248Y-96713864D01*
X77040430Y-96733544D01*
X77035883Y-96743753D01*
X77035747Y-96754927D01*
X77024199Y-96769988D01*
X77015539Y-96789437D01*
X76999182Y-96803985D01*
X76998081Y-96804764D01*
X76894674Y-96873850D01*
X76881761Y-96886761D01*
X76881740Y-96886773D01*
X76880485Y-96888027D01*
X76880478Y-96888033D01*
X76878014Y-96890499D01*
X76874386Y-96892347D01*
X76873653Y-96892867D01*
X76872917Y-96893095D01*
X76823499Y-96918280D01*
X76808006Y-96919500D01*
X75314639Y-96919500D01*
X75309781Y-96919381D01*
X75160077Y-96912026D01*
X75102884Y-96890286D01*
X75069393Y-96839081D01*
X75072395Y-96777969D01*
X75082620Y-96758142D01*
X75168949Y-96628943D01*
X75168951Y-96628940D01*
X75229257Y-96483349D01*
X75259999Y-96328795D01*
X75260000Y-96328792D01*
X75260000Y-95871006D01*
X75278907Y-95812815D01*
X75280000Y-95811535D01*
X75280000Y-95035001D01*
X75279999Y-95035000D01*
X74924000Y-95035000D01*
X74865809Y-95016093D01*
X74829845Y-94966593D01*
X74825000Y-94936000D01*
X74825000Y-94634000D01*
X74843907Y-94575809D01*
X74893407Y-94539845D01*
X74924000Y-94535000D01*
X75279999Y-94535000D01*
X75280000Y-94534999D01*
X75280000Y-93760000D01*
X75185210Y-93760000D01*
X75185207Y-93760001D01*
X75160125Y-93762909D01*
X75057522Y-93808213D01*
X74978213Y-93887522D01*
X74932909Y-93990127D01*
X74930000Y-94015202D01*
X74930000Y-94330602D01*
X74911093Y-94388793D01*
X74861593Y-94424757D01*
X74800407Y-94424757D01*
X74793115Y-94422066D01*
X74710000Y-94387639D01*
X74710000Y-94983011D01*
X74700060Y-94965795D01*
X74644205Y-94909940D01*
X74575796Y-94870444D01*
X74499496Y-94850000D01*
X74420504Y-94850000D01*
X74344204Y-94870444D01*
X74275795Y-94909940D01*
X74219940Y-94965795D01*
X74210000Y-94983011D01*
X74210000Y-94387639D01*
X74081059Y-94441048D01*
X74081050Y-94441052D01*
X73950030Y-94528599D01*
X73950026Y-94528602D01*
X73838602Y-94640026D01*
X73838599Y-94640030D01*
X73751052Y-94771050D01*
X73751048Y-94771059D01*
X73690742Y-94916650D01*
X73660000Y-95071204D01*
X73660000Y-95449999D01*
X73660001Y-95450000D01*
X74160000Y-95450000D01*
X74160000Y-95950000D01*
X73660001Y-95950000D01*
X73660000Y-95950001D01*
X73660000Y-96332003D01*
X73656482Y-96342828D01*
X73657487Y-96354168D01*
X73647248Y-96371250D01*
X73641093Y-96390194D01*
X73631882Y-96396886D01*
X73626031Y-96406648D01*
X73607708Y-96414449D01*
X73591593Y-96426158D01*
X73580209Y-96426158D01*
X73569736Y-96430617D01*
X73550326Y-96426158D01*
X73530407Y-96426158D01*
X73510104Y-96416918D01*
X73365380Y-96330174D01*
X73357302Y-96324777D01*
X73088303Y-96125274D01*
X73080793Y-96119110D01*
X72830889Y-95892611D01*
X72827369Y-95889261D01*
X72462253Y-95524145D01*
X72097341Y-95159233D01*
X72097338Y-95159231D01*
X72092490Y-95154383D01*
X72092430Y-95154330D01*
X72087006Y-95148906D01*
X72044917Y-95106815D01*
X71847797Y-94955558D01*
X71813922Y-94936000D01*
X71632622Y-94831324D01*
X71403069Y-94736239D01*
X71191323Y-94679502D01*
X71163072Y-94671932D01*
X71163069Y-94671931D01*
X71163067Y-94671931D01*
X71125227Y-94666949D01*
X71117179Y-94663110D01*
X71108263Y-94663177D01*
X71090125Y-94650205D01*
X71070003Y-94640607D01*
X71058501Y-94627591D01*
X71040932Y-94603785D01*
X71021592Y-94545740D01*
X71040064Y-94487409D01*
X71040934Y-94486212D01*
X71080292Y-94432883D01*
X71080291Y-94432883D01*
X71080293Y-94432882D01*
X71125146Y-94304699D01*
X71127999Y-94274273D01*
X71128000Y-94274273D01*
X71128000Y-93865727D01*
X71127999Y-93865725D01*
X71125146Y-93835301D01*
X71080293Y-93707118D01*
X71079867Y-93706541D01*
X70999654Y-93597855D01*
X70999652Y-93597853D01*
X70999650Y-93597850D01*
X70999646Y-93597847D01*
X70999644Y-93597845D01*
X70890385Y-93517208D01*
X70890379Y-93517205D01*
X70846802Y-93501957D01*
X70823322Y-93484079D01*
X70799407Y-93466704D01*
X70799047Y-93465596D01*
X70798122Y-93464892D01*
X70780500Y-93408513D01*
X70780500Y-93275053D01*
X70798387Y-93220000D01*
X74434377Y-93220000D01*
X74466064Y-93310553D01*
X74543934Y-93416063D01*
X74543936Y-93416065D01*
X74649445Y-93493935D01*
X74649444Y-93493935D01*
X74773208Y-93537242D01*
X74773218Y-93537244D01*
X74790000Y-93538817D01*
X74790000Y-93220001D01*
X74789999Y-93220000D01*
X74434377Y-93220000D01*
X70798387Y-93220000D01*
X70799407Y-93216862D01*
X70820710Y-93195399D01*
X70846423Y-93176423D01*
X70924381Y-93070794D01*
X70967741Y-92946879D01*
X70970500Y-92917457D01*
X70970499Y-92442544D01*
X70967741Y-92413121D01*
X70924381Y-92289206D01*
X70924380Y-92289204D01*
X70846427Y-92183581D01*
X70846418Y-92183572D01*
X70740795Y-92105619D01*
X70616883Y-92062260D01*
X70616874Y-92062258D01*
X70587467Y-92059500D01*
X70440295Y-92059500D01*
X70382104Y-92040593D01*
X70346140Y-91991093D01*
X70346140Y-91929907D01*
X70354556Y-91911004D01*
X70422984Y-91792485D01*
X70460500Y-91652475D01*
X70460500Y-91507525D01*
X70422984Y-91367515D01*
X70422982Y-91367512D01*
X70422982Y-91367510D01*
X70350512Y-91241989D01*
X70350510Y-91241987D01*
X70350509Y-91241985D01*
X70248015Y-91139491D01*
X70248012Y-91139489D01*
X70248010Y-91139487D01*
X70122488Y-91067017D01*
X70122489Y-91067017D01*
X70056208Y-91049257D01*
X69982475Y-91029500D01*
X69837525Y-91029500D01*
X69780183Y-91044865D01*
X69697510Y-91067017D01*
X69577622Y-91136236D01*
X69528122Y-91149500D01*
X68425054Y-91149500D01*
X68366863Y-91130593D01*
X68345401Y-91109291D01*
X68326423Y-91083577D01*
X68326419Y-91083574D01*
X68326417Y-91083572D01*
X68220795Y-91005619D01*
X68096883Y-90962260D01*
X68096874Y-90962258D01*
X68067467Y-90959500D01*
X67970112Y-90959500D01*
X67911921Y-90940593D01*
X67875957Y-90891093D01*
X67875957Y-90829907D01*
X67911921Y-90780407D01*
X67937409Y-90767057D01*
X68030794Y-90734381D01*
X68030797Y-90734379D01*
X68141212Y-90652889D01*
X68199259Y-90633547D01*
X68257590Y-90652018D01*
X68258788Y-90652889D01*
X68369204Y-90734380D01*
X68369205Y-90734380D01*
X68369206Y-90734381D01*
X68493121Y-90777741D01*
X68522543Y-90780500D01*
X68897456Y-90780499D01*
X68897457Y-90780499D01*
X68903340Y-90779947D01*
X68926879Y-90777741D01*
X68977577Y-90760001D01*
X75375001Y-90760001D01*
X75375001Y-90904791D01*
X75377909Y-90929874D01*
X75423213Y-91032477D01*
X75502522Y-91111786D01*
X75605127Y-91157090D01*
X75630203Y-91159999D01*
X75775000Y-91159999D01*
X75775000Y-90760001D01*
X75774999Y-90760000D01*
X75375002Y-90760000D01*
X75375001Y-90760001D01*
X68977577Y-90760001D01*
X69050794Y-90734381D01*
X69156423Y-90656423D01*
X69159032Y-90652889D01*
X69210722Y-90582851D01*
X69234381Y-90550794D01*
X69277741Y-90426879D01*
X69280500Y-90397457D01*
X69280499Y-90168614D01*
X69282967Y-90161017D01*
X69281718Y-90153128D01*
X69292242Y-90132471D01*
X69297854Y-90115202D01*
X75375000Y-90115202D01*
X75375000Y-90259999D01*
X75375001Y-90260000D01*
X75774999Y-90260000D01*
X75775000Y-90259999D01*
X75775000Y-89760001D01*
X76275000Y-89760001D01*
X76275000Y-91159998D01*
X76275001Y-91159999D01*
X76419790Y-91159999D01*
X76419791Y-91159998D01*
X76444874Y-91157090D01*
X76547477Y-91111786D01*
X76604643Y-91054621D01*
X76659160Y-91026844D01*
X76719592Y-91036415D01*
X76744647Y-91054618D01*
X76802235Y-91112206D01*
X76905009Y-91157585D01*
X76930135Y-91160500D01*
X77419864Y-91160499D01*
X77444991Y-91157585D01*
X77535012Y-91117836D01*
X77595881Y-91111628D01*
X77614979Y-91117833D01*
X77705009Y-91157585D01*
X77730135Y-91160500D01*
X78219864Y-91160499D01*
X78244991Y-91157585D01*
X78335630Y-91117563D01*
X78396499Y-91111355D01*
X78415606Y-91117563D01*
X78505127Y-91157090D01*
X78530204Y-91159999D01*
X78575000Y-91159998D01*
X78575000Y-89759999D01*
X78530212Y-89760000D01*
X78530207Y-89760001D01*
X78505125Y-89762909D01*
X78505123Y-89762910D01*
X78415604Y-89802436D01*
X78354735Y-89808644D01*
X78335633Y-89802437D01*
X78244991Y-89762415D01*
X78244990Y-89762414D01*
X78244988Y-89762414D01*
X78219868Y-89759500D01*
X77730139Y-89759500D01*
X77730136Y-89759501D01*
X77705009Y-89762414D01*
X77614987Y-89802163D01*
X77554117Y-89808371D01*
X77535014Y-89802164D01*
X77444991Y-89762415D01*
X77444990Y-89762414D01*
X77444988Y-89762414D01*
X77419868Y-89759500D01*
X76930139Y-89759500D01*
X76930136Y-89759501D01*
X76905009Y-89762414D01*
X76878532Y-89774105D01*
X76817662Y-89780311D01*
X76780391Y-89760000D01*
X76275001Y-89760000D01*
X76275000Y-89760001D01*
X75775000Y-89760001D01*
X75774999Y-89760000D01*
X75375002Y-89760000D01*
X75375001Y-89760001D01*
X75375001Y-89804791D01*
X75377909Y-89829874D01*
X75417709Y-89920012D01*
X75423917Y-89980882D01*
X75417709Y-89999987D01*
X75377910Y-90090124D01*
X75377909Y-90090127D01*
X75375000Y-90115202D01*
X69297854Y-90115202D01*
X69299406Y-90110425D01*
X69309489Y-90098617D01*
X69798106Y-89610000D01*
X73742332Y-89610000D01*
X73776595Y-89707922D01*
X73855358Y-89814639D01*
X73855360Y-89814641D01*
X73962079Y-89893405D01*
X74087275Y-89937213D01*
X74090000Y-89937468D01*
X74090000Y-89610001D01*
X74590000Y-89610001D01*
X74590000Y-89937468D01*
X74592724Y-89937213D01*
X74717920Y-89893405D01*
X74824639Y-89814641D01*
X74824641Y-89814639D01*
X74903404Y-89707922D01*
X74937668Y-89610000D01*
X74590001Y-89610000D01*
X74590000Y-89610001D01*
X74090000Y-89610001D01*
X74089999Y-89610000D01*
X73742332Y-89610000D01*
X69798106Y-89610000D01*
X72562794Y-86845312D01*
X72562797Y-86845311D01*
X72599798Y-86808308D01*
X72603255Y-86805018D01*
X72812909Y-86614994D01*
X72820392Y-86608852D01*
X73045688Y-86441759D01*
X73053764Y-86436363D01*
X73129181Y-86391159D01*
X73294346Y-86292161D01*
X73302889Y-86287594D01*
X73556460Y-86167662D01*
X73565427Y-86163949D01*
X73587149Y-86156177D01*
X73648308Y-86154376D01*
X73698845Y-86188867D01*
X73719457Y-86246476D01*
X73719500Y-86249390D01*
X73719500Y-86597457D01*
X73722258Y-86626875D01*
X73722259Y-86626880D01*
X73765619Y-86750795D01*
X73847110Y-86861212D01*
X73866452Y-86919260D01*
X73847981Y-86977590D01*
X73847110Y-86978788D01*
X73765619Y-87089204D01*
X73722260Y-87213116D01*
X73722258Y-87213125D01*
X73719500Y-87242532D01*
X73719500Y-87617457D01*
X73722258Y-87646875D01*
X73722259Y-87646880D01*
X73765619Y-87770795D01*
X73831207Y-87859663D01*
X73850549Y-87917710D01*
X73832078Y-87976041D01*
X73831207Y-87977239D01*
X73776148Y-88051841D01*
X73732291Y-88177176D01*
X73732289Y-88177185D01*
X73729500Y-88206923D01*
X73729500Y-88593076D01*
X73732289Y-88622814D01*
X73732291Y-88622823D01*
X73776148Y-88748158D01*
X73830375Y-88821633D01*
X73849717Y-88879681D01*
X73831246Y-88938011D01*
X73830375Y-88939209D01*
X73776596Y-89012075D01*
X73742332Y-89110000D01*
X74937668Y-89110000D01*
X74903403Y-89012075D01*
X74849624Y-88939208D01*
X74830282Y-88881161D01*
X74848753Y-88822830D01*
X74849624Y-88821633D01*
X74903852Y-88748157D01*
X74947710Y-88622819D01*
X74950500Y-88593066D01*
X74950500Y-88206934D01*
X74950500Y-88206928D01*
X74950499Y-88206923D01*
X74947710Y-88177185D01*
X74947710Y-88177181D01*
X74903852Y-88051843D01*
X74848792Y-87977239D01*
X74839249Y-87948602D01*
X74829460Y-87920039D01*
X74829593Y-87919622D01*
X74829450Y-87919192D01*
X74847431Y-87861553D01*
X74848087Y-87860617D01*
X74914381Y-87770794D01*
X74917567Y-87761688D01*
X74925458Y-87750453D01*
X74939465Y-87739928D01*
X74950077Y-87725985D01*
X74963320Y-87722004D01*
X74974375Y-87713699D01*
X74991892Y-87713418D01*
X75008673Y-87708375D01*
X75021026Y-87710144D01*
X75021091Y-87709653D01*
X75027524Y-87710500D01*
X75027525Y-87710500D01*
X75172476Y-87710500D01*
X75172476Y-87710499D01*
X75249876Y-87689760D01*
X75310977Y-87692961D01*
X75358528Y-87731466D01*
X75374500Y-87785386D01*
X75374500Y-88204860D01*
X75374501Y-88204863D01*
X75377414Y-88229990D01*
X75417163Y-88320012D01*
X75423371Y-88380882D01*
X75417163Y-88399987D01*
X75377415Y-88490009D01*
X75377414Y-88490011D01*
X75374500Y-88515130D01*
X75374500Y-89004860D01*
X75374501Y-89004863D01*
X75377414Y-89029990D01*
X75417436Y-89120630D01*
X75423644Y-89181500D01*
X75417436Y-89200605D01*
X75377910Y-89290124D01*
X75377909Y-89290127D01*
X75375000Y-89315202D01*
X75375000Y-89359999D01*
X75375001Y-89360000D01*
X76774998Y-89360000D01*
X76774999Y-89359999D01*
X76774999Y-89315210D01*
X76774998Y-89315208D01*
X76772090Y-89290125D01*
X76732563Y-89200605D01*
X76726355Y-89139735D01*
X76732561Y-89120636D01*
X76772585Y-89029991D01*
X76775500Y-89004865D01*
X76775499Y-88515136D01*
X76772585Y-88490009D01*
X76732835Y-88399985D01*
X76726628Y-88339118D01*
X76732834Y-88320017D01*
X76772585Y-88229991D01*
X76775500Y-88204865D01*
X76775499Y-87715136D01*
X76772585Y-87690009D01*
X76732835Y-87599985D01*
X76726628Y-87539118D01*
X76732834Y-87520017D01*
X76772585Y-87429991D01*
X76775500Y-87404865D01*
X76775499Y-86915136D01*
X76772585Y-86890009D01*
X76732835Y-86799985D01*
X76726628Y-86739118D01*
X76732834Y-86720017D01*
X76772585Y-86629991D01*
X76775500Y-86604865D01*
X76775499Y-86115136D01*
X76772585Y-86090009D01*
X76732835Y-85999985D01*
X76726628Y-85939118D01*
X76732834Y-85920017D01*
X76772585Y-85829991D01*
X76775500Y-85804865D01*
X76775499Y-85315136D01*
X76772585Y-85290009D01*
X76732835Y-85199985D01*
X76726628Y-85139118D01*
X76732834Y-85120017D01*
X76772585Y-85029991D01*
X76775500Y-85004865D01*
X76775499Y-84515136D01*
X76772585Y-84490009D01*
X76732835Y-84399985D01*
X76726628Y-84339118D01*
X76732834Y-84320017D01*
X76772585Y-84229991D01*
X76775500Y-84204865D01*
X76775499Y-83715136D01*
X76772585Y-83690009D01*
X76732835Y-83599985D01*
X76726628Y-83539118D01*
X76732834Y-83520017D01*
X76772585Y-83429991D01*
X76775500Y-83404865D01*
X76775499Y-82915136D01*
X76772585Y-82890009D01*
X76759286Y-82859890D01*
X76732564Y-82799369D01*
X76726355Y-82738500D01*
X76732563Y-82719393D01*
X76772090Y-82629872D01*
X76774999Y-82604797D01*
X76775000Y-82604795D01*
X76775000Y-82560001D01*
X76774999Y-82560000D01*
X75375002Y-82560000D01*
X75356398Y-82578603D01*
X75356094Y-82579540D01*
X75353782Y-82581219D01*
X75346005Y-82588997D01*
X75344773Y-82587765D01*
X75306594Y-82615504D01*
X75250380Y-82616976D01*
X75222477Y-82609500D01*
X75222475Y-82609500D01*
X75077525Y-82609500D01*
X74995122Y-82631579D01*
X74934022Y-82628378D01*
X74886472Y-82589872D01*
X74871799Y-82551939D01*
X74870500Y-82543999D01*
X74870500Y-82476934D01*
X74867710Y-82447181D01*
X74843196Y-82377124D01*
X74841799Y-82368585D01*
X74842470Y-82364197D01*
X74840500Y-82352599D01*
X74840500Y-82325132D01*
X74840501Y-82325128D01*
X74840500Y-82299292D01*
X74840502Y-82299286D01*
X74840501Y-82230011D01*
X74840501Y-82176334D01*
X74832928Y-82128523D01*
X75375000Y-82128523D01*
X75375000Y-82159999D01*
X75375001Y-82160000D01*
X75874999Y-82160000D01*
X75875000Y-82159999D01*
X75875000Y-81760001D01*
X76275000Y-81760001D01*
X76275000Y-82159999D01*
X76275001Y-82160000D01*
X76774998Y-82160000D01*
X76774999Y-82159999D01*
X76774999Y-82115210D01*
X76774998Y-82115208D01*
X76772090Y-82090125D01*
X76732290Y-81999987D01*
X76726082Y-81939118D01*
X76732291Y-81920011D01*
X76772088Y-81829877D01*
X76772090Y-81829872D01*
X76774999Y-81804797D01*
X76775000Y-81804795D01*
X76775000Y-81760001D01*
X76774999Y-81760000D01*
X76275001Y-81760000D01*
X76275000Y-81760001D01*
X75875000Y-81760001D01*
X75874999Y-81760000D01*
X75375002Y-81760000D01*
X75375001Y-81760001D01*
X75375001Y-81804791D01*
X75377909Y-81829874D01*
X75417709Y-81920012D01*
X75418287Y-81925681D01*
X75421592Y-81930324D01*
X75421345Y-81955668D01*
X75423917Y-81980882D01*
X75421013Y-81989817D01*
X75420997Y-81991507D01*
X75375000Y-82128523D01*
X74832928Y-82128523D01*
X74814859Y-82014451D01*
X74814858Y-82014447D01*
X74764212Y-81858577D01*
X74764208Y-81858569D01*
X74689799Y-81712535D01*
X74593460Y-81579936D01*
X74586761Y-81573237D01*
X74586760Y-81573235D01*
X74340515Y-81326990D01*
X74340512Y-81326988D01*
X74337057Y-81323532D01*
X74337052Y-81323528D01*
X74337051Y-81323527D01*
X74328726Y-81315202D01*
X75375000Y-81315202D01*
X75375000Y-81359999D01*
X75375001Y-81360000D01*
X75774999Y-81360000D01*
X75775000Y-81359999D01*
X75775000Y-80860001D01*
X76275000Y-80860001D01*
X76275000Y-81359999D01*
X76275001Y-81360000D01*
X76780848Y-81360000D01*
X76823436Y-81338299D01*
X76878914Y-81345516D01*
X76905125Y-81357089D01*
X76905127Y-81357090D01*
X76930204Y-81359999D01*
X76975000Y-81359998D01*
X76975000Y-80860001D01*
X77375000Y-80860001D01*
X77375000Y-81359998D01*
X77375001Y-81359999D01*
X77419790Y-81359999D01*
X77419791Y-81359998D01*
X77444874Y-81357090D01*
X77444879Y-81357088D01*
X77535012Y-81317291D01*
X77595881Y-81311082D01*
X77614988Y-81317290D01*
X77705127Y-81357090D01*
X77730204Y-81359999D01*
X77775000Y-81359998D01*
X77775000Y-80860001D01*
X78175000Y-80860001D01*
X78175000Y-81359998D01*
X78175001Y-81359999D01*
X78219790Y-81359999D01*
X78219791Y-81359998D01*
X78244874Y-81357090D01*
X78244879Y-81357088D01*
X78335012Y-81317291D01*
X78395881Y-81311082D01*
X78414988Y-81317290D01*
X78505127Y-81357090D01*
X78530204Y-81359999D01*
X78575000Y-81359998D01*
X78575000Y-80860001D01*
X78975000Y-80860001D01*
X78975000Y-81359998D01*
X78975001Y-81359999D01*
X79019790Y-81359999D01*
X79019791Y-81359998D01*
X79044874Y-81357090D01*
X79044879Y-81357088D01*
X79135012Y-81317291D01*
X79195881Y-81311082D01*
X79214988Y-81317290D01*
X79305127Y-81357090D01*
X79330204Y-81359999D01*
X79375000Y-81359998D01*
X79375000Y-80860001D01*
X79775000Y-80860001D01*
X79775000Y-81359998D01*
X79775001Y-81359999D01*
X79819790Y-81359999D01*
X79819791Y-81359998D01*
X79844874Y-81357090D01*
X79844879Y-81357088D01*
X79935012Y-81317291D01*
X79995881Y-81311082D01*
X80014988Y-81317290D01*
X80105127Y-81357090D01*
X80130204Y-81359999D01*
X80175000Y-81359998D01*
X80175000Y-80860001D01*
X80575000Y-80860001D01*
X80575000Y-81359998D01*
X80575001Y-81359999D01*
X80619790Y-81359999D01*
X80619791Y-81359998D01*
X80644874Y-81357090D01*
X80644879Y-81357088D01*
X80735012Y-81317291D01*
X80795881Y-81311082D01*
X80814988Y-81317290D01*
X80905127Y-81357090D01*
X80930204Y-81359999D01*
X80975000Y-81359998D01*
X80975000Y-80860001D01*
X81375000Y-80860001D01*
X81375000Y-81359998D01*
X81375001Y-81359999D01*
X81419790Y-81359999D01*
X81419791Y-81359998D01*
X81444874Y-81357090D01*
X81444879Y-81357088D01*
X81535012Y-81317291D01*
X81595881Y-81311082D01*
X81614988Y-81317290D01*
X81705127Y-81357090D01*
X81730204Y-81359999D01*
X81775000Y-81359998D01*
X81775000Y-80860001D01*
X82175000Y-80860001D01*
X82175000Y-81359998D01*
X82175001Y-81359999D01*
X82219790Y-81359999D01*
X82219791Y-81359998D01*
X82244874Y-81357090D01*
X82244879Y-81357088D01*
X82335012Y-81317291D01*
X82395881Y-81311082D01*
X82414988Y-81317290D01*
X82505127Y-81357090D01*
X82530204Y-81359999D01*
X82575000Y-81359998D01*
X82575000Y-80860001D01*
X82975000Y-80860001D01*
X82975000Y-81359998D01*
X82975001Y-81359999D01*
X83019790Y-81359999D01*
X83019791Y-81359998D01*
X83044874Y-81357090D01*
X83044879Y-81357088D01*
X83135012Y-81317291D01*
X83195881Y-81311082D01*
X83214988Y-81317290D01*
X83305127Y-81357090D01*
X83330204Y-81359999D01*
X83375000Y-81359998D01*
X83375000Y-80860001D01*
X83775000Y-80860001D01*
X83775000Y-81359998D01*
X83775001Y-81359999D01*
X83819790Y-81359999D01*
X83819791Y-81359998D01*
X83844874Y-81357090D01*
X83844879Y-81357088D01*
X83935012Y-81317291D01*
X83995881Y-81311082D01*
X84014988Y-81317290D01*
X84105127Y-81357090D01*
X84130204Y-81359999D01*
X84175000Y-81359998D01*
X84175000Y-80860001D01*
X84575000Y-80860001D01*
X84575000Y-81359998D01*
X84575001Y-81359999D01*
X84619790Y-81359999D01*
X84619791Y-81359998D01*
X84644874Y-81357090D01*
X84644879Y-81357088D01*
X84735012Y-81317291D01*
X84795881Y-81311082D01*
X84814988Y-81317290D01*
X84905127Y-81357090D01*
X84930204Y-81359999D01*
X84975000Y-81359998D01*
X84975000Y-80860001D01*
X85375000Y-80860001D01*
X85375000Y-81359998D01*
X85375001Y-81359999D01*
X85419790Y-81359999D01*
X85419791Y-81359998D01*
X85444874Y-81357090D01*
X85444879Y-81357088D01*
X85535012Y-81317291D01*
X85595881Y-81311082D01*
X85614988Y-81317290D01*
X85705127Y-81357090D01*
X85730204Y-81359999D01*
X85775000Y-81359998D01*
X85775000Y-80860001D01*
X86175000Y-80860001D01*
X86175000Y-81359998D01*
X86175001Y-81359999D01*
X86219790Y-81359999D01*
X86219791Y-81359998D01*
X86244874Y-81357090D01*
X86244879Y-81357088D01*
X86335012Y-81317291D01*
X86395881Y-81311082D01*
X86414988Y-81317290D01*
X86505127Y-81357090D01*
X86530204Y-81359999D01*
X86575000Y-81359998D01*
X86575000Y-80860001D01*
X86574999Y-80860000D01*
X86175001Y-80860000D01*
X86175000Y-80860001D01*
X85775000Y-80860001D01*
X85774999Y-80860000D01*
X85375001Y-80860000D01*
X85375000Y-80860001D01*
X84975000Y-80860001D01*
X84974999Y-80860000D01*
X84575001Y-80860000D01*
X84575000Y-80860001D01*
X84175000Y-80860001D01*
X84174999Y-80860000D01*
X83775001Y-80860000D01*
X83775000Y-80860001D01*
X83375000Y-80860001D01*
X83374999Y-80860000D01*
X82975001Y-80860000D01*
X82975000Y-80860001D01*
X82575000Y-80860001D01*
X82574999Y-80860000D01*
X82175001Y-80860000D01*
X82175000Y-80860001D01*
X81775000Y-80860001D01*
X81774999Y-80860000D01*
X81375001Y-80860000D01*
X81375000Y-80860001D01*
X80975000Y-80860001D01*
X80974999Y-80860000D01*
X80575001Y-80860000D01*
X80575000Y-80860001D01*
X80175000Y-80860001D01*
X80174999Y-80860000D01*
X79775001Y-80860000D01*
X79775000Y-80860001D01*
X79375000Y-80860001D01*
X79374999Y-80860000D01*
X78975001Y-80860000D01*
X78975000Y-80860001D01*
X78575000Y-80860001D01*
X78574999Y-80860000D01*
X78175001Y-80860000D01*
X78175000Y-80860001D01*
X77775000Y-80860001D01*
X77774999Y-80860000D01*
X77375001Y-80860000D01*
X77375000Y-80860001D01*
X76975000Y-80860001D01*
X76974999Y-80860000D01*
X76275001Y-80860000D01*
X76275000Y-80860001D01*
X75775000Y-80860001D01*
X75774999Y-80860000D01*
X75375002Y-80860000D01*
X75375001Y-80860001D01*
X75375001Y-81004791D01*
X75377909Y-81029874D01*
X75417709Y-81120012D01*
X75423917Y-81180882D01*
X75417709Y-81199987D01*
X75377910Y-81290124D01*
X75377909Y-81290127D01*
X75375000Y-81315202D01*
X74328726Y-81315202D01*
X73964496Y-80950971D01*
X73936719Y-80896455D01*
X73935500Y-80880968D01*
X73935500Y-80658857D01*
X73935499Y-80658851D01*
X73925359Y-80574410D01*
X73874492Y-80445421D01*
X73872365Y-80440027D01*
X73872364Y-80440026D01*
X73872364Y-80440025D01*
X73785078Y-80324922D01*
X73669975Y-80237636D01*
X73669974Y-80237635D01*
X73669972Y-80237634D01*
X73553230Y-80191597D01*
X73506033Y-80152661D01*
X73490736Y-80093418D01*
X73513182Y-80036499D01*
X73564798Y-80003644D01*
X73589549Y-80000500D01*
X75309704Y-80000500D01*
X75367895Y-80019407D01*
X75403859Y-80068907D01*
X75403859Y-80130093D01*
X75400269Y-80139488D01*
X75377909Y-80190127D01*
X75375000Y-80215202D01*
X75375000Y-80359999D01*
X75375001Y-80360000D01*
X76681000Y-80360000D01*
X76739191Y-80378907D01*
X76775155Y-80428407D01*
X76780000Y-80459000D01*
X76780000Y-80459999D01*
X76780001Y-80460000D01*
X87169999Y-80460000D01*
X87170000Y-80459999D01*
X87170000Y-80459000D01*
X87188907Y-80400809D01*
X87238407Y-80364845D01*
X87269000Y-80360000D01*
X88574998Y-80360000D01*
X88574999Y-80359999D01*
X88574999Y-80215210D01*
X88574998Y-80215208D01*
X88572090Y-80190125D01*
X88572089Y-80190123D01*
X88549732Y-80139489D01*
X88543523Y-80078619D01*
X88574279Y-80025725D01*
X88630250Y-80001011D01*
X88640296Y-80000500D01*
X98900500Y-80000500D01*
X98958691Y-80019407D01*
X98994655Y-80068907D01*
X98999500Y-80099500D01*
X98999500Y-102900500D01*
X98980593Y-102958691D01*
X98931093Y-102994655D01*
X98900500Y-102999500D01*
X49099500Y-102999500D01*
X49041309Y-102980593D01*
X49005345Y-102931093D01*
X49000500Y-102900500D01*
X49000500Y-98208851D01*
X49624500Y-98208851D01*
X49624500Y-98741148D01*
X49634641Y-98825591D01*
X49687634Y-98959972D01*
X49687635Y-98959974D01*
X49687636Y-98959975D01*
X49774922Y-99075078D01*
X49890025Y-99162364D01*
X49890026Y-99162364D01*
X49890027Y-99162365D01*
X49933283Y-99179423D01*
X50024410Y-99215359D01*
X50108856Y-99225500D01*
X50108858Y-99225500D01*
X50691142Y-99225500D01*
X50691144Y-99225500D01*
X50775590Y-99215359D01*
X50909975Y-99162364D01*
X51025078Y-99075078D01*
X51032773Y-99064930D01*
X51082997Y-99029986D01*
X51144170Y-99031238D01*
X51192924Y-99068206D01*
X51210637Y-99126772D01*
X51205104Y-99157441D01*
X51202354Y-99165299D01*
X51202353Y-99165305D01*
X51199500Y-99195725D01*
X51199500Y-99604274D01*
X51202353Y-99634694D01*
X51202355Y-99634703D01*
X51247206Y-99762881D01*
X51286566Y-99816212D01*
X51305907Y-99874260D01*
X51287435Y-99932591D01*
X51286566Y-99933788D01*
X51247206Y-99987118D01*
X51202355Y-100115296D01*
X51202353Y-100115305D01*
X51199500Y-100145725D01*
X51199500Y-100554274D01*
X51202353Y-100584694D01*
X51202355Y-100584703D01*
X51247207Y-100712883D01*
X51327845Y-100822144D01*
X51327847Y-100822146D01*
X51327850Y-100822150D01*
X51327853Y-100822152D01*
X51327855Y-100822154D01*
X51437116Y-100902792D01*
X51437117Y-100902792D01*
X51437118Y-100902793D01*
X51472507Y-100915176D01*
X51520746Y-100932056D01*
X51569426Y-100969121D01*
X51587023Y-101027722D01*
X51566815Y-101085473D01*
X51516520Y-101120317D01*
X51488048Y-101124500D01*
X51478851Y-101124500D01*
X51394408Y-101134641D01*
X51260027Y-101187634D01*
X51215076Y-101221721D01*
X51144922Y-101274922D01*
X51144920Y-101274923D01*
X51139527Y-101279014D01*
X51137596Y-101276467D01*
X51094748Y-101298193D01*
X51041572Y-101291846D01*
X51004328Y-101276420D01*
X50868995Y-101249500D01*
X50868993Y-101249500D01*
X50731007Y-101249500D01*
X50731004Y-101249500D01*
X50595672Y-101276420D01*
X50595670Y-101276420D01*
X50468193Y-101329222D01*
X50468182Y-101329228D01*
X50353458Y-101405885D01*
X50255885Y-101503458D01*
X50179228Y-101618182D01*
X50179222Y-101618193D01*
X50126420Y-101745670D01*
X50126420Y-101745672D01*
X50099500Y-101881004D01*
X50099500Y-102018995D01*
X50126420Y-102154327D01*
X50126420Y-102154329D01*
X50179222Y-102281806D01*
X50179228Y-102281817D01*
X50255885Y-102396541D01*
X50353458Y-102494114D01*
X50468182Y-102570771D01*
X50468193Y-102570777D01*
X50491667Y-102580500D01*
X50595672Y-102623580D01*
X50731007Y-102650500D01*
X50731008Y-102650500D01*
X50868992Y-102650500D01*
X50868993Y-102650500D01*
X51004328Y-102623580D01*
X51126804Y-102572848D01*
X51187799Y-102568048D01*
X51224506Y-102585429D01*
X51235615Y-102593853D01*
X51260022Y-102612362D01*
X51260027Y-102612365D01*
X51327217Y-102638861D01*
X51394410Y-102665359D01*
X51478856Y-102675500D01*
X51478858Y-102675500D01*
X52011142Y-102675500D01*
X52011144Y-102675500D01*
X52095590Y-102665359D01*
X52229975Y-102612364D01*
X52345078Y-102525078D01*
X52432364Y-102409975D01*
X52432367Y-102409966D01*
X52433989Y-102407082D01*
X52435874Y-102405344D01*
X52436455Y-102404579D01*
X52436592Y-102404683D01*
X52478985Y-102365621D01*
X52539757Y-102358526D01*
X52593094Y-102388507D01*
X52606583Y-102407072D01*
X52608074Y-102409725D01*
X52695276Y-102524717D01*
X52695282Y-102524723D01*
X52810270Y-102611922D01*
X52944531Y-102664867D01*
X53028895Y-102674999D01*
X53028900Y-102675000D01*
X53044999Y-102675000D01*
X53045000Y-102674999D01*
X53045000Y-102150001D01*
X53545000Y-102150001D01*
X53545000Y-102674999D01*
X53545001Y-102675000D01*
X53561100Y-102675000D01*
X53561104Y-102674999D01*
X53645468Y-102664867D01*
X53779729Y-102611922D01*
X53894717Y-102524723D01*
X53894723Y-102524717D01*
X53981922Y-102409729D01*
X54034867Y-102275468D01*
X54044999Y-102191104D01*
X54045000Y-102191100D01*
X54045000Y-102150001D01*
X54044999Y-102150000D01*
X53545001Y-102150000D01*
X53545000Y-102150001D01*
X53045000Y-102150001D01*
X53045000Y-101801004D01*
X57729500Y-101801004D01*
X57729500Y-101938995D01*
X57747115Y-102027550D01*
X57753192Y-102058102D01*
X57756420Y-102074327D01*
X57756420Y-102074329D01*
X57809222Y-102201806D01*
X57809228Y-102201817D01*
X57885885Y-102316541D01*
X57983458Y-102414114D01*
X58098182Y-102490771D01*
X58098193Y-102490777D01*
X58145283Y-102510282D01*
X58225672Y-102543580D01*
X58361007Y-102570500D01*
X58361008Y-102570500D01*
X58498992Y-102570500D01*
X58498993Y-102570500D01*
X58564841Y-102557401D01*
X58584155Y-102555500D01*
X59662699Y-102555500D01*
X59674503Y-102556206D01*
X59751898Y-102565500D01*
X59751900Y-102565500D01*
X61928100Y-102565500D01*
X61928102Y-102565500D01*
X62016564Y-102554877D01*
X62157342Y-102499361D01*
X62277922Y-102407922D01*
X62369361Y-102287342D01*
X62424877Y-102146564D01*
X62435500Y-102058102D01*
X62435500Y-101059450D01*
X70339500Y-101059450D01*
X70339500Y-101240549D01*
X70367828Y-101419406D01*
X70423788Y-101591637D01*
X70453525Y-101650000D01*
X70506004Y-101752994D01*
X70612447Y-101899501D01*
X70740499Y-102027553D01*
X70887006Y-102133996D01*
X71048361Y-102216211D01*
X71220591Y-102272171D01*
X71281456Y-102281811D01*
X71399451Y-102300500D01*
X71399454Y-102300500D01*
X71580549Y-102300500D01*
X71669977Y-102286335D01*
X71709976Y-102280000D01*
X89432531Y-102280000D01*
X89432786Y-102282724D01*
X89476594Y-102407920D01*
X89555358Y-102514639D01*
X89555360Y-102514641D01*
X89662077Y-102593404D01*
X89760000Y-102627668D01*
X89760000Y-102280001D01*
X89759999Y-102280000D01*
X89432531Y-102280000D01*
X71709976Y-102280000D01*
X71759409Y-102272171D01*
X71931639Y-102216211D01*
X72046934Y-102157465D01*
X72046937Y-102157464D01*
X72092983Y-102134002D01*
X72092990Y-102133998D01*
X72092989Y-102133998D01*
X72092994Y-102133996D01*
X72239501Y-102027553D01*
X72367553Y-101899501D01*
X72473996Y-101752994D01*
X72556211Y-101591639D01*
X72612171Y-101419409D01*
X72634170Y-101280512D01*
X72640500Y-101240549D01*
X72640500Y-101059450D01*
X72612171Y-100880593D01*
X72612171Y-100880591D01*
X72556211Y-100708361D01*
X72473996Y-100547006D01*
X72367553Y-100400499D01*
X72239501Y-100272447D01*
X72092994Y-100166004D01*
X72092993Y-100166003D01*
X71931637Y-100083788D01*
X71759406Y-100027828D01*
X71580549Y-99999500D01*
X71580546Y-99999500D01*
X71399454Y-99999500D01*
X71399451Y-99999500D01*
X71220593Y-100027828D01*
X71048362Y-100083788D01*
X70887008Y-100166002D01*
X70813752Y-100219225D01*
X70740499Y-100272447D01*
X70612447Y-100400499D01*
X70569540Y-100459556D01*
X70506002Y-100547008D01*
X70423788Y-100708362D01*
X70367828Y-100880593D01*
X70339500Y-101059450D01*
X62435500Y-101059450D01*
X62435500Y-100401898D01*
X62424877Y-100313436D01*
X62369361Y-100172658D01*
X62277922Y-100052078D01*
X62157342Y-99960639D01*
X62157341Y-99960638D01*
X62157339Y-99960637D01*
X62130365Y-99950000D01*
X64933239Y-99950000D01*
X64972654Y-100062647D01*
X65053207Y-100171790D01*
X65053209Y-100171792D01*
X65162352Y-100252345D01*
X65290398Y-100297149D01*
X65320789Y-100299999D01*
X65712498Y-100299999D01*
X65712500Y-100299998D01*
X65712500Y-99950001D01*
X66212500Y-99950001D01*
X66212500Y-100299998D01*
X66212501Y-100299999D01*
X66604203Y-100299999D01*
X66634600Y-100297149D01*
X66634602Y-100297149D01*
X66762647Y-100252345D01*
X66871790Y-100171792D01*
X66871792Y-100171790D01*
X66952345Y-100062647D01*
X66991761Y-99950000D01*
X66212501Y-99950000D01*
X66212500Y-99950001D01*
X65712500Y-99950001D01*
X65712499Y-99950000D01*
X64933239Y-99950000D01*
X62130365Y-99950000D01*
X62016565Y-99905123D01*
X61928106Y-99894500D01*
X61928102Y-99894500D01*
X59751898Y-99894500D01*
X59751893Y-99894500D01*
X59663434Y-99905123D01*
X59522660Y-99960637D01*
X59522656Y-99960640D01*
X59402081Y-100052075D01*
X59402075Y-100052081D01*
X59310640Y-100172656D01*
X59310637Y-100172660D01*
X59255123Y-100313434D01*
X59244500Y-100401893D01*
X59244500Y-101105500D01*
X59225593Y-101163691D01*
X59176093Y-101199655D01*
X59145500Y-101204500D01*
X58673526Y-101204500D01*
X58639036Y-101197639D01*
X58638978Y-101197831D01*
X58637036Y-101197241D01*
X58635643Y-101196964D01*
X58634328Y-101196420D01*
X58634324Y-101196419D01*
X58498995Y-101169500D01*
X58498993Y-101169500D01*
X58361007Y-101169500D01*
X58361004Y-101169500D01*
X58225672Y-101196420D01*
X58225670Y-101196420D01*
X58098193Y-101249222D01*
X58098182Y-101249228D01*
X57983458Y-101325885D01*
X57885885Y-101423458D01*
X57809228Y-101538182D01*
X57809222Y-101538193D01*
X57756420Y-101665670D01*
X57756420Y-101665672D01*
X57729500Y-101801004D01*
X53045000Y-101801004D01*
X53045000Y-101125001D01*
X53545000Y-101125001D01*
X53545000Y-101649999D01*
X53545001Y-101650000D01*
X54044999Y-101650000D01*
X54045000Y-101649999D01*
X54045000Y-101608899D01*
X54044999Y-101608895D01*
X54034867Y-101524531D01*
X53981922Y-101390270D01*
X53894723Y-101275282D01*
X53894717Y-101275276D01*
X53779729Y-101188077D01*
X53645468Y-101135132D01*
X53561104Y-101125000D01*
X53545001Y-101125000D01*
X53545000Y-101125001D01*
X53045000Y-101125001D01*
X53044999Y-101125000D01*
X53028895Y-101125000D01*
X52944529Y-101135132D01*
X52848318Y-101173073D01*
X52845156Y-101173267D01*
X52842593Y-101175130D01*
X52814890Y-101175130D01*
X52787248Y-101176831D01*
X52784576Y-101175130D01*
X52781407Y-101175130D01*
X52758996Y-101158848D01*
X52735633Y-101143976D01*
X52734470Y-101141028D01*
X52731907Y-101139166D01*
X52723346Y-101112819D01*
X52713187Y-101087056D01*
X52713000Y-101080975D01*
X52713000Y-101034230D01*
X52731907Y-100976039D01*
X52779299Y-100940787D01*
X52887882Y-100902793D01*
X52997150Y-100822150D01*
X53077793Y-100712882D01*
X53117292Y-100600000D01*
X53483239Y-100600000D01*
X53522654Y-100712647D01*
X53603207Y-100821790D01*
X53603209Y-100821792D01*
X53712352Y-100902345D01*
X53840398Y-100947149D01*
X53870789Y-100949999D01*
X54187498Y-100949999D01*
X54187500Y-100949998D01*
X54187500Y-100600001D01*
X54687500Y-100600001D01*
X54687500Y-100949998D01*
X54687501Y-100949999D01*
X55004203Y-100949999D01*
X55034600Y-100947149D01*
X55034602Y-100947149D01*
X55162647Y-100902345D01*
X55271790Y-100821792D01*
X55271792Y-100821790D01*
X55352345Y-100712647D01*
X55391761Y-100600000D01*
X54687501Y-100600000D01*
X54687500Y-100600001D01*
X54187500Y-100600001D01*
X54187499Y-100600000D01*
X53483239Y-100600000D01*
X53117292Y-100600000D01*
X53122646Y-100584699D01*
X53125062Y-100558940D01*
X53125500Y-100554272D01*
X53125500Y-100145727D01*
X53125499Y-100145725D01*
X53125297Y-100143570D01*
X53122646Y-100115301D01*
X53077793Y-99987118D01*
X53063303Y-99967485D01*
X53038434Y-99933788D01*
X53038188Y-99933052D01*
X53037564Y-99932591D01*
X53028541Y-99904101D01*
X53019092Y-99875741D01*
X53019326Y-99875000D01*
X53019092Y-99874260D01*
X53028544Y-99845891D01*
X53037563Y-99817410D01*
X53038378Y-99816287D01*
X53067471Y-99776867D01*
X53117237Y-99741276D01*
X53178420Y-99741734D01*
X53217126Y-99765651D01*
X53281985Y-99830510D01*
X53281987Y-99830511D01*
X53367840Y-99880079D01*
X53367841Y-99880079D01*
X53390746Y-99893302D01*
X53407515Y-99902984D01*
X53436714Y-99910808D01*
X53488028Y-99944131D01*
X53509955Y-100001252D01*
X53504536Y-100039130D01*
X53483237Y-100099999D01*
X53483238Y-100100000D01*
X55391762Y-100100000D01*
X55391761Y-100099999D01*
X55375910Y-100054698D01*
X55375883Y-100053535D01*
X55375199Y-100052593D01*
X55375199Y-100023021D01*
X55374537Y-99993528D01*
X55375199Y-99992572D01*
X55375199Y-99991407D01*
X55392578Y-99967485D01*
X55409381Y-99943233D01*
X55410478Y-99942848D01*
X55411163Y-99941907D01*
X55439264Y-99932776D01*
X55467133Y-99923025D01*
X55469354Y-99923000D01*
X55622600Y-99923000D01*
X55655297Y-99928555D01*
X55717181Y-99950210D01*
X55744619Y-99952782D01*
X55746923Y-99952999D01*
X55746928Y-99953000D01*
X55746934Y-99953000D01*
X56193072Y-99953000D01*
X56193075Y-99952999D01*
X56222819Y-99950210D01*
X56348157Y-99906352D01*
X56454999Y-99827499D01*
X56533852Y-99720657D01*
X56577710Y-99595319D01*
X56580500Y-99565566D01*
X56580500Y-99450000D01*
X64933239Y-99450000D01*
X65712499Y-99450000D01*
X65712500Y-99449999D01*
X65712500Y-99100001D01*
X65712499Y-99100000D01*
X65320796Y-99100000D01*
X65290399Y-99102850D01*
X65290397Y-99102850D01*
X65162352Y-99147654D01*
X65053209Y-99228207D01*
X65053207Y-99228209D01*
X64972654Y-99337352D01*
X64933239Y-99450000D01*
X56580500Y-99450000D01*
X56580500Y-99179434D01*
X56580500Y-99179428D01*
X56580499Y-99179423D01*
X56579175Y-99165301D01*
X56577710Y-99149681D01*
X56533852Y-99024343D01*
X56533851Y-99024341D01*
X56533851Y-99024340D01*
X56518257Y-99003212D01*
X56518256Y-99003211D01*
X56486365Y-98960000D01*
X63714377Y-98960000D01*
X63746064Y-99050553D01*
X63823934Y-99156063D01*
X63823936Y-99156065D01*
X63929445Y-99233935D01*
X63929444Y-99233935D01*
X64053208Y-99277242D01*
X64053218Y-99277244D01*
X64070000Y-99278817D01*
X64070000Y-98960001D01*
X64570000Y-98960001D01*
X64570000Y-99278816D01*
X64586781Y-99277244D01*
X64586791Y-99277242D01*
X64710554Y-99233935D01*
X64816063Y-99156065D01*
X64816065Y-99156063D01*
X64893935Y-99050553D01*
X64925623Y-98960000D01*
X64570001Y-98960000D01*
X64570000Y-98960001D01*
X64070000Y-98960001D01*
X64069999Y-98960000D01*
X63714377Y-98960000D01*
X56486365Y-98960000D01*
X56479935Y-98951288D01*
X56460593Y-98893241D01*
X56479064Y-98834910D01*
X56479892Y-98833769D01*
X56533852Y-98760657D01*
X56577710Y-98635319D01*
X56580500Y-98605566D01*
X56580500Y-98219434D01*
X56580500Y-98219428D01*
X56580499Y-98219423D01*
X56579508Y-98208856D01*
X56577710Y-98189681D01*
X56533852Y-98064343D01*
X56529182Y-98058015D01*
X56455002Y-97957504D01*
X56454995Y-97957497D01*
X56348158Y-97878648D01*
X56222823Y-97834791D01*
X56222814Y-97834789D01*
X56193076Y-97832000D01*
X56193066Y-97832000D01*
X55746934Y-97832000D01*
X55746923Y-97832000D01*
X55717185Y-97834789D01*
X55717176Y-97834791D01*
X55591846Y-97878646D01*
X55591845Y-97878646D01*
X55590727Y-97879471D01*
X55589797Y-97880157D01*
X55587606Y-97880887D01*
X55585288Y-97882113D01*
X55585084Y-97881727D01*
X55531750Y-97899497D01*
X55531013Y-97899500D01*
X55186255Y-97899500D01*
X55153557Y-97893944D01*
X55034703Y-97852355D01*
X55034694Y-97852353D01*
X55004274Y-97849500D01*
X55004266Y-97849500D01*
X54540634Y-97849500D01*
X54522165Y-97843499D01*
X54502809Y-97841989D01*
X54493758Y-97834269D01*
X54482443Y-97830593D01*
X54471028Y-97814881D01*
X54456257Y-97802283D01*
X54453472Y-97790718D01*
X54446479Y-97781093D01*
X54446479Y-97761673D01*
X54441934Y-97742798D01*
X54446479Y-97731804D01*
X54446479Y-97719907D01*
X54465307Y-97686259D01*
X54465951Y-97685505D01*
X54470060Y-97681060D01*
X54470149Y-97680945D01*
X54478020Y-97671880D01*
X54491228Y-97658413D01*
X54512168Y-97637061D01*
X54513814Y-97634142D01*
X54537732Y-97605857D01*
X54542575Y-97601937D01*
X54570180Y-97563943D01*
X54574987Y-97557846D01*
X54592013Y-97537912D01*
X54605487Y-97522137D01*
X54608943Y-97514890D01*
X54616559Y-97502532D01*
X63699500Y-97502532D01*
X63699500Y-97877457D01*
X63702258Y-97906875D01*
X63702259Y-97906880D01*
X63745619Y-98030795D01*
X63827421Y-98141634D01*
X63846763Y-98199682D01*
X63828291Y-98258012D01*
X63827421Y-98259210D01*
X63746065Y-98369442D01*
X63746064Y-98369445D01*
X63714377Y-98460000D01*
X64925622Y-98460000D01*
X64898712Y-98383098D01*
X64897338Y-98321928D01*
X64932182Y-98271633D01*
X64989934Y-98251424D01*
X65048534Y-98269020D01*
X65050944Y-98270744D01*
X65162116Y-98352792D01*
X65162117Y-98352792D01*
X65162118Y-98352793D01*
X65290301Y-98397646D01*
X65320725Y-98400499D01*
X65320727Y-98400500D01*
X65320734Y-98400500D01*
X66604273Y-98400500D01*
X66604273Y-98400499D01*
X66634699Y-98397646D01*
X66678621Y-98382276D01*
X66739787Y-98380903D01*
X66790083Y-98415746D01*
X66810292Y-98473498D01*
X66804763Y-98508414D01*
X66802355Y-98515296D01*
X66802353Y-98515305D01*
X66799500Y-98545725D01*
X66799500Y-98954274D01*
X66802353Y-98984694D01*
X66802355Y-98984703D01*
X66804974Y-98992189D01*
X66806344Y-99053359D01*
X66771497Y-99103652D01*
X66713744Y-99123857D01*
X66678830Y-99118326D01*
X66634603Y-99102850D01*
X66634604Y-99102850D01*
X66604211Y-99100000D01*
X66212501Y-99100000D01*
X66212500Y-99100001D01*
X66212500Y-99449999D01*
X66212501Y-99450000D01*
X66991762Y-99450000D01*
X66994367Y-99446327D01*
X66993261Y-99397038D01*
X67028105Y-99346743D01*
X67085857Y-99326535D01*
X67120775Y-99332065D01*
X67165301Y-99347646D01*
X67195725Y-99350499D01*
X67195727Y-99350500D01*
X67195734Y-99350500D01*
X68479273Y-99350500D01*
X68479273Y-99350499D01*
X68509699Y-99347646D01*
X68628557Y-99306056D01*
X68661255Y-99300500D01*
X70240501Y-99300500D01*
X70298692Y-99319407D01*
X70334656Y-99368907D01*
X70339501Y-99399500D01*
X70339501Y-99504863D01*
X70342414Y-99529990D01*
X70358123Y-99565566D01*
X70387794Y-99632765D01*
X70467235Y-99712206D01*
X70570009Y-99757585D01*
X70595135Y-99760500D01*
X72384864Y-99760499D01*
X72409991Y-99757585D01*
X72512765Y-99712206D01*
X72592206Y-99632765D01*
X72637585Y-99529991D01*
X72640500Y-99504865D01*
X72640500Y-99501204D01*
X73660000Y-99501204D01*
X73660000Y-99629999D01*
X73660001Y-99630000D01*
X74160000Y-99630000D01*
X74160000Y-100130000D01*
X73660001Y-100130000D01*
X73660000Y-100130001D01*
X73660000Y-100258795D01*
X73690742Y-100413349D01*
X73751048Y-100558940D01*
X73751052Y-100558949D01*
X73838599Y-100689969D01*
X73838602Y-100689973D01*
X73950026Y-100801397D01*
X73950030Y-100801400D01*
X74081058Y-100888951D01*
X74209999Y-100942360D01*
X74210000Y-100942359D01*
X74210000Y-100346988D01*
X74219940Y-100364205D01*
X74275795Y-100420060D01*
X74344204Y-100459556D01*
X74420504Y-100480000D01*
X74499496Y-100480000D01*
X74575796Y-100459556D01*
X74644205Y-100420060D01*
X74700060Y-100364205D01*
X74710000Y-100346988D01*
X74710000Y-100942360D01*
X74838941Y-100888951D01*
X74969969Y-100801400D01*
X74969973Y-100801397D01*
X75081397Y-100689973D01*
X75081400Y-100689969D01*
X75168947Y-100558949D01*
X75168951Y-100558940D01*
X75229257Y-100413349D01*
X75259999Y-100258795D01*
X75260000Y-100258792D01*
X75260000Y-100130001D01*
X75259999Y-100130000D01*
X74760000Y-100130000D01*
X74760000Y-99630000D01*
X75259999Y-99630000D01*
X75260000Y-99629999D01*
X75260000Y-99501207D01*
X75259999Y-99501204D01*
X82300000Y-99501204D01*
X82300000Y-99629999D01*
X82300001Y-99630000D01*
X82800000Y-99630000D01*
X82800000Y-100130000D01*
X82300001Y-100130000D01*
X82300000Y-100130001D01*
X82300000Y-100258795D01*
X82330742Y-100413349D01*
X82391048Y-100558940D01*
X82391052Y-100558949D01*
X82478599Y-100689969D01*
X82478602Y-100689973D01*
X82590026Y-100801397D01*
X82590030Y-100801400D01*
X82721058Y-100888951D01*
X82849999Y-100942360D01*
X82850000Y-100942359D01*
X82850000Y-100346988D01*
X82859940Y-100364205D01*
X82915795Y-100420060D01*
X82984204Y-100459556D01*
X83060504Y-100480000D01*
X83139496Y-100480000D01*
X83215796Y-100459556D01*
X83284205Y-100420060D01*
X83340060Y-100364205D01*
X83350000Y-100346988D01*
X83350000Y-100942360D01*
X83478941Y-100888951D01*
X83609969Y-100801400D01*
X83609973Y-100801397D01*
X83721397Y-100689973D01*
X83721400Y-100689969D01*
X83808947Y-100558949D01*
X83808951Y-100558940D01*
X83869257Y-100413349D01*
X83899999Y-100258795D01*
X83900000Y-100258792D01*
X83900000Y-100130001D01*
X83899999Y-100130000D01*
X83400000Y-100130000D01*
X83400000Y-99630000D01*
X83899999Y-99630000D01*
X83900000Y-99629999D01*
X83900000Y-99501207D01*
X83899999Y-99501204D01*
X83869256Y-99346649D01*
X83869256Y-99346647D01*
X83828777Y-99248921D01*
X83815772Y-99217525D01*
X84079500Y-99217525D01*
X84079500Y-99362475D01*
X84085292Y-99384091D01*
X84117017Y-99502489D01*
X84189487Y-99628010D01*
X84189489Y-99628012D01*
X84189491Y-99628015D01*
X84291985Y-99730509D01*
X84291987Y-99730510D01*
X84291989Y-99730512D01*
X84417511Y-99802982D01*
X84417512Y-99802982D01*
X84417515Y-99802984D01*
X84557525Y-99840500D01*
X84557527Y-99840500D01*
X84563958Y-99841347D01*
X84563546Y-99844470D01*
X84609518Y-99859407D01*
X84645482Y-99908907D01*
X84645482Y-99970093D01*
X84609518Y-100019593D01*
X84589200Y-100030969D01*
X84466677Y-100081699D01*
X84376756Y-100141774D01*
X84371264Y-100145189D01*
X84359486Y-100151989D01*
X84359485Y-100151990D01*
X84219490Y-100291985D01*
X84177795Y-100364205D01*
X84150431Y-100411601D01*
X84150430Y-100411602D01*
X84147016Y-100417513D01*
X84147016Y-100417515D01*
X84109500Y-100557525D01*
X84109500Y-100702475D01*
X84112226Y-100712647D01*
X84140986Y-100819983D01*
X84147015Y-100842482D01*
X84147014Y-100842482D01*
X84147016Y-100842485D01*
X84219490Y-100968015D01*
X84321985Y-101070510D01*
X84438396Y-101137719D01*
X84438397Y-101137720D01*
X84447511Y-101142982D01*
X84447512Y-101142982D01*
X84447515Y-101142984D01*
X84587525Y-101180500D01*
X84587526Y-101180500D01*
X84732474Y-101180500D01*
X84732475Y-101180500D01*
X84872485Y-101142984D01*
X84879098Y-101139166D01*
X84881603Y-101137720D01*
X84881604Y-101137719D01*
X84914439Y-101118761D01*
X84963936Y-101105500D01*
X86337165Y-101105500D01*
X86337169Y-101105499D01*
X87254977Y-101105499D01*
X87313168Y-101124406D01*
X87345542Y-101164511D01*
X87393213Y-101272477D01*
X87472522Y-101351786D01*
X87575127Y-101397090D01*
X87600000Y-101399975D01*
X87600000Y-101600000D01*
X89515031Y-101600000D01*
X89476594Y-101652079D01*
X89432788Y-101777267D01*
X89432786Y-101777277D01*
X89432530Y-101779999D01*
X89432531Y-101780000D01*
X89911000Y-101780000D01*
X89969191Y-101798907D01*
X90005155Y-101848407D01*
X90010000Y-101879000D01*
X90010000Y-102029999D01*
X90010001Y-102030000D01*
X90161000Y-102030000D01*
X90219191Y-102048907D01*
X90255155Y-102098407D01*
X90260000Y-102129000D01*
X90260000Y-102627667D01*
X90357924Y-102593403D01*
X90430789Y-102539625D01*
X90488836Y-102520282D01*
X90547167Y-102538752D01*
X90548366Y-102539624D01*
X90621841Y-102593851D01*
X90621842Y-102593851D01*
X90621843Y-102593852D01*
X90747181Y-102637710D01*
X90774619Y-102640282D01*
X90776923Y-102640499D01*
X90776928Y-102640500D01*
X90776934Y-102640500D01*
X91163072Y-102640500D01*
X91163075Y-102640499D01*
X91192819Y-102637710D01*
X91318157Y-102593852D01*
X91318159Y-102593849D01*
X91321708Y-102591975D01*
X91367972Y-102580500D01*
X91647949Y-102580500D01*
X91702950Y-102597184D01*
X91768189Y-102640775D01*
X91768190Y-102640775D01*
X91768191Y-102640776D01*
X91791665Y-102650499D01*
X91895672Y-102693580D01*
X92031007Y-102720500D01*
X92031008Y-102720500D01*
X92168992Y-102720500D01*
X92168993Y-102720500D01*
X92304328Y-102693580D01*
X92431811Y-102640775D01*
X92546542Y-102564114D01*
X92644114Y-102466542D01*
X92720775Y-102351811D01*
X92773580Y-102224328D01*
X92800500Y-102088993D01*
X92800500Y-101951007D01*
X92773580Y-101815672D01*
X92720775Y-101688189D01*
X92720774Y-101688187D01*
X92720771Y-101688182D01*
X92667185Y-101607986D01*
X92650500Y-101552984D01*
X92650500Y-101204499D01*
X92669407Y-101146308D01*
X92718907Y-101110344D01*
X92749500Y-101105499D01*
X93139861Y-101105499D01*
X93139864Y-101105499D01*
X93164991Y-101102585D01*
X93267765Y-101057206D01*
X93347206Y-100977765D01*
X93392585Y-100874991D01*
X93395500Y-100849865D01*
X93395499Y-100260136D01*
X93392585Y-100235009D01*
X93347206Y-100132235D01*
X93320472Y-100105501D01*
X93292697Y-100050987D01*
X93302268Y-99990555D01*
X93345533Y-99947290D01*
X93390478Y-99936500D01*
X94786870Y-99936500D01*
X94786874Y-99936501D01*
X94821812Y-99936500D01*
X94821832Y-99936506D01*
X94862824Y-99936505D01*
X94862824Y-99936506D01*
X94974423Y-99936504D01*
X95195712Y-99907368D01*
X95195718Y-99907366D01*
X95195720Y-99907366D01*
X95411297Y-99849600D01*
X95411297Y-99849599D01*
X95411304Y-99849598D01*
X95617512Y-99764182D01*
X95810807Y-99652582D01*
X95987882Y-99516707D01*
X96013086Y-99491502D01*
X96013091Y-99491500D01*
X96066795Y-99437795D01*
X96120500Y-99384091D01*
X96120501Y-99384088D01*
X96125282Y-99379308D01*
X96125347Y-99379233D01*
X96145703Y-99358878D01*
X96281577Y-99181804D01*
X96393177Y-98988510D01*
X96404987Y-98960000D01*
X96418193Y-98928116D01*
X96478593Y-98782302D01*
X96502154Y-98694369D01*
X96535478Y-98643057D01*
X96592600Y-98621130D01*
X96651700Y-98636966D01*
X96676665Y-98660175D01*
X96697432Y-98687561D01*
X96697435Y-98687564D01*
X96817904Y-98778919D01*
X96958556Y-98834386D01*
X97046935Y-98844999D01*
X97046942Y-98845000D01*
X97152499Y-98845000D01*
X97152500Y-98844999D01*
X97152500Y-97920001D01*
X97652500Y-97920001D01*
X97652500Y-98844999D01*
X97652501Y-98845000D01*
X97758058Y-98845000D01*
X97758064Y-98844999D01*
X97846443Y-98834386D01*
X97987095Y-98778919D01*
X98107564Y-98687564D01*
X98198919Y-98567095D01*
X98254386Y-98426443D01*
X98264999Y-98338064D01*
X98265000Y-98338058D01*
X98265000Y-97920001D01*
X98264999Y-97920000D01*
X97652501Y-97920000D01*
X97652500Y-97920001D01*
X97152500Y-97920001D01*
X97152500Y-96495001D01*
X97652500Y-96495001D01*
X97652500Y-97419999D01*
X97652501Y-97420000D01*
X98264999Y-97420000D01*
X98265000Y-97419999D01*
X98265000Y-97001941D01*
X98264999Y-97001935D01*
X98254386Y-96913556D01*
X98198919Y-96772904D01*
X98107564Y-96652435D01*
X97987095Y-96561080D01*
X97846443Y-96505613D01*
X97758064Y-96495000D01*
X97652501Y-96495000D01*
X97652500Y-96495001D01*
X97152500Y-96495001D01*
X97152499Y-96495000D01*
X97046935Y-96495000D01*
X96958556Y-96505613D01*
X96817904Y-96561080D01*
X96724320Y-96632048D01*
X96708578Y-96637521D01*
X96695098Y-96647317D01*
X96680405Y-96647317D01*
X96666528Y-96652143D01*
X96650577Y-96647319D01*
X96633913Y-96647320D01*
X96622026Y-96638684D01*
X96607963Y-96634432D01*
X96597894Y-96621154D01*
X96584411Y-96611360D01*
X96579870Y-96597386D01*
X96570992Y-96585679D01*
X96565500Y-96553170D01*
X96565500Y-96550000D01*
X96565500Y-96458709D01*
X96565494Y-96458680D01*
X96565495Y-96423541D01*
X96556486Y-96366654D01*
X96535218Y-96232347D01*
X96535217Y-96232345D01*
X96535217Y-96232344D01*
X96475400Y-96048237D01*
X96387518Y-95875756D01*
X96273736Y-95719146D01*
X96259001Y-95704411D01*
X96259000Y-95704409D01*
X96240496Y-95685905D01*
X96236870Y-95678789D01*
X96230410Y-95674096D01*
X96223247Y-95652051D01*
X96212720Y-95631390D01*
X96211501Y-95615906D01*
X96211501Y-95607116D01*
X96211502Y-95589751D01*
X96211500Y-95589742D01*
X96211500Y-95177769D01*
X96230407Y-95119578D01*
X96279907Y-95083614D01*
X96299094Y-95079428D01*
X96314991Y-95077585D01*
X96417765Y-95032206D01*
X96497206Y-94952765D01*
X96542585Y-94849991D01*
X96545500Y-94824865D01*
X96545499Y-93035136D01*
X96542585Y-93010009D01*
X96497206Y-92907235D01*
X96417765Y-92827794D01*
X96314991Y-92782415D01*
X96314990Y-92782414D01*
X96314988Y-92782414D01*
X96289868Y-92779500D01*
X94500139Y-92779500D01*
X94500136Y-92779501D01*
X94475009Y-92782414D01*
X94372235Y-92827794D01*
X94292794Y-92907235D01*
X94247414Y-93010011D01*
X94244500Y-93035130D01*
X94244500Y-94824860D01*
X94244501Y-94824863D01*
X94247414Y-94849990D01*
X94267321Y-94895074D01*
X94292794Y-94952765D01*
X94372235Y-95032206D01*
X94475009Y-95077585D01*
X94500135Y-95080500D01*
X94861500Y-95080499D01*
X94919691Y-95099406D01*
X94955655Y-95148906D01*
X94960500Y-95179499D01*
X94960500Y-95732130D01*
X94960504Y-95732229D01*
X94960504Y-95762462D01*
X94990781Y-95953651D01*
X94990783Y-95953655D01*
X95050598Y-96137759D01*
X95050600Y-96137763D01*
X95138478Y-96310238D01*
X95138482Y-96310246D01*
X95243583Y-96454906D01*
X95262490Y-96513097D01*
X95243582Y-96571287D01*
X95194082Y-96607251D01*
X95132897Y-96607250D01*
X95103671Y-96591980D01*
X95062342Y-96560639D01*
X95062341Y-96560638D01*
X95062339Y-96560637D01*
X94921565Y-96505123D01*
X94833106Y-96494500D01*
X94833102Y-96494500D01*
X94121898Y-96494500D01*
X94121893Y-96494500D01*
X94033434Y-96505123D01*
X93892660Y-96560637D01*
X93892656Y-96560640D01*
X93772081Y-96652075D01*
X93772075Y-96652081D01*
X93680640Y-96772656D01*
X93680637Y-96772660D01*
X93625123Y-96913434D01*
X93614500Y-97001893D01*
X93614500Y-97290500D01*
X93595593Y-97348691D01*
X93546093Y-97384655D01*
X93515500Y-97389500D01*
X93364478Y-97389500D01*
X93306287Y-97370593D01*
X93270323Y-97321093D01*
X93270323Y-97259907D01*
X93294472Y-97220498D01*
X93347206Y-97167765D01*
X93392585Y-97064991D01*
X93395500Y-97039865D01*
X93395499Y-96450136D01*
X93392585Y-96425009D01*
X93347206Y-96322235D01*
X93267765Y-96242794D01*
X93164991Y-96197415D01*
X93164990Y-96197414D01*
X93164988Y-96197414D01*
X93139869Y-96194500D01*
X93139865Y-96194500D01*
X92719500Y-96194500D01*
X92661309Y-96175593D01*
X92625345Y-96126093D01*
X92620500Y-96095500D01*
X92620500Y-95401997D01*
X92620805Y-95394231D01*
X92621717Y-95382647D01*
X92630262Y-95274054D01*
X92632689Y-95258727D01*
X92657389Y-95155842D01*
X92689357Y-95103676D01*
X92745885Y-95080261D01*
X92761422Y-95080261D01*
X92764450Y-95080499D01*
X92764454Y-95080500D01*
X92764458Y-95080500D01*
X92945549Y-95080500D01*
X93034977Y-95066335D01*
X93124409Y-95052171D01*
X93296639Y-94996211D01*
X93457994Y-94913996D01*
X93604501Y-94807553D01*
X93732553Y-94679501D01*
X93838996Y-94532994D01*
X93921211Y-94371639D01*
X93977171Y-94199409D01*
X93992135Y-94104932D01*
X94005500Y-94020549D01*
X94005500Y-93839450D01*
X93978755Y-93670593D01*
X93977171Y-93660591D01*
X93921211Y-93488361D01*
X93838996Y-93327006D01*
X93732553Y-93180499D01*
X93604501Y-93052447D01*
X93457994Y-92946004D01*
X93457993Y-92946003D01*
X93457991Y-92946002D01*
X93296637Y-92863788D01*
X93124406Y-92807828D01*
X92945549Y-92779500D01*
X92945546Y-92779500D01*
X92764454Y-92779500D01*
X92764451Y-92779500D01*
X92585593Y-92807828D01*
X92413362Y-92863788D01*
X92252008Y-92946002D01*
X92218978Y-92970000D01*
X92105499Y-93052447D01*
X91977447Y-93180499D01*
X91945060Y-93225076D01*
X91871002Y-93327008D01*
X91788788Y-93488362D01*
X91732828Y-93660593D01*
X91704500Y-93839450D01*
X91704500Y-94020549D01*
X91729204Y-94176526D01*
X91719633Y-94236958D01*
X91715249Y-94244683D01*
X91627843Y-94383791D01*
X91555994Y-94532991D01*
X91525815Y-94595659D01*
X91522971Y-94603788D01*
X91448149Y-94817618D01*
X91395826Y-95046869D01*
X91369499Y-95280540D01*
X91369499Y-95280541D01*
X91369500Y-95352572D01*
X91369500Y-96095500D01*
X91350593Y-96153691D01*
X91301093Y-96189655D01*
X91270500Y-96194500D01*
X90985023Y-96194500D01*
X90926832Y-96175593D01*
X90912250Y-96157529D01*
X90890000Y-94600000D01*
X90200000Y-94600000D01*
X87600000Y-94600000D01*
X87600000Y-95900025D01*
X87575125Y-95902909D01*
X87472522Y-95948213D01*
X87420735Y-96000000D01*
X87400000Y-96000000D01*
X87400000Y-96020735D01*
X87393213Y-96027522D01*
X87345322Y-96135988D01*
X87304521Y-96181583D01*
X87254757Y-96195000D01*
X86495001Y-96195000D01*
X86495000Y-96195001D01*
X86495000Y-96646000D01*
X86476093Y-96704191D01*
X86426593Y-96740155D01*
X86396000Y-96745000D01*
X86245001Y-96745000D01*
X86245000Y-96745001D01*
X86245000Y-96896000D01*
X86226093Y-96954191D01*
X86176593Y-96990155D01*
X86146000Y-96995000D01*
X84845002Y-96995000D01*
X84845001Y-96995001D01*
X84845001Y-97039791D01*
X84847909Y-97064874D01*
X84893213Y-97167477D01*
X84972523Y-97246787D01*
X85068493Y-97289161D01*
X85084135Y-97303157D01*
X85102281Y-97313709D01*
X85106431Y-97323108D01*
X85114089Y-97329961D01*
X85118516Y-97350479D01*
X85126995Y-97369681D01*
X85124827Y-97379725D01*
X85126995Y-97389770D01*
X85118517Y-97408970D01*
X85114090Y-97429490D01*
X85106432Y-97436342D01*
X85102282Y-97445742D01*
X85068495Y-97470290D01*
X84975633Y-97511293D01*
X84914763Y-97517502D01*
X84910029Y-97516358D01*
X84772475Y-97479500D01*
X84627525Y-97479500D01*
X84604984Y-97485540D01*
X84487510Y-97517017D01*
X84361989Y-97589487D01*
X84259487Y-97691989D01*
X84187017Y-97817510D01*
X84156209Y-97932486D01*
X84149500Y-97957525D01*
X84149500Y-98102475D01*
X84164343Y-98157869D01*
X84187017Y-98242489D01*
X84259487Y-98368010D01*
X84259489Y-98368012D01*
X84259491Y-98368015D01*
X84361985Y-98470509D01*
X84361987Y-98470510D01*
X84361989Y-98470512D01*
X84487511Y-98542982D01*
X84487509Y-98542982D01*
X84487513Y-98542983D01*
X84487515Y-98542984D01*
X84532342Y-98554995D01*
X84583654Y-98588318D01*
X84605581Y-98645439D01*
X84589746Y-98704540D01*
X84542196Y-98743045D01*
X84532341Y-98746247D01*
X84417515Y-98777015D01*
X84417511Y-98777017D01*
X84291989Y-98849487D01*
X84189487Y-98951989D01*
X84117017Y-99077510D01*
X84083912Y-99201059D01*
X84079500Y-99217525D01*
X83815772Y-99217525D01*
X83808951Y-99201059D01*
X83808947Y-99201050D01*
X83721400Y-99070030D01*
X83721397Y-99070026D01*
X83609973Y-98958602D01*
X83609969Y-98958599D01*
X83478949Y-98871052D01*
X83478940Y-98871048D01*
X83350000Y-98817639D01*
X83350000Y-99413011D01*
X83340060Y-99395795D01*
X83284205Y-99339940D01*
X83215796Y-99300444D01*
X83139496Y-99280000D01*
X83060504Y-99280000D01*
X82984204Y-99300444D01*
X82915795Y-99339940D01*
X82859940Y-99395795D01*
X82850000Y-99413011D01*
X82850000Y-98817639D01*
X82721059Y-98871048D01*
X82721050Y-98871052D01*
X82590030Y-98958599D01*
X82590026Y-98958602D01*
X82478602Y-99070026D01*
X82478599Y-99070030D01*
X82391052Y-99201050D01*
X82391048Y-99201059D01*
X82330742Y-99346650D01*
X82300000Y-99501204D01*
X75259999Y-99501204D01*
X75229257Y-99346650D01*
X75168951Y-99201059D01*
X75168947Y-99201050D01*
X75081400Y-99070030D01*
X75081397Y-99070026D01*
X74969973Y-98958602D01*
X74969969Y-98958599D01*
X74838949Y-98871052D01*
X74838940Y-98871048D01*
X74710000Y-98817639D01*
X74710000Y-99413011D01*
X74700060Y-99395795D01*
X74644205Y-99339940D01*
X74575796Y-99300444D01*
X74499496Y-99280000D01*
X74420504Y-99280000D01*
X74344204Y-99300444D01*
X74275795Y-99339940D01*
X74219940Y-99395795D01*
X74210000Y-99413011D01*
X74210000Y-98817639D01*
X74081059Y-98871048D01*
X74081050Y-98871052D01*
X73950030Y-98958599D01*
X73950026Y-98958602D01*
X73838602Y-99070026D01*
X73838599Y-99070030D01*
X73751052Y-99201050D01*
X73751048Y-99201059D01*
X73690742Y-99346650D01*
X73660000Y-99501204D01*
X72640500Y-99501204D01*
X72640499Y-98607384D01*
X72640499Y-97715139D01*
X72640499Y-97715136D01*
X72637585Y-97690009D01*
X72592206Y-97587235D01*
X72512765Y-97507794D01*
X72409991Y-97462415D01*
X72409990Y-97462414D01*
X72409988Y-97462414D01*
X72384868Y-97459500D01*
X70595139Y-97459500D01*
X70595136Y-97459501D01*
X70570009Y-97462414D01*
X70467235Y-97507794D01*
X70387794Y-97587235D01*
X70342414Y-97690011D01*
X70339500Y-97715130D01*
X70339500Y-98100500D01*
X70320593Y-98158691D01*
X70271093Y-98194655D01*
X70240500Y-98199500D01*
X68661255Y-98199500D01*
X68628557Y-98193944D01*
X68509703Y-98152355D01*
X68509694Y-98152353D01*
X68479274Y-98149500D01*
X68479266Y-98149500D01*
X67819164Y-98149500D01*
X67760973Y-98130593D01*
X67725009Y-98081093D01*
X67725009Y-98019907D01*
X67733427Y-98001000D01*
X67772983Y-97932486D01*
X67772984Y-97932485D01*
X67810500Y-97792475D01*
X67810500Y-97647525D01*
X67772984Y-97507515D01*
X67772982Y-97507512D01*
X67772982Y-97507510D01*
X67700512Y-97381989D01*
X67700510Y-97381987D01*
X67700509Y-97381985D01*
X67598015Y-97279491D01*
X67598012Y-97279489D01*
X67598010Y-97279487D01*
X67472488Y-97207017D01*
X67472489Y-97207017D01*
X67413086Y-97191100D01*
X67332475Y-97169500D01*
X67187525Y-97169500D01*
X67129679Y-97185000D01*
X67047510Y-97207017D01*
X66916366Y-97282735D01*
X66915261Y-97280821D01*
X66866843Y-97297958D01*
X66808180Y-97280569D01*
X66805481Y-97278646D01*
X66762883Y-97247207D01*
X66634703Y-97202355D01*
X66634694Y-97202353D01*
X66604274Y-97199500D01*
X66604266Y-97199500D01*
X65320734Y-97199500D01*
X65320725Y-97199500D01*
X65290305Y-97202353D01*
X65290296Y-97202355D01*
X65162116Y-97247207D01*
X65103925Y-97290155D01*
X65103557Y-97290277D01*
X65103328Y-97290593D01*
X65074523Y-97299951D01*
X65045878Y-97309497D01*
X65045137Y-97309500D01*
X64915054Y-97309500D01*
X64856863Y-97290593D01*
X64835401Y-97269291D01*
X64816423Y-97243577D01*
X64816419Y-97243574D01*
X64816417Y-97243572D01*
X64710795Y-97165619D01*
X64586883Y-97122260D01*
X64586874Y-97122258D01*
X64557465Y-97119500D01*
X64082542Y-97119500D01*
X64053124Y-97122258D01*
X64053119Y-97122259D01*
X63929204Y-97165619D01*
X63823581Y-97243572D01*
X63823572Y-97243581D01*
X63745619Y-97349204D01*
X63702260Y-97473116D01*
X63702258Y-97473125D01*
X63699500Y-97502532D01*
X54616559Y-97502532D01*
X54620060Y-97496851D01*
X54624679Y-97490892D01*
X54635976Y-97480174D01*
X54647233Y-97461803D01*
X54650564Y-97457508D01*
X54671584Y-97443215D01*
X54690916Y-97426705D01*
X54698843Y-97424681D01*
X54701161Y-97423106D01*
X54704597Y-97423213D01*
X54718218Y-97419736D01*
X54747483Y-97416591D01*
X54870810Y-97370593D01*
X54882329Y-97366297D01*
X54882329Y-97366296D01*
X54882331Y-97366296D01*
X54997546Y-97280046D01*
X55083796Y-97164831D01*
X55091516Y-97144134D01*
X55121035Y-97064988D01*
X55134091Y-97029983D01*
X55140500Y-96970373D01*
X55140499Y-95240001D01*
X59245000Y-95240001D01*
X59245000Y-95818064D01*
X59255613Y-95906443D01*
X59311080Y-96047095D01*
X59402435Y-96167564D01*
X59522904Y-96258919D01*
X59663556Y-96314386D01*
X59751935Y-96324999D01*
X59751942Y-96325000D01*
X60589999Y-96325000D01*
X60590000Y-96324999D01*
X60590000Y-95240001D01*
X61090000Y-95240001D01*
X61090000Y-96324999D01*
X61090001Y-96325000D01*
X61928058Y-96325000D01*
X61928064Y-96324999D01*
X62016443Y-96314386D01*
X62157095Y-96258919D01*
X62277564Y-96167564D01*
X62332591Y-96095001D01*
X65315000Y-96095001D01*
X65315000Y-96111104D01*
X65325132Y-96195468D01*
X65378077Y-96329729D01*
X65465276Y-96444717D01*
X65465282Y-96444723D01*
X65580270Y-96531922D01*
X65714531Y-96584867D01*
X65798895Y-96594999D01*
X65798900Y-96595000D01*
X65839999Y-96595000D01*
X65840000Y-96594999D01*
X65840000Y-96095001D01*
X65839999Y-96095000D01*
X65315001Y-96095000D01*
X65315000Y-96095001D01*
X62332591Y-96095001D01*
X62368920Y-96047094D01*
X62380522Y-96017675D01*
X62380523Y-96017673D01*
X62424385Y-95906446D01*
X62434999Y-95818064D01*
X62435000Y-95818058D01*
X62435000Y-95240001D01*
X62434999Y-95240000D01*
X61090001Y-95240000D01*
X61090000Y-95240001D01*
X60590000Y-95240001D01*
X60589999Y-95240000D01*
X59245001Y-95240000D01*
X59245000Y-95240001D01*
X55140499Y-95240001D01*
X55140499Y-94574628D01*
X55134091Y-94515017D01*
X55123504Y-94486632D01*
X55083797Y-94380170D01*
X54997549Y-94264958D01*
X54997548Y-94264957D01*
X54997546Y-94264954D01*
X54970467Y-94244683D01*
X54961853Y-94238234D01*
X54882329Y-94178702D01*
X54837374Y-94161935D01*
X59245000Y-94161935D01*
X59245000Y-94739999D01*
X59245001Y-94740000D01*
X60589999Y-94740000D01*
X60590000Y-94739999D01*
X60590000Y-93655001D01*
X61090000Y-93655001D01*
X61090000Y-94739999D01*
X61090001Y-94740000D01*
X62434999Y-94740000D01*
X62435000Y-94739999D01*
X62435000Y-94161941D01*
X62434999Y-94161935D01*
X62424386Y-94073556D01*
X62368919Y-93932904D01*
X62277564Y-93812435D01*
X62157095Y-93721080D01*
X62016443Y-93665613D01*
X61928064Y-93655000D01*
X61090001Y-93655000D01*
X61090000Y-93655001D01*
X60590000Y-93655001D01*
X60589999Y-93655000D01*
X59751935Y-93655000D01*
X59663556Y-93665613D01*
X59522904Y-93721080D01*
X59402435Y-93812435D01*
X59311080Y-93932904D01*
X59255613Y-94073556D01*
X59245000Y-94161935D01*
X54837374Y-94161935D01*
X54747488Y-94128410D01*
X54747483Y-94128409D01*
X54747481Y-94128408D01*
X54747477Y-94128408D01*
X54716249Y-94125050D01*
X54687873Y-94122000D01*
X54687870Y-94122000D01*
X54192133Y-94122000D01*
X54192129Y-94122000D01*
X54192128Y-94122001D01*
X54184949Y-94122772D01*
X54132519Y-94128408D01*
X54132514Y-94128409D01*
X53997670Y-94178702D01*
X53882458Y-94264950D01*
X53882450Y-94264958D01*
X53796202Y-94380170D01*
X53745910Y-94515011D01*
X53745908Y-94515022D01*
X53739500Y-94574629D01*
X53739500Y-96801978D01*
X53739498Y-96801981D01*
X53739500Y-96801985D01*
X53731521Y-96826535D01*
X53720593Y-96860166D01*
X53716617Y-96865639D01*
X53709464Y-96875484D01*
X53704655Y-96881584D01*
X53664299Y-96928834D01*
X53659701Y-96933856D01*
X53639074Y-96954889D01*
X53638396Y-96955575D01*
X53345334Y-97248637D01*
X53335609Y-97257166D01*
X53333892Y-97258483D01*
X53333885Y-97258489D01*
X53333885Y-97258490D01*
X52934501Y-97657873D01*
X52879987Y-97685649D01*
X52819555Y-97676078D01*
X52776290Y-97632813D01*
X52765500Y-97587868D01*
X52765500Y-97222221D01*
X52781868Y-97171842D01*
X52780404Y-97171043D01*
X52783797Y-97164829D01*
X52821035Y-97064988D01*
X52834091Y-97029983D01*
X52840500Y-96970373D01*
X52840499Y-94574628D01*
X52834091Y-94515017D01*
X52821741Y-94481906D01*
X52815500Y-94447310D01*
X52815500Y-94159935D01*
X52832184Y-94104934D01*
X52849394Y-94079179D01*
X52909737Y-93933497D01*
X52940500Y-93778842D01*
X52940500Y-92621158D01*
X52940500Y-91621158D01*
X52940500Y-91385347D01*
X52959407Y-91327156D01*
X53008907Y-91291192D01*
X53024013Y-91287566D01*
X53144529Y-91268478D01*
X53144530Y-91268477D01*
X53144534Y-91268477D01*
X53339219Y-91205220D01*
X53521610Y-91112287D01*
X53521722Y-91112206D01*
X53614409Y-91044865D01*
X53687219Y-90991966D01*
X53831966Y-90847219D01*
X53952287Y-90681610D01*
X54045220Y-90499219D01*
X54108477Y-90304534D01*
X54108478Y-90304529D01*
X54140500Y-90102355D01*
X54140500Y-89897684D01*
X56620000Y-89897684D01*
X56620000Y-90102315D01*
X56652008Y-90304412D01*
X56715243Y-90499027D01*
X56808139Y-90681348D01*
X56808143Y-90681353D01*
X56840523Y-90725920D01*
X56840524Y-90725920D01*
X57396212Y-90170232D01*
X57407482Y-90212292D01*
X57479890Y-90337708D01*
X57582292Y-90440110D01*
X57707708Y-90512518D01*
X57749765Y-90523787D01*
X57194078Y-91079475D01*
X57238647Y-91111858D01*
X57420972Y-91204756D01*
X57615587Y-91267991D01*
X57817685Y-91300000D01*
X58022315Y-91300000D01*
X58224412Y-91267991D01*
X58419027Y-91204756D01*
X58601342Y-91111863D01*
X58601350Y-91111858D01*
X58645920Y-91079475D01*
X58090232Y-90523787D01*
X58132292Y-90512518D01*
X58257708Y-90440110D01*
X58360110Y-90337708D01*
X58432518Y-90212292D01*
X58443787Y-90170232D01*
X58999475Y-90725920D01*
X59031858Y-90681350D01*
X59031863Y-90681342D01*
X59124756Y-90499027D01*
X59187991Y-90304412D01*
X59220000Y-90102315D01*
X59220000Y-89897684D01*
X59187991Y-89695587D01*
X59124756Y-89500972D01*
X59031858Y-89318647D01*
X58999475Y-89274078D01*
X58443787Y-89829765D01*
X58432518Y-89787708D01*
X58360110Y-89662292D01*
X58257708Y-89559890D01*
X58132292Y-89487482D01*
X58090232Y-89476212D01*
X58645920Y-88920524D01*
X58645920Y-88920523D01*
X58601353Y-88888143D01*
X58601348Y-88888139D01*
X58419027Y-88795243D01*
X58224412Y-88732008D01*
X58022315Y-88700000D01*
X57817685Y-88700000D01*
X57615587Y-88732008D01*
X57420972Y-88795243D01*
X57238651Y-88888139D01*
X57238647Y-88888141D01*
X57194078Y-88920523D01*
X57749767Y-89476212D01*
X57707708Y-89487482D01*
X57582292Y-89559890D01*
X57479890Y-89662292D01*
X57407482Y-89787708D01*
X57396212Y-89829767D01*
X56840523Y-89274078D01*
X56808141Y-89318647D01*
X56808139Y-89318651D01*
X56715243Y-89500972D01*
X56652008Y-89695587D01*
X56620000Y-89897684D01*
X54140500Y-89897684D01*
X54140500Y-89897644D01*
X54108478Y-89695470D01*
X54106147Y-89688295D01*
X54045220Y-89500781D01*
X53952287Y-89318390D01*
X53952285Y-89318386D01*
X53831970Y-89152786D01*
X53831968Y-89152784D01*
X53831966Y-89152781D01*
X53687219Y-89008034D01*
X53687215Y-89008031D01*
X53687213Y-89008029D01*
X53521613Y-88887714D01*
X53521609Y-88887712D01*
X53339219Y-88794780D01*
X53144529Y-88731521D01*
X52942355Y-88699500D01*
X52942352Y-88699500D01*
X52737648Y-88699500D01*
X52737645Y-88699500D01*
X52535470Y-88731521D01*
X52340780Y-88794780D01*
X52158390Y-88887712D01*
X52158386Y-88887714D01*
X51992786Y-89008029D01*
X51848029Y-89152786D01*
X51727714Y-89318386D01*
X51727712Y-89318390D01*
X51634780Y-89500780D01*
X51571521Y-89695470D01*
X51539500Y-89897644D01*
X51539500Y-90102355D01*
X51561104Y-90238757D01*
X51552519Y-90297198D01*
X51488500Y-90430134D01*
X51414476Y-90641675D01*
X51414474Y-90641685D01*
X51364603Y-90860165D01*
X51364600Y-90860182D01*
X51339503Y-91082887D01*
X51339502Y-91082904D01*
X51339502Y-91104471D01*
X51339502Y-91116121D01*
X51339500Y-91116132D01*
X51339500Y-91180243D01*
X51339500Y-91194957D01*
X51339500Y-91239907D01*
X51339499Y-91285153D01*
X51339500Y-91285170D01*
X51339500Y-93778844D01*
X51352794Y-93845675D01*
X51364092Y-93902476D01*
X51370263Y-93933496D01*
X51370263Y-93933498D01*
X51430603Y-94079173D01*
X51430604Y-94079175D01*
X51430606Y-94079179D01*
X51447815Y-94104934D01*
X51464500Y-94159935D01*
X51464500Y-94447310D01*
X51458259Y-94481905D01*
X51445909Y-94515015D01*
X51445908Y-94515022D01*
X51439500Y-94574629D01*
X51439500Y-96970366D01*
X51439500Y-96970369D01*
X51439501Y-96970372D01*
X51439719Y-96972398D01*
X51445908Y-97029980D01*
X51445909Y-97029985D01*
X51496202Y-97164829D01*
X51499596Y-97171043D01*
X51497853Y-97171994D01*
X51514490Y-97220799D01*
X51514500Y-97222221D01*
X51514500Y-97799885D01*
X51495593Y-97858076D01*
X51462155Y-97887202D01*
X51455408Y-97890806D01*
X51437118Y-97897207D01*
X51420562Y-97909425D01*
X51414215Y-97912817D01*
X51390834Y-97916988D01*
X51368301Y-97924497D01*
X51367560Y-97924500D01*
X51111846Y-97924500D01*
X51053655Y-97905593D01*
X51032962Y-97885319D01*
X51029048Y-97880157D01*
X51025078Y-97874922D01*
X50909975Y-97787636D01*
X50909970Y-97787634D01*
X50907075Y-97786006D01*
X50905337Y-97784120D01*
X50904579Y-97783545D01*
X50904682Y-97783408D01*
X50865617Y-97741007D01*
X50858528Y-97680233D01*
X50888514Y-97626900D01*
X50907079Y-97613412D01*
X50909729Y-97611922D01*
X51024717Y-97524723D01*
X51024723Y-97524717D01*
X51111922Y-97409729D01*
X51164867Y-97275468D01*
X51174999Y-97191104D01*
X51175000Y-97191100D01*
X51175000Y-97175001D01*
X51174999Y-97175000D01*
X49625001Y-97175000D01*
X49625000Y-97175001D01*
X49625000Y-97191104D01*
X49635132Y-97275468D01*
X49688077Y-97409729D01*
X49775276Y-97524717D01*
X49775282Y-97524723D01*
X49890271Y-97611922D01*
X49892924Y-97613414D01*
X49894514Y-97615139D01*
X49895668Y-97616015D01*
X49895511Y-97616222D01*
X49934381Y-97658413D01*
X49941471Y-97719187D01*
X49911485Y-97772520D01*
X49892928Y-97786004D01*
X49890028Y-97787634D01*
X49890025Y-97787635D01*
X49890025Y-97787636D01*
X49804682Y-97852354D01*
X49774922Y-97874922D01*
X49687634Y-97990027D01*
X49634641Y-98124408D01*
X49624500Y-98208851D01*
X49000500Y-98208851D01*
X49000500Y-96658895D01*
X49625000Y-96658895D01*
X49625000Y-96674999D01*
X49625001Y-96675000D01*
X50149999Y-96675000D01*
X50150000Y-96674999D01*
X50150000Y-96175001D01*
X50650000Y-96175001D01*
X50650000Y-96674999D01*
X50650001Y-96675000D01*
X51174999Y-96675000D01*
X51175000Y-96674999D01*
X51175000Y-96658899D01*
X51174999Y-96658895D01*
X51164867Y-96574531D01*
X51111922Y-96440270D01*
X51024723Y-96325282D01*
X51024717Y-96325276D01*
X50909729Y-96238077D01*
X50775468Y-96185132D01*
X50691104Y-96175000D01*
X50650001Y-96175000D01*
X50650000Y-96175001D01*
X50150000Y-96175001D01*
X50149999Y-96175000D01*
X50108895Y-96175000D01*
X50024531Y-96185132D01*
X49890270Y-96238077D01*
X49775282Y-96325276D01*
X49775276Y-96325282D01*
X49688077Y-96440270D01*
X49635132Y-96574531D01*
X49625000Y-96658895D01*
X49000500Y-96658895D01*
X49000500Y-81200001D01*
X70885000Y-81200001D01*
X70885000Y-81241104D01*
X70895132Y-81325468D01*
X70948077Y-81459729D01*
X71035276Y-81574717D01*
X71035282Y-81574723D01*
X71150270Y-81661922D01*
X71284531Y-81714867D01*
X71368895Y-81724999D01*
X71368900Y-81725000D01*
X71384999Y-81725000D01*
X71385000Y-81724999D01*
X71385000Y-81200001D01*
X71384999Y-81200000D01*
X70885001Y-81200000D01*
X70885000Y-81200001D01*
X49000500Y-81200001D01*
X49000500Y-80099500D01*
X49019407Y-80041309D01*
X49068907Y-80005345D01*
X49099500Y-80000500D01*
X71231816Y-80000500D01*
X71290007Y-80019407D01*
G37*
%TD.AperFunction*%
%TA.AperFunction,Conductor*%
G36*
X88672695Y-90241105D02*
G01*
X88688180Y-90243558D01*
X88713237Y-90261761D01*
X88791985Y-90340509D01*
X88791987Y-90340510D01*
X88791989Y-90340512D01*
X88917511Y-90412982D01*
X88917512Y-90412982D01*
X88917515Y-90412984D01*
X89057525Y-90450500D01*
X89057526Y-90450500D01*
X89202472Y-90450500D01*
X89202475Y-90450500D01*
X89202884Y-90450390D01*
X89203188Y-90450406D01*
X89208909Y-90449653D01*
X89209048Y-90450712D01*
X89263984Y-90453588D01*
X89311537Y-90492089D01*
X89327378Y-90551188D01*
X89317708Y-90588970D01*
X89256993Y-90715041D01*
X89256989Y-90715051D01*
X89163839Y-90981255D01*
X89101080Y-91256214D01*
X89101079Y-91256221D01*
X89101079Y-91256222D01*
X89069501Y-91536483D01*
X89069501Y-91536491D01*
X89069500Y-91536492D01*
X89069500Y-91858393D01*
X89050593Y-91916584D01*
X89001093Y-91952548D01*
X88939907Y-91952548D01*
X88890407Y-91916584D01*
X88877056Y-91891091D01*
X88863405Y-91852079D01*
X88784641Y-91745360D01*
X88784636Y-91745355D01*
X88677919Y-91666594D01*
X88580000Y-91632329D01*
X88580000Y-92131000D01*
X88561093Y-92189191D01*
X88511593Y-92225155D01*
X88481000Y-92230000D01*
X88179000Y-92230000D01*
X88120809Y-92211093D01*
X88084845Y-92161593D01*
X88080000Y-92131000D01*
X88080000Y-91632330D01*
X88079999Y-91632329D01*
X87982082Y-91666593D01*
X87909209Y-91720376D01*
X87851161Y-91739717D01*
X87792830Y-91721245D01*
X87791633Y-91720375D01*
X87718158Y-91666148D01*
X87592823Y-91622291D01*
X87592814Y-91622289D01*
X87563076Y-91619500D01*
X87563066Y-91619500D01*
X87176934Y-91619500D01*
X87176923Y-91619500D01*
X87147185Y-91622289D01*
X87147176Y-91622291D01*
X87021844Y-91666147D01*
X86921653Y-91740091D01*
X86863605Y-91759432D01*
X86805275Y-91740960D01*
X86792307Y-91728185D01*
X86791669Y-91728824D01*
X86786425Y-91723580D01*
X86786423Y-91723577D01*
X86702473Y-91661619D01*
X86680793Y-91645618D01*
X86556883Y-91602260D01*
X86556874Y-91602258D01*
X86527467Y-91599500D01*
X86527457Y-91599500D01*
X86454500Y-91599500D01*
X86396309Y-91580593D01*
X86360345Y-91531093D01*
X86355500Y-91500500D01*
X86355500Y-91243503D01*
X86374407Y-91185312D01*
X86423907Y-91149348D01*
X86485093Y-91149348D01*
X86494476Y-91152934D01*
X86505009Y-91157585D01*
X86530135Y-91160500D01*
X87019864Y-91160499D01*
X87044991Y-91157585D01*
X87147765Y-91112206D01*
X87205351Y-91054619D01*
X87259866Y-91026844D01*
X87320298Y-91036415D01*
X87345357Y-91054621D01*
X87402522Y-91111786D01*
X87505127Y-91157090D01*
X87530203Y-91159999D01*
X87675000Y-91159999D01*
X87675000Y-90760001D01*
X88175000Y-90760001D01*
X88175000Y-91159998D01*
X88175001Y-91159999D01*
X88319790Y-91159999D01*
X88319791Y-91159998D01*
X88344874Y-91157090D01*
X88447477Y-91111786D01*
X88526786Y-91032477D01*
X88572090Y-90929872D01*
X88574999Y-90904797D01*
X88575000Y-90904795D01*
X88575000Y-90760001D01*
X88574999Y-90760000D01*
X88175001Y-90760000D01*
X88175000Y-90760001D01*
X87675000Y-90760001D01*
X87675000Y-90609000D01*
X87693907Y-90550809D01*
X87743407Y-90514845D01*
X87774000Y-90510000D01*
X87924999Y-90510000D01*
X87925000Y-90509999D01*
X87925000Y-90359000D01*
X87943907Y-90300809D01*
X87993407Y-90264845D01*
X88024000Y-90260000D01*
X88576698Y-90260000D01*
X88587203Y-90254646D01*
X88598292Y-90243558D01*
X88613778Y-90241105D01*
X88627748Y-90233987D01*
X88643236Y-90236439D01*
X88658724Y-90233987D01*
X88672695Y-90241105D01*
G37*
%TD.AperFunction*%
%TD*%
M02*
