M48
; DRILL file {KiCad 9.0.7-9.0.7~ubuntu24.04.1} date 2026-02-26T22:41:37+1100
; FORMAT={-:-/ absolute / inch / decimal}
; #@! TF.CreationDate,2026-02-26T22:41:37+11:00
; #@! TF.GenerationSoftware,Kicad,Pcbnew,9.0.7-9.0.7~ubuntu24.04.1
; #@! TF.FileFunction,Plated,1,4,PTH
FMAT,2
INCH
; #@! TA.AperFunction,Plated,PTH,ViaDrill
T1C0.0118
; #@! TA.AperFunction,Plated,PTH,ComponentDrill
T2C0.0130
; #@! TA.AperFunction,Plated,PTH,ViaDrill
T3C0.0157
; #@! TA.AperFunction,Plated,PTH,ComponentDrill
T4C0.0236
; #@! TA.AperFunction,Plated,PTH,ComponentDrill
T5C0.0256
; #@! TA.AperFunction,Plated,PTH,ComponentDrill
T6C0.0394
; #@! TA.AperFunction,Plated,PTH,ComponentDrill
T7C0.0433
%
G90
G05
T1
X1.9488Y-3.7756
X1.9843Y-3.7559
X1.9961Y-3.9291
X1.9961Y-3.9606
X2.0039Y-3.6969
X2.0118Y-3.7717
X2.0315Y-3.2638
X2.0528Y-3.6102
X2.0528Y-3.6496
X2.0528Y-3.689
X2.0984Y-3.689
X2.0984Y-3.7362
X2.0984Y-3.7756
X2.0984Y-3.811
X2.0984Y-3.9685
X2.1378Y-3.689
X2.185Y-3.7165
X2.185Y-3.748
X2.185Y-3.7795
X2.185Y-3.8071
X2.185Y-3.8386
X2.2047Y-3.9567
X2.2323Y-3.8386
X2.248Y-3.9055
X2.2835Y-3.7362
X2.3937Y-3.6496
X2.3976Y-3.811
X2.5039Y-3.7402
X2.5472Y-3.7992
X2.5662Y-3.8944
X2.6142Y-3.8898
X2.6306Y-3.7448
X2.648Y-3.8472
X2.6535Y-3.9291
X2.7087Y-3.9528
X2.7244Y-3.8386
X2.7323Y-3.4409
X2.7441Y-3.563
X2.7524Y-3.6055
X2.8071Y-3.2874
X2.815Y-3.3898
X2.8228Y-3.5394
X2.8346Y-3.4724
X2.8425Y-3.6929
X2.9102Y-3.6291
X2.9135Y-3.2192
X2.937Y-3.185
X2.9567Y-3.3937
X2.9567Y-3.4315
X2.9587Y-3.274
X3.0433Y-3.4961
X3.0472Y-3.3937
X3.0492Y-3.8445
X3.0512Y-3.2244
X3.0512Y-3.311
X3.0528Y-3.7976
X3.0748Y-3.622
X3.0906Y-3.7811
X3.1024Y-3.5
X3.1102Y-3.9606
X3.1339Y-3.2244
X3.1575Y-3.5
X3.2087Y-3.5
X3.2283Y-3.2205
X3.2587Y-3.5327
X3.2677Y-3.4921
X3.3268Y-3.2205
X3.3268Y-3.5157
X3.3307Y-3.7126
X3.3319Y-3.9091
X3.3331Y-3.9618
X3.3346Y-3.8594
X3.3417Y-3.6614
X3.4134Y-3.2205
X3.4134Y-3.2992
X3.4134Y-3.3858
X3.4134Y-3.4764
X3.4173Y-3.5157
X3.437Y-3.7559
X3.4567Y-3.5972
X3.4882Y-3.7559
X3.5091Y-3.5394
X3.5157Y-3.1732
X3.5217Y-3.5098
X3.5315Y-3.7559
X3.6417Y-3.3898
X3.6457Y-3.4449
X3.7008Y-3.7795
X3.7559Y-3.9646
X3.7913Y-3.563
X3.7953Y-3.3307
X3.8031Y-3.9882
X3.8386Y-3.9094
X3.8465Y-3.2756
X3.8465Y-3.6142
X3.8465Y-3.7323
X3.8465Y-3.7717
X3.878Y-3.7913
X3.878Y-3.8937
X3.8819Y-3.8465
T2
X3.4831Y-3.8327
X3.4831Y-3.8839
X3.4831Y-3.935
X3.5343Y-3.8327
X3.5343Y-3.8839
X3.5343Y-3.935
T3
X2.0Y-4.0138
X2.3004Y-4.0106
X3.0004Y-3.6717
X3.1988Y-3.6768
X3.626Y-4.0165
T5
X3.5858Y-3.3043
X3.5858Y-3.3543
X3.5858Y-3.4043
X3.5858Y-3.4543
X3.5858Y-3.5043
X3.5858Y-3.5543
T6
X2.8146Y-3.8823
X2.8146Y-3.9823
X3.6557Y-3.698
X3.7557Y-3.698
T7
X2.0803Y-3.5433
X2.2803Y-3.5433
X2.2835Y-3.2795
X2.4803Y-3.5433
X2.4835Y-3.2795
X2.6835Y-3.2795
T4
G00X2.9315Y-3.7461
M15
G01X2.9315Y-3.7894
M16
G05
G00X2.9315Y-3.9205
M15
G01X2.9315Y-3.9441
M16
G05
G00X3.2717Y-3.7461
M15
G01X3.2717Y-3.7894
M16
G05
G00X3.2717Y-3.9205
M15
G01X3.2717Y-3.9441
M16
G05
M30
