%TF.GenerationSoftware,KiCad,Pcbnew,9.0.7-9.0.7~ubuntu24.04.1*%
%TF.CreationDate,2026-02-26T22:41:37+11:00*%
%TF.ProjectId,flipcab-rounded,666c6970-6361-4622-9d72-6f756e646564,rev?*%
%TF.SameCoordinates,Original*%
%TF.FileFunction,Copper,L3,Inr*%
%TF.FilePolarity,Positive*%
%FSLAX46Y46*%
G04 Gerber Fmt 4.6, Leading zero omitted, Abs format (unit mm)*
G04 Created by KiCad (PCBNEW 9.0.7-9.0.7~ubuntu24.04.1) date 2026-02-26 22:41:37*
%MOMM*%
%LPD*%
G01*
G04 APERTURE LIST*
%TA.AperFunction,ComponentPad*%
%ADD10C,0.630000*%
%TD*%
%TA.AperFunction,ComponentPad*%
%ADD11R,1.000000X1.000000*%
%TD*%
%TA.AperFunction,ComponentPad*%
%ADD12C,1.000000*%
%TD*%
%TA.AperFunction,ComponentPad*%
%ADD13R,2.000000X2.000000*%
%TD*%
%TA.AperFunction,ComponentPad*%
%ADD14C,2.000000*%
%TD*%
%TA.AperFunction,ComponentPad*%
%ADD15R,1.700000X1.700000*%
%TD*%
%TA.AperFunction,ComponentPad*%
%ADD16C,1.700000*%
%TD*%
%TA.AperFunction,HeatsinkPad*%
%ADD17O,1.000000X2.100000*%
%TD*%
%TA.AperFunction,HeatsinkPad*%
%ADD18O,1.000000X1.600000*%
%TD*%
%TA.AperFunction,ViaPad*%
%ADD19C,0.500000*%
%TD*%
%TA.AperFunction,ViaPad*%
%ADD20C,0.800000*%
%TD*%
%TA.AperFunction,Conductor*%
%ADD21C,1.000000*%
%TD*%
%TA.AperFunction,Conductor*%
%ADD22C,0.160000*%
%TD*%
%TA.AperFunction,Conductor*%
%ADD23C,0.750000*%
%TD*%
G04 APERTURE END LIST*
D10*
%TO.N,GND*%
%TO.C,U4*%
X88470000Y-97350000D03*
X88470000Y-98650000D03*
X88470000Y-99950000D03*
X89770000Y-97350000D03*
X89770000Y-98650000D03*
X89770000Y-99950000D03*
%TD*%
D11*
%TO.N,+3V3*%
%TO.C,J2*%
X91080000Y-83930000D03*
D12*
%TO.N,UART_TXD*%
X91080000Y-85200000D03*
%TO.N,UART_RXD*%
X91080000Y-86470000D03*
%TO.N,EN*%
X91080000Y-87740000D03*
%TO.N,IO9{slash}BOOT*%
X91080000Y-89010000D03*
%TO.N,GND*%
X91080000Y-90280000D03*
%TD*%
D13*
%TO.N,Net-(SW2-A)*%
%TO.C,SW2*%
X58000000Y-83300000D03*
D14*
%TO.N,GND*%
X63080000Y-83300000D03*
%TO.N,+3V3*%
X68160000Y-83300000D03*
%TD*%
D15*
%TO.N,Net-(J4-Pin_1)*%
%TO.C,J4*%
X95395000Y-93930000D03*
D16*
%TO.N,Net-(J4-Pin_2)*%
X92855000Y-93930000D03*
%TD*%
D15*
%TO.N,Net-(J1-Pin_1)*%
%TO.C,J1*%
X71490000Y-98610000D03*
D16*
%TO.N,+12V*%
X71490000Y-101150000D03*
%TD*%
D13*
%TO.N,Net-(SW1-A)*%
%TO.C,SW1*%
X63000000Y-90000000D03*
D14*
%TO.N,GND*%
X57920000Y-90000000D03*
%TO.N,+3V3*%
X52840000Y-90000000D03*
%TD*%
D17*
%TO.N,GND*%
%TO.C,J3*%
X74460000Y-95700000D03*
D18*
X74460000Y-99880000D03*
D17*
X83100000Y-95700000D03*
D18*
X83100000Y-99880000D03*
%TD*%
D19*
%TO.N,GND*%
X96400000Y-84600000D03*
X55500000Y-96000000D03*
X80200000Y-88900000D03*
X73920000Y-92180000D03*
X67400000Y-99800000D03*
X60800000Y-92700000D03*
X65181250Y-98918750D03*
X98500000Y-96300000D03*
X88600000Y-95400000D03*
X86700000Y-88300000D03*
X55500000Y-95200000D03*
X97500000Y-99300000D03*
X86700000Y-81800000D03*
X89300000Y-80600000D03*
X53300000Y-100800000D03*
X83000000Y-88700000D03*
X53300000Y-95900000D03*
X56700000Y-97500000D03*
X51600000Y-82900000D03*
X53300000Y-96800000D03*
X54300000Y-93700000D03*
X53300000Y-93700000D03*
X55500000Y-96700000D03*
X49500000Y-95900000D03*
X56000000Y-100500000D03*
X97700000Y-94800000D03*
X96600000Y-101300000D03*
X97700000Y-95800000D03*
X78100000Y-92000000D03*
X86800000Y-89300000D03*
X95400000Y-100700000D03*
X96300000Y-90500000D03*
X87800000Y-91370000D03*
X92600000Y-87500000D03*
X78800000Y-88900000D03*
X68800000Y-100400000D03*
X87300000Y-95400000D03*
X98500000Y-98900000D03*
X79600000Y-81900000D03*
X89700000Y-95400000D03*
X50900000Y-93900000D03*
X82000000Y-81800000D03*
X51100000Y-95800000D03*
X77500000Y-84100000D03*
X81500000Y-88900000D03*
X71300000Y-83500000D03*
X92500000Y-86100000D03*
X84600000Y-94300000D03*
X53300000Y-94900000D03*
X72000000Y-88200000D03*
X77300000Y-88800000D03*
X50700000Y-100600000D03*
X84500000Y-81800000D03*
X69200000Y-97500000D03*
X98600000Y-97700000D03*
X69700000Y-90500000D03*
X86700000Y-86000000D03*
X86700000Y-83800000D03*
X50700000Y-99800000D03*
X72200000Y-93800000D03*
X71500000Y-86100000D03*
X64700000Y-96500000D03*
X55500000Y-97500000D03*
X84500000Y-89300000D03*
X57100000Y-99200000D03*
X97700000Y-91800000D03*
X69400000Y-87400000D03*
X71700000Y-89900000D03*
X60900000Y-96800000D03*
X77500000Y-81900000D03*
X66817500Y-95117500D03*
X94000000Y-96000000D03*
X97700000Y-83200000D03*
X77400000Y-86200000D03*
X58000000Y-94900000D03*
X63600000Y-95000000D03*
X50400000Y-95400000D03*
X74600000Y-80900000D03*
X79000000Y-100600000D03*
X55500000Y-94400000D03*
X66400000Y-98800000D03*
%TO.N,+3V3*%
X52140000Y-91700000D03*
X75100000Y-86200000D03*
X84880000Y-93000000D03*
X84660000Y-100630000D03*
X52140000Y-92700000D03*
X74002500Y-81767500D03*
X52140000Y-93700000D03*
X75150000Y-83160000D03*
%TO.N,EN*%
X75100000Y-87160000D03*
%TO.N,CC1*%
X77540000Y-96460000D03*
X77450000Y-97650000D03*
%TO.N,JTAG_DM*%
X78500000Y-96040000D03*
D20*
%TO.N,+12V*%
X76210000Y-93260000D03*
D19*
X69910000Y-91580000D03*
D20*
X50800000Y-101950000D03*
X58430000Y-101870000D03*
X92100000Y-102020000D03*
X81250000Y-93390000D03*
D19*
%TO.N,LED_CTRL*%
X67260000Y-97720000D03*
X82770000Y-89730000D03*
%TO.N,MOTOR_IN1*%
X89130000Y-89900000D03*
X84630000Y-99290000D03*
%TO.N,MOTOR_IN2*%
X84700000Y-98030000D03*
X89450000Y-89150000D03*
%TD*%
D21*
%TO.N,+12V*%
X71865000Y-101525000D02*
X71925000Y-101585000D01*
D22*
X73447500Y-93793899D02*
X73589332Y-93652067D01*
D21*
X58350000Y-101950000D02*
X50800000Y-101950000D01*
D23*
X76275000Y-93325000D02*
X76210000Y-93260000D01*
X71865000Y-100775000D02*
X71490000Y-101150000D01*
D21*
X58400000Y-101900000D02*
X58350000Y-101950000D01*
D23*
X74042500Y-93557500D02*
X73447500Y-94152500D01*
X71667436Y-101327436D02*
X71739268Y-101327436D01*
X73080000Y-98697645D02*
X73080000Y-100040000D01*
D21*
X58850000Y-101900000D02*
X58400000Y-101900000D01*
D22*
X69910000Y-91580000D02*
X70690000Y-91580000D01*
D23*
X76431923Y-93390000D02*
X81250000Y-93390000D01*
X73080000Y-94990226D02*
X73080000Y-98697645D01*
X73447500Y-94152500D02*
X73412500Y-94187500D01*
D21*
X92100000Y-102020000D02*
X72975182Y-102020000D01*
D22*
X73447500Y-93557500D02*
X73447500Y-94152500D01*
D21*
X70209669Y-101900000D02*
X58481213Y-101900000D01*
D23*
X73080000Y-100040000D02*
X72345000Y-100775000D01*
X71490000Y-101150000D02*
X71667436Y-101327436D01*
X72345000Y-100775000D02*
X71865000Y-100775000D01*
D22*
X72021543Y-92131543D02*
X73447500Y-93557500D01*
X73447500Y-94152500D02*
X73447500Y-93793899D01*
D23*
X76210000Y-93260000D02*
X74760728Y-93260000D01*
D21*
X71865000Y-101525000D02*
G75*
G03*
X71115000Y-101525000I-375000J-374997D01*
G01*
X71925000Y-101585000D02*
G75*
G03*
X72975182Y-102020007I1050200J1050200D01*
G01*
D23*
X74760728Y-93260000D02*
G75*
G03*
X74042492Y-93557492I-28J-1015700D01*
G01*
X73412500Y-94187500D02*
G75*
G03*
X73080011Y-94990226I802700J-802700D01*
G01*
X71739268Y-101327436D02*
G75*
G03*
X71864995Y-101525005I509332J185336D01*
G01*
X76275000Y-93325000D02*
G75*
G03*
X76431923Y-93389990I156900J156900D01*
G01*
D22*
X73589332Y-93652067D02*
G75*
G03*
X74042497Y-93557497I154568J392367D01*
G01*
D21*
X71115000Y-101525000D02*
G75*
G02*
X70209669Y-101899988I-905300J905300D01*
G01*
D22*
X70690000Y-91580000D02*
G75*
G02*
X72021546Y-92131540I0J-1883100D01*
G01*
%TD*%
%TA.AperFunction,Conductor*%
%TO.N,+3V3*%
G36*
X88940160Y-80019407D02*
G01*
X88976124Y-80068907D01*
X88976124Y-80130093D01*
X88951974Y-80169501D01*
X88859491Y-80261985D01*
X88859488Y-80261988D01*
X88859487Y-80261989D01*
X88787017Y-80387510D01*
X88749500Y-80527525D01*
X88749500Y-80672474D01*
X88787017Y-80812489D01*
X88859487Y-80938010D01*
X88859489Y-80938012D01*
X88859491Y-80938015D01*
X88961985Y-81040509D01*
X88961987Y-81040510D01*
X88961989Y-81040512D01*
X89087511Y-81112982D01*
X89087512Y-81112982D01*
X89087515Y-81112984D01*
X89227525Y-81150500D01*
X89227526Y-81150500D01*
X89372474Y-81150500D01*
X89372475Y-81150500D01*
X89512485Y-81112984D01*
X89512487Y-81112982D01*
X89512489Y-81112982D01*
X89638010Y-81040512D01*
X89638010Y-81040511D01*
X89638015Y-81040509D01*
X89740509Y-80938015D01*
X89812984Y-80812485D01*
X89850500Y-80672475D01*
X89850500Y-80527525D01*
X89812984Y-80387515D01*
X89812982Y-80387512D01*
X89812982Y-80387510D01*
X89740512Y-80261989D01*
X89740510Y-80261987D01*
X89740509Y-80261985D01*
X89648025Y-80169501D01*
X89620250Y-80114987D01*
X89629821Y-80054555D01*
X89673086Y-80011290D01*
X89718031Y-80000500D01*
X98900500Y-80000500D01*
X98958691Y-80019407D01*
X98994655Y-80068907D01*
X98999500Y-80099500D01*
X98999500Y-95782650D01*
X98980593Y-95840841D01*
X98931093Y-95876805D01*
X98869907Y-95876805D01*
X98840235Y-95861194D01*
X98838013Y-95859489D01*
X98712488Y-95787017D01*
X98712489Y-95787017D01*
X98624566Y-95763458D01*
X98572475Y-95749500D01*
X98427525Y-95749500D01*
X98363477Y-95766661D01*
X98302376Y-95763458D01*
X98254826Y-95724953D01*
X98242230Y-95696661D01*
X98212984Y-95587515D01*
X98212982Y-95587512D01*
X98212982Y-95587510D01*
X98140512Y-95461989D01*
X98140510Y-95461987D01*
X98140509Y-95461985D01*
X98048525Y-95370001D01*
X98020750Y-95315487D01*
X98030321Y-95255055D01*
X98048524Y-95229999D01*
X98140509Y-95138015D01*
X98140512Y-95138010D01*
X98212982Y-95012489D01*
X98212982Y-95012487D01*
X98212984Y-95012485D01*
X98250500Y-94872475D01*
X98250500Y-94727525D01*
X98212984Y-94587515D01*
X98212982Y-94587512D01*
X98212982Y-94587510D01*
X98140512Y-94461989D01*
X98140510Y-94461987D01*
X98140509Y-94461985D01*
X98038015Y-94359491D01*
X98038012Y-94359489D01*
X98038010Y-94359487D01*
X97912488Y-94287017D01*
X97912489Y-94287017D01*
X97882896Y-94279087D01*
X97772475Y-94249500D01*
X97627525Y-94249500D01*
X97565790Y-94266041D01*
X97487510Y-94287017D01*
X97361989Y-94359487D01*
X97259487Y-94461989D01*
X97187017Y-94587510D01*
X97163042Y-94676987D01*
X97149500Y-94727525D01*
X97149500Y-94872475D01*
X97164251Y-94927525D01*
X97187017Y-95012489D01*
X97259487Y-95138010D01*
X97259489Y-95138012D01*
X97259491Y-95138015D01*
X97351474Y-95229998D01*
X97379250Y-95284513D01*
X97369679Y-95344945D01*
X97351475Y-95370000D01*
X97280967Y-95440509D01*
X97259488Y-95461988D01*
X97259487Y-95461989D01*
X97187017Y-95587510D01*
X97156342Y-95701989D01*
X97149500Y-95727525D01*
X97149500Y-95872475D01*
X97169474Y-95947017D01*
X97187017Y-96012489D01*
X97259487Y-96138010D01*
X97259489Y-96138012D01*
X97259491Y-96138015D01*
X97361985Y-96240509D01*
X97361987Y-96240510D01*
X97361989Y-96240512D01*
X97487511Y-96312982D01*
X97487512Y-96312982D01*
X97487515Y-96312984D01*
X97627525Y-96350500D01*
X97627526Y-96350500D01*
X97772476Y-96350500D01*
X97772476Y-96350499D01*
X97836520Y-96333339D01*
X97897622Y-96336540D01*
X97945172Y-96375045D01*
X97957770Y-96403338D01*
X97987016Y-96512485D01*
X97987017Y-96512487D01*
X97987018Y-96512490D01*
X98059487Y-96638010D01*
X98059489Y-96638012D01*
X98059491Y-96638015D01*
X98161985Y-96740509D01*
X98161987Y-96740510D01*
X98161989Y-96740512D01*
X98287511Y-96812982D01*
X98287512Y-96812982D01*
X98287515Y-96812984D01*
X98427525Y-96850500D01*
X98427526Y-96850500D01*
X98572474Y-96850500D01*
X98572475Y-96850500D01*
X98712485Y-96812984D01*
X98712487Y-96812982D01*
X98712489Y-96812982D01*
X98838007Y-96740514D01*
X98838009Y-96740512D01*
X98838015Y-96740509D01*
X98838019Y-96740504D01*
X98840228Y-96738810D01*
X98842119Y-96738140D01*
X98843635Y-96737265D01*
X98843797Y-96737545D01*
X98897903Y-96718383D01*
X98956570Y-96735757D01*
X98993820Y-96784297D01*
X98999500Y-96817349D01*
X98999500Y-97123515D01*
X98980593Y-97181706D01*
X98931093Y-97217670D01*
X98869907Y-97217670D01*
X98851001Y-97209252D01*
X98812488Y-97187017D01*
X98812485Y-97187016D01*
X98672475Y-97149500D01*
X98527525Y-97149500D01*
X98480931Y-97161985D01*
X98387510Y-97187017D01*
X98261989Y-97259487D01*
X98159487Y-97361989D01*
X98087017Y-97487510D01*
X98060296Y-97587235D01*
X98049500Y-97627525D01*
X98049500Y-97772475D01*
X98079087Y-97882896D01*
X98087017Y-97912489D01*
X98159487Y-98038010D01*
X98159489Y-98038012D01*
X98159491Y-98038015D01*
X98261985Y-98140509D01*
X98354712Y-98194045D01*
X98395652Y-98239514D01*
X98402048Y-98300364D01*
X98371455Y-98353352D01*
X98330836Y-98375407D01*
X98287514Y-98387016D01*
X98287511Y-98387017D01*
X98161989Y-98459487D01*
X98059487Y-98561989D01*
X97987017Y-98687511D01*
X97987015Y-98687515D01*
X97960538Y-98786328D01*
X97927214Y-98837642D01*
X97870092Y-98859568D01*
X97815412Y-98846441D01*
X97712486Y-98787016D01*
X97609761Y-98759491D01*
X97572475Y-98749500D01*
X97427525Y-98749500D01*
X97390239Y-98759491D01*
X97287510Y-98787017D01*
X97161989Y-98859487D01*
X97059487Y-98961989D01*
X96987017Y-99087510D01*
X96952042Y-99218040D01*
X96949500Y-99227525D01*
X96949500Y-99372475D01*
X96975431Y-99469250D01*
X96987017Y-99512489D01*
X97059487Y-99638010D01*
X97059489Y-99638012D01*
X97059491Y-99638015D01*
X97161985Y-99740509D01*
X97161987Y-99740510D01*
X97161989Y-99740512D01*
X97287511Y-99812982D01*
X97287512Y-99812982D01*
X97287515Y-99812984D01*
X97427525Y-99850500D01*
X97427526Y-99850500D01*
X97572474Y-99850500D01*
X97572475Y-99850500D01*
X97712485Y-99812984D01*
X97712487Y-99812982D01*
X97712489Y-99812982D01*
X97838010Y-99740512D01*
X97838010Y-99740511D01*
X97838015Y-99740509D01*
X97940509Y-99638015D01*
X97946283Y-99628015D01*
X98012982Y-99512489D01*
X98012982Y-99512487D01*
X98012984Y-99512485D01*
X98039461Y-99413668D01*
X98072784Y-99362358D01*
X98129905Y-99340431D01*
X98184587Y-99353559D01*
X98287511Y-99412982D01*
X98287512Y-99412982D01*
X98287515Y-99412984D01*
X98427525Y-99450500D01*
X98427526Y-99450500D01*
X98572474Y-99450500D01*
X98572475Y-99450500D01*
X98712485Y-99412984D01*
X98712487Y-99412982D01*
X98712489Y-99412982D01*
X98838007Y-99340514D01*
X98838009Y-99340512D01*
X98838015Y-99340509D01*
X98838019Y-99340504D01*
X98840228Y-99338810D01*
X98842119Y-99338140D01*
X98843635Y-99337265D01*
X98843797Y-99337545D01*
X98897903Y-99318383D01*
X98956570Y-99335757D01*
X98993820Y-99384297D01*
X98999500Y-99417349D01*
X98999500Y-102900500D01*
X98980593Y-102958691D01*
X98931093Y-102994655D01*
X98900500Y-102999500D01*
X92284113Y-102999500D01*
X92225922Y-102980593D01*
X92189958Y-102931093D01*
X92189958Y-102869907D01*
X92225922Y-102820407D01*
X92264799Y-102803402D01*
X92266250Y-102803113D01*
X92333497Y-102789737D01*
X92479179Y-102729394D01*
X92610289Y-102641789D01*
X92721789Y-102530289D01*
X92809394Y-102399179D01*
X92869737Y-102253497D01*
X92900500Y-102098842D01*
X92900500Y-101941158D01*
X92869737Y-101786503D01*
X92840742Y-101716503D01*
X92809396Y-101640825D01*
X92809390Y-101640814D01*
X92762617Y-101570814D01*
X92721789Y-101509711D01*
X92610289Y-101398211D01*
X92558059Y-101363312D01*
X92479185Y-101310609D01*
X92479174Y-101310603D01*
X92333497Y-101250263D01*
X92178844Y-101219500D01*
X92178842Y-101219500D01*
X79396394Y-101219500D01*
X79338203Y-101200593D01*
X79302239Y-101151093D01*
X79302239Y-101089907D01*
X79333708Y-101045379D01*
X79333426Y-101045097D01*
X79335068Y-101043454D01*
X79336126Y-101041958D01*
X79338008Y-101040512D01*
X79338015Y-101040509D01*
X79440509Y-100938015D01*
X79454961Y-100912984D01*
X79512982Y-100812489D01*
X79512982Y-100812487D01*
X79512984Y-100812485D01*
X79550500Y-100672475D01*
X79550500Y-100527525D01*
X79512984Y-100387515D01*
X79512982Y-100387512D01*
X79512982Y-100387510D01*
X79440512Y-100261989D01*
X79440510Y-100261987D01*
X79440509Y-100261985D01*
X79338015Y-100159491D01*
X79338012Y-100159489D01*
X79338010Y-100159487D01*
X79212488Y-100087017D01*
X79212489Y-100087017D01*
X79182896Y-100079087D01*
X79072475Y-100049500D01*
X78927525Y-100049500D01*
X78890239Y-100059491D01*
X78787510Y-100087017D01*
X78661989Y-100159487D01*
X78559487Y-100261989D01*
X78487017Y-100387510D01*
X78450659Y-100523200D01*
X78449500Y-100527525D01*
X78449500Y-100672475D01*
X78454274Y-100690292D01*
X78487017Y-100812489D01*
X78559487Y-100938010D01*
X78559489Y-100938012D01*
X78559491Y-100938015D01*
X78661985Y-101040509D01*
X78661987Y-101040510D01*
X78663874Y-101041958D01*
X78664838Y-101043361D01*
X78666574Y-101045097D01*
X78666252Y-101045418D01*
X78698529Y-101092383D01*
X78696927Y-101153548D01*
X78659680Y-101202089D01*
X78603606Y-101219500D01*
X73094808Y-101219500D01*
X73036617Y-101200593D01*
X73000653Y-101151093D01*
X73000653Y-101089907D01*
X73024804Y-101050496D01*
X73234791Y-100840509D01*
X73577160Y-100498139D01*
X73631676Y-100470364D01*
X73692108Y-100479935D01*
X73735373Y-100523200D01*
X73738627Y-100530260D01*
X73750603Y-100559174D01*
X73750609Y-100559185D01*
X73796273Y-100627525D01*
X73838211Y-100690289D01*
X73949711Y-100801789D01*
X74003927Y-100838015D01*
X74080814Y-100889390D01*
X74080825Y-100889396D01*
X74134638Y-100911685D01*
X74226503Y-100949737D01*
X74381158Y-100980500D01*
X74381159Y-100980500D01*
X74538841Y-100980500D01*
X74538842Y-100980500D01*
X74693497Y-100949737D01*
X74839179Y-100889394D01*
X74970289Y-100801789D01*
X75081789Y-100690289D01*
X75169394Y-100559179D01*
X75229737Y-100413497D01*
X75260500Y-100258842D01*
X75260500Y-99501158D01*
X75260499Y-99501155D01*
X82299500Y-99501155D01*
X82299500Y-100258844D01*
X82330263Y-100413496D01*
X82330263Y-100413498D01*
X82390603Y-100559174D01*
X82390609Y-100559185D01*
X82436273Y-100627525D01*
X82478211Y-100690289D01*
X82589711Y-100801789D01*
X82643927Y-100838015D01*
X82720814Y-100889390D01*
X82720825Y-100889396D01*
X82774638Y-100911685D01*
X82866503Y-100949737D01*
X83021158Y-100980500D01*
X83021159Y-100980500D01*
X83178841Y-100980500D01*
X83178842Y-100980500D01*
X83333497Y-100949737D01*
X83479179Y-100889394D01*
X83610289Y-100801789D01*
X83721789Y-100690289D01*
X83763727Y-100627525D01*
X94849500Y-100627525D01*
X94849500Y-100772475D01*
X94857355Y-100801789D01*
X94887017Y-100912489D01*
X94959487Y-101038010D01*
X94959489Y-101038012D01*
X94959491Y-101038015D01*
X95061985Y-101140509D01*
X95061987Y-101140510D01*
X95061989Y-101140512D01*
X95187511Y-101212982D01*
X95187512Y-101212982D01*
X95187515Y-101212984D01*
X95327525Y-101250500D01*
X95327526Y-101250500D01*
X95472474Y-101250500D01*
X95472475Y-101250500D01*
X95558218Y-101227525D01*
X96049500Y-101227525D01*
X96049500Y-101372474D01*
X96087017Y-101512489D01*
X96159487Y-101638010D01*
X96159489Y-101638012D01*
X96159491Y-101638015D01*
X96261985Y-101740509D01*
X96261987Y-101740510D01*
X96261989Y-101740512D01*
X96387511Y-101812982D01*
X96387512Y-101812982D01*
X96387515Y-101812984D01*
X96527525Y-101850500D01*
X96527526Y-101850500D01*
X96672474Y-101850500D01*
X96672475Y-101850500D01*
X96812485Y-101812984D01*
X96812487Y-101812982D01*
X96812489Y-101812982D01*
X96938010Y-101740512D01*
X96938010Y-101740511D01*
X96938015Y-101740509D01*
X97040509Y-101638015D01*
X97040512Y-101638010D01*
X97112982Y-101512489D01*
X97112982Y-101512487D01*
X97112984Y-101512485D01*
X97150500Y-101372475D01*
X97150500Y-101227525D01*
X97112984Y-101087515D01*
X97112982Y-101087512D01*
X97112982Y-101087510D01*
X97040512Y-100961989D01*
X97040510Y-100961987D01*
X97040509Y-100961985D01*
X96938015Y-100859491D01*
X96938012Y-100859489D01*
X96938010Y-100859487D01*
X96812488Y-100787017D01*
X96812489Y-100787017D01*
X96758214Y-100772474D01*
X96672475Y-100749500D01*
X96527525Y-100749500D01*
X96465790Y-100766041D01*
X96387510Y-100787017D01*
X96261989Y-100859487D01*
X96159487Y-100961989D01*
X96087017Y-101087510D01*
X96049500Y-101227525D01*
X95558218Y-101227525D01*
X95612485Y-101212984D01*
X95612487Y-101212982D01*
X95612489Y-101212982D01*
X95738008Y-101140513D01*
X95738007Y-101140513D01*
X95738015Y-101140509D01*
X95840509Y-101038015D01*
X95840512Y-101038010D01*
X95912982Y-100912489D01*
X95912982Y-100912487D01*
X95912984Y-100912485D01*
X95950500Y-100772475D01*
X95950500Y-100627525D01*
X95912984Y-100487515D01*
X95912982Y-100487512D01*
X95912982Y-100487510D01*
X95840512Y-100361989D01*
X95840510Y-100361987D01*
X95840509Y-100361985D01*
X95738015Y-100259491D01*
X95738012Y-100259489D01*
X95738010Y-100259487D01*
X95612488Y-100187017D01*
X95612489Y-100187017D01*
X95534068Y-100166004D01*
X95472475Y-100149500D01*
X95327525Y-100149500D01*
X95290239Y-100159491D01*
X95187510Y-100187017D01*
X95061989Y-100259487D01*
X94959487Y-100361989D01*
X94887017Y-100487510D01*
X94871075Y-100547006D01*
X94849500Y-100627525D01*
X83763727Y-100627525D01*
X83809394Y-100559179D01*
X83869737Y-100413497D01*
X83900500Y-100258842D01*
X83900500Y-99501158D01*
X83869737Y-99346503D01*
X83847258Y-99292233D01*
X83829318Y-99248921D01*
X83816313Y-99217525D01*
X84079500Y-99217525D01*
X84079500Y-99362475D01*
X84093034Y-99412984D01*
X84117017Y-99502489D01*
X84189487Y-99628010D01*
X84189489Y-99628012D01*
X84189491Y-99628015D01*
X84291985Y-99730509D01*
X84291987Y-99730510D01*
X84291989Y-99730512D01*
X84417511Y-99802982D01*
X84417512Y-99802982D01*
X84417515Y-99802984D01*
X84557525Y-99840500D01*
X84557526Y-99840500D01*
X84702474Y-99840500D01*
X84702475Y-99840500D01*
X84842485Y-99802984D01*
X84842487Y-99802982D01*
X84842489Y-99802982D01*
X84968010Y-99730512D01*
X84968010Y-99730511D01*
X84968015Y-99730509D01*
X85070509Y-99628015D01*
X85122474Y-99538010D01*
X85142982Y-99502489D01*
X85142982Y-99502487D01*
X85142984Y-99502485D01*
X85180500Y-99362475D01*
X85180500Y-99217525D01*
X85142984Y-99077515D01*
X85142982Y-99077512D01*
X85142982Y-99077510D01*
X85070512Y-98951989D01*
X85070510Y-98951987D01*
X85070509Y-98951985D01*
X84968015Y-98849491D01*
X84968012Y-98849489D01*
X84968010Y-98849487D01*
X84842488Y-98777017D01*
X84842484Y-98777015D01*
X84797658Y-98765004D01*
X84746344Y-98731680D01*
X84724418Y-98674559D01*
X84740254Y-98615458D01*
X84787804Y-98576953D01*
X84797643Y-98573756D01*
X84912485Y-98542984D01*
X84912487Y-98542982D01*
X84912489Y-98542982D01*
X85038010Y-98470512D01*
X85038010Y-98470511D01*
X85038015Y-98470509D01*
X85140509Y-98368015D01*
X85151199Y-98349500D01*
X85212982Y-98242489D01*
X85212982Y-98242487D01*
X85212984Y-98242485D01*
X85250500Y-98102475D01*
X85250500Y-97957525D01*
X85212984Y-97817515D01*
X85212982Y-97817512D01*
X85212982Y-97817510D01*
X85140512Y-97691989D01*
X85140510Y-97691987D01*
X85140509Y-97691985D01*
X85038015Y-97589491D01*
X85038012Y-97589489D01*
X85038010Y-97589487D01*
X84912488Y-97517017D01*
X84912489Y-97517017D01*
X84877027Y-97507515D01*
X84772475Y-97479500D01*
X84627525Y-97479500D01*
X84597632Y-97487510D01*
X84487510Y-97517017D01*
X84361989Y-97589487D01*
X84259487Y-97691989D01*
X84187017Y-97817510D01*
X84156208Y-97932489D01*
X84149500Y-97957525D01*
X84149500Y-98102475D01*
X84159691Y-98140509D01*
X84187017Y-98242489D01*
X84259487Y-98368010D01*
X84259489Y-98368012D01*
X84259491Y-98368015D01*
X84361985Y-98470509D01*
X84361987Y-98470510D01*
X84361989Y-98470512D01*
X84487511Y-98542982D01*
X84487509Y-98542982D01*
X84487513Y-98542983D01*
X84487515Y-98542984D01*
X84532342Y-98554995D01*
X84583654Y-98588318D01*
X84605581Y-98645439D01*
X84589746Y-98704540D01*
X84542196Y-98743045D01*
X84532341Y-98746247D01*
X84417515Y-98777015D01*
X84417511Y-98777017D01*
X84291989Y-98849487D01*
X84189487Y-98951989D01*
X84117017Y-99077510D01*
X84101852Y-99134107D01*
X84079500Y-99217525D01*
X83816313Y-99217525D01*
X83809396Y-99200825D01*
X83809390Y-99200814D01*
X83762898Y-99131235D01*
X83721789Y-99069711D01*
X83610289Y-98958211D01*
X83538069Y-98909955D01*
X83479185Y-98870609D01*
X83479174Y-98870603D01*
X83333497Y-98810263D01*
X83178844Y-98779500D01*
X83178842Y-98779500D01*
X83021158Y-98779500D01*
X83021155Y-98779500D01*
X82866503Y-98810263D01*
X82866501Y-98810263D01*
X82720825Y-98870603D01*
X82720814Y-98870609D01*
X82589711Y-98958211D01*
X82589707Y-98958214D01*
X82478214Y-99069707D01*
X82478211Y-99069711D01*
X82390609Y-99200814D01*
X82390603Y-99200825D01*
X82330263Y-99346501D01*
X82330263Y-99346503D01*
X82299500Y-99501155D01*
X75260499Y-99501155D01*
X75229737Y-99346503D01*
X75199074Y-99272475D01*
X75169396Y-99200825D01*
X75169390Y-99200814D01*
X75122898Y-99131235D01*
X75081789Y-99069711D01*
X74970289Y-98958211D01*
X74898069Y-98909955D01*
X74839185Y-98870609D01*
X74839174Y-98870603D01*
X74693497Y-98810263D01*
X74538844Y-98779500D01*
X74538842Y-98779500D01*
X74381158Y-98779500D01*
X74381155Y-98779500D01*
X74226503Y-98810263D01*
X74226501Y-98810263D01*
X74080825Y-98870603D01*
X74080814Y-98870609D01*
X73949711Y-98958211D01*
X73949707Y-98958214D01*
X73924504Y-98983418D01*
X73869987Y-99011195D01*
X73809555Y-99001624D01*
X73766290Y-98958359D01*
X73755500Y-98913414D01*
X73755500Y-97577525D01*
X76899500Y-97577525D01*
X76899500Y-97722475D01*
X76904828Y-97742358D01*
X76937017Y-97862489D01*
X77009487Y-97988010D01*
X77009489Y-97988012D01*
X77009491Y-97988015D01*
X77111985Y-98090509D01*
X77111987Y-98090510D01*
X77111989Y-98090512D01*
X77237511Y-98162982D01*
X77237512Y-98162982D01*
X77237515Y-98162984D01*
X77377525Y-98200500D01*
X77377526Y-98200500D01*
X77522474Y-98200500D01*
X77522475Y-98200500D01*
X77662485Y-98162984D01*
X77662487Y-98162982D01*
X77662489Y-98162982D01*
X77788010Y-98090512D01*
X77788010Y-98090511D01*
X77788015Y-98090509D01*
X77890509Y-97988015D01*
X77903508Y-97965500D01*
X77962982Y-97862489D01*
X77962982Y-97862487D01*
X77962984Y-97862485D01*
X78000500Y-97722475D01*
X78000500Y-97577525D01*
X77962984Y-97437515D01*
X77962982Y-97437512D01*
X77962982Y-97437510D01*
X77903229Y-97334016D01*
X77903228Y-97334015D01*
X77891086Y-97312984D01*
X77890509Y-97311985D01*
X77867900Y-97289376D01*
X87854500Y-97289376D01*
X87854500Y-97410623D01*
X87878153Y-97529534D01*
X87878153Y-97529536D01*
X87924549Y-97641546D01*
X87924549Y-97641547D01*
X87991909Y-97742357D01*
X88077642Y-97828090D01*
X88178451Y-97895449D01*
X88210045Y-97908536D01*
X88256571Y-97948273D01*
X88270854Y-98007768D01*
X88247439Y-98064296D01*
X88210045Y-98091464D01*
X88178451Y-98104550D01*
X88077642Y-98171909D01*
X87991909Y-98257642D01*
X87924549Y-98358452D01*
X87924549Y-98358453D01*
X87878153Y-98470463D01*
X87878153Y-98470465D01*
X87854500Y-98589376D01*
X87854500Y-98710623D01*
X87878153Y-98829534D01*
X87878153Y-98829536D01*
X87924549Y-98941546D01*
X87924549Y-98941547D01*
X87991909Y-99042357D01*
X88077642Y-99128090D01*
X88178451Y-99195449D01*
X88210045Y-99208536D01*
X88256571Y-99248273D01*
X88270854Y-99307768D01*
X88247439Y-99364296D01*
X88210045Y-99391464D01*
X88178451Y-99404550D01*
X88077642Y-99471909D01*
X87991909Y-99557642D01*
X87924549Y-99658452D01*
X87924549Y-99658453D01*
X87878153Y-99770463D01*
X87878153Y-99770465D01*
X87854500Y-99889376D01*
X87854500Y-100010623D01*
X87878153Y-100129534D01*
X87878153Y-100129536D01*
X87924549Y-100241546D01*
X87924549Y-100241547D01*
X87991909Y-100342357D01*
X87991910Y-100342358D01*
X88077642Y-100428090D01*
X88178451Y-100495449D01*
X88290465Y-100541847D01*
X88409379Y-100565500D01*
X88409380Y-100565500D01*
X88530620Y-100565500D01*
X88530621Y-100565500D01*
X88649535Y-100541847D01*
X88761549Y-100495449D01*
X88862358Y-100428090D01*
X88948090Y-100342358D01*
X89015449Y-100241549D01*
X89028536Y-100209955D01*
X89068272Y-100163429D01*
X89127767Y-100149145D01*
X89184295Y-100172560D01*
X89211464Y-100209955D01*
X89224549Y-100241546D01*
X89224549Y-100241547D01*
X89291909Y-100342357D01*
X89291910Y-100342358D01*
X89377642Y-100428090D01*
X89478451Y-100495449D01*
X89590465Y-100541847D01*
X89709379Y-100565500D01*
X89709380Y-100565500D01*
X89830620Y-100565500D01*
X89830621Y-100565500D01*
X89949535Y-100541847D01*
X90061549Y-100495449D01*
X90162358Y-100428090D01*
X90248090Y-100342358D01*
X90315449Y-100241549D01*
X90361847Y-100129535D01*
X90385500Y-100010621D01*
X90385500Y-99889379D01*
X90361847Y-99770465D01*
X90315450Y-99658453D01*
X90315450Y-99658452D01*
X90248090Y-99557642D01*
X90162357Y-99471909D01*
X90061546Y-99404549D01*
X90029955Y-99391464D01*
X89983429Y-99351728D01*
X89969145Y-99292233D01*
X89992560Y-99235705D01*
X90029955Y-99208536D01*
X90048597Y-99200814D01*
X90061549Y-99195449D01*
X90162358Y-99128090D01*
X90248090Y-99042358D01*
X90315449Y-98941549D01*
X90361847Y-98829535D01*
X90385500Y-98710621D01*
X90385500Y-98589379D01*
X90361847Y-98470465D01*
X90328536Y-98390045D01*
X90315450Y-98358453D01*
X90315450Y-98358452D01*
X90248090Y-98257642D01*
X90162357Y-98171909D01*
X90061546Y-98104549D01*
X90029955Y-98091464D01*
X89983429Y-98051728D01*
X89969145Y-97992233D01*
X89992560Y-97935705D01*
X90029955Y-97908536D01*
X90046209Y-97901802D01*
X90061549Y-97895449D01*
X90162358Y-97828090D01*
X90248090Y-97742358D01*
X90315449Y-97641549D01*
X90361847Y-97529535D01*
X90385500Y-97410621D01*
X90385500Y-97289379D01*
X90361847Y-97170465D01*
X90315450Y-97058453D01*
X90315450Y-97058452D01*
X90248090Y-96957642D01*
X90162357Y-96871909D01*
X90061546Y-96804549D01*
X89949535Y-96758153D01*
X89830623Y-96734500D01*
X89830621Y-96734500D01*
X89709379Y-96734500D01*
X89709376Y-96734500D01*
X89590465Y-96758153D01*
X89590463Y-96758153D01*
X89478453Y-96804549D01*
X89478452Y-96804549D01*
X89377642Y-96871909D01*
X89291909Y-96957642D01*
X89224550Y-97058451D01*
X89211464Y-97090045D01*
X89171727Y-97136571D01*
X89112232Y-97150854D01*
X89055704Y-97127439D01*
X89028536Y-97090045D01*
X89015449Y-97058451D01*
X88948090Y-96957642D01*
X88862357Y-96871909D01*
X88761546Y-96804549D01*
X88649535Y-96758153D01*
X88530623Y-96734500D01*
X88530621Y-96734500D01*
X88409379Y-96734500D01*
X88409376Y-96734500D01*
X88290465Y-96758153D01*
X88290463Y-96758153D01*
X88178453Y-96804549D01*
X88178452Y-96804549D01*
X88077642Y-96871909D01*
X87991909Y-96957642D01*
X87924549Y-97058452D01*
X87924549Y-97058453D01*
X87878153Y-97170463D01*
X87878153Y-97170465D01*
X87854500Y-97289376D01*
X77867900Y-97289376D01*
X77788015Y-97209491D01*
X77788012Y-97209489D01*
X77788010Y-97209487D01*
X77703948Y-97160954D01*
X77663007Y-97115485D01*
X77656611Y-97054635D01*
X77687204Y-97001647D01*
X77727822Y-96979592D01*
X77752485Y-96972984D01*
X77752487Y-96972982D01*
X77752489Y-96972982D01*
X77878010Y-96900512D01*
X77878010Y-96900511D01*
X77878015Y-96900509D01*
X77980509Y-96798015D01*
X77995255Y-96772474D01*
X78052982Y-96672489D01*
X78052982Y-96672487D01*
X78052984Y-96672485D01*
X78078743Y-96576349D01*
X78112066Y-96525038D01*
X78169188Y-96503111D01*
X78223869Y-96516238D01*
X78287511Y-96552982D01*
X78287515Y-96552984D01*
X78427525Y-96590500D01*
X78427526Y-96590500D01*
X78572474Y-96590500D01*
X78572475Y-96590500D01*
X78712485Y-96552984D01*
X78712487Y-96552982D01*
X78712489Y-96552982D01*
X78838010Y-96480512D01*
X78838010Y-96480511D01*
X78838015Y-96480509D01*
X78940509Y-96378015D01*
X79012984Y-96252485D01*
X79023702Y-96212485D01*
X79030492Y-96187147D01*
X81344500Y-96187147D01*
X81344500Y-96272853D01*
X81366682Y-96355638D01*
X81409535Y-96429862D01*
X81470138Y-96490465D01*
X81544362Y-96533318D01*
X81627147Y-96555500D01*
X81627149Y-96555500D01*
X81712851Y-96555500D01*
X81712853Y-96555500D01*
X81795638Y-96533318D01*
X81869862Y-96490465D01*
X81930465Y-96429862D01*
X81973318Y-96355638D01*
X81995500Y-96272853D01*
X81995500Y-96187147D01*
X81973318Y-96104362D01*
X81930465Y-96030138D01*
X81869862Y-95969535D01*
X81795638Y-95926682D01*
X81712853Y-95904500D01*
X81627147Y-95904500D01*
X81544362Y-95926682D01*
X81470138Y-95969535D01*
X81409535Y-96030138D01*
X81366682Y-96104362D01*
X81344500Y-96187147D01*
X79030492Y-96187147D01*
X79039096Y-96155037D01*
X79039096Y-96155035D01*
X79043658Y-96138010D01*
X79050500Y-96112475D01*
X79050500Y-95967525D01*
X79012984Y-95827515D01*
X79012982Y-95827511D01*
X79012982Y-95827510D01*
X78940512Y-95701989D01*
X78940510Y-95701987D01*
X78940509Y-95701985D01*
X78838015Y-95599491D01*
X78838012Y-95599489D01*
X78838010Y-95599487D01*
X78712488Y-95527017D01*
X78712489Y-95527017D01*
X78660110Y-95512982D01*
X78572475Y-95489500D01*
X78427525Y-95489500D01*
X78365790Y-95506041D01*
X78287510Y-95527017D01*
X78161989Y-95599487D01*
X78059487Y-95701989D01*
X77987017Y-95827511D01*
X77987015Y-95827515D01*
X77961256Y-95923648D01*
X77927932Y-95974962D01*
X77870810Y-95996888D01*
X77816131Y-95983761D01*
X77752488Y-95947017D01*
X77752485Y-95947016D01*
X77612475Y-95909500D01*
X77467525Y-95909500D01*
X77454523Y-95912984D01*
X77327510Y-95947017D01*
X77201989Y-96019487D01*
X77099487Y-96121989D01*
X77027017Y-96247510D01*
X76995405Y-96365487D01*
X76989500Y-96387525D01*
X76989500Y-96532475D01*
X76995670Y-96555500D01*
X77027017Y-96672489D01*
X77099487Y-96798010D01*
X77099489Y-96798012D01*
X77099491Y-96798015D01*
X77201985Y-96900509D01*
X77286052Y-96949045D01*
X77326992Y-96994514D01*
X77333388Y-97055364D01*
X77302795Y-97108352D01*
X77262177Y-97130407D01*
X77237512Y-97137016D01*
X77237511Y-97137017D01*
X77111989Y-97209487D01*
X77009487Y-97311989D01*
X76937017Y-97437510D01*
X76900853Y-97572474D01*
X76899500Y-97577525D01*
X73755500Y-97577525D01*
X73755500Y-96916586D01*
X73774407Y-96858395D01*
X73823907Y-96822431D01*
X73885093Y-96822431D01*
X73924504Y-96846582D01*
X73949711Y-96871789D01*
X74027876Y-96924017D01*
X74080814Y-96959390D01*
X74080825Y-96959396D01*
X74113630Y-96972984D01*
X74226503Y-97019737D01*
X74381158Y-97050500D01*
X74381159Y-97050500D01*
X74538841Y-97050500D01*
X74538842Y-97050500D01*
X74693497Y-97019737D01*
X74839179Y-96959394D01*
X74970289Y-96871789D01*
X75081789Y-96760289D01*
X75169394Y-96629179D01*
X75229737Y-96483497D01*
X75260500Y-96328842D01*
X75260500Y-96187147D01*
X75564500Y-96187147D01*
X75564500Y-96272853D01*
X75586682Y-96355638D01*
X75629535Y-96429862D01*
X75690138Y-96490465D01*
X75764362Y-96533318D01*
X75847147Y-96555500D01*
X75847149Y-96555500D01*
X75932851Y-96555500D01*
X75932853Y-96555500D01*
X76015638Y-96533318D01*
X76089862Y-96490465D01*
X76150465Y-96429862D01*
X76193318Y-96355638D01*
X76215500Y-96272853D01*
X76215500Y-96187147D01*
X76193318Y-96104362D01*
X76150465Y-96030138D01*
X76089862Y-95969535D01*
X76015638Y-95926682D01*
X75932853Y-95904500D01*
X75847147Y-95904500D01*
X75764362Y-95926682D01*
X75690138Y-95969535D01*
X75629535Y-96030138D01*
X75586682Y-96104362D01*
X75564500Y-96187147D01*
X75260500Y-96187147D01*
X75260500Y-95071158D01*
X75260499Y-95071155D01*
X82299500Y-95071155D01*
X82299500Y-96328844D01*
X82306789Y-96365487D01*
X82323699Y-96450500D01*
X82330263Y-96483496D01*
X82330263Y-96483498D01*
X82390603Y-96629174D01*
X82390609Y-96629185D01*
X82443312Y-96708059D01*
X82478211Y-96760289D01*
X82589711Y-96871789D01*
X82667876Y-96924017D01*
X82720814Y-96959390D01*
X82720825Y-96959396D01*
X82753630Y-96972984D01*
X82866503Y-97019737D01*
X83021158Y-97050500D01*
X83021159Y-97050500D01*
X83178841Y-97050500D01*
X83178842Y-97050500D01*
X83333497Y-97019737D01*
X83479179Y-96959394D01*
X83610289Y-96871789D01*
X83721789Y-96760289D01*
X83809394Y-96629179D01*
X83869737Y-96483497D01*
X83900500Y-96328842D01*
X83900500Y-95327525D01*
X86749500Y-95327525D01*
X86749500Y-95472475D01*
X86779087Y-95582896D01*
X86787017Y-95612489D01*
X86859487Y-95738010D01*
X86859489Y-95738012D01*
X86859491Y-95738015D01*
X86961985Y-95840509D01*
X86961987Y-95840510D01*
X86961989Y-95840512D01*
X87087511Y-95912982D01*
X87087512Y-95912982D01*
X87087515Y-95912984D01*
X87227525Y-95950500D01*
X87227526Y-95950500D01*
X87372474Y-95950500D01*
X87372475Y-95950500D01*
X87512485Y-95912984D01*
X87512487Y-95912982D01*
X87512489Y-95912982D01*
X87638010Y-95840512D01*
X87638010Y-95840511D01*
X87638015Y-95840509D01*
X87740509Y-95738015D01*
X87740512Y-95738010D01*
X87812982Y-95612489D01*
X87812982Y-95612487D01*
X87812984Y-95612485D01*
X87850500Y-95472475D01*
X87850500Y-95327525D01*
X88049500Y-95327525D01*
X88049500Y-95472475D01*
X88079087Y-95582896D01*
X88087017Y-95612489D01*
X88159487Y-95738010D01*
X88159489Y-95738012D01*
X88159491Y-95738015D01*
X88261985Y-95840509D01*
X88261987Y-95840510D01*
X88261989Y-95840512D01*
X88387511Y-95912982D01*
X88387512Y-95912982D01*
X88387515Y-95912984D01*
X88527525Y-95950500D01*
X88527526Y-95950500D01*
X88672474Y-95950500D01*
X88672475Y-95950500D01*
X88812485Y-95912984D01*
X88812487Y-95912982D01*
X88812489Y-95912982D01*
X88938010Y-95840512D01*
X88938010Y-95840511D01*
X88938015Y-95840509D01*
X89040509Y-95738015D01*
X89064264Y-95696869D01*
X89109733Y-95655930D01*
X89170583Y-95649534D01*
X89223571Y-95680127D01*
X89235734Y-95696867D01*
X89259491Y-95738015D01*
X89361985Y-95840509D01*
X89361987Y-95840510D01*
X89361989Y-95840512D01*
X89487511Y-95912982D01*
X89487512Y-95912982D01*
X89487515Y-95912984D01*
X89627525Y-95950500D01*
X89627526Y-95950500D01*
X89772474Y-95950500D01*
X89772475Y-95950500D01*
X89858218Y-95927525D01*
X93449500Y-95927525D01*
X93449500Y-96072475D01*
X93479087Y-96182896D01*
X93487017Y-96212489D01*
X93559487Y-96338010D01*
X93559489Y-96338012D01*
X93559491Y-96338015D01*
X93661985Y-96440509D01*
X93661987Y-96440510D01*
X93661989Y-96440512D01*
X93787511Y-96512982D01*
X93787512Y-96512982D01*
X93787515Y-96512984D01*
X93927525Y-96550500D01*
X93927526Y-96550500D01*
X94072474Y-96550500D01*
X94072475Y-96550500D01*
X94212485Y-96512984D01*
X94212487Y-96512982D01*
X94212489Y-96512982D01*
X94338010Y-96440512D01*
X94338010Y-96440511D01*
X94338015Y-96440509D01*
X94440509Y-96338015D01*
X94459539Y-96305055D01*
X94512982Y-96212489D01*
X94512983Y-96212486D01*
X94512984Y-96212485D01*
X94550500Y-96072475D01*
X94550500Y-95927525D01*
X94512984Y-95787515D01*
X94512982Y-95787512D01*
X94512982Y-95787510D01*
X94440512Y-95661989D01*
X94440510Y-95661987D01*
X94440509Y-95661985D01*
X94338015Y-95559491D01*
X94338012Y-95559489D01*
X94338010Y-95559487D01*
X94212488Y-95487017D01*
X94212489Y-95487017D01*
X94158214Y-95472474D01*
X94072475Y-95449500D01*
X93927525Y-95449500D01*
X93865790Y-95466041D01*
X93787510Y-95487017D01*
X93661989Y-95559487D01*
X93559487Y-95661989D01*
X93487017Y-95787510D01*
X93455899Y-95903644D01*
X93449500Y-95927525D01*
X89858218Y-95927525D01*
X89912485Y-95912984D01*
X89912487Y-95912982D01*
X89912489Y-95912982D01*
X90038008Y-95840513D01*
X90038007Y-95840513D01*
X90038015Y-95840509D01*
X90140509Y-95738015D01*
X90140512Y-95738010D01*
X90212982Y-95612489D01*
X90212982Y-95612487D01*
X90212984Y-95612485D01*
X90250500Y-95472475D01*
X90250500Y-95327525D01*
X90212984Y-95187515D01*
X90212982Y-95187511D01*
X90212982Y-95187510D01*
X90140512Y-95061989D01*
X90140510Y-95061987D01*
X90140509Y-95061985D01*
X90038015Y-94959491D01*
X90038012Y-94959489D01*
X90038010Y-94959487D01*
X89912488Y-94887017D01*
X89912489Y-94887017D01*
X89854803Y-94871560D01*
X89772475Y-94849500D01*
X89627525Y-94849500D01*
X89580931Y-94861985D01*
X89487510Y-94887017D01*
X89361989Y-94959487D01*
X89259489Y-95061987D01*
X89235736Y-95103129D01*
X89190266Y-95144069D01*
X89129416Y-95150464D01*
X89076428Y-95119871D01*
X89064264Y-95103129D01*
X89040510Y-95061987D01*
X89040509Y-95061985D01*
X88938015Y-94959491D01*
X88938012Y-94959489D01*
X88938010Y-94959487D01*
X88812488Y-94887017D01*
X88812489Y-94887017D01*
X88754803Y-94871560D01*
X88672475Y-94849500D01*
X88527525Y-94849500D01*
X88480931Y-94861985D01*
X88387510Y-94887017D01*
X88261989Y-94959487D01*
X88159487Y-95061989D01*
X88087017Y-95187510D01*
X88064251Y-95272474D01*
X88049500Y-95327525D01*
X87850500Y-95327525D01*
X87812984Y-95187515D01*
X87812982Y-95187511D01*
X87812982Y-95187510D01*
X87740512Y-95061989D01*
X87740510Y-95061987D01*
X87740509Y-95061985D01*
X87638015Y-94959491D01*
X87638012Y-94959489D01*
X87638010Y-94959487D01*
X87512488Y-94887017D01*
X87512489Y-94887017D01*
X87454803Y-94871560D01*
X87372475Y-94849500D01*
X87227525Y-94849500D01*
X87180931Y-94861985D01*
X87087510Y-94887017D01*
X86961989Y-94959487D01*
X86859487Y-95061989D01*
X86787017Y-95187510D01*
X86764251Y-95272474D01*
X86749500Y-95327525D01*
X83900500Y-95327525D01*
X83900500Y-95071158D01*
X83869737Y-94916503D01*
X83841984Y-94849500D01*
X83809396Y-94770825D01*
X83809390Y-94770814D01*
X83774017Y-94717876D01*
X83721789Y-94639711D01*
X83610289Y-94528211D01*
X83548638Y-94487017D01*
X83479185Y-94440609D01*
X83479174Y-94440603D01*
X83333497Y-94380263D01*
X83178844Y-94349500D01*
X83178842Y-94349500D01*
X83021158Y-94349500D01*
X83021155Y-94349500D01*
X82866503Y-94380263D01*
X82866501Y-94380263D01*
X82720825Y-94440603D01*
X82720814Y-94440609D01*
X82589711Y-94528211D01*
X82589707Y-94528214D01*
X82478214Y-94639707D01*
X82478211Y-94639711D01*
X82390609Y-94770814D01*
X82390603Y-94770825D01*
X82330263Y-94916501D01*
X82330263Y-94916503D01*
X82299500Y-95071155D01*
X75260499Y-95071155D01*
X75229737Y-94916503D01*
X75201984Y-94849500D01*
X75169396Y-94770825D01*
X75169390Y-94770814D01*
X75134017Y-94717876D01*
X75081789Y-94639711D01*
X74970289Y-94528211D01*
X74908638Y-94487017D01*
X74839185Y-94440609D01*
X74839174Y-94440603D01*
X74693497Y-94380263D01*
X74538844Y-94349500D01*
X74538842Y-94349500D01*
X74444808Y-94349500D01*
X74422760Y-94342336D01*
X74399863Y-94338710D01*
X74394214Y-94333061D01*
X74386617Y-94330593D01*
X74372989Y-94311836D01*
X74356598Y-94295445D01*
X74355348Y-94287555D01*
X74350653Y-94281093D01*
X74350653Y-94257907D01*
X74347027Y-94235013D01*
X74350653Y-94227896D01*
X74350653Y-94227525D01*
X84049500Y-94227525D01*
X84049500Y-94372475D01*
X84076295Y-94472474D01*
X84087017Y-94512489D01*
X84159487Y-94638010D01*
X84159489Y-94638012D01*
X84159491Y-94638015D01*
X84261985Y-94740509D01*
X84261987Y-94740510D01*
X84261989Y-94740512D01*
X84387511Y-94812982D01*
X84387512Y-94812982D01*
X84387515Y-94812984D01*
X84527525Y-94850500D01*
X84527526Y-94850500D01*
X84672474Y-94850500D01*
X84672475Y-94850500D01*
X84812485Y-94812984D01*
X84812487Y-94812982D01*
X84812489Y-94812982D01*
X84938010Y-94740512D01*
X84938010Y-94740511D01*
X84938015Y-94740509D01*
X85040509Y-94638015D01*
X85041547Y-94636218D01*
X85112982Y-94512489D01*
X85112982Y-94512487D01*
X85112984Y-94512485D01*
X85150500Y-94372475D01*
X85150500Y-94227525D01*
X85112984Y-94087515D01*
X85112982Y-94087512D01*
X85112982Y-94087510D01*
X85040512Y-93961989D01*
X85040510Y-93961987D01*
X85040509Y-93961985D01*
X84938015Y-93859491D01*
X84938012Y-93859489D01*
X84938010Y-93859487D01*
X84903305Y-93839450D01*
X91704500Y-93839450D01*
X91704500Y-94020549D01*
X91732828Y-94199406D01*
X91788788Y-94371637D01*
X91868566Y-94528211D01*
X91871004Y-94532994D01*
X91977447Y-94679501D01*
X92105499Y-94807553D01*
X92252006Y-94913996D01*
X92413361Y-94996211D01*
X92585591Y-95052171D01*
X92647567Y-95061987D01*
X92764451Y-95080500D01*
X92764454Y-95080500D01*
X92945549Y-95080500D01*
X93034977Y-95066335D01*
X93124409Y-95052171D01*
X93296639Y-94996211D01*
X93457994Y-94913996D01*
X93604501Y-94807553D01*
X93732553Y-94679501D01*
X93838996Y-94532994D01*
X93921211Y-94371639D01*
X93977171Y-94199409D01*
X93991335Y-94109977D01*
X94005500Y-94020549D01*
X94005500Y-93839450D01*
X93981435Y-93687515D01*
X93977171Y-93660591D01*
X93921211Y-93488361D01*
X93838996Y-93327006D01*
X93732553Y-93180499D01*
X93604501Y-93052447D01*
X93580666Y-93035130D01*
X94244500Y-93035130D01*
X94244500Y-94824860D01*
X94244501Y-94824863D01*
X94247414Y-94849990D01*
X94271708Y-94905010D01*
X94292794Y-94952765D01*
X94372235Y-95032206D01*
X94475009Y-95077585D01*
X94500135Y-95080500D01*
X96289864Y-95080499D01*
X96314991Y-95077585D01*
X96417765Y-95032206D01*
X96497206Y-94952765D01*
X96542585Y-94849991D01*
X96545500Y-94824865D01*
X96545499Y-93035136D01*
X96542585Y-93010009D01*
X96497206Y-92907235D01*
X96417765Y-92827794D01*
X96314991Y-92782415D01*
X96314990Y-92782414D01*
X96314988Y-92782414D01*
X96289868Y-92779500D01*
X94500139Y-92779500D01*
X94500136Y-92779501D01*
X94475009Y-92782414D01*
X94372235Y-92827794D01*
X94292794Y-92907235D01*
X94247414Y-93010011D01*
X94244500Y-93035130D01*
X93580666Y-93035130D01*
X93457994Y-92946004D01*
X93457993Y-92946003D01*
X93457991Y-92946002D01*
X93296637Y-92863788D01*
X93124406Y-92807828D01*
X92945549Y-92779500D01*
X92945546Y-92779500D01*
X92764454Y-92779500D01*
X92764451Y-92779500D01*
X92585593Y-92807828D01*
X92413362Y-92863788D01*
X92252008Y-92946002D01*
X92178752Y-92999225D01*
X92105499Y-93052447D01*
X91977447Y-93180499D01*
X91946145Y-93223583D01*
X91871002Y-93327008D01*
X91788788Y-93488362D01*
X91732828Y-93660593D01*
X91704500Y-93839450D01*
X84903305Y-93839450D01*
X84812488Y-93787017D01*
X84812489Y-93787017D01*
X84758214Y-93772474D01*
X84672475Y-93749500D01*
X84527525Y-93749500D01*
X84465790Y-93766041D01*
X84387510Y-93787017D01*
X84261989Y-93859487D01*
X84159487Y-93961989D01*
X84087017Y-94087510D01*
X84057034Y-94199409D01*
X84049500Y-94227525D01*
X74350653Y-94227525D01*
X74350653Y-94219907D01*
X74374802Y-94180497D01*
X74492395Y-94062906D01*
X74515576Y-94039724D01*
X74525291Y-94031206D01*
X74580270Y-93989020D01*
X74602649Y-93976100D01*
X74636717Y-93961989D01*
X74660620Y-93952088D01*
X74685573Y-93945402D01*
X74754376Y-93936345D01*
X74767288Y-93935500D01*
X74836820Y-93935502D01*
X74836824Y-93935500D01*
X74842217Y-93935501D01*
X74842254Y-93935500D01*
X75937543Y-93935500D01*
X75982485Y-93946289D01*
X76087455Y-93999768D01*
X76087461Y-93999771D01*
X76221822Y-94043418D01*
X76361357Y-94065507D01*
X76431990Y-94065500D01*
X76431994Y-94065500D01*
X81045572Y-94065500D01*
X81064885Y-94067401D01*
X81181007Y-94090500D01*
X81181008Y-94090500D01*
X81318992Y-94090500D01*
X81318993Y-94090500D01*
X81454328Y-94063580D01*
X81581811Y-94010775D01*
X81696542Y-93934114D01*
X81794114Y-93836542D01*
X81870775Y-93721811D01*
X81923580Y-93594328D01*
X81950500Y-93458993D01*
X81950500Y-93321007D01*
X81923580Y-93185672D01*
X81870775Y-93058189D01*
X81870774Y-93058187D01*
X81870771Y-93058182D01*
X81794114Y-92943458D01*
X81696541Y-92845885D01*
X81581817Y-92769228D01*
X81581806Y-92769222D01*
X81454328Y-92716420D01*
X81318995Y-92689500D01*
X81318993Y-92689500D01*
X81181007Y-92689500D01*
X81181004Y-92689500D01*
X81064886Y-92712598D01*
X81045572Y-92714500D01*
X78312397Y-92714500D01*
X78254206Y-92695593D01*
X78218242Y-92646093D01*
X78218242Y-92584907D01*
X78254206Y-92535407D01*
X78286773Y-92519874D01*
X78302333Y-92515704D01*
X78312485Y-92512984D01*
X78438015Y-92440509D01*
X78540509Y-92338015D01*
X78554962Y-92312982D01*
X78612982Y-92212489D01*
X78612982Y-92212487D01*
X78612984Y-92212485D01*
X78650500Y-92072475D01*
X78650500Y-91927525D01*
X78612984Y-91787515D01*
X78612982Y-91787512D01*
X78612982Y-91787510D01*
X78540512Y-91661989D01*
X78540510Y-91661987D01*
X78540509Y-91661985D01*
X78438015Y-91559491D01*
X78438012Y-91559489D01*
X78438010Y-91559487D01*
X78312488Y-91487017D01*
X78312489Y-91487017D01*
X78281886Y-91478817D01*
X78172475Y-91449500D01*
X78027525Y-91449500D01*
X77980931Y-91461985D01*
X77887510Y-91487017D01*
X77761989Y-91559487D01*
X77659487Y-91661989D01*
X77587017Y-91787510D01*
X77566927Y-91862487D01*
X77549500Y-91927525D01*
X77549500Y-92072475D01*
X77558892Y-92107525D01*
X77587017Y-92212489D01*
X77659487Y-92338010D01*
X77659489Y-92338012D01*
X77659491Y-92338015D01*
X77761985Y-92440509D01*
X77761987Y-92440510D01*
X77761989Y-92440512D01*
X77887511Y-92512982D01*
X77887515Y-92512984D01*
X77913227Y-92519874D01*
X77964541Y-92553198D01*
X77986467Y-92610319D01*
X77970631Y-92669420D01*
X77923081Y-92707925D01*
X77887603Y-92714500D01*
X76684499Y-92714500D01*
X76629497Y-92697815D01*
X76541818Y-92639228D01*
X76541806Y-92639222D01*
X76414328Y-92586420D01*
X76278995Y-92559500D01*
X76278993Y-92559500D01*
X76141007Y-92559500D01*
X76141004Y-92559500D01*
X76024886Y-92582598D01*
X76005572Y-92584500D01*
X74689595Y-92584500D01*
X74689387Y-92584509D01*
X74649891Y-92584509D01*
X74494189Y-92605004D01*
X74434028Y-92593853D01*
X74391912Y-92549469D01*
X74383927Y-92488807D01*
X74395531Y-92457355D01*
X74432984Y-92392485D01*
X74470500Y-92252475D01*
X74470500Y-92107525D01*
X74432984Y-91967515D01*
X74432982Y-91967512D01*
X74432982Y-91967510D01*
X74360512Y-91841989D01*
X74360510Y-91841987D01*
X74360509Y-91841985D01*
X74258015Y-91739491D01*
X74258012Y-91739489D01*
X74258010Y-91739487D01*
X74132488Y-91667017D01*
X74132489Y-91667017D01*
X74078214Y-91652474D01*
X73992475Y-91629500D01*
X73847525Y-91629500D01*
X73785790Y-91646041D01*
X73707510Y-91667017D01*
X73581989Y-91739487D01*
X73479487Y-91841989D01*
X73407017Y-91967510D01*
X73392815Y-92020512D01*
X73369500Y-92107525D01*
X73369500Y-92252475D01*
X73385713Y-92312982D01*
X73407017Y-92392489D01*
X73479487Y-92518010D01*
X73479489Y-92518012D01*
X73479491Y-92518015D01*
X73581985Y-92620509D01*
X73581987Y-92620510D01*
X73581989Y-92620512D01*
X73707511Y-92692982D01*
X73707512Y-92692982D01*
X73707515Y-92692984D01*
X73763931Y-92708100D01*
X73815245Y-92741424D01*
X73837171Y-92798546D01*
X73821335Y-92857646D01*
X73798574Y-92882269D01*
X73643234Y-93001465D01*
X73643227Y-93001471D01*
X73606405Y-93038292D01*
X73551888Y-93066069D01*
X73491456Y-93056495D01*
X73466399Y-93038291D01*
X72329281Y-91901173D01*
X72329280Y-91901171D01*
X72329278Y-91901169D01*
X72319591Y-91891481D01*
X72319587Y-91891474D01*
X72200715Y-91772600D01*
X72001937Y-91614082D01*
X71786663Y-91478817D01*
X71581946Y-91380232D01*
X71557603Y-91368509D01*
X71557600Y-91368508D01*
X71354743Y-91297525D01*
X87249500Y-91297525D01*
X87249500Y-91442475D01*
X87261435Y-91487016D01*
X87287017Y-91582489D01*
X87359487Y-91708010D01*
X87359489Y-91708012D01*
X87359491Y-91708015D01*
X87461985Y-91810509D01*
X87461987Y-91810510D01*
X87461989Y-91810512D01*
X87587511Y-91882982D01*
X87587512Y-91882982D01*
X87587515Y-91882984D01*
X87727525Y-91920500D01*
X87727526Y-91920500D01*
X87872474Y-91920500D01*
X87872475Y-91920500D01*
X88012485Y-91882984D01*
X88012487Y-91882982D01*
X88012489Y-91882982D01*
X88138010Y-91810512D01*
X88138010Y-91810511D01*
X88138015Y-91810509D01*
X88220999Y-91727525D01*
X97149500Y-91727525D01*
X97149500Y-91872475D01*
X97164251Y-91927525D01*
X97187017Y-92012489D01*
X97259487Y-92138010D01*
X97259489Y-92138012D01*
X97259491Y-92138015D01*
X97361985Y-92240509D01*
X97361987Y-92240510D01*
X97361989Y-92240512D01*
X97487511Y-92312982D01*
X97487512Y-92312982D01*
X97487515Y-92312984D01*
X97627525Y-92350500D01*
X97627526Y-92350500D01*
X97772474Y-92350500D01*
X97772475Y-92350500D01*
X97912485Y-92312984D01*
X97912487Y-92312982D01*
X97912489Y-92312982D01*
X98038010Y-92240512D01*
X98038010Y-92240511D01*
X98038015Y-92240509D01*
X98140509Y-92138015D01*
X98144848Y-92130500D01*
X98212982Y-92012489D01*
X98212982Y-92012487D01*
X98212984Y-92012485D01*
X98250500Y-91872475D01*
X98250500Y-91727525D01*
X98212984Y-91587515D01*
X98212982Y-91587512D01*
X98212982Y-91587510D01*
X98140512Y-91461989D01*
X98140510Y-91461987D01*
X98140509Y-91461985D01*
X98038015Y-91359491D01*
X98038012Y-91359489D01*
X98038010Y-91359487D01*
X97912488Y-91287017D01*
X97912489Y-91287017D01*
X97843297Y-91268477D01*
X97772475Y-91249500D01*
X97627525Y-91249500D01*
X97565790Y-91266041D01*
X97487510Y-91287017D01*
X97361989Y-91359487D01*
X97259487Y-91461989D01*
X97187017Y-91587510D01*
X97165713Y-91667017D01*
X97149500Y-91727525D01*
X88220999Y-91727525D01*
X88240509Y-91708015D01*
X88240512Y-91708010D01*
X88261571Y-91671536D01*
X88312982Y-91582489D01*
X88312982Y-91582487D01*
X88312984Y-91582485D01*
X88350500Y-91442475D01*
X88350500Y-91297525D01*
X88312984Y-91157515D01*
X88312982Y-91157512D01*
X88312982Y-91157510D01*
X88240512Y-91031989D01*
X88240510Y-91031987D01*
X88240509Y-91031985D01*
X88138015Y-90929491D01*
X88138012Y-90929489D01*
X88138010Y-90929487D01*
X88012488Y-90857017D01*
X88012489Y-90857017D01*
X87982896Y-90849087D01*
X87872475Y-90819500D01*
X87727525Y-90819500D01*
X87665790Y-90836041D01*
X87587510Y-90857017D01*
X87461989Y-90929487D01*
X87359487Y-91031989D01*
X87287017Y-91157510D01*
X87261643Y-91252206D01*
X87249500Y-91297525D01*
X71354743Y-91297525D01*
X71317631Y-91284539D01*
X71069761Y-91227964D01*
X70817121Y-91199500D01*
X70817120Y-91199500D01*
X70740094Y-91199500D01*
X70349032Y-91199500D01*
X70290841Y-91180593D01*
X70279029Y-91170505D01*
X70266034Y-91157510D01*
X70248015Y-91139491D01*
X70248012Y-91139489D01*
X70248011Y-91139488D01*
X70248010Y-91139487D01*
X70122488Y-91067017D01*
X70122484Y-91067015D01*
X70121721Y-91066811D01*
X70121246Y-91066502D01*
X70116493Y-91064534D01*
X70116857Y-91063652D01*
X70070407Y-91033487D01*
X70048481Y-90976366D01*
X70064317Y-90917265D01*
X70077337Y-90901186D01*
X70140509Y-90838015D01*
X70168064Y-90790288D01*
X70212982Y-90712489D01*
X70212982Y-90712487D01*
X70212984Y-90712485D01*
X70250500Y-90572475D01*
X70250500Y-90427525D01*
X70212984Y-90287515D01*
X70212982Y-90287512D01*
X70212982Y-90287510D01*
X70140512Y-90161989D01*
X70140510Y-90161987D01*
X70140509Y-90161985D01*
X70038015Y-90059491D01*
X70038012Y-90059489D01*
X70038010Y-90059487D01*
X69912488Y-89987017D01*
X69912489Y-89987017D01*
X69858214Y-89972474D01*
X69772475Y-89949500D01*
X69627525Y-89949500D01*
X69565790Y-89966041D01*
X69487510Y-89987017D01*
X69361989Y-90059487D01*
X69259487Y-90161989D01*
X69187017Y-90287510D01*
X69149500Y-90427525D01*
X69149500Y-90572474D01*
X69187017Y-90712489D01*
X69259487Y-90838010D01*
X69259489Y-90838012D01*
X69259491Y-90838015D01*
X69361985Y-90940509D01*
X69361987Y-90940510D01*
X69361989Y-90940512D01*
X69451111Y-90991966D01*
X69487515Y-91012984D01*
X69488270Y-91013186D01*
X69488740Y-91013491D01*
X69493507Y-91015466D01*
X69493141Y-91016349D01*
X69539586Y-91046504D01*
X69561518Y-91103624D01*
X69545687Y-91162726D01*
X69532658Y-91178817D01*
X69469491Y-91241984D01*
X69469487Y-91241989D01*
X69397017Y-91367510D01*
X69371701Y-91461989D01*
X69359500Y-91507525D01*
X69359500Y-91652475D01*
X69374381Y-91708010D01*
X69397017Y-91792489D01*
X69469487Y-91918010D01*
X69469489Y-91918012D01*
X69469491Y-91918015D01*
X69571985Y-92020509D01*
X69571987Y-92020510D01*
X69571989Y-92020512D01*
X69697511Y-92092982D01*
X69697512Y-92092982D01*
X69697515Y-92092984D01*
X69837525Y-92130500D01*
X69837526Y-92130500D01*
X69982474Y-92130500D01*
X69982475Y-92130500D01*
X70122485Y-92092984D01*
X70122487Y-92092982D01*
X70122489Y-92092982D01*
X70248010Y-92020512D01*
X70248010Y-92020511D01*
X70248015Y-92020509D01*
X70279029Y-91989495D01*
X70333546Y-91961719D01*
X70349032Y-91960500D01*
X70635292Y-91960500D01*
X70686759Y-91960500D01*
X70693234Y-91960712D01*
X70879657Y-91972930D01*
X70892484Y-91974619D01*
X71072544Y-92010435D01*
X71085037Y-92013782D01*
X71258879Y-92072793D01*
X71270827Y-92077742D01*
X71414914Y-92148798D01*
X71435473Y-92158937D01*
X71446686Y-92165411D01*
X71599326Y-92267399D01*
X71609596Y-92275279D01*
X71743249Y-92392489D01*
X71750005Y-92398414D01*
X71754718Y-92402827D01*
X71791174Y-92439283D01*
X71791176Y-92439284D01*
X72460526Y-93108634D01*
X72488303Y-93163151D01*
X72478732Y-93223583D01*
X72435467Y-93266848D01*
X72375035Y-93276419D01*
X72364899Y-93274265D01*
X72309750Y-93259488D01*
X72272475Y-93249500D01*
X72127525Y-93249500D01*
X72090250Y-93259488D01*
X71987510Y-93287017D01*
X71861989Y-93359487D01*
X71759487Y-93461989D01*
X71687017Y-93587510D01*
X71664770Y-93670536D01*
X71649500Y-93727525D01*
X71649500Y-93872475D01*
X71676295Y-93972474D01*
X71687017Y-94012489D01*
X71759487Y-94138010D01*
X71759489Y-94138012D01*
X71759491Y-94138015D01*
X71861985Y-94240509D01*
X71861987Y-94240510D01*
X71861989Y-94240512D01*
X71987511Y-94312982D01*
X71987512Y-94312982D01*
X71987515Y-94312984D01*
X72127525Y-94350500D01*
X72127526Y-94350500D01*
X72272476Y-94350500D01*
X72272476Y-94350499D01*
X72364931Y-94325726D01*
X72426031Y-94328927D01*
X72473582Y-94367432D01*
X72489418Y-94426532D01*
X72486181Y-94446973D01*
X72435476Y-94636218D01*
X72435475Y-94636222D01*
X72404498Y-94871554D01*
X72404498Y-94871560D01*
X72404500Y-94972475D01*
X72404500Y-97360500D01*
X72385593Y-97418691D01*
X72336093Y-97454655D01*
X72305500Y-97459500D01*
X70595139Y-97459500D01*
X70595136Y-97459501D01*
X70570009Y-97462414D01*
X70467235Y-97507794D01*
X70387794Y-97587235D01*
X70342414Y-97690011D01*
X70339500Y-97715130D01*
X70339500Y-99504860D01*
X70339501Y-99504863D01*
X70342414Y-99529990D01*
X70354624Y-99557642D01*
X70387794Y-99632765D01*
X70467235Y-99712206D01*
X70570009Y-99757585D01*
X70595135Y-99760500D01*
X72165191Y-99760499D01*
X72223382Y-99779406D01*
X72259346Y-99828906D01*
X72259346Y-99890092D01*
X72235195Y-99929502D01*
X72094195Y-100070503D01*
X72087078Y-100074129D01*
X72082382Y-100080593D01*
X72060331Y-100087757D01*
X72039678Y-100098281D01*
X72024191Y-100099500D01*
X71986241Y-100099500D01*
X71941297Y-100088710D01*
X71931639Y-100083789D01*
X71931638Y-100083788D01*
X71931635Y-100083787D01*
X71759406Y-100027828D01*
X71580549Y-99999500D01*
X71580546Y-99999500D01*
X71399454Y-99999500D01*
X71399451Y-99999500D01*
X71220593Y-100027828D01*
X71048362Y-100083788D01*
X70887008Y-100166002D01*
X70857405Y-100187510D01*
X70740499Y-100272447D01*
X70612447Y-100400499D01*
X70603003Y-100413498D01*
X70506002Y-100547008D01*
X70423788Y-100708362D01*
X70367828Y-100880593D01*
X70347079Y-101011594D01*
X70345699Y-101014301D01*
X70345997Y-101017326D01*
X70331929Y-101041325D01*
X70319301Y-101066111D01*
X70316593Y-101067490D01*
X70315057Y-101070112D01*
X70289568Y-101081260D01*
X70264785Y-101093888D01*
X70258999Y-101094631D01*
X70214395Y-101099023D01*
X70204693Y-101099499D01*
X70130898Y-101099498D01*
X70125552Y-101099498D01*
X70125551Y-101099498D01*
X70120154Y-101099498D01*
X70120118Y-101099500D01*
X69058903Y-101099500D01*
X69000712Y-101080593D01*
X68964748Y-101031093D01*
X68964748Y-100969907D01*
X69000712Y-100920407D01*
X69009403Y-100914764D01*
X69138010Y-100840512D01*
X69138010Y-100840511D01*
X69138015Y-100840509D01*
X69240509Y-100738015D01*
X69240512Y-100738010D01*
X69312982Y-100612489D01*
X69312982Y-100612487D01*
X69312984Y-100612485D01*
X69350500Y-100472475D01*
X69350500Y-100327525D01*
X69312984Y-100187515D01*
X69312982Y-100187512D01*
X69312982Y-100187510D01*
X69240512Y-100061989D01*
X69240510Y-100061987D01*
X69240509Y-100061985D01*
X69138015Y-99959491D01*
X69138012Y-99959489D01*
X69138010Y-99959487D01*
X69012488Y-99887017D01*
X69012489Y-99887017D01*
X68958214Y-99872474D01*
X68872475Y-99849500D01*
X68727525Y-99849500D01*
X68665790Y-99866041D01*
X68587510Y-99887017D01*
X68461989Y-99959487D01*
X68359487Y-100061989D01*
X68287017Y-100187510D01*
X68249500Y-100327525D01*
X68249500Y-100472474D01*
X68287017Y-100612489D01*
X68359487Y-100738010D01*
X68359489Y-100738012D01*
X68359491Y-100738015D01*
X68461985Y-100840509D01*
X68461987Y-100840510D01*
X68461989Y-100840512D01*
X68590597Y-100914764D01*
X68631538Y-100960233D01*
X68637934Y-101021083D01*
X68607341Y-101074071D01*
X68551445Y-101098958D01*
X68541097Y-101099500D01*
X58321155Y-101099500D01*
X58166505Y-101130261D01*
X58166499Y-101130263D01*
X58138252Y-101141964D01*
X58100366Y-101149500D01*
X56345506Y-101149500D01*
X56287315Y-101130593D01*
X56251351Y-101081093D01*
X56251351Y-101019907D01*
X56287315Y-100970407D01*
X56296005Y-100964764D01*
X56320710Y-100950500D01*
X56338015Y-100940509D01*
X56440509Y-100838015D01*
X56440512Y-100838010D01*
X56512982Y-100712489D01*
X56512982Y-100712487D01*
X56512984Y-100712485D01*
X56550500Y-100572475D01*
X56550500Y-100427525D01*
X56512984Y-100287515D01*
X56512982Y-100287512D01*
X56512982Y-100287510D01*
X56440512Y-100161989D01*
X56440510Y-100161987D01*
X56440509Y-100161985D01*
X56338015Y-100059491D01*
X56338012Y-100059489D01*
X56338010Y-100059487D01*
X56212488Y-99987017D01*
X56212489Y-99987017D01*
X56109761Y-99959491D01*
X56072475Y-99949500D01*
X55927525Y-99949500D01*
X55890239Y-99959491D01*
X55787510Y-99987017D01*
X55661989Y-100059487D01*
X55559487Y-100161989D01*
X55487017Y-100287510D01*
X55449500Y-100427525D01*
X55449500Y-100572474D01*
X55487017Y-100712489D01*
X55559487Y-100838010D01*
X55559489Y-100838012D01*
X55559491Y-100838015D01*
X55661985Y-100940509D01*
X55661987Y-100940510D01*
X55703995Y-100964764D01*
X55744935Y-101010234D01*
X55751330Y-101071084D01*
X55720737Y-101124072D01*
X55664842Y-101148958D01*
X55654494Y-101149500D01*
X53904395Y-101149500D01*
X53846204Y-101130593D01*
X53810240Y-101081093D01*
X53810240Y-101019907D01*
X53812928Y-101012623D01*
X53812980Y-101012496D01*
X53812982Y-101012488D01*
X53812984Y-101012485D01*
X53850500Y-100872475D01*
X53850500Y-100727525D01*
X53812984Y-100587515D01*
X53812982Y-100587512D01*
X53812982Y-100587510D01*
X53740512Y-100461989D01*
X53740510Y-100461987D01*
X53740509Y-100461985D01*
X53638015Y-100359491D01*
X53638012Y-100359489D01*
X53638010Y-100359487D01*
X53512488Y-100287017D01*
X53512489Y-100287017D01*
X53458113Y-100272447D01*
X53372475Y-100249500D01*
X53227525Y-100249500D01*
X53180931Y-100261985D01*
X53087510Y-100287017D01*
X52961989Y-100359487D01*
X52859487Y-100461989D01*
X52787017Y-100587510D01*
X52787016Y-100587515D01*
X52749500Y-100727525D01*
X52749500Y-100872475D01*
X52778445Y-100980499D01*
X52787019Y-101012496D01*
X52787072Y-101012623D01*
X52787079Y-101012721D01*
X52788696Y-101018753D01*
X52787577Y-101019052D01*
X52791868Y-101073620D01*
X52759894Y-101125786D01*
X52703364Y-101149196D01*
X52695605Y-101149500D01*
X51168031Y-101149500D01*
X51109840Y-101130593D01*
X51073876Y-101081093D01*
X51073876Y-101019907D01*
X51098025Y-100980498D01*
X51140509Y-100938015D01*
X51154961Y-100912984D01*
X51212982Y-100812489D01*
X51212982Y-100812487D01*
X51212984Y-100812485D01*
X51250500Y-100672475D01*
X51250500Y-100527525D01*
X51212984Y-100387515D01*
X51212982Y-100387512D01*
X51212982Y-100387510D01*
X51140511Y-100261988D01*
X51139193Y-100260270D01*
X51138674Y-100258806D01*
X51137265Y-100256365D01*
X51137717Y-100256103D01*
X51118767Y-100202594D01*
X51136143Y-100143928D01*
X51139193Y-100139730D01*
X51140504Y-100138019D01*
X51140509Y-100138015D01*
X51212984Y-100012485D01*
X51250500Y-99872475D01*
X51250500Y-99727525D01*
X51212984Y-99587515D01*
X51212982Y-99587512D01*
X51212982Y-99587510D01*
X51140512Y-99461989D01*
X51140510Y-99461987D01*
X51140509Y-99461985D01*
X51038015Y-99359491D01*
X51038012Y-99359489D01*
X51038010Y-99359487D01*
X50912488Y-99287017D01*
X50912489Y-99287017D01*
X50832187Y-99265500D01*
X50772475Y-99249500D01*
X50627525Y-99249500D01*
X50567813Y-99265500D01*
X50487510Y-99287017D01*
X50361989Y-99359487D01*
X50259487Y-99461989D01*
X50187017Y-99587510D01*
X50168008Y-99658452D01*
X50149500Y-99727525D01*
X50149500Y-99872475D01*
X50154221Y-99890092D01*
X50187017Y-100012489D01*
X50259490Y-100138016D01*
X50260812Y-100139738D01*
X50261330Y-100141202D01*
X50262735Y-100143635D01*
X50262283Y-100143895D01*
X50281232Y-100197415D01*
X50263851Y-100256079D01*
X50260812Y-100260262D01*
X50259490Y-100261983D01*
X50187017Y-100387510D01*
X50150659Y-100523200D01*
X50149500Y-100527525D01*
X50149500Y-100672475D01*
X50154274Y-100690292D01*
X50187017Y-100812489D01*
X50259487Y-100938010D01*
X50259489Y-100938012D01*
X50259491Y-100938015D01*
X50361985Y-101040509D01*
X50416325Y-101071882D01*
X50457265Y-101117351D01*
X50463661Y-101178201D01*
X50433068Y-101231189D01*
X50421826Y-101239933D01*
X50289711Y-101328210D01*
X50178214Y-101439707D01*
X50178211Y-101439711D01*
X50090609Y-101570814D01*
X50090603Y-101570825D01*
X50030263Y-101716501D01*
X50030263Y-101716503D01*
X49999500Y-101871155D01*
X49999500Y-102028844D01*
X50030263Y-102183496D01*
X50030263Y-102183498D01*
X50090603Y-102329174D01*
X50090609Y-102329185D01*
X50139170Y-102401860D01*
X50178211Y-102460289D01*
X50289711Y-102571789D01*
X50365342Y-102622324D01*
X50420814Y-102659390D01*
X50420825Y-102659396D01*
X50474638Y-102681685D01*
X50566503Y-102719737D01*
X50721158Y-102750500D01*
X50721159Y-102750500D01*
X58428841Y-102750500D01*
X58428842Y-102750500D01*
X58583497Y-102719737D01*
X58611746Y-102708035D01*
X58649631Y-102700500D01*
X70293294Y-102700500D01*
X70293510Y-102700489D01*
X70326508Y-102700490D01*
X70558755Y-102674327D01*
X70786612Y-102622324D01*
X71007214Y-102545136D01*
X71217786Y-102443732D01*
X71415680Y-102319389D01*
X71415697Y-102319375D01*
X71416570Y-102318757D01*
X71416804Y-102318682D01*
X71418032Y-102317911D01*
X71418230Y-102318227D01*
X71473856Y-102300500D01*
X71488698Y-102300500D01*
X71546889Y-102319407D01*
X71550424Y-102322099D01*
X71650442Y-102401861D01*
X71867813Y-102538445D01*
X72099110Y-102649833D01*
X72099116Y-102649835D01*
X72341416Y-102734622D01*
X72341419Y-102734622D01*
X72341423Y-102734624D01*
X72591706Y-102791752D01*
X72662314Y-102799708D01*
X72683743Y-102802123D01*
X72739451Y-102827427D01*
X72769646Y-102880642D01*
X72762795Y-102941443D01*
X72721515Y-102986605D01*
X72672658Y-102999500D01*
X49099500Y-102999500D01*
X49041309Y-102980593D01*
X49005345Y-102931093D01*
X49000500Y-102900500D01*
X49000500Y-99127525D01*
X56549500Y-99127525D01*
X56549500Y-99272475D01*
X56569336Y-99346503D01*
X56587017Y-99412489D01*
X56659487Y-99538010D01*
X56659489Y-99538012D01*
X56659491Y-99538015D01*
X56761985Y-99640509D01*
X56761987Y-99640510D01*
X56761989Y-99640512D01*
X56887511Y-99712982D01*
X56887512Y-99712982D01*
X56887515Y-99712984D01*
X57027525Y-99750500D01*
X57027526Y-99750500D01*
X57172474Y-99750500D01*
X57172475Y-99750500D01*
X57258218Y-99727525D01*
X66849500Y-99727525D01*
X66849500Y-99872475D01*
X66854221Y-99890092D01*
X66887017Y-100012489D01*
X66959487Y-100138010D01*
X66959489Y-100138012D01*
X66959491Y-100138015D01*
X67061985Y-100240509D01*
X67061987Y-100240510D01*
X67061989Y-100240512D01*
X67187511Y-100312982D01*
X67187512Y-100312982D01*
X67187515Y-100312984D01*
X67327525Y-100350500D01*
X67327526Y-100350500D01*
X67472474Y-100350500D01*
X67472475Y-100350500D01*
X67612485Y-100312984D01*
X67612487Y-100312982D01*
X67612489Y-100312982D01*
X67738010Y-100240512D01*
X67738010Y-100240511D01*
X67738015Y-100240509D01*
X67840509Y-100138015D01*
X67863450Y-100098281D01*
X67912982Y-100012489D01*
X67912982Y-100012487D01*
X67912984Y-100012485D01*
X67950500Y-99872475D01*
X67950500Y-99727525D01*
X67912984Y-99587515D01*
X67912982Y-99587512D01*
X67912982Y-99587510D01*
X67840512Y-99461989D01*
X67840510Y-99461987D01*
X67840509Y-99461985D01*
X67738015Y-99359491D01*
X67738012Y-99359489D01*
X67738010Y-99359487D01*
X67612488Y-99287017D01*
X67612489Y-99287017D01*
X67532187Y-99265500D01*
X67472475Y-99249500D01*
X67327525Y-99249500D01*
X67267813Y-99265500D01*
X67187510Y-99287017D01*
X67061989Y-99359487D01*
X66959487Y-99461989D01*
X66887017Y-99587510D01*
X66868008Y-99658452D01*
X66849500Y-99727525D01*
X57258218Y-99727525D01*
X57312485Y-99712984D01*
X57312487Y-99712982D01*
X57312489Y-99712982D01*
X57438008Y-99640513D01*
X57438007Y-99640513D01*
X57438015Y-99640509D01*
X57540509Y-99538015D01*
X57545142Y-99529990D01*
X57612982Y-99412489D01*
X57612982Y-99412487D01*
X57612984Y-99412485D01*
X57650500Y-99272475D01*
X57650500Y-99127525D01*
X57612984Y-98987515D01*
X57612982Y-98987512D01*
X57612982Y-98987510D01*
X57556272Y-98889286D01*
X57540512Y-98861989D01*
X57540510Y-98861987D01*
X57540509Y-98861985D01*
X57524799Y-98846275D01*
X64630750Y-98846275D01*
X64630750Y-98991225D01*
X64651781Y-99069711D01*
X64668267Y-99131239D01*
X64740737Y-99256760D01*
X64740739Y-99256762D01*
X64740741Y-99256765D01*
X64843235Y-99359259D01*
X64843237Y-99359260D01*
X64843239Y-99359262D01*
X64968761Y-99431732D01*
X64968762Y-99431732D01*
X64968765Y-99431734D01*
X65108775Y-99469250D01*
X65108776Y-99469250D01*
X65253724Y-99469250D01*
X65253725Y-99469250D01*
X65393735Y-99431734D01*
X65393737Y-99431732D01*
X65393739Y-99431732D01*
X65519260Y-99359262D01*
X65519260Y-99359261D01*
X65519265Y-99359259D01*
X65621759Y-99256765D01*
X65621762Y-99256760D01*
X65694232Y-99131239D01*
X65694232Y-99131237D01*
X65694234Y-99131235D01*
X65715217Y-99052924D01*
X65748540Y-99001613D01*
X65805662Y-98979686D01*
X65864762Y-98995522D01*
X65896579Y-99029050D01*
X65959487Y-99138010D01*
X65959489Y-99138012D01*
X65959491Y-99138015D01*
X66061985Y-99240509D01*
X66061987Y-99240510D01*
X66061989Y-99240512D01*
X66187511Y-99312982D01*
X66187512Y-99312982D01*
X66187515Y-99312984D01*
X66327525Y-99350500D01*
X66327526Y-99350500D01*
X66472474Y-99350500D01*
X66472475Y-99350500D01*
X66612485Y-99312984D01*
X66612487Y-99312982D01*
X66612489Y-99312982D01*
X66738010Y-99240512D01*
X66738010Y-99240511D01*
X66738015Y-99240509D01*
X66840509Y-99138015D01*
X66844421Y-99131239D01*
X66912982Y-99012489D01*
X66912982Y-99012487D01*
X66912984Y-99012485D01*
X66950500Y-98872475D01*
X66950500Y-98727525D01*
X66912984Y-98587515D01*
X66912982Y-98587511D01*
X66912982Y-98587510D01*
X66840512Y-98461989D01*
X66840510Y-98461987D01*
X66840509Y-98461985D01*
X66738015Y-98359491D01*
X66738012Y-98359489D01*
X66738010Y-98359487D01*
X66612488Y-98287017D01*
X66612489Y-98287017D01*
X66550847Y-98270500D01*
X66472475Y-98249500D01*
X66327525Y-98249500D01*
X66265790Y-98266041D01*
X66187510Y-98287017D01*
X66061989Y-98359487D01*
X65959487Y-98461989D01*
X65887017Y-98587511D01*
X65887015Y-98587515D01*
X65866032Y-98665823D01*
X65832708Y-98717137D01*
X65775586Y-98739063D01*
X65716486Y-98723227D01*
X65684670Y-98689700D01*
X65621759Y-98580735D01*
X65519265Y-98478241D01*
X65519262Y-98478239D01*
X65519260Y-98478237D01*
X65393738Y-98405767D01*
X65393739Y-98405767D01*
X65335064Y-98390045D01*
X65253725Y-98368250D01*
X65108775Y-98368250D01*
X65047040Y-98384791D01*
X64968760Y-98405767D01*
X64843239Y-98478237D01*
X64740737Y-98580739D01*
X64668267Y-98706260D01*
X64635235Y-98829536D01*
X64630750Y-98846275D01*
X57524799Y-98846275D01*
X57438015Y-98759491D01*
X57438012Y-98759489D01*
X57438010Y-98759487D01*
X57312488Y-98687017D01*
X57312489Y-98687017D01*
X57233650Y-98665892D01*
X57172475Y-98649500D01*
X57027525Y-98649500D01*
X56972814Y-98664160D01*
X56887510Y-98687017D01*
X56761989Y-98759487D01*
X56659487Y-98861989D01*
X56587017Y-98987510D01*
X56569489Y-99052927D01*
X56549500Y-99127525D01*
X49000500Y-99127525D01*
X49000500Y-96417349D01*
X49019407Y-96359158D01*
X49068907Y-96323194D01*
X49130093Y-96323194D01*
X49159772Y-96338810D01*
X49161992Y-96340514D01*
X49287511Y-96412982D01*
X49287512Y-96412982D01*
X49287515Y-96412984D01*
X49427525Y-96450500D01*
X49427526Y-96450500D01*
X49572474Y-96450500D01*
X49572475Y-96450500D01*
X49712485Y-96412984D01*
X49712487Y-96412982D01*
X49712489Y-96412982D01*
X49838010Y-96340512D01*
X49838010Y-96340511D01*
X49838015Y-96340509D01*
X49940509Y-96238015D01*
X49940512Y-96238010D01*
X50012982Y-96112489D01*
X50012982Y-96112487D01*
X50012984Y-96112485D01*
X50049318Y-95976884D01*
X50082643Y-95925570D01*
X50139764Y-95903644D01*
X50182828Y-95911043D01*
X50187510Y-95912982D01*
X50187512Y-95912982D01*
X50187515Y-95912984D01*
X50327525Y-95950500D01*
X50327526Y-95950500D01*
X50472476Y-95950500D01*
X50478909Y-95949653D01*
X50479231Y-95952100D01*
X50529674Y-95954729D01*
X50577236Y-95993219D01*
X50585690Y-96009283D01*
X50587018Y-96012490D01*
X50659487Y-96138010D01*
X50659489Y-96138012D01*
X50659491Y-96138015D01*
X50761985Y-96240509D01*
X50761987Y-96240510D01*
X50761989Y-96240512D01*
X50887511Y-96312982D01*
X50887512Y-96312982D01*
X50887515Y-96312984D01*
X51027525Y-96350500D01*
X51027526Y-96350500D01*
X51172474Y-96350500D01*
X51172475Y-96350500D01*
X51312485Y-96312984D01*
X51312487Y-96312982D01*
X51312489Y-96312982D01*
X51438010Y-96240512D01*
X51438010Y-96240511D01*
X51438015Y-96240509D01*
X51540509Y-96138015D01*
X51549764Y-96121985D01*
X51612982Y-96012489D01*
X51612982Y-96012487D01*
X51612984Y-96012485D01*
X51650500Y-95872475D01*
X51650500Y-95727525D01*
X51612984Y-95587515D01*
X51612982Y-95587512D01*
X51612982Y-95587510D01*
X51540512Y-95461989D01*
X51540510Y-95461987D01*
X51540509Y-95461985D01*
X51438015Y-95359491D01*
X51438012Y-95359489D01*
X51438010Y-95359487D01*
X51312488Y-95287017D01*
X51312489Y-95287017D01*
X51258214Y-95272474D01*
X51172475Y-95249500D01*
X51027525Y-95249500D01*
X51027524Y-95249500D01*
X51021093Y-95250347D01*
X51020771Y-95247908D01*
X50970281Y-95245253D01*
X50922738Y-95206739D01*
X50914311Y-95190719D01*
X50912984Y-95187518D01*
X50912984Y-95187515D01*
X50891593Y-95150464D01*
X50840512Y-95061989D01*
X50840510Y-95061987D01*
X50840509Y-95061985D01*
X50738015Y-94959491D01*
X50738012Y-94959489D01*
X50738010Y-94959487D01*
X50612488Y-94887017D01*
X50612489Y-94887017D01*
X50554803Y-94871560D01*
X50472475Y-94849500D01*
X50327525Y-94849500D01*
X50280931Y-94861985D01*
X50187510Y-94887017D01*
X50061989Y-94959487D01*
X49959487Y-95061989D01*
X49887017Y-95187511D01*
X49887015Y-95187515D01*
X49850680Y-95323115D01*
X49817356Y-95374429D01*
X49760234Y-95396355D01*
X49717175Y-95388958D01*
X49712489Y-95387017D01*
X49609761Y-95359491D01*
X49572475Y-95349500D01*
X49427525Y-95349500D01*
X49390239Y-95359491D01*
X49287510Y-95387017D01*
X49161986Y-95459489D01*
X49159765Y-95461194D01*
X49157874Y-95461863D01*
X49156365Y-95462735D01*
X49156203Y-95462455D01*
X49102088Y-95481616D01*
X49043423Y-95464237D01*
X49006177Y-95415694D01*
X49000500Y-95382650D01*
X49000500Y-93827525D01*
X50349500Y-93827525D01*
X50349500Y-93972475D01*
X50373731Y-94062906D01*
X50387017Y-94112489D01*
X50459487Y-94238010D01*
X50459489Y-94238012D01*
X50459491Y-94238015D01*
X50561985Y-94340509D01*
X50561987Y-94340510D01*
X50561989Y-94340512D01*
X50687511Y-94412982D01*
X50687512Y-94412982D01*
X50687515Y-94412984D01*
X50827525Y-94450500D01*
X50827526Y-94450500D01*
X50972474Y-94450500D01*
X50972475Y-94450500D01*
X51112485Y-94412984D01*
X51112487Y-94412982D01*
X51112489Y-94412982D01*
X51238010Y-94340512D01*
X51238010Y-94340511D01*
X51238015Y-94340509D01*
X51340509Y-94238015D01*
X51346351Y-94227896D01*
X51412982Y-94112489D01*
X51412982Y-94112487D01*
X51412984Y-94112485D01*
X51450500Y-93972475D01*
X51450500Y-93827525D01*
X51412984Y-93687515D01*
X51412982Y-93687512D01*
X51412982Y-93687510D01*
X51403182Y-93670536D01*
X51378349Y-93627525D01*
X52749500Y-93627525D01*
X52749500Y-93772475D01*
X52764251Y-93827525D01*
X52787017Y-93912489D01*
X52859487Y-94038010D01*
X52859489Y-94038012D01*
X52859491Y-94038015D01*
X52961985Y-94140509D01*
X52961987Y-94140510D01*
X52961989Y-94140512D01*
X53089730Y-94214264D01*
X53130671Y-94259733D01*
X53137067Y-94320584D01*
X53106474Y-94373572D01*
X53089730Y-94385736D01*
X52961989Y-94459487D01*
X52859487Y-94561989D01*
X52787017Y-94687510D01*
X52753397Y-94812982D01*
X52749500Y-94827525D01*
X52749500Y-94972475D01*
X52775942Y-95071155D01*
X52787017Y-95112489D01*
X52859487Y-95238010D01*
X52859489Y-95238012D01*
X52859491Y-95238015D01*
X52951474Y-95329998D01*
X52979250Y-95384513D01*
X52969679Y-95444945D01*
X52951475Y-95470000D01*
X52894460Y-95527016D01*
X52859488Y-95561988D01*
X52859487Y-95561989D01*
X52787017Y-95687510D01*
X52776984Y-95724953D01*
X52749500Y-95827525D01*
X52749500Y-95972475D01*
X52756042Y-95996888D01*
X52787017Y-96112489D01*
X52859487Y-96238010D01*
X52859489Y-96238012D01*
X52859491Y-96238015D01*
X52901474Y-96279998D01*
X52929250Y-96334513D01*
X52919679Y-96394945D01*
X52901475Y-96420000D01*
X52870976Y-96450500D01*
X52859488Y-96461988D01*
X52859487Y-96461989D01*
X52787017Y-96587510D01*
X52749500Y-96727525D01*
X52749500Y-96872474D01*
X52787017Y-97012489D01*
X52859487Y-97138010D01*
X52859489Y-97138012D01*
X52859491Y-97138015D01*
X52961985Y-97240509D01*
X52961987Y-97240510D01*
X52961989Y-97240512D01*
X53087511Y-97312982D01*
X53087512Y-97312982D01*
X53087515Y-97312984D01*
X53227525Y-97350500D01*
X53227526Y-97350500D01*
X53372474Y-97350500D01*
X53372475Y-97350500D01*
X53512485Y-97312984D01*
X53512487Y-97312982D01*
X53512489Y-97312982D01*
X53638010Y-97240512D01*
X53638010Y-97240511D01*
X53638015Y-97240509D01*
X53740509Y-97138015D01*
X53741343Y-97136571D01*
X53812982Y-97012489D01*
X53812982Y-97012487D01*
X53812984Y-97012485D01*
X53850500Y-96872475D01*
X53850500Y-96727525D01*
X53812984Y-96587515D01*
X53812982Y-96587512D01*
X53812982Y-96587510D01*
X53740512Y-96461989D01*
X53740510Y-96461987D01*
X53740509Y-96461985D01*
X53698525Y-96420001D01*
X53670750Y-96365487D01*
X53680321Y-96305055D01*
X53698524Y-96279999D01*
X53740509Y-96238015D01*
X53740512Y-96238010D01*
X53812982Y-96112489D01*
X53812982Y-96112487D01*
X53812984Y-96112485D01*
X53850500Y-95972475D01*
X53850500Y-95827525D01*
X53812984Y-95687515D01*
X53812982Y-95687512D01*
X53812982Y-95687510D01*
X53740512Y-95561989D01*
X53740510Y-95561987D01*
X53740509Y-95561985D01*
X53648525Y-95470001D01*
X53620750Y-95415487D01*
X53630321Y-95355055D01*
X53648524Y-95329999D01*
X53740509Y-95238015D01*
X53745139Y-95229996D01*
X53812982Y-95112489D01*
X53812982Y-95112487D01*
X53812984Y-95112485D01*
X53850500Y-94972475D01*
X53850500Y-94827525D01*
X53812984Y-94687515D01*
X53812982Y-94687512D01*
X53812982Y-94687510D01*
X53740512Y-94561989D01*
X53740510Y-94561987D01*
X53740509Y-94561985D01*
X53638015Y-94459491D01*
X53638012Y-94459489D01*
X53638010Y-94459487D01*
X53510269Y-94385736D01*
X53469328Y-94340267D01*
X53467989Y-94327525D01*
X54949500Y-94327525D01*
X54949500Y-94472475D01*
X54974828Y-94567000D01*
X54987017Y-94612489D01*
X55059490Y-94738016D01*
X55060812Y-94739738D01*
X55061330Y-94741202D01*
X55062735Y-94743635D01*
X55062283Y-94743895D01*
X55081232Y-94797415D01*
X55063851Y-94856079D01*
X55060812Y-94860262D01*
X55059490Y-94861983D01*
X54987017Y-94987510D01*
X54962101Y-95080498D01*
X54949500Y-95127525D01*
X54949500Y-95272475D01*
X54961025Y-95315487D01*
X54987017Y-95412489D01*
X55059490Y-95538016D01*
X55060812Y-95539738D01*
X55061330Y-95541202D01*
X55062735Y-95543635D01*
X55062283Y-95543895D01*
X55081232Y-95597415D01*
X55063851Y-95656079D01*
X55060812Y-95660262D01*
X55059490Y-95661983D01*
X54987017Y-95787510D01*
X54955899Y-95903644D01*
X54949500Y-95927525D01*
X54949500Y-96072475D01*
X54958044Y-96104362D01*
X54987016Y-96212486D01*
X55037831Y-96300500D01*
X55050552Y-96360349D01*
X55037831Y-96399500D01*
X54987016Y-96487513D01*
X54969473Y-96552984D01*
X54949500Y-96627525D01*
X54949500Y-96772475D01*
X54976110Y-96871785D01*
X54987017Y-96912489D01*
X55059490Y-97038016D01*
X55060812Y-97039738D01*
X55061330Y-97041202D01*
X55062735Y-97043635D01*
X55062283Y-97043895D01*
X55081232Y-97097415D01*
X55063851Y-97156079D01*
X55060812Y-97160262D01*
X55059490Y-97161983D01*
X54987017Y-97287510D01*
X54961701Y-97381989D01*
X54949500Y-97427525D01*
X54949500Y-97572475D01*
X54954819Y-97592326D01*
X54987017Y-97712489D01*
X55059487Y-97838010D01*
X55059489Y-97838012D01*
X55059491Y-97838015D01*
X55161985Y-97940509D01*
X55161987Y-97940510D01*
X55161989Y-97940512D01*
X55287511Y-98012982D01*
X55287512Y-98012982D01*
X55287515Y-98012984D01*
X55427525Y-98050500D01*
X55427526Y-98050500D01*
X55572474Y-98050500D01*
X55572475Y-98050500D01*
X55712485Y-98012984D01*
X55712487Y-98012982D01*
X55712489Y-98012982D01*
X55838010Y-97940512D01*
X55838010Y-97940511D01*
X55838015Y-97940509D01*
X55940509Y-97838015D01*
X55978349Y-97772475D01*
X56014264Y-97710269D01*
X56059733Y-97669328D01*
X56120583Y-97662932D01*
X56173571Y-97693525D01*
X56185736Y-97710269D01*
X56259487Y-97838010D01*
X56259489Y-97838012D01*
X56259491Y-97838015D01*
X56361985Y-97940509D01*
X56361987Y-97940510D01*
X56361989Y-97940512D01*
X56487511Y-98012982D01*
X56487512Y-98012982D01*
X56487515Y-98012984D01*
X56627525Y-98050500D01*
X56627526Y-98050500D01*
X56772474Y-98050500D01*
X56772475Y-98050500D01*
X56912485Y-98012984D01*
X56912487Y-98012982D01*
X56912489Y-98012982D01*
X57038010Y-97940512D01*
X57038010Y-97940511D01*
X57038015Y-97940509D01*
X57140509Y-97838015D01*
X57195737Y-97742358D01*
X57212982Y-97712489D01*
X57212982Y-97712487D01*
X57212984Y-97712485D01*
X57230390Y-97647525D01*
X66709500Y-97647525D01*
X66709500Y-97792475D01*
X66737092Y-97895449D01*
X66747017Y-97932489D01*
X66819487Y-98058010D01*
X66819489Y-98058012D01*
X66819491Y-98058015D01*
X66921985Y-98160509D01*
X66921987Y-98160510D01*
X66921989Y-98160512D01*
X67047511Y-98232982D01*
X67047512Y-98232982D01*
X67047515Y-98232984D01*
X67187525Y-98270500D01*
X67187526Y-98270500D01*
X67332474Y-98270500D01*
X67332475Y-98270500D01*
X67472485Y-98232984D01*
X67472487Y-98232982D01*
X67472489Y-98232982D01*
X67598010Y-98160512D01*
X67598010Y-98160511D01*
X67598015Y-98160509D01*
X67700509Y-98058015D01*
X67712059Y-98038010D01*
X67772982Y-97932489D01*
X67772982Y-97932487D01*
X67772984Y-97932485D01*
X67810500Y-97792475D01*
X67810500Y-97647525D01*
X67772984Y-97507515D01*
X67772982Y-97507512D01*
X67772982Y-97507510D01*
X67751635Y-97470536D01*
X67726802Y-97427525D01*
X68649500Y-97427525D01*
X68649500Y-97572475D01*
X68654819Y-97592326D01*
X68687017Y-97712489D01*
X68759487Y-97838010D01*
X68759489Y-97838012D01*
X68759491Y-97838015D01*
X68861985Y-97940509D01*
X68861987Y-97940510D01*
X68861989Y-97940512D01*
X68987511Y-98012982D01*
X68987512Y-98012982D01*
X68987515Y-98012984D01*
X69127525Y-98050500D01*
X69127526Y-98050500D01*
X69272474Y-98050500D01*
X69272475Y-98050500D01*
X69412485Y-98012984D01*
X69412487Y-98012982D01*
X69412489Y-98012982D01*
X69538010Y-97940512D01*
X69538010Y-97940511D01*
X69538015Y-97940509D01*
X69640509Y-97838015D01*
X69695737Y-97742358D01*
X69712982Y-97712489D01*
X69712982Y-97712487D01*
X69712984Y-97712485D01*
X69750500Y-97572475D01*
X69750500Y-97427525D01*
X69712984Y-97287515D01*
X69712982Y-97287512D01*
X69712982Y-97287510D01*
X69640512Y-97161989D01*
X69640510Y-97161987D01*
X69640509Y-97161985D01*
X69538015Y-97059491D01*
X69538012Y-97059489D01*
X69538010Y-97059487D01*
X69412488Y-96987017D01*
X69412489Y-96987017D01*
X69360110Y-96972982D01*
X69272475Y-96949500D01*
X69127525Y-96949500D01*
X69090601Y-96959394D01*
X68987510Y-96987017D01*
X68861989Y-97059487D01*
X68759487Y-97161989D01*
X68687017Y-97287510D01*
X68661701Y-97381989D01*
X68649500Y-97427525D01*
X67726802Y-97427525D01*
X67700512Y-97381989D01*
X67700510Y-97381987D01*
X67700509Y-97381985D01*
X67598015Y-97279491D01*
X67598012Y-97279489D01*
X67598010Y-97279487D01*
X67472488Y-97207017D01*
X67472489Y-97207017D01*
X67442896Y-97199087D01*
X67332475Y-97169500D01*
X67187525Y-97169500D01*
X67141972Y-97181706D01*
X67047510Y-97207017D01*
X66921989Y-97279487D01*
X66819487Y-97381989D01*
X66747017Y-97507510D01*
X66725655Y-97587235D01*
X66709500Y-97647525D01*
X57230390Y-97647525D01*
X57250500Y-97572475D01*
X57250500Y-97427525D01*
X57212984Y-97287515D01*
X57212982Y-97287512D01*
X57212982Y-97287510D01*
X57140512Y-97161989D01*
X57140510Y-97161987D01*
X57140509Y-97161985D01*
X57038015Y-97059491D01*
X57038012Y-97059489D01*
X57038010Y-97059487D01*
X56912488Y-96987017D01*
X56912489Y-96987017D01*
X56860110Y-96972982D01*
X56772475Y-96949500D01*
X56627525Y-96949500D01*
X56590601Y-96959394D01*
X56487510Y-96987017D01*
X56361989Y-97059487D01*
X56259487Y-97161989D01*
X56185736Y-97289730D01*
X56178129Y-97296579D01*
X56174030Y-97305961D01*
X56155892Y-97316601D01*
X56140267Y-97330671D01*
X56130085Y-97331741D01*
X56121256Y-97336921D01*
X56100330Y-97334868D01*
X56079416Y-97337067D01*
X56070549Y-97331948D01*
X56060363Y-97330949D01*
X56044950Y-97317168D01*
X56026428Y-97306474D01*
X56014610Y-97290325D01*
X56013002Y-97287585D01*
X56012984Y-97287515D01*
X55940509Y-97161985D01*
X55937628Y-97159104D01*
X55932343Y-97150095D01*
X55927029Y-97125924D01*
X55918767Y-97102594D01*
X55920565Y-97096521D01*
X55919206Y-97090336D01*
X55929114Y-97067658D01*
X55936143Y-97043928D01*
X55939193Y-97039730D01*
X55940504Y-97038019D01*
X55940509Y-97038015D01*
X55996804Y-96940509D01*
X56012982Y-96912489D01*
X56012982Y-96912487D01*
X56012984Y-96912485D01*
X56050500Y-96772475D01*
X56050500Y-96727525D01*
X60349500Y-96727525D01*
X60349500Y-96872474D01*
X60387017Y-97012489D01*
X60459487Y-97138010D01*
X60459489Y-97138012D01*
X60459491Y-97138015D01*
X60561985Y-97240509D01*
X60561987Y-97240510D01*
X60561989Y-97240512D01*
X60687511Y-97312982D01*
X60687512Y-97312982D01*
X60687515Y-97312984D01*
X60827525Y-97350500D01*
X60827526Y-97350500D01*
X60972474Y-97350500D01*
X60972475Y-97350500D01*
X61112485Y-97312984D01*
X61112487Y-97312982D01*
X61112489Y-97312982D01*
X61238010Y-97240512D01*
X61238010Y-97240511D01*
X61238015Y-97240509D01*
X61340509Y-97138015D01*
X61341343Y-97136571D01*
X61412982Y-97012489D01*
X61412982Y-97012487D01*
X61412984Y-97012485D01*
X61450500Y-96872475D01*
X61450500Y-96727525D01*
X61412984Y-96587515D01*
X61393047Y-96552984D01*
X61345446Y-96470536D01*
X61340511Y-96461989D01*
X61340509Y-96461985D01*
X61306049Y-96427525D01*
X64149500Y-96427525D01*
X64149500Y-96572475D01*
X64167060Y-96638010D01*
X64187017Y-96712489D01*
X64259487Y-96838010D01*
X64259489Y-96838012D01*
X64259491Y-96838015D01*
X64361985Y-96940509D01*
X64361987Y-96940510D01*
X64361989Y-96940512D01*
X64487511Y-97012982D01*
X64487512Y-97012982D01*
X64487515Y-97012984D01*
X64627525Y-97050500D01*
X64627526Y-97050500D01*
X64772474Y-97050500D01*
X64772475Y-97050500D01*
X64912485Y-97012984D01*
X64912487Y-97012982D01*
X64912489Y-97012982D01*
X65038010Y-96940512D01*
X65038010Y-96940511D01*
X65038015Y-96940509D01*
X65140509Y-96838015D01*
X65140512Y-96838010D01*
X65212982Y-96712489D01*
X65212982Y-96712487D01*
X65212984Y-96712485D01*
X65250500Y-96572475D01*
X65250500Y-96427525D01*
X65212984Y-96287515D01*
X65212982Y-96287512D01*
X65212982Y-96287510D01*
X65140512Y-96161989D01*
X65140510Y-96161987D01*
X65140509Y-96161985D01*
X65038015Y-96059491D01*
X65038012Y-96059489D01*
X65038010Y-96059487D01*
X64912488Y-95987017D01*
X64912489Y-95987017D01*
X64858214Y-95972474D01*
X64772475Y-95949500D01*
X64627525Y-95949500D01*
X64580931Y-95961985D01*
X64487510Y-95987017D01*
X64361989Y-96059487D01*
X64259487Y-96161989D01*
X64187017Y-96287510D01*
X64166123Y-96365487D01*
X64149500Y-96427525D01*
X61306049Y-96427525D01*
X61238015Y-96359491D01*
X61238012Y-96359489D01*
X61238010Y-96359487D01*
X61112488Y-96287017D01*
X61112489Y-96287017D01*
X61082896Y-96279087D01*
X60972475Y-96249500D01*
X60827525Y-96249500D01*
X60765790Y-96266041D01*
X60687510Y-96287017D01*
X60561989Y-96359487D01*
X60459487Y-96461989D01*
X60387017Y-96587510D01*
X60349500Y-96727525D01*
X56050500Y-96727525D01*
X56050500Y-96627525D01*
X56012984Y-96487515D01*
X56012982Y-96487512D01*
X56012982Y-96487510D01*
X55962169Y-96399500D01*
X55949447Y-96339652D01*
X55962169Y-96300500D01*
X56012982Y-96212489D01*
X56012983Y-96212486D01*
X56012984Y-96212485D01*
X56050500Y-96072475D01*
X56050500Y-95927525D01*
X56012984Y-95787515D01*
X56012982Y-95787512D01*
X56012982Y-95787510D01*
X55940511Y-95661988D01*
X55939193Y-95660270D01*
X55938674Y-95658806D01*
X55937265Y-95656365D01*
X55937717Y-95656103D01*
X55918767Y-95602594D01*
X55936143Y-95543928D01*
X55939193Y-95539730D01*
X55940504Y-95538019D01*
X55940509Y-95538015D01*
X55988141Y-95455515D01*
X56012982Y-95412489D01*
X56012982Y-95412487D01*
X56012984Y-95412485D01*
X56050500Y-95272475D01*
X56050500Y-95127525D01*
X56012984Y-94987515D01*
X55992921Y-94952765D01*
X55946561Y-94872467D01*
X55946558Y-94872463D01*
X55940509Y-94861985D01*
X55938706Y-94860182D01*
X55934325Y-94853330D01*
X55927633Y-94827629D01*
X55927596Y-94827525D01*
X57449500Y-94827525D01*
X57449500Y-94972475D01*
X57475942Y-95071155D01*
X57487017Y-95112489D01*
X57559487Y-95238010D01*
X57559489Y-95238012D01*
X57559491Y-95238015D01*
X57661985Y-95340509D01*
X57661987Y-95340510D01*
X57661989Y-95340512D01*
X57787511Y-95412982D01*
X57787512Y-95412982D01*
X57787515Y-95412984D01*
X57927525Y-95450500D01*
X57927526Y-95450500D01*
X58072474Y-95450500D01*
X58072475Y-95450500D01*
X58212485Y-95412984D01*
X58212487Y-95412982D01*
X58212489Y-95412982D01*
X58338010Y-95340512D01*
X58338010Y-95340511D01*
X58338015Y-95340509D01*
X58440509Y-95238015D01*
X58445139Y-95229996D01*
X58512982Y-95112489D01*
X58512982Y-95112487D01*
X58512984Y-95112485D01*
X58550500Y-94972475D01*
X58550500Y-94927525D01*
X63049500Y-94927525D01*
X63049500Y-95072475D01*
X63057714Y-95103129D01*
X63087017Y-95212489D01*
X63159487Y-95338010D01*
X63159489Y-95338012D01*
X63159491Y-95338015D01*
X63261985Y-95440509D01*
X63261987Y-95440510D01*
X63261989Y-95440512D01*
X63387511Y-95512982D01*
X63387512Y-95512982D01*
X63387515Y-95512984D01*
X63527525Y-95550500D01*
X63527526Y-95550500D01*
X63672474Y-95550500D01*
X63672475Y-95550500D01*
X63812485Y-95512984D01*
X63812487Y-95512982D01*
X63812489Y-95512982D01*
X63938010Y-95440512D01*
X63938010Y-95440511D01*
X63938015Y-95440509D01*
X64040509Y-95338015D01*
X64045145Y-95329985D01*
X64112982Y-95212489D01*
X64112982Y-95212487D01*
X64112984Y-95212485D01*
X64150500Y-95072475D01*
X64150500Y-95045025D01*
X66267000Y-95045025D01*
X66267000Y-95189975D01*
X66280541Y-95240509D01*
X66304517Y-95329989D01*
X66376987Y-95455510D01*
X66376989Y-95455512D01*
X66376991Y-95455515D01*
X66479485Y-95558009D01*
X66479487Y-95558010D01*
X66479489Y-95558012D01*
X66605011Y-95630482D01*
X66605012Y-95630482D01*
X66605015Y-95630484D01*
X66745025Y-95668000D01*
X66745026Y-95668000D01*
X66889974Y-95668000D01*
X66889975Y-95668000D01*
X67029985Y-95630484D01*
X67029987Y-95630482D01*
X67029989Y-95630482D01*
X67155510Y-95558012D01*
X67155510Y-95558011D01*
X67155515Y-95558009D01*
X67258009Y-95455515D01*
X67258012Y-95455510D01*
X67330482Y-95329989D01*
X67330482Y-95329987D01*
X67330484Y-95329985D01*
X67368000Y-95189975D01*
X67368000Y-95045025D01*
X67330484Y-94905015D01*
X67330482Y-94905012D01*
X67330482Y-94905010D01*
X67258012Y-94779489D01*
X67258010Y-94779487D01*
X67258009Y-94779485D01*
X67155515Y-94676991D01*
X67155512Y-94676989D01*
X67155510Y-94676987D01*
X67029988Y-94604517D01*
X67029989Y-94604517D01*
X66966518Y-94587510D01*
X66889975Y-94567000D01*
X66745025Y-94567000D01*
X66683290Y-94583541D01*
X66605010Y-94604517D01*
X66479489Y-94676987D01*
X66376987Y-94779489D01*
X66304517Y-94905010D01*
X66291721Y-94952765D01*
X66267000Y-95045025D01*
X64150500Y-95045025D01*
X64150500Y-94927525D01*
X64112984Y-94787515D01*
X64112982Y-94787512D01*
X64112982Y-94787510D01*
X64040512Y-94661989D01*
X64040510Y-94661987D01*
X64040509Y-94661985D01*
X63938015Y-94559491D01*
X63938012Y-94559489D01*
X63938010Y-94559487D01*
X63812488Y-94487017D01*
X63812489Y-94487017D01*
X63758214Y-94472474D01*
X63672475Y-94449500D01*
X63527525Y-94449500D01*
X63490239Y-94459491D01*
X63387510Y-94487017D01*
X63261989Y-94559487D01*
X63159487Y-94661989D01*
X63087017Y-94787510D01*
X63064496Y-94871558D01*
X63049500Y-94927525D01*
X58550500Y-94927525D01*
X58550500Y-94827525D01*
X58512984Y-94687515D01*
X58512982Y-94687512D01*
X58512982Y-94687510D01*
X58440512Y-94561989D01*
X58440510Y-94561987D01*
X58440509Y-94561985D01*
X58338015Y-94459491D01*
X58338012Y-94459489D01*
X58338010Y-94459487D01*
X58212488Y-94387017D01*
X58212489Y-94387017D01*
X58109761Y-94359491D01*
X58072475Y-94349500D01*
X57927525Y-94349500D01*
X57890239Y-94359491D01*
X57787510Y-94387017D01*
X57661989Y-94459487D01*
X57559487Y-94561989D01*
X57487017Y-94687510D01*
X57453397Y-94812982D01*
X57449500Y-94827525D01*
X55927596Y-94827525D01*
X55918767Y-94802594D01*
X55920016Y-94798375D01*
X55918908Y-94794118D01*
X55928600Y-94769393D01*
X55936143Y-94743928D01*
X55939193Y-94739730D01*
X55940504Y-94738019D01*
X55940509Y-94738015D01*
X55999279Y-94636223D01*
X56012982Y-94612489D01*
X56012982Y-94612487D01*
X56012984Y-94612485D01*
X56050500Y-94472475D01*
X56050500Y-94327525D01*
X56012984Y-94187515D01*
X56012982Y-94187512D01*
X56012982Y-94187510D01*
X55940512Y-94061989D01*
X55940510Y-94061987D01*
X55940509Y-94061985D01*
X55838015Y-93959491D01*
X55838012Y-93959489D01*
X55838010Y-93959487D01*
X55712488Y-93887017D01*
X55712489Y-93887017D01*
X55609761Y-93859491D01*
X55572475Y-93849500D01*
X55427525Y-93849500D01*
X55390239Y-93859491D01*
X55287510Y-93887017D01*
X55161989Y-93959487D01*
X55059487Y-94061989D01*
X54987017Y-94187510D01*
X54960354Y-94287016D01*
X54949500Y-94327525D01*
X53467989Y-94327525D01*
X53462932Y-94279417D01*
X53493525Y-94226429D01*
X53510269Y-94214264D01*
X53638010Y-94140512D01*
X53638010Y-94140511D01*
X53638015Y-94140509D01*
X53729998Y-94048525D01*
X53784513Y-94020750D01*
X53844945Y-94030321D01*
X53870000Y-94048524D01*
X53961985Y-94140509D01*
X53961987Y-94140510D01*
X53961989Y-94140512D01*
X54087511Y-94212982D01*
X54087512Y-94212982D01*
X54087515Y-94212984D01*
X54227525Y-94250500D01*
X54227526Y-94250500D01*
X54372473Y-94250500D01*
X54372475Y-94250500D01*
X54512485Y-94212984D01*
X54512488Y-94212982D01*
X54512489Y-94212982D01*
X54638010Y-94140512D01*
X54638010Y-94140511D01*
X54638015Y-94140509D01*
X54740509Y-94038015D01*
X54750595Y-94020546D01*
X54812982Y-93912489D01*
X54812982Y-93912487D01*
X54812984Y-93912485D01*
X54850500Y-93772475D01*
X54850500Y-93627525D01*
X54812984Y-93487515D01*
X54812982Y-93487512D01*
X54812982Y-93487510D01*
X54740512Y-93361989D01*
X54740510Y-93361987D01*
X54740509Y-93361985D01*
X54638015Y-93259491D01*
X54638012Y-93259489D01*
X54638010Y-93259487D01*
X54512488Y-93187017D01*
X54512489Y-93187017D01*
X54482896Y-93179087D01*
X54372475Y-93149500D01*
X54227525Y-93149500D01*
X54165790Y-93166041D01*
X54087510Y-93187017D01*
X53961989Y-93259487D01*
X53961988Y-93259488D01*
X53961985Y-93259490D01*
X53961985Y-93259491D01*
X53870001Y-93351474D01*
X53815487Y-93379250D01*
X53755055Y-93369679D01*
X53729999Y-93351475D01*
X53638015Y-93259491D01*
X53638012Y-93259489D01*
X53638010Y-93259487D01*
X53512488Y-93187017D01*
X53512489Y-93187017D01*
X53482896Y-93179087D01*
X53372475Y-93149500D01*
X53227525Y-93149500D01*
X53165790Y-93166041D01*
X53087510Y-93187017D01*
X52961989Y-93259487D01*
X52859487Y-93361989D01*
X52787017Y-93487510D01*
X52760222Y-93587510D01*
X52749500Y-93627525D01*
X51378349Y-93627525D01*
X51340512Y-93561989D01*
X51340510Y-93561987D01*
X51340509Y-93561985D01*
X51238015Y-93459491D01*
X51238012Y-93459489D01*
X51238010Y-93459487D01*
X51112488Y-93387017D01*
X51112489Y-93387017D01*
X51047783Y-93369679D01*
X50972475Y-93349500D01*
X50827525Y-93349500D01*
X50790239Y-93359491D01*
X50687510Y-93387017D01*
X50561989Y-93459487D01*
X50459487Y-93561989D01*
X50387017Y-93687510D01*
X50376295Y-93727525D01*
X50349500Y-93827525D01*
X49000500Y-93827525D01*
X49000500Y-92627525D01*
X60249500Y-92627525D01*
X60249500Y-92772475D01*
X60256486Y-92798546D01*
X60287017Y-92912489D01*
X60359487Y-93038010D01*
X60359489Y-93038012D01*
X60359491Y-93038015D01*
X60461985Y-93140509D01*
X60461987Y-93140510D01*
X60461989Y-93140512D01*
X60587511Y-93212982D01*
X60587512Y-93212982D01*
X60587515Y-93212984D01*
X60727525Y-93250500D01*
X60727526Y-93250500D01*
X60872474Y-93250500D01*
X60872475Y-93250500D01*
X61012485Y-93212984D01*
X61012487Y-93212982D01*
X61012489Y-93212982D01*
X61138010Y-93140512D01*
X61138010Y-93140511D01*
X61138015Y-93140509D01*
X61240509Y-93038015D01*
X61240512Y-93038010D01*
X61312982Y-92912489D01*
X61312982Y-92912487D01*
X61312984Y-92912485D01*
X61350500Y-92772475D01*
X61350500Y-92627525D01*
X61312984Y-92487515D01*
X61312982Y-92487512D01*
X61312982Y-92487510D01*
X61240512Y-92361989D01*
X61240510Y-92361987D01*
X61240509Y-92361985D01*
X61138015Y-92259491D01*
X61138012Y-92259489D01*
X61138010Y-92259487D01*
X61012488Y-92187017D01*
X61012489Y-92187017D01*
X60931855Y-92165411D01*
X60872475Y-92149500D01*
X60727525Y-92149500D01*
X60668145Y-92165411D01*
X60587510Y-92187017D01*
X60461989Y-92259487D01*
X60359487Y-92361989D01*
X60287017Y-92487510D01*
X60254110Y-92610319D01*
X60249500Y-92627525D01*
X49000500Y-92627525D01*
X49000500Y-89897684D01*
X51540000Y-89897684D01*
X51540000Y-90102315D01*
X51572008Y-90304412D01*
X51635243Y-90499027D01*
X51728139Y-90681348D01*
X51728143Y-90681353D01*
X51760523Y-90725920D01*
X51760524Y-90725920D01*
X52316212Y-90170232D01*
X52327482Y-90212292D01*
X52399890Y-90337708D01*
X52502292Y-90440110D01*
X52627708Y-90512518D01*
X52669765Y-90523787D01*
X52114078Y-91079475D01*
X52158647Y-91111858D01*
X52340972Y-91204756D01*
X52535587Y-91267991D01*
X52737685Y-91300000D01*
X52942315Y-91300000D01*
X53144412Y-91267991D01*
X53339027Y-91204756D01*
X53521342Y-91111863D01*
X53521350Y-91111858D01*
X53565920Y-91079475D01*
X53010232Y-90523787D01*
X53052292Y-90512518D01*
X53177708Y-90440110D01*
X53280110Y-90337708D01*
X53352518Y-90212292D01*
X53363787Y-90170232D01*
X53919475Y-90725920D01*
X53951858Y-90681350D01*
X53951863Y-90681342D01*
X54044756Y-90499027D01*
X54107991Y-90304412D01*
X54140000Y-90102315D01*
X54140000Y-89897684D01*
X54139994Y-89897644D01*
X56619500Y-89897644D01*
X56619500Y-90102355D01*
X56651521Y-90304529D01*
X56714780Y-90499219D01*
X56807712Y-90681609D01*
X56807714Y-90681613D01*
X56928029Y-90847213D01*
X56928031Y-90847215D01*
X56928034Y-90847219D01*
X57072781Y-90991966D01*
X57072784Y-90991968D01*
X57072786Y-90991970D01*
X57238386Y-91112285D01*
X57238390Y-91112287D01*
X57420781Y-91205220D01*
X57615466Y-91268477D01*
X57615467Y-91268477D01*
X57615470Y-91268478D01*
X57817645Y-91300500D01*
X57817648Y-91300500D01*
X58022355Y-91300500D01*
X58224529Y-91268478D01*
X58224530Y-91268477D01*
X58224534Y-91268477D01*
X58419219Y-91205220D01*
X58601610Y-91112287D01*
X58602201Y-91111858D01*
X58694409Y-91044865D01*
X58767219Y-90991966D01*
X58911966Y-90847219D01*
X59032287Y-90681610D01*
X59125220Y-90499219D01*
X59188477Y-90304534D01*
X59188478Y-90304529D01*
X59220500Y-90102355D01*
X59220500Y-89897644D01*
X59188478Y-89695470D01*
X59186147Y-89688296D01*
X59125220Y-89500781D01*
X59032287Y-89318390D01*
X59032285Y-89318386D01*
X58911970Y-89152786D01*
X58911968Y-89152784D01*
X58911966Y-89152781D01*
X58767219Y-89008034D01*
X58767215Y-89008031D01*
X58767213Y-89008029D01*
X58694404Y-88955130D01*
X61699500Y-88955130D01*
X61699500Y-91044860D01*
X61699501Y-91044863D01*
X61702414Y-91069990D01*
X61721090Y-91112287D01*
X61747794Y-91172765D01*
X61827235Y-91252206D01*
X61930009Y-91297585D01*
X61955135Y-91300500D01*
X64044864Y-91300499D01*
X64069991Y-91297585D01*
X64172765Y-91252206D01*
X64252206Y-91172765D01*
X64297585Y-91069991D01*
X64300500Y-91044865D01*
X64300499Y-89827525D01*
X71149500Y-89827525D01*
X71149500Y-89972475D01*
X71169336Y-90046503D01*
X71187017Y-90112489D01*
X71259487Y-90238010D01*
X71259489Y-90238012D01*
X71259491Y-90238015D01*
X71361985Y-90340509D01*
X71361987Y-90340510D01*
X71361989Y-90340512D01*
X71487511Y-90412982D01*
X71487512Y-90412982D01*
X71487515Y-90412984D01*
X71627525Y-90450500D01*
X71627526Y-90450500D01*
X71772474Y-90450500D01*
X71772475Y-90450500D01*
X71912485Y-90412984D01*
X71912487Y-90412982D01*
X71912489Y-90412982D01*
X72038010Y-90340512D01*
X72038010Y-90340511D01*
X72038015Y-90340509D01*
X72140509Y-90238015D01*
X72161788Y-90201159D01*
X72212982Y-90112489D01*
X72212982Y-90112487D01*
X72212984Y-90112485D01*
X72250500Y-89972475D01*
X72250500Y-89827525D01*
X72212984Y-89687515D01*
X72212982Y-89687512D01*
X72212982Y-89687510D01*
X72195670Y-89657525D01*
X82219500Y-89657525D01*
X82219500Y-89802475D01*
X82245850Y-89900814D01*
X82257017Y-89942489D01*
X82329487Y-90068010D01*
X82329489Y-90068012D01*
X82329491Y-90068015D01*
X82431985Y-90170509D01*
X82431987Y-90170510D01*
X82431989Y-90170512D01*
X82557511Y-90242982D01*
X82557512Y-90242982D01*
X82557515Y-90242984D01*
X82697525Y-90280500D01*
X82697526Y-90280500D01*
X82842474Y-90280500D01*
X82842475Y-90280500D01*
X82982485Y-90242984D01*
X82982487Y-90242982D01*
X82982489Y-90242982D01*
X83108010Y-90170512D01*
X83108010Y-90170511D01*
X83108015Y-90170509D01*
X83210509Y-90068015D01*
X83249778Y-89999999D01*
X83282982Y-89942489D01*
X83282982Y-89942487D01*
X83282984Y-89942485D01*
X83320500Y-89802475D01*
X83320500Y-89657525D01*
X83282984Y-89517515D01*
X83282982Y-89517512D01*
X83282982Y-89517510D01*
X83210512Y-89391989D01*
X83210510Y-89391987D01*
X83210509Y-89391985D01*
X83188978Y-89370454D01*
X83176265Y-89345502D01*
X83162203Y-89321294D01*
X83162492Y-89318470D01*
X83161203Y-89315940D01*
X83165583Y-89288278D01*
X83168436Y-89260427D01*
X83170328Y-89258319D01*
X83170774Y-89255508D01*
X83197259Y-89227525D01*
X83949500Y-89227525D01*
X83949500Y-89372475D01*
X83970273Y-89450000D01*
X83987017Y-89512489D01*
X84059487Y-89638010D01*
X84059489Y-89638012D01*
X84059491Y-89638015D01*
X84161985Y-89740509D01*
X84161987Y-89740510D01*
X84161989Y-89740512D01*
X84287511Y-89812982D01*
X84287512Y-89812982D01*
X84287515Y-89812984D01*
X84427525Y-89850500D01*
X84427526Y-89850500D01*
X84572474Y-89850500D01*
X84572475Y-89850500D01*
X84712485Y-89812984D01*
X84712487Y-89812982D01*
X84712489Y-89812982D01*
X84838010Y-89740512D01*
X84838010Y-89740511D01*
X84838015Y-89740509D01*
X84940509Y-89638015D01*
X85008477Y-89520292D01*
X85012982Y-89512489D01*
X85012982Y-89512487D01*
X85012984Y-89512485D01*
X85050500Y-89372475D01*
X85050500Y-89227525D01*
X85012984Y-89087515D01*
X85012982Y-89087512D01*
X85012982Y-89087510D01*
X84940512Y-88961989D01*
X84940510Y-88961987D01*
X84940509Y-88961985D01*
X84838015Y-88859491D01*
X84838012Y-88859489D01*
X84838010Y-88859487D01*
X84712488Y-88787017D01*
X84712489Y-88787017D01*
X84658214Y-88772474D01*
X84572475Y-88749500D01*
X84427525Y-88749500D01*
X84365790Y-88766041D01*
X84287510Y-88787017D01*
X84161989Y-88859487D01*
X84059487Y-88961989D01*
X83987017Y-89087510D01*
X83962368Y-89179500D01*
X83949500Y-89227525D01*
X83197259Y-89227525D01*
X83209256Y-89214849D01*
X83209482Y-89214717D01*
X83209484Y-89214716D01*
X83209639Y-89214626D01*
X83212448Y-89212993D01*
X83212485Y-89212984D01*
X83338015Y-89140509D01*
X83440509Y-89038015D01*
X83440512Y-89038010D01*
X83512982Y-88912489D01*
X83512982Y-88912487D01*
X83512984Y-88912485D01*
X83550500Y-88772475D01*
X83550500Y-88627525D01*
X83512984Y-88487515D01*
X83512982Y-88487512D01*
X83512982Y-88487510D01*
X83440512Y-88361989D01*
X83440510Y-88361987D01*
X83440509Y-88361985D01*
X83338015Y-88259491D01*
X83338012Y-88259489D01*
X83338010Y-88259487D01*
X83282650Y-88227525D01*
X86149500Y-88227525D01*
X86149500Y-88372475D01*
X86179087Y-88482896D01*
X86187017Y-88512489D01*
X86259487Y-88638010D01*
X86259489Y-88638012D01*
X86259491Y-88638015D01*
X86361985Y-88740509D01*
X86361987Y-88740510D01*
X86389078Y-88756151D01*
X86430020Y-88801620D01*
X86436416Y-88862470D01*
X86409584Y-88911890D01*
X86359492Y-88961983D01*
X86359487Y-88961989D01*
X86287017Y-89087510D01*
X86262368Y-89179500D01*
X86249500Y-89227525D01*
X86249500Y-89372475D01*
X86270273Y-89450000D01*
X86287017Y-89512489D01*
X86359487Y-89638010D01*
X86359489Y-89638012D01*
X86359491Y-89638015D01*
X86461985Y-89740509D01*
X86461987Y-89740510D01*
X86461989Y-89740512D01*
X86587511Y-89812982D01*
X86587512Y-89812982D01*
X86587515Y-89812984D01*
X86727525Y-89850500D01*
X86727526Y-89850500D01*
X86872474Y-89850500D01*
X86872475Y-89850500D01*
X86958218Y-89827525D01*
X88579500Y-89827525D01*
X88579500Y-89972475D01*
X88599336Y-90046503D01*
X88617017Y-90112489D01*
X88689487Y-90238010D01*
X88689489Y-90238012D01*
X88689491Y-90238015D01*
X88791985Y-90340509D01*
X88791987Y-90340510D01*
X88791989Y-90340512D01*
X88917511Y-90412982D01*
X88917512Y-90412982D01*
X88917515Y-90412984D01*
X89057525Y-90450500D01*
X89057526Y-90450500D01*
X89202474Y-90450500D01*
X89202475Y-90450500D01*
X89342485Y-90412984D01*
X89342487Y-90412982D01*
X89342489Y-90412982D01*
X89468010Y-90340512D01*
X89468010Y-90340511D01*
X89468015Y-90340509D01*
X89570509Y-90238015D01*
X89591788Y-90201159D01*
X89642982Y-90112489D01*
X89642982Y-90112487D01*
X89642984Y-90112485D01*
X89680500Y-89972475D01*
X89680500Y-89827525D01*
X89659565Y-89749395D01*
X89662767Y-89688296D01*
X89701272Y-89640746D01*
X89705671Y-89638050D01*
X89788015Y-89590509D01*
X89890509Y-89488015D01*
X89890817Y-89487482D01*
X89962982Y-89362489D01*
X89962982Y-89362487D01*
X89962984Y-89362485D01*
X90000500Y-89222475D01*
X90000500Y-89077525D01*
X89962984Y-88937515D01*
X89962982Y-88937512D01*
X89962982Y-88937510D01*
X89890512Y-88811989D01*
X89890510Y-88811987D01*
X89890509Y-88811985D01*
X89788015Y-88709491D01*
X89788012Y-88709489D01*
X89788010Y-88709487D01*
X89662488Y-88637017D01*
X89662489Y-88637017D01*
X89632896Y-88629087D01*
X89522475Y-88599500D01*
X89377525Y-88599500D01*
X89315790Y-88616041D01*
X89237510Y-88637017D01*
X89111989Y-88709487D01*
X89009487Y-88811989D01*
X88937017Y-88937510D01*
X88910088Y-89038010D01*
X88899500Y-89077525D01*
X88899500Y-89222475D01*
X88909669Y-89260427D01*
X88920434Y-89300601D01*
X88917231Y-89361702D01*
X88878726Y-89409252D01*
X88874308Y-89411960D01*
X88791987Y-89459489D01*
X88689487Y-89561989D01*
X88617017Y-89687510D01*
X88614884Y-89695470D01*
X88579500Y-89827525D01*
X86958218Y-89827525D01*
X87012485Y-89812984D01*
X87012487Y-89812982D01*
X87012489Y-89812982D01*
X87138008Y-89740513D01*
X87138007Y-89740513D01*
X87138015Y-89740509D01*
X87240509Y-89638015D01*
X87308477Y-89520292D01*
X87312982Y-89512489D01*
X87312982Y-89512487D01*
X87312984Y-89512485D01*
X87350500Y-89372475D01*
X87350500Y-89227525D01*
X87312984Y-89087515D01*
X87312982Y-89087512D01*
X87312982Y-89087510D01*
X87240512Y-88961989D01*
X87240510Y-88961987D01*
X87240509Y-88961985D01*
X87138015Y-88859491D01*
X87138012Y-88859489D01*
X87138010Y-88859487D01*
X87110918Y-88843845D01*
X87069978Y-88798375D01*
X87063584Y-88737525D01*
X87090415Y-88688108D01*
X87140509Y-88638015D01*
X87144660Y-88630825D01*
X87212982Y-88512489D01*
X87212982Y-88512487D01*
X87212984Y-88512485D01*
X87250500Y-88372475D01*
X87250500Y-88227525D01*
X87212984Y-88087515D01*
X87212982Y-88087512D01*
X87212982Y-88087510D01*
X87140512Y-87961989D01*
X87140510Y-87961987D01*
X87140509Y-87961985D01*
X87038015Y-87859491D01*
X87038012Y-87859489D01*
X87038010Y-87859487D01*
X86912488Y-87787017D01*
X86912489Y-87787017D01*
X86809761Y-87759491D01*
X86772475Y-87749500D01*
X86627525Y-87749500D01*
X86590239Y-87759491D01*
X86487510Y-87787017D01*
X86361989Y-87859487D01*
X86259487Y-87961989D01*
X86187017Y-88087510D01*
X86178530Y-88119185D01*
X86149500Y-88227525D01*
X83282650Y-88227525D01*
X83212488Y-88187017D01*
X83212489Y-88187017D01*
X83182896Y-88179087D01*
X83072475Y-88149500D01*
X82927525Y-88149500D01*
X82865790Y-88166041D01*
X82787510Y-88187017D01*
X82661989Y-88259487D01*
X82559487Y-88361989D01*
X82487017Y-88487510D01*
X82460222Y-88587510D01*
X82449500Y-88627525D01*
X82449500Y-88772475D01*
X82464173Y-88827235D01*
X82487017Y-88912489D01*
X82559487Y-89038010D01*
X82559489Y-89038012D01*
X82559491Y-89038015D01*
X82581020Y-89059544D01*
X82608796Y-89114059D01*
X82599225Y-89174491D01*
X82560516Y-89215282D01*
X82431987Y-89289489D01*
X82329487Y-89391989D01*
X82257017Y-89517510D01*
X82245100Y-89561985D01*
X82219500Y-89657525D01*
X72195670Y-89657525D01*
X72140512Y-89561989D01*
X72140510Y-89561987D01*
X72140509Y-89561985D01*
X72038015Y-89459491D01*
X72038012Y-89459489D01*
X72038010Y-89459487D01*
X71912488Y-89387017D01*
X71912489Y-89387017D01*
X71858214Y-89372474D01*
X71772475Y-89349500D01*
X71627525Y-89349500D01*
X71581987Y-89361702D01*
X71487510Y-89387017D01*
X71361989Y-89459487D01*
X71259487Y-89561989D01*
X71187017Y-89687510D01*
X71184884Y-89695470D01*
X71149500Y-89827525D01*
X64300499Y-89827525D01*
X64300499Y-88955136D01*
X64297585Y-88930009D01*
X64252206Y-88827235D01*
X64172765Y-88747794D01*
X64069991Y-88702415D01*
X64069990Y-88702414D01*
X64069988Y-88702414D01*
X64044868Y-88699500D01*
X61955139Y-88699500D01*
X61955136Y-88699501D01*
X61930009Y-88702414D01*
X61827235Y-88747794D01*
X61747794Y-88827235D01*
X61702414Y-88930011D01*
X61699500Y-88955130D01*
X58694404Y-88955130D01*
X58601613Y-88887714D01*
X58601609Y-88887712D01*
X58419219Y-88794780D01*
X58224529Y-88731521D01*
X58022355Y-88699500D01*
X58022352Y-88699500D01*
X57817648Y-88699500D01*
X57817645Y-88699500D01*
X57615470Y-88731521D01*
X57420780Y-88794780D01*
X57238390Y-88887712D01*
X57238386Y-88887714D01*
X57072786Y-89008029D01*
X56928029Y-89152786D01*
X56807714Y-89318386D01*
X56807712Y-89318390D01*
X56714780Y-89500780D01*
X56651521Y-89695470D01*
X56619500Y-89897644D01*
X54139994Y-89897644D01*
X54107991Y-89695587D01*
X54044756Y-89500972D01*
X53951858Y-89318647D01*
X53919475Y-89274078D01*
X53363787Y-89829765D01*
X53352518Y-89787708D01*
X53280110Y-89662292D01*
X53177708Y-89559890D01*
X53052292Y-89487482D01*
X53010232Y-89476212D01*
X53565920Y-88920524D01*
X53565920Y-88920523D01*
X53521353Y-88888143D01*
X53521348Y-88888139D01*
X53339027Y-88795243D01*
X53144412Y-88732008D01*
X52942315Y-88700000D01*
X52737685Y-88700000D01*
X52535587Y-88732008D01*
X52340972Y-88795243D01*
X52158651Y-88888139D01*
X52158647Y-88888141D01*
X52114078Y-88920523D01*
X52669767Y-89476212D01*
X52627708Y-89487482D01*
X52502292Y-89559890D01*
X52399890Y-89662292D01*
X52327482Y-89787708D01*
X52316212Y-89829767D01*
X51760523Y-89274078D01*
X51728141Y-89318647D01*
X51728139Y-89318651D01*
X51635243Y-89500972D01*
X51572008Y-89695587D01*
X51540000Y-89897684D01*
X49000500Y-89897684D01*
X49000500Y-88127525D01*
X71449500Y-88127525D01*
X71449500Y-88272475D01*
X71476295Y-88372474D01*
X71487017Y-88412489D01*
X71559487Y-88538010D01*
X71559489Y-88538012D01*
X71559491Y-88538015D01*
X71661985Y-88640509D01*
X71661987Y-88640510D01*
X71661989Y-88640512D01*
X71787511Y-88712982D01*
X71787512Y-88712982D01*
X71787515Y-88712984D01*
X71927525Y-88750500D01*
X71927526Y-88750500D01*
X72072474Y-88750500D01*
X72072475Y-88750500D01*
X72158218Y-88727525D01*
X76749500Y-88727525D01*
X76749500Y-88872475D01*
X76776295Y-88972474D01*
X76787017Y-89012489D01*
X76859487Y-89138010D01*
X76859489Y-89138012D01*
X76859491Y-89138015D01*
X76961985Y-89240509D01*
X76961987Y-89240510D01*
X76961989Y-89240512D01*
X77087511Y-89312982D01*
X77087512Y-89312982D01*
X77087515Y-89312984D01*
X77227525Y-89350500D01*
X77227526Y-89350500D01*
X77372474Y-89350500D01*
X77372475Y-89350500D01*
X77512485Y-89312984D01*
X77512487Y-89312982D01*
X77512489Y-89312982D01*
X77638010Y-89240512D01*
X77638010Y-89240511D01*
X77638015Y-89240509D01*
X77740509Y-89138015D01*
X77754340Y-89114059D01*
X77812982Y-89012489D01*
X77812982Y-89012487D01*
X77812984Y-89012485D01*
X77850500Y-88872475D01*
X77850500Y-88827525D01*
X78249500Y-88827525D01*
X78249500Y-88972474D01*
X78287017Y-89112489D01*
X78359487Y-89238010D01*
X78359489Y-89238012D01*
X78359491Y-89238015D01*
X78461985Y-89340509D01*
X78461987Y-89340510D01*
X78461989Y-89340512D01*
X78587511Y-89412982D01*
X78587512Y-89412982D01*
X78587515Y-89412984D01*
X78727525Y-89450500D01*
X78727526Y-89450500D01*
X78872474Y-89450500D01*
X78872475Y-89450500D01*
X79012485Y-89412984D01*
X79012487Y-89412982D01*
X79012489Y-89412982D01*
X79138010Y-89340512D01*
X79138010Y-89340511D01*
X79138015Y-89340509D01*
X79240509Y-89238015D01*
X79240512Y-89238010D01*
X79312982Y-89112489D01*
X79312982Y-89112487D01*
X79312984Y-89112485D01*
X79350500Y-88972475D01*
X79350500Y-88827525D01*
X79649500Y-88827525D01*
X79649500Y-88972474D01*
X79687017Y-89112489D01*
X79759487Y-89238010D01*
X79759489Y-89238012D01*
X79759491Y-89238015D01*
X79861985Y-89340509D01*
X79861987Y-89340510D01*
X79861989Y-89340512D01*
X79987511Y-89412982D01*
X79987512Y-89412982D01*
X79987515Y-89412984D01*
X80127525Y-89450500D01*
X80127526Y-89450500D01*
X80272474Y-89450500D01*
X80272475Y-89450500D01*
X80412485Y-89412984D01*
X80412487Y-89412982D01*
X80412489Y-89412982D01*
X80538010Y-89340512D01*
X80538010Y-89340511D01*
X80538015Y-89340509D01*
X80640509Y-89238015D01*
X80640512Y-89238010D01*
X80712982Y-89112489D01*
X80712982Y-89112487D01*
X80712984Y-89112485D01*
X80750500Y-88972475D01*
X80750500Y-88827525D01*
X80949500Y-88827525D01*
X80949500Y-88972474D01*
X80987017Y-89112489D01*
X81059487Y-89238010D01*
X81059489Y-89238012D01*
X81059491Y-89238015D01*
X81161985Y-89340509D01*
X81161987Y-89340510D01*
X81161989Y-89340512D01*
X81287511Y-89412982D01*
X81287512Y-89412982D01*
X81287515Y-89412984D01*
X81427525Y-89450500D01*
X81427526Y-89450500D01*
X81572474Y-89450500D01*
X81572475Y-89450500D01*
X81712485Y-89412984D01*
X81712487Y-89412982D01*
X81712489Y-89412982D01*
X81838010Y-89340512D01*
X81838010Y-89340511D01*
X81838015Y-89340509D01*
X81940509Y-89238015D01*
X81940512Y-89238010D01*
X82012982Y-89112489D01*
X82012982Y-89112487D01*
X82012984Y-89112485D01*
X82050500Y-88972475D01*
X82050500Y-88827525D01*
X82012984Y-88687515D01*
X82012982Y-88687512D01*
X82012982Y-88687510D01*
X81940512Y-88561989D01*
X81940510Y-88561987D01*
X81940509Y-88561985D01*
X81838015Y-88459491D01*
X81838012Y-88459489D01*
X81838010Y-88459487D01*
X81712488Y-88387017D01*
X81712489Y-88387017D01*
X81658214Y-88372474D01*
X81572475Y-88349500D01*
X81427525Y-88349500D01*
X81380931Y-88361985D01*
X81287510Y-88387017D01*
X81161989Y-88459487D01*
X81059487Y-88561989D01*
X80987017Y-88687510D01*
X80949500Y-88827525D01*
X80750500Y-88827525D01*
X80712984Y-88687515D01*
X80712982Y-88687512D01*
X80712982Y-88687510D01*
X80640512Y-88561989D01*
X80640510Y-88561987D01*
X80640509Y-88561985D01*
X80538015Y-88459491D01*
X80538012Y-88459489D01*
X80538010Y-88459487D01*
X80412488Y-88387017D01*
X80412489Y-88387017D01*
X80358214Y-88372474D01*
X80272475Y-88349500D01*
X80127525Y-88349500D01*
X80080931Y-88361985D01*
X79987510Y-88387017D01*
X79861989Y-88459487D01*
X79759487Y-88561989D01*
X79687017Y-88687510D01*
X79649500Y-88827525D01*
X79350500Y-88827525D01*
X79312984Y-88687515D01*
X79312982Y-88687512D01*
X79312982Y-88687510D01*
X79240512Y-88561989D01*
X79240510Y-88561987D01*
X79240509Y-88561985D01*
X79138015Y-88459491D01*
X79138012Y-88459489D01*
X79138010Y-88459487D01*
X79012488Y-88387017D01*
X79012489Y-88387017D01*
X78958214Y-88372474D01*
X78872475Y-88349500D01*
X78727525Y-88349500D01*
X78680931Y-88361985D01*
X78587510Y-88387017D01*
X78461989Y-88459487D01*
X78359487Y-88561989D01*
X78287017Y-88687510D01*
X78249500Y-88827525D01*
X77850500Y-88827525D01*
X77850500Y-88727525D01*
X77812984Y-88587515D01*
X77812982Y-88587512D01*
X77812982Y-88587510D01*
X77740512Y-88461989D01*
X77740510Y-88461987D01*
X77740509Y-88461985D01*
X77638015Y-88359491D01*
X77638012Y-88359489D01*
X77638010Y-88359487D01*
X77512488Y-88287017D01*
X77512489Y-88287017D01*
X77409761Y-88259491D01*
X77372475Y-88249500D01*
X77227525Y-88249500D01*
X77190239Y-88259491D01*
X77087510Y-88287017D01*
X76961989Y-88359487D01*
X76859487Y-88461989D01*
X76787017Y-88587510D01*
X76756228Y-88702415D01*
X76749500Y-88727525D01*
X72158218Y-88727525D01*
X72212485Y-88712984D01*
X72212487Y-88712982D01*
X72212489Y-88712982D01*
X72338008Y-88640513D01*
X72338007Y-88640513D01*
X72338015Y-88640509D01*
X72440509Y-88538015D01*
X72440512Y-88538010D01*
X72512982Y-88412489D01*
X72512982Y-88412487D01*
X72512984Y-88412485D01*
X72550500Y-88272475D01*
X72550500Y-88127525D01*
X72512984Y-87987515D01*
X72512982Y-87987512D01*
X72512982Y-87987510D01*
X72440512Y-87861989D01*
X72440510Y-87861987D01*
X72440509Y-87861985D01*
X72338015Y-87759491D01*
X72338012Y-87759489D01*
X72338010Y-87759487D01*
X72212488Y-87687017D01*
X72212489Y-87687017D01*
X72160110Y-87672982D01*
X72072475Y-87649500D01*
X71927525Y-87649500D01*
X71865790Y-87666041D01*
X71787510Y-87687017D01*
X71661989Y-87759487D01*
X71559487Y-87861989D01*
X71487017Y-87987510D01*
X71470139Y-88050500D01*
X71449500Y-88127525D01*
X49000500Y-88127525D01*
X49000500Y-87327525D01*
X68849500Y-87327525D01*
X68849500Y-87472475D01*
X68858618Y-87506503D01*
X68887017Y-87612489D01*
X68959487Y-87738010D01*
X68959489Y-87738012D01*
X68959491Y-87738015D01*
X69061985Y-87840509D01*
X69061987Y-87840510D01*
X69061989Y-87840512D01*
X69187511Y-87912982D01*
X69187512Y-87912982D01*
X69187515Y-87912984D01*
X69327525Y-87950500D01*
X69327526Y-87950500D01*
X69472474Y-87950500D01*
X69472475Y-87950500D01*
X69612485Y-87912984D01*
X69612487Y-87912982D01*
X69612489Y-87912982D01*
X69738010Y-87840512D01*
X69738010Y-87840511D01*
X69738015Y-87840509D01*
X69840509Y-87738015D01*
X69840512Y-87738010D01*
X69912982Y-87612489D01*
X69912982Y-87612487D01*
X69912984Y-87612485D01*
X69950500Y-87472475D01*
X69950500Y-87327525D01*
X69912984Y-87187515D01*
X69912982Y-87187512D01*
X69912982Y-87187510D01*
X69880088Y-87130536D01*
X69855255Y-87087525D01*
X74549500Y-87087525D01*
X74549500Y-87232474D01*
X74587017Y-87372489D01*
X74659487Y-87498010D01*
X74659489Y-87498012D01*
X74659491Y-87498015D01*
X74761985Y-87600509D01*
X74761987Y-87600510D01*
X74761989Y-87600512D01*
X74887511Y-87672982D01*
X74887512Y-87672982D01*
X74887515Y-87672984D01*
X75027525Y-87710500D01*
X75027526Y-87710500D01*
X75172474Y-87710500D01*
X75172475Y-87710500D01*
X75312485Y-87672984D01*
X75312487Y-87672982D01*
X75312489Y-87672982D01*
X75438010Y-87600512D01*
X75438010Y-87600511D01*
X75438015Y-87600509D01*
X75540509Y-87498015D01*
X75612984Y-87372485D01*
X75650500Y-87232475D01*
X75650500Y-87087525D01*
X75612984Y-86947515D01*
X75612982Y-86947512D01*
X75612982Y-86947510D01*
X75540512Y-86821989D01*
X75540510Y-86821987D01*
X75540509Y-86821985D01*
X75438015Y-86719491D01*
X75438012Y-86719489D01*
X75438010Y-86719487D01*
X75312488Y-86647017D01*
X75312489Y-86647017D01*
X75282896Y-86639087D01*
X75172475Y-86609500D01*
X75027525Y-86609500D01*
X75014523Y-86612984D01*
X74887510Y-86647017D01*
X74761989Y-86719487D01*
X74659487Y-86821989D01*
X74587017Y-86947510D01*
X74549500Y-87087525D01*
X69855255Y-87087525D01*
X69840512Y-87061989D01*
X69840510Y-87061987D01*
X69840509Y-87061985D01*
X69738015Y-86959491D01*
X69738012Y-86959489D01*
X69738010Y-86959487D01*
X69612488Y-86887017D01*
X69612489Y-86887017D01*
X69582896Y-86879087D01*
X69472475Y-86849500D01*
X69327525Y-86849500D01*
X69265790Y-86866041D01*
X69187510Y-86887017D01*
X69061989Y-86959487D01*
X68959487Y-87061989D01*
X68887017Y-87187510D01*
X68875709Y-87229711D01*
X68849500Y-87327525D01*
X49000500Y-87327525D01*
X49000500Y-86027525D01*
X70949500Y-86027525D01*
X70949500Y-86172475D01*
X70976295Y-86272474D01*
X70987017Y-86312489D01*
X71059487Y-86438010D01*
X71059489Y-86438012D01*
X71059491Y-86438015D01*
X71161985Y-86540509D01*
X71161987Y-86540510D01*
X71161989Y-86540512D01*
X71287511Y-86612982D01*
X71287512Y-86612982D01*
X71287515Y-86612984D01*
X71427525Y-86650500D01*
X71427526Y-86650500D01*
X71572474Y-86650500D01*
X71572475Y-86650500D01*
X71712485Y-86612984D01*
X71712487Y-86612982D01*
X71712489Y-86612982D01*
X71838010Y-86540512D01*
X71838010Y-86540511D01*
X71838015Y-86540509D01*
X71940509Y-86438015D01*
X71941600Y-86436126D01*
X72012982Y-86312489D01*
X72012982Y-86312487D01*
X72012984Y-86312485D01*
X72050500Y-86172475D01*
X72050500Y-86127525D01*
X76849500Y-86127525D01*
X76849500Y-86272474D01*
X76887017Y-86412489D01*
X76959487Y-86538010D01*
X76959489Y-86538012D01*
X76959491Y-86538015D01*
X77061985Y-86640509D01*
X77061987Y-86640510D01*
X77061989Y-86640512D01*
X77187511Y-86712982D01*
X77187512Y-86712982D01*
X77187515Y-86712984D01*
X77327525Y-86750500D01*
X77327526Y-86750500D01*
X77472474Y-86750500D01*
X77472475Y-86750500D01*
X77612485Y-86712984D01*
X77612487Y-86712982D01*
X77612489Y-86712982D01*
X77738010Y-86640512D01*
X77738010Y-86640511D01*
X77738015Y-86640509D01*
X77840509Y-86538015D01*
X77896803Y-86440512D01*
X77912982Y-86412489D01*
X77912982Y-86412487D01*
X77912984Y-86412485D01*
X77950500Y-86272475D01*
X77950500Y-86127525D01*
X77912984Y-85987515D01*
X77912982Y-85987512D01*
X77912982Y-85987510D01*
X77903182Y-85970536D01*
X77878349Y-85927525D01*
X86149500Y-85927525D01*
X86149500Y-86072474D01*
X86187017Y-86212489D01*
X86259487Y-86338010D01*
X86259489Y-86338012D01*
X86259491Y-86338015D01*
X86361985Y-86440509D01*
X86361987Y-86440510D01*
X86361989Y-86440512D01*
X86487511Y-86512982D01*
X86487512Y-86512982D01*
X86487515Y-86512984D01*
X86627525Y-86550500D01*
X86627526Y-86550500D01*
X86772474Y-86550500D01*
X86772475Y-86550500D01*
X86912485Y-86512984D01*
X86912487Y-86512982D01*
X86912489Y-86512982D01*
X87038010Y-86440512D01*
X87038010Y-86440511D01*
X87038015Y-86440509D01*
X87140509Y-86338015D01*
X87140512Y-86338010D01*
X87212982Y-86212489D01*
X87212982Y-86212487D01*
X87212984Y-86212485D01*
X87250500Y-86072475D01*
X87250500Y-85927525D01*
X87212984Y-85787515D01*
X87212982Y-85787512D01*
X87212982Y-85787510D01*
X87140512Y-85661989D01*
X87140510Y-85661987D01*
X87140509Y-85661985D01*
X87038015Y-85559491D01*
X87038012Y-85559489D01*
X87038010Y-85559487D01*
X86912488Y-85487017D01*
X86912489Y-85487017D01*
X86882896Y-85479087D01*
X86772475Y-85449500D01*
X86627525Y-85449500D01*
X86565790Y-85466041D01*
X86487510Y-85487017D01*
X86361989Y-85559487D01*
X86259487Y-85661989D01*
X86187017Y-85787510D01*
X86149500Y-85927525D01*
X77878349Y-85927525D01*
X77840512Y-85861989D01*
X77840510Y-85861987D01*
X77840509Y-85861985D01*
X77738015Y-85759491D01*
X77738012Y-85759489D01*
X77738010Y-85759487D01*
X77612488Y-85687017D01*
X77612489Y-85687017D01*
X77582896Y-85679087D01*
X77472475Y-85649500D01*
X77327525Y-85649500D01*
X77290239Y-85659491D01*
X77187510Y-85687017D01*
X77061989Y-85759487D01*
X76959487Y-85861989D01*
X76887017Y-85987510D01*
X76849500Y-86127525D01*
X72050500Y-86127525D01*
X72050500Y-86027525D01*
X72012984Y-85887515D01*
X72012982Y-85887511D01*
X72012982Y-85887510D01*
X71940512Y-85761989D01*
X71940510Y-85761987D01*
X71940509Y-85761985D01*
X71838015Y-85659491D01*
X71838012Y-85659489D01*
X71838010Y-85659487D01*
X71712488Y-85587017D01*
X71712489Y-85587017D01*
X71609761Y-85559491D01*
X71572475Y-85549500D01*
X71427525Y-85549500D01*
X71390239Y-85559491D01*
X71287510Y-85587017D01*
X71161989Y-85659487D01*
X71059487Y-85761989D01*
X70987017Y-85887510D01*
X70976295Y-85927525D01*
X70949500Y-86027525D01*
X49000500Y-86027525D01*
X49000500Y-85121155D01*
X90279500Y-85121155D01*
X90279500Y-85278844D01*
X90310263Y-85433496D01*
X90310263Y-85433498D01*
X90370603Y-85579174D01*
X90370609Y-85579185D01*
X90417593Y-85649500D01*
X90458211Y-85710289D01*
X90458214Y-85710292D01*
X90512918Y-85764996D01*
X90540695Y-85819513D01*
X90531124Y-85879945D01*
X90512918Y-85905004D01*
X90458214Y-85959707D01*
X90458211Y-85959711D01*
X90370609Y-86090814D01*
X90370603Y-86090825D01*
X90310263Y-86236501D01*
X90310263Y-86236503D01*
X90279500Y-86391155D01*
X90279500Y-86548844D01*
X90310263Y-86703496D01*
X90310263Y-86703498D01*
X90370603Y-86849174D01*
X90370609Y-86849185D01*
X90423312Y-86928059D01*
X90458211Y-86980289D01*
X90458214Y-86980292D01*
X90512918Y-87034996D01*
X90540695Y-87089513D01*
X90531124Y-87149945D01*
X90512918Y-87175004D01*
X90458214Y-87229707D01*
X90458211Y-87229711D01*
X90370609Y-87360814D01*
X90370603Y-87360825D01*
X90310263Y-87506501D01*
X90310263Y-87506503D01*
X90279500Y-87661155D01*
X90279500Y-87818844D01*
X90310263Y-87973496D01*
X90310263Y-87973498D01*
X90370603Y-88119174D01*
X90370609Y-88119185D01*
X90415933Y-88187016D01*
X90458211Y-88250289D01*
X90458214Y-88250292D01*
X90512918Y-88304996D01*
X90540695Y-88359513D01*
X90531124Y-88419945D01*
X90512918Y-88445004D01*
X90458214Y-88499707D01*
X90458211Y-88499711D01*
X90370609Y-88630814D01*
X90370603Y-88630825D01*
X90310263Y-88776501D01*
X90310263Y-88776503D01*
X90279500Y-88931155D01*
X90279500Y-89088844D01*
X90284516Y-89114059D01*
X90306081Y-89222475D01*
X90310263Y-89243496D01*
X90310263Y-89243498D01*
X90370603Y-89389174D01*
X90370609Y-89389185D01*
X90411245Y-89450000D01*
X90458211Y-89520289D01*
X90458214Y-89520292D01*
X90512918Y-89574996D01*
X90540695Y-89629513D01*
X90531124Y-89689945D01*
X90512918Y-89715004D01*
X90458214Y-89769707D01*
X90458211Y-89769711D01*
X90370609Y-89900814D01*
X90370603Y-89900825D01*
X90310263Y-90046501D01*
X90310263Y-90046503D01*
X90279500Y-90201155D01*
X90279500Y-90358844D01*
X90310263Y-90513496D01*
X90310263Y-90513498D01*
X90370603Y-90659174D01*
X90370609Y-90659185D01*
X90415201Y-90725920D01*
X90458211Y-90790289D01*
X90569711Y-90901789D01*
X90627660Y-90940509D01*
X90700814Y-90989390D01*
X90700825Y-90989396D01*
X90754638Y-91011685D01*
X90846503Y-91049737D01*
X91001158Y-91080500D01*
X91001159Y-91080500D01*
X91158841Y-91080500D01*
X91158842Y-91080500D01*
X91313497Y-91049737D01*
X91459179Y-90989394D01*
X91590289Y-90901789D01*
X91701789Y-90790289D01*
X91789394Y-90659179D01*
X91849737Y-90513497D01*
X91866837Y-90427525D01*
X95749500Y-90427525D01*
X95749500Y-90572474D01*
X95787017Y-90712489D01*
X95859487Y-90838010D01*
X95859489Y-90838012D01*
X95859491Y-90838015D01*
X95961985Y-90940509D01*
X95961987Y-90940510D01*
X95961989Y-90940512D01*
X96087511Y-91012982D01*
X96087512Y-91012982D01*
X96087515Y-91012984D01*
X96227525Y-91050500D01*
X96227526Y-91050500D01*
X96372474Y-91050500D01*
X96372475Y-91050500D01*
X96512485Y-91012984D01*
X96512487Y-91012982D01*
X96512489Y-91012982D01*
X96638010Y-90940512D01*
X96638010Y-90940511D01*
X96638015Y-90940509D01*
X96740509Y-90838015D01*
X96768064Y-90790288D01*
X96812982Y-90712489D01*
X96812982Y-90712487D01*
X96812984Y-90712485D01*
X96850500Y-90572475D01*
X96850500Y-90427525D01*
X96812984Y-90287515D01*
X96812982Y-90287512D01*
X96812982Y-90287510D01*
X96740512Y-90161989D01*
X96740510Y-90161987D01*
X96740509Y-90161985D01*
X96638015Y-90059491D01*
X96638012Y-90059489D01*
X96638010Y-90059487D01*
X96512488Y-89987017D01*
X96512489Y-89987017D01*
X96458214Y-89972474D01*
X96372475Y-89949500D01*
X96227525Y-89949500D01*
X96165790Y-89966041D01*
X96087510Y-89987017D01*
X95961989Y-90059487D01*
X95859487Y-90161989D01*
X95787017Y-90287510D01*
X95749500Y-90427525D01*
X91866837Y-90427525D01*
X91867162Y-90425891D01*
X91871971Y-90401721D01*
X91871971Y-90401720D01*
X91880499Y-90358845D01*
X91880500Y-90358844D01*
X91880500Y-90358842D01*
X91880500Y-90201158D01*
X91849737Y-90046503D01*
X91819074Y-89972475D01*
X91789396Y-89900825D01*
X91789390Y-89900814D01*
X91730703Y-89812984D01*
X91701789Y-89769711D01*
X91701784Y-89769706D01*
X91701781Y-89769702D01*
X91647082Y-89715004D01*
X91619304Y-89660488D01*
X91628875Y-89600056D01*
X91647082Y-89574996D01*
X91701781Y-89520297D01*
X91701789Y-89520289D01*
X91789394Y-89389179D01*
X91849737Y-89243497D01*
X91880500Y-89088842D01*
X91880500Y-88931158D01*
X91849737Y-88776503D01*
X91792372Y-88638010D01*
X91789396Y-88630825D01*
X91789390Y-88630814D01*
X91743399Y-88561985D01*
X91701789Y-88499711D01*
X91701784Y-88499706D01*
X91701781Y-88499702D01*
X91647082Y-88445004D01*
X91619304Y-88390488D01*
X91628875Y-88330056D01*
X91647082Y-88304996D01*
X91701781Y-88250297D01*
X91701789Y-88250289D01*
X91789394Y-88119179D01*
X91849737Y-87973497D01*
X91880500Y-87818842D01*
X91880500Y-87661158D01*
X91849737Y-87506503D01*
X91829622Y-87457942D01*
X91817023Y-87427525D01*
X92049500Y-87427525D01*
X92049500Y-87572475D01*
X92076521Y-87673317D01*
X92087017Y-87712489D01*
X92159487Y-87838010D01*
X92159489Y-87838012D01*
X92159491Y-87838015D01*
X92261985Y-87940509D01*
X92261987Y-87940510D01*
X92261989Y-87940512D01*
X92387511Y-88012982D01*
X92387512Y-88012982D01*
X92387515Y-88012984D01*
X92527525Y-88050500D01*
X92527526Y-88050500D01*
X92672474Y-88050500D01*
X92672475Y-88050500D01*
X92812485Y-88012984D01*
X92812487Y-88012982D01*
X92812489Y-88012982D01*
X92938010Y-87940512D01*
X92938010Y-87940511D01*
X92938015Y-87940509D01*
X93040509Y-87838015D01*
X93040512Y-87838010D01*
X93112982Y-87712489D01*
X93112982Y-87712487D01*
X93112984Y-87712485D01*
X93150500Y-87572475D01*
X93150500Y-87427525D01*
X93112984Y-87287515D01*
X93112982Y-87287512D01*
X93112982Y-87287510D01*
X93040512Y-87161989D01*
X93040510Y-87161987D01*
X93040509Y-87161985D01*
X92938015Y-87059491D01*
X92938012Y-87059489D01*
X92938010Y-87059487D01*
X92812488Y-86987017D01*
X92812489Y-86987017D01*
X92709761Y-86959491D01*
X92672475Y-86949500D01*
X92527525Y-86949500D01*
X92490239Y-86959491D01*
X92387510Y-86987017D01*
X92261989Y-87059487D01*
X92159487Y-87161989D01*
X92087017Y-87287510D01*
X92087016Y-87287515D01*
X92049500Y-87427525D01*
X91817023Y-87427525D01*
X91789396Y-87360825D01*
X91789390Y-87360814D01*
X91740409Y-87287510D01*
X91701789Y-87229711D01*
X91701784Y-87229706D01*
X91701781Y-87229702D01*
X91647082Y-87175004D01*
X91619304Y-87120488D01*
X91628875Y-87060056D01*
X91647082Y-87034996D01*
X91701781Y-86980297D01*
X91701789Y-86980289D01*
X91789394Y-86849179D01*
X91849737Y-86703497D01*
X91880500Y-86548842D01*
X91880500Y-86496394D01*
X91899407Y-86438203D01*
X91948907Y-86402239D01*
X92010093Y-86402239D01*
X92054620Y-86433708D01*
X92054903Y-86433426D01*
X92056545Y-86435068D01*
X92058042Y-86436126D01*
X92059489Y-86438012D01*
X92059491Y-86438015D01*
X92161985Y-86540509D01*
X92161987Y-86540510D01*
X92161989Y-86540512D01*
X92287511Y-86612982D01*
X92287512Y-86612982D01*
X92287515Y-86612984D01*
X92427525Y-86650500D01*
X92427526Y-86650500D01*
X92572474Y-86650500D01*
X92572475Y-86650500D01*
X92712485Y-86612984D01*
X92712487Y-86612982D01*
X92712489Y-86612982D01*
X92838010Y-86540512D01*
X92838010Y-86540511D01*
X92838015Y-86540509D01*
X92940509Y-86438015D01*
X92941600Y-86436126D01*
X93012982Y-86312489D01*
X93012982Y-86312487D01*
X93012984Y-86312485D01*
X93050500Y-86172475D01*
X93050500Y-86027525D01*
X93012984Y-85887515D01*
X93012982Y-85887511D01*
X93012982Y-85887510D01*
X92940512Y-85761989D01*
X92940510Y-85761987D01*
X92940509Y-85761985D01*
X92838015Y-85659491D01*
X92838012Y-85659489D01*
X92838010Y-85659487D01*
X92712488Y-85587017D01*
X92712489Y-85587017D01*
X92609761Y-85559491D01*
X92572475Y-85549500D01*
X92427525Y-85549500D01*
X92390239Y-85559491D01*
X92287510Y-85587017D01*
X92161989Y-85659487D01*
X92059487Y-85761989D01*
X91987017Y-85887511D01*
X91987015Y-85887515D01*
X91948117Y-86032681D01*
X91914793Y-86083995D01*
X91857671Y-86105921D01*
X91798571Y-86090085D01*
X91770176Y-86062059D01*
X91747101Y-86027525D01*
X91701789Y-85959711D01*
X91701784Y-85959706D01*
X91701781Y-85959702D01*
X91647082Y-85905004D01*
X91619304Y-85850488D01*
X91628875Y-85790056D01*
X91647082Y-85764996D01*
X91701781Y-85710297D01*
X91701789Y-85710289D01*
X91789394Y-85579179D01*
X91849737Y-85433497D01*
X91880500Y-85278842D01*
X91880500Y-85121158D01*
X91849737Y-84966503D01*
X91789394Y-84820821D01*
X91764056Y-84782900D01*
X91747448Y-84724012D01*
X91768626Y-84666609D01*
X91776369Y-84657895D01*
X91831785Y-84602478D01*
X91864880Y-84527525D01*
X95849500Y-84527525D01*
X95849500Y-84672475D01*
X95876394Y-84772844D01*
X95887017Y-84812489D01*
X95959487Y-84938010D01*
X95959489Y-84938012D01*
X95959491Y-84938015D01*
X96061985Y-85040509D01*
X96061987Y-85040510D01*
X96061989Y-85040512D01*
X96187511Y-85112982D01*
X96187512Y-85112982D01*
X96187515Y-85112984D01*
X96327525Y-85150500D01*
X96327526Y-85150500D01*
X96472474Y-85150500D01*
X96472475Y-85150500D01*
X96612485Y-85112984D01*
X96612487Y-85112982D01*
X96612489Y-85112982D01*
X96738010Y-85040512D01*
X96738010Y-85040511D01*
X96738015Y-85040509D01*
X96840509Y-84938015D01*
X96840512Y-84938010D01*
X96912982Y-84812489D01*
X96912982Y-84812487D01*
X96912984Y-84812485D01*
X96950500Y-84672475D01*
X96950500Y-84527525D01*
X96912984Y-84387515D01*
X96912982Y-84387512D01*
X96912982Y-84387510D01*
X96840512Y-84261989D01*
X96840510Y-84261987D01*
X96840509Y-84261985D01*
X96738015Y-84159491D01*
X96738012Y-84159489D01*
X96738010Y-84159487D01*
X96612488Y-84087017D01*
X96612489Y-84087017D01*
X96582896Y-84079087D01*
X96472475Y-84049500D01*
X96327525Y-84049500D01*
X96265790Y-84066041D01*
X96187510Y-84087017D01*
X96061989Y-84159487D01*
X95959487Y-84261989D01*
X95887017Y-84387510D01*
X95856910Y-84499872D01*
X95849500Y-84527525D01*
X91864880Y-84527525D01*
X91877090Y-84499872D01*
X91879999Y-84474797D01*
X91880000Y-84474795D01*
X91880000Y-84180001D01*
X91879999Y-84180000D01*
X91289618Y-84180000D01*
X91340064Y-84129554D01*
X91382851Y-84055445D01*
X91405000Y-83972787D01*
X91405000Y-83887213D01*
X91382851Y-83804555D01*
X91340064Y-83730446D01*
X91279554Y-83669936D01*
X91205445Y-83627149D01*
X91122787Y-83605000D01*
X91037213Y-83605000D01*
X90954555Y-83627149D01*
X90880446Y-83669936D01*
X90819936Y-83730446D01*
X90777149Y-83804555D01*
X90755000Y-83887213D01*
X90755000Y-83972787D01*
X90777149Y-84055445D01*
X90819936Y-84129554D01*
X90870382Y-84180000D01*
X90280002Y-84180000D01*
X90280001Y-84180001D01*
X90280001Y-84474791D01*
X90282909Y-84499874D01*
X90328213Y-84602477D01*
X90383631Y-84657895D01*
X90411408Y-84712412D01*
X90401837Y-84772844D01*
X90395944Y-84782899D01*
X90370604Y-84820824D01*
X90310263Y-84966501D01*
X90310263Y-84966503D01*
X90279500Y-85121155D01*
X49000500Y-85121155D01*
X49000500Y-82827525D01*
X51049500Y-82827525D01*
X51049500Y-82972475D01*
X51055662Y-82995470D01*
X51087017Y-83112489D01*
X51159487Y-83238010D01*
X51159489Y-83238012D01*
X51159491Y-83238015D01*
X51261985Y-83340509D01*
X51261987Y-83340510D01*
X51261989Y-83340512D01*
X51387511Y-83412982D01*
X51387512Y-83412982D01*
X51387515Y-83412984D01*
X51527525Y-83450500D01*
X51527526Y-83450500D01*
X51672474Y-83450500D01*
X51672475Y-83450500D01*
X51812485Y-83412984D01*
X51812487Y-83412982D01*
X51812489Y-83412982D01*
X51938010Y-83340512D01*
X51938010Y-83340511D01*
X51938015Y-83340509D01*
X52040509Y-83238015D01*
X52112984Y-83112485D01*
X52150500Y-82972475D01*
X52150500Y-82827525D01*
X52112984Y-82687515D01*
X52112982Y-82687512D01*
X52112982Y-82687510D01*
X52040512Y-82561989D01*
X52040510Y-82561987D01*
X52040509Y-82561985D01*
X51938015Y-82459491D01*
X51938012Y-82459489D01*
X51938010Y-82459487D01*
X51812488Y-82387017D01*
X51812489Y-82387017D01*
X51782896Y-82379087D01*
X51672475Y-82349500D01*
X51527525Y-82349500D01*
X51465790Y-82366041D01*
X51387510Y-82387017D01*
X51261989Y-82459487D01*
X51159487Y-82561989D01*
X51087017Y-82687510D01*
X51087016Y-82687515D01*
X51049500Y-82827525D01*
X49000500Y-82827525D01*
X49000500Y-82255130D01*
X56699500Y-82255130D01*
X56699500Y-84344860D01*
X56699501Y-84344863D01*
X56702414Y-84369990D01*
X56721090Y-84412287D01*
X56747794Y-84472765D01*
X56827235Y-84552206D01*
X56930009Y-84597585D01*
X56955135Y-84600500D01*
X59044864Y-84600499D01*
X59069991Y-84597585D01*
X59172765Y-84552206D01*
X59252206Y-84472765D01*
X59297585Y-84369991D01*
X59300500Y-84344865D01*
X59300499Y-83197644D01*
X61779500Y-83197644D01*
X61779500Y-83402355D01*
X61811521Y-83604529D01*
X61874780Y-83799219D01*
X61967712Y-83981609D01*
X61967714Y-83981613D01*
X62088029Y-84147213D01*
X62088031Y-84147215D01*
X62088034Y-84147219D01*
X62232781Y-84291966D01*
X62232784Y-84291968D01*
X62232786Y-84291970D01*
X62398386Y-84412285D01*
X62398390Y-84412287D01*
X62580781Y-84505220D01*
X62775466Y-84568477D01*
X62775467Y-84568477D01*
X62775470Y-84568478D01*
X62977645Y-84600500D01*
X62977648Y-84600500D01*
X63182355Y-84600500D01*
X63384529Y-84568478D01*
X63384530Y-84568477D01*
X63384534Y-84568477D01*
X63579219Y-84505220D01*
X63761610Y-84412287D01*
X63762201Y-84411858D01*
X63854409Y-84344865D01*
X63927219Y-84291966D01*
X64071966Y-84147219D01*
X64192287Y-83981610D01*
X64285220Y-83799219D01*
X64348477Y-83604534D01*
X64348478Y-83604529D01*
X64380500Y-83402355D01*
X64380500Y-83197684D01*
X66860000Y-83197684D01*
X66860000Y-83402315D01*
X66892008Y-83604412D01*
X66955243Y-83799027D01*
X67048139Y-83981348D01*
X67048143Y-83981353D01*
X67080523Y-84025920D01*
X67080524Y-84025920D01*
X67636212Y-83470232D01*
X67647482Y-83512292D01*
X67719890Y-83637708D01*
X67822292Y-83740110D01*
X67947708Y-83812518D01*
X67989765Y-83823787D01*
X67434078Y-84379475D01*
X67478647Y-84411858D01*
X67660972Y-84504756D01*
X67855587Y-84567991D01*
X68057685Y-84600000D01*
X68262315Y-84600000D01*
X68464412Y-84567991D01*
X68659027Y-84504756D01*
X68841342Y-84411863D01*
X68841350Y-84411858D01*
X68885920Y-84379475D01*
X68330232Y-83823787D01*
X68372292Y-83812518D01*
X68497708Y-83740110D01*
X68600110Y-83637708D01*
X68672518Y-83512292D01*
X68683787Y-83470232D01*
X69239475Y-84025920D01*
X69271858Y-83981350D01*
X69271863Y-83981342D01*
X69364756Y-83799027D01*
X69427991Y-83604412D01*
X69456007Y-83427525D01*
X70749500Y-83427525D01*
X70749500Y-83572475D01*
X70753397Y-83587017D01*
X70787017Y-83712489D01*
X70859487Y-83838010D01*
X70859489Y-83838012D01*
X70859491Y-83838015D01*
X70961985Y-83940509D01*
X70961987Y-83940510D01*
X70961989Y-83940512D01*
X71087511Y-84012982D01*
X71087512Y-84012982D01*
X71087515Y-84012984D01*
X71227525Y-84050500D01*
X71227526Y-84050500D01*
X71372474Y-84050500D01*
X71372475Y-84050500D01*
X71458218Y-84027525D01*
X76949500Y-84027525D01*
X76949500Y-84172475D01*
X76976098Y-84271739D01*
X76987017Y-84312489D01*
X77059487Y-84438010D01*
X77059489Y-84438012D01*
X77059491Y-84438015D01*
X77161985Y-84540509D01*
X77161987Y-84540510D01*
X77161989Y-84540512D01*
X77287511Y-84612982D01*
X77287512Y-84612982D01*
X77287515Y-84612984D01*
X77427525Y-84650500D01*
X77427526Y-84650500D01*
X77572474Y-84650500D01*
X77572475Y-84650500D01*
X77712485Y-84612984D01*
X77712487Y-84612982D01*
X77712489Y-84612982D01*
X77838010Y-84540512D01*
X77838010Y-84540511D01*
X77838015Y-84540509D01*
X77940509Y-84438015D01*
X77979783Y-84369991D01*
X78012982Y-84312489D01*
X78012982Y-84312487D01*
X78012984Y-84312485D01*
X78050500Y-84172475D01*
X78050500Y-84027525D01*
X78012984Y-83887515D01*
X77940509Y-83761985D01*
X77906049Y-83727525D01*
X86149500Y-83727525D01*
X86149500Y-83872475D01*
X86153530Y-83887515D01*
X86187017Y-84012489D01*
X86259487Y-84138010D01*
X86259489Y-84138012D01*
X86259491Y-84138015D01*
X86361985Y-84240509D01*
X86361987Y-84240510D01*
X86361989Y-84240512D01*
X86487511Y-84312982D01*
X86487512Y-84312982D01*
X86487515Y-84312984D01*
X86627525Y-84350500D01*
X86627526Y-84350500D01*
X86772474Y-84350500D01*
X86772475Y-84350500D01*
X86912485Y-84312984D01*
X86912487Y-84312982D01*
X86912489Y-84312982D01*
X87038010Y-84240512D01*
X87038010Y-84240511D01*
X87038015Y-84240509D01*
X87140509Y-84138015D01*
X87169953Y-84087017D01*
X87212982Y-84012489D01*
X87212982Y-84012487D01*
X87212984Y-84012485D01*
X87250500Y-83872475D01*
X87250500Y-83727525D01*
X87212984Y-83587515D01*
X87212982Y-83587512D01*
X87212982Y-83587510D01*
X87140512Y-83461989D01*
X87140510Y-83461987D01*
X87140509Y-83461985D01*
X87063726Y-83385202D01*
X90280000Y-83385202D01*
X90280000Y-83679999D01*
X90280001Y-83680000D01*
X90829999Y-83680000D01*
X90830000Y-83679999D01*
X90830000Y-83130001D01*
X91330000Y-83130001D01*
X91330000Y-83679999D01*
X91330001Y-83680000D01*
X91879998Y-83680000D01*
X91879999Y-83679999D01*
X91879999Y-83385210D01*
X91879998Y-83385208D01*
X91877090Y-83360125D01*
X91831786Y-83257522D01*
X91752477Y-83178213D01*
X91649872Y-83132909D01*
X91624797Y-83130000D01*
X91330001Y-83130000D01*
X91330000Y-83130001D01*
X90830000Y-83130001D01*
X90829999Y-83130000D01*
X90535210Y-83130000D01*
X90535207Y-83130001D01*
X90510125Y-83132909D01*
X90407522Y-83178213D01*
X90328213Y-83257522D01*
X90282909Y-83360127D01*
X90280000Y-83385202D01*
X87063726Y-83385202D01*
X87038015Y-83359491D01*
X87038012Y-83359489D01*
X87038010Y-83359487D01*
X86912488Y-83287017D01*
X86912489Y-83287017D01*
X86858214Y-83272474D01*
X86772475Y-83249500D01*
X86627525Y-83249500D01*
X86597587Y-83257522D01*
X86487510Y-83287017D01*
X86361989Y-83359487D01*
X86259487Y-83461989D01*
X86187017Y-83587510D01*
X86172816Y-83640509D01*
X86149500Y-83727525D01*
X77906049Y-83727525D01*
X77838015Y-83659491D01*
X77838012Y-83659489D01*
X77838010Y-83659487D01*
X77712488Y-83587017D01*
X77712489Y-83587017D01*
X77658214Y-83572474D01*
X77572475Y-83549500D01*
X77427525Y-83549500D01*
X77365790Y-83566041D01*
X77287510Y-83587017D01*
X77161989Y-83659487D01*
X77059487Y-83761989D01*
X76987017Y-83887510D01*
X76987016Y-83887515D01*
X76949500Y-84027525D01*
X71458218Y-84027525D01*
X71512485Y-84012984D01*
X71512487Y-84012982D01*
X71512489Y-84012982D01*
X71638008Y-83940513D01*
X71638007Y-83940513D01*
X71638015Y-83940509D01*
X71740509Y-83838015D01*
X71784403Y-83761989D01*
X71812982Y-83712489D01*
X71812982Y-83712487D01*
X71812984Y-83712485D01*
X71850500Y-83572475D01*
X71850500Y-83427525D01*
X71812984Y-83287515D01*
X71812982Y-83287512D01*
X71812982Y-83287510D01*
X71740512Y-83161989D01*
X71740510Y-83161987D01*
X71740509Y-83161985D01*
X71706049Y-83127525D01*
X97149500Y-83127525D01*
X97149500Y-83272475D01*
X97167730Y-83340509D01*
X97187017Y-83412489D01*
X97259487Y-83538010D01*
X97259489Y-83538012D01*
X97259491Y-83538015D01*
X97361985Y-83640509D01*
X97361987Y-83640510D01*
X97361989Y-83640512D01*
X97487511Y-83712982D01*
X97487512Y-83712982D01*
X97487515Y-83712984D01*
X97627525Y-83750500D01*
X97627526Y-83750500D01*
X97772474Y-83750500D01*
X97772475Y-83750500D01*
X97912485Y-83712984D01*
X97912487Y-83712982D01*
X97912489Y-83712982D01*
X98038010Y-83640512D01*
X98038010Y-83640511D01*
X98038015Y-83640509D01*
X98140509Y-83538015D01*
X98212984Y-83412485D01*
X98250500Y-83272475D01*
X98250500Y-83127525D01*
X98212984Y-82987515D01*
X98212982Y-82987512D01*
X98212982Y-82987510D01*
X98140512Y-82861989D01*
X98140510Y-82861987D01*
X98140509Y-82861985D01*
X98038015Y-82759491D01*
X98038012Y-82759489D01*
X98038010Y-82759487D01*
X97912488Y-82687017D01*
X97912489Y-82687017D01*
X97882896Y-82679087D01*
X97772475Y-82649500D01*
X97627525Y-82649500D01*
X97565790Y-82666041D01*
X97487510Y-82687017D01*
X97361989Y-82759487D01*
X97259487Y-82861989D01*
X97187017Y-82987510D01*
X97184884Y-82995470D01*
X97149500Y-83127525D01*
X71706049Y-83127525D01*
X71638015Y-83059491D01*
X71638012Y-83059489D01*
X71638010Y-83059487D01*
X71512488Y-82987017D01*
X71512489Y-82987017D01*
X71458214Y-82972474D01*
X71372475Y-82949500D01*
X71227525Y-82949500D01*
X71179785Y-82962292D01*
X71087510Y-82987017D01*
X70961989Y-83059487D01*
X70859487Y-83161989D01*
X70787017Y-83287510D01*
X70760839Y-83385208D01*
X70749500Y-83427525D01*
X69456007Y-83427525D01*
X69459487Y-83405554D01*
X69459487Y-83405552D01*
X69460000Y-83402312D01*
X69460000Y-83197684D01*
X69427991Y-82995587D01*
X69364756Y-82800972D01*
X69271858Y-82618647D01*
X69239475Y-82574078D01*
X68683787Y-83129765D01*
X68672518Y-83087708D01*
X68600110Y-82962292D01*
X68497708Y-82859890D01*
X68372292Y-82787482D01*
X68330232Y-82776212D01*
X68885920Y-82220524D01*
X68885920Y-82220523D01*
X68841353Y-82188143D01*
X68841348Y-82188139D01*
X68659027Y-82095243D01*
X68464412Y-82032008D01*
X68262315Y-82000000D01*
X68057685Y-82000000D01*
X67855587Y-82032008D01*
X67660972Y-82095243D01*
X67478651Y-82188139D01*
X67478647Y-82188141D01*
X67434078Y-82220523D01*
X67989767Y-82776212D01*
X67947708Y-82787482D01*
X67822292Y-82859890D01*
X67719890Y-82962292D01*
X67647482Y-83087708D01*
X67636212Y-83129767D01*
X67080523Y-82574078D01*
X67048141Y-82618647D01*
X67048139Y-82618651D01*
X66955243Y-82800972D01*
X66892008Y-82995587D01*
X66860000Y-83197684D01*
X64380500Y-83197684D01*
X64380500Y-83197644D01*
X64348478Y-82995470D01*
X64348477Y-82995466D01*
X64285220Y-82800781D01*
X64192287Y-82618390D01*
X64192285Y-82618386D01*
X64071970Y-82452786D01*
X64071968Y-82452784D01*
X64071966Y-82452781D01*
X63927219Y-82308034D01*
X63927215Y-82308031D01*
X63927213Y-82308029D01*
X63761613Y-82187714D01*
X63761609Y-82187712D01*
X63579219Y-82094780D01*
X63384529Y-82031521D01*
X63182355Y-81999500D01*
X63182352Y-81999500D01*
X62977648Y-81999500D01*
X62977645Y-81999500D01*
X62775470Y-82031521D01*
X62580780Y-82094780D01*
X62398390Y-82187712D01*
X62398386Y-82187714D01*
X62232786Y-82308029D01*
X62088029Y-82452786D01*
X61967714Y-82618386D01*
X61967712Y-82618390D01*
X61874780Y-82800780D01*
X61811521Y-82995470D01*
X61779500Y-83197644D01*
X59300499Y-83197644D01*
X59300499Y-82255136D01*
X59297585Y-82230009D01*
X59252206Y-82127235D01*
X59172765Y-82047794D01*
X59069991Y-82002415D01*
X59069990Y-82002414D01*
X59069988Y-82002414D01*
X59044868Y-81999500D01*
X56955139Y-81999500D01*
X56955136Y-81999501D01*
X56930009Y-82002414D01*
X56827235Y-82047794D01*
X56747794Y-82127235D01*
X56702414Y-82230011D01*
X56699500Y-82255130D01*
X49000500Y-82255130D01*
X49000500Y-81827525D01*
X76949500Y-81827525D01*
X76949500Y-81972475D01*
X76960221Y-82012485D01*
X76987017Y-82112489D01*
X77059487Y-82238010D01*
X77059489Y-82238012D01*
X77059491Y-82238015D01*
X77161985Y-82340509D01*
X77161987Y-82340510D01*
X77161989Y-82340512D01*
X77287511Y-82412982D01*
X77287512Y-82412982D01*
X77287515Y-82412984D01*
X77427525Y-82450500D01*
X77427526Y-82450500D01*
X77572474Y-82450500D01*
X77572475Y-82450500D01*
X77712485Y-82412984D01*
X77712487Y-82412982D01*
X77712489Y-82412982D01*
X77838010Y-82340512D01*
X77838010Y-82340511D01*
X77838015Y-82340509D01*
X77940509Y-82238015D01*
X77945131Y-82230009D01*
X78012982Y-82112489D01*
X78012982Y-82112487D01*
X78012984Y-82112485D01*
X78050500Y-81972475D01*
X78050500Y-81827525D01*
X79049500Y-81827525D01*
X79049500Y-81972475D01*
X79060221Y-82012485D01*
X79087017Y-82112489D01*
X79159487Y-82238010D01*
X79159489Y-82238012D01*
X79159491Y-82238015D01*
X79261985Y-82340509D01*
X79261987Y-82340510D01*
X79261989Y-82340512D01*
X79387511Y-82412982D01*
X79387512Y-82412982D01*
X79387515Y-82412984D01*
X79527525Y-82450500D01*
X79527526Y-82450500D01*
X79672474Y-82450500D01*
X79672475Y-82450500D01*
X79812485Y-82412984D01*
X79812487Y-82412982D01*
X79812489Y-82412982D01*
X79938010Y-82340512D01*
X79938010Y-82340511D01*
X79938015Y-82340509D01*
X80040509Y-82238015D01*
X80045131Y-82230009D01*
X80112982Y-82112489D01*
X80112982Y-82112487D01*
X80112984Y-82112485D01*
X80150500Y-81972475D01*
X80150500Y-81827525D01*
X80123705Y-81727525D01*
X81449500Y-81727525D01*
X81449500Y-81872474D01*
X81487017Y-82012489D01*
X81559487Y-82138010D01*
X81559489Y-82138012D01*
X81559491Y-82138015D01*
X81661985Y-82240509D01*
X81661987Y-82240510D01*
X81661989Y-82240512D01*
X81787511Y-82312982D01*
X81787512Y-82312982D01*
X81787515Y-82312984D01*
X81927525Y-82350500D01*
X81927526Y-82350500D01*
X82072474Y-82350500D01*
X82072475Y-82350500D01*
X82212485Y-82312984D01*
X82212487Y-82312982D01*
X82212489Y-82312982D01*
X82338010Y-82240512D01*
X82338010Y-82240511D01*
X82338015Y-82240509D01*
X82440509Y-82138015D01*
X82446733Y-82127235D01*
X82512982Y-82012489D01*
X82512982Y-82012487D01*
X82512984Y-82012485D01*
X82550500Y-81872475D01*
X82550500Y-81727525D01*
X83949500Y-81727525D01*
X83949500Y-81872474D01*
X83987017Y-82012489D01*
X84059487Y-82138010D01*
X84059489Y-82138012D01*
X84059491Y-82138015D01*
X84161985Y-82240509D01*
X84161987Y-82240510D01*
X84161989Y-82240512D01*
X84287511Y-82312982D01*
X84287512Y-82312982D01*
X84287515Y-82312984D01*
X84427525Y-82350500D01*
X84427526Y-82350500D01*
X84572474Y-82350500D01*
X84572475Y-82350500D01*
X84712485Y-82312984D01*
X84712487Y-82312982D01*
X84712489Y-82312982D01*
X84838010Y-82240512D01*
X84838010Y-82240511D01*
X84838015Y-82240509D01*
X84940509Y-82138015D01*
X84946733Y-82127235D01*
X85012982Y-82012489D01*
X85012982Y-82012487D01*
X85012984Y-82012485D01*
X85050500Y-81872475D01*
X85050500Y-81727525D01*
X86149500Y-81727525D01*
X86149500Y-81872474D01*
X86187017Y-82012489D01*
X86259487Y-82138010D01*
X86259489Y-82138012D01*
X86259491Y-82138015D01*
X86361985Y-82240509D01*
X86361987Y-82240510D01*
X86361989Y-82240512D01*
X86487511Y-82312982D01*
X86487512Y-82312982D01*
X86487515Y-82312984D01*
X86627525Y-82350500D01*
X86627526Y-82350500D01*
X86772474Y-82350500D01*
X86772475Y-82350500D01*
X86912485Y-82312984D01*
X86912487Y-82312982D01*
X86912489Y-82312982D01*
X87038010Y-82240512D01*
X87038010Y-82240511D01*
X87038015Y-82240509D01*
X87140509Y-82138015D01*
X87146733Y-82127235D01*
X87212982Y-82012489D01*
X87212982Y-82012487D01*
X87212984Y-82012485D01*
X87250500Y-81872475D01*
X87250500Y-81727525D01*
X87212984Y-81587515D01*
X87212982Y-81587512D01*
X87212982Y-81587510D01*
X87140512Y-81461989D01*
X87140510Y-81461987D01*
X87140509Y-81461985D01*
X87038015Y-81359491D01*
X87038012Y-81359489D01*
X87038010Y-81359487D01*
X86912488Y-81287017D01*
X86912489Y-81287017D01*
X86882896Y-81279087D01*
X86772475Y-81249500D01*
X86627525Y-81249500D01*
X86565790Y-81266041D01*
X86487510Y-81287017D01*
X86361989Y-81359487D01*
X86259487Y-81461989D01*
X86187017Y-81587510D01*
X86149500Y-81727525D01*
X85050500Y-81727525D01*
X85012984Y-81587515D01*
X85012982Y-81587512D01*
X85012982Y-81587510D01*
X84940512Y-81461989D01*
X84940510Y-81461987D01*
X84940509Y-81461985D01*
X84838015Y-81359491D01*
X84838012Y-81359489D01*
X84838010Y-81359487D01*
X84712488Y-81287017D01*
X84712489Y-81287017D01*
X84682896Y-81279087D01*
X84572475Y-81249500D01*
X84427525Y-81249500D01*
X84365790Y-81266041D01*
X84287510Y-81287017D01*
X84161989Y-81359487D01*
X84059487Y-81461989D01*
X83987017Y-81587510D01*
X83949500Y-81727525D01*
X82550500Y-81727525D01*
X82512984Y-81587515D01*
X82512982Y-81587512D01*
X82512982Y-81587510D01*
X82440512Y-81461989D01*
X82440510Y-81461987D01*
X82440509Y-81461985D01*
X82338015Y-81359491D01*
X82338012Y-81359489D01*
X82338010Y-81359487D01*
X82212488Y-81287017D01*
X82212489Y-81287017D01*
X82182896Y-81279087D01*
X82072475Y-81249500D01*
X81927525Y-81249500D01*
X81865790Y-81266041D01*
X81787510Y-81287017D01*
X81661989Y-81359487D01*
X81559487Y-81461989D01*
X81487017Y-81587510D01*
X81449500Y-81727525D01*
X80123705Y-81727525D01*
X80112984Y-81687515D01*
X80112982Y-81687512D01*
X80112982Y-81687510D01*
X80040512Y-81561989D01*
X80040510Y-81561987D01*
X80040509Y-81561985D01*
X79938015Y-81459491D01*
X79938012Y-81459489D01*
X79938010Y-81459487D01*
X79812488Y-81387017D01*
X79812489Y-81387017D01*
X79709761Y-81359491D01*
X79672475Y-81349500D01*
X79527525Y-81349500D01*
X79490239Y-81359491D01*
X79387510Y-81387017D01*
X79261989Y-81459487D01*
X79159487Y-81561989D01*
X79087017Y-81687510D01*
X79049501Y-81827522D01*
X79049500Y-81827525D01*
X78050500Y-81827525D01*
X78012984Y-81687515D01*
X78012982Y-81687512D01*
X78012982Y-81687510D01*
X77940512Y-81561989D01*
X77940510Y-81561987D01*
X77940509Y-81561985D01*
X77838015Y-81459491D01*
X77838012Y-81459489D01*
X77838010Y-81459487D01*
X77712488Y-81387017D01*
X77712489Y-81387017D01*
X77609761Y-81359491D01*
X77572475Y-81349500D01*
X77427525Y-81349500D01*
X77390239Y-81359491D01*
X77287510Y-81387017D01*
X77161989Y-81459487D01*
X77059487Y-81561989D01*
X76987017Y-81687510D01*
X76949501Y-81827522D01*
X76949500Y-81827525D01*
X49000500Y-81827525D01*
X49000500Y-80827525D01*
X74049500Y-80827525D01*
X74049500Y-80972474D01*
X74087017Y-81112489D01*
X74159487Y-81238010D01*
X74159489Y-81238012D01*
X74159491Y-81238015D01*
X74261985Y-81340509D01*
X74261987Y-81340510D01*
X74261989Y-81340512D01*
X74387511Y-81412982D01*
X74387512Y-81412982D01*
X74387515Y-81412984D01*
X74527525Y-81450500D01*
X74527526Y-81450500D01*
X74672474Y-81450500D01*
X74672475Y-81450500D01*
X74812485Y-81412984D01*
X74812487Y-81412982D01*
X74812489Y-81412982D01*
X74938010Y-81340512D01*
X74938010Y-81340511D01*
X74938015Y-81340509D01*
X75040509Y-81238015D01*
X75112984Y-81112485D01*
X75150500Y-80972475D01*
X75150500Y-80827525D01*
X75112984Y-80687515D01*
X75112982Y-80687512D01*
X75112982Y-80687510D01*
X75040512Y-80561989D01*
X75040510Y-80561987D01*
X75040509Y-80561985D01*
X74938015Y-80459491D01*
X74938012Y-80459489D01*
X74938010Y-80459487D01*
X74812488Y-80387017D01*
X74812489Y-80387017D01*
X74782896Y-80379087D01*
X74672475Y-80349500D01*
X74527525Y-80349500D01*
X74465790Y-80366041D01*
X74387510Y-80387017D01*
X74261989Y-80459487D01*
X74159487Y-80561989D01*
X74087017Y-80687510D01*
X74049500Y-80827525D01*
X49000500Y-80827525D01*
X49000500Y-80099500D01*
X49019407Y-80041309D01*
X49068907Y-80005345D01*
X49099500Y-80000500D01*
X88881969Y-80000500D01*
X88940160Y-80019407D01*
G37*
%TD.AperFunction*%
%TD*%
M02*
