%TF.GenerationSoftware,KiCad,Pcbnew,9.0.7-9.0.7~ubuntu24.04.1*%
%TF.CreationDate,2026-02-26T22:41:37+11:00*%
%TF.ProjectId,flipcab-rounded,666c6970-6361-4622-9d72-6f756e646564,rev?*%
%TF.SameCoordinates,Original*%
%TF.FileFunction,Copper,L2,Inr*%
%TF.FilePolarity,Positive*%
%FSLAX46Y46*%
G04 Gerber Fmt 4.6, Leading zero omitted, Abs format (unit mm)*
G04 Created by KiCad (PCBNEW 9.0.7-9.0.7~ubuntu24.04.1) date 2026-02-26 22:41:37*
%MOMM*%
%LPD*%
G01*
G04 APERTURE LIST*
%TA.AperFunction,ComponentPad*%
%ADD10C,0.630000*%
%TD*%
%TA.AperFunction,ComponentPad*%
%ADD11R,1.000000X1.000000*%
%TD*%
%TA.AperFunction,ComponentPad*%
%ADD12C,1.000000*%
%TD*%
%TA.AperFunction,ComponentPad*%
%ADD13R,2.000000X2.000000*%
%TD*%
%TA.AperFunction,ComponentPad*%
%ADD14C,2.000000*%
%TD*%
%TA.AperFunction,ComponentPad*%
%ADD15R,1.700000X1.700000*%
%TD*%
%TA.AperFunction,ComponentPad*%
%ADD16C,1.700000*%
%TD*%
%TA.AperFunction,HeatsinkPad*%
%ADD17O,1.000000X2.100000*%
%TD*%
%TA.AperFunction,HeatsinkPad*%
%ADD18O,1.000000X1.600000*%
%TD*%
%TA.AperFunction,ViaPad*%
%ADD19C,0.500000*%
%TD*%
%TA.AperFunction,ViaPad*%
%ADD20C,0.800000*%
%TD*%
G04 APERTURE END LIST*
D10*
%TO.N,GND*%
%TO.C,U4*%
X88470000Y-97350000D03*
X88470000Y-98650000D03*
X88470000Y-99950000D03*
X89770000Y-97350000D03*
X89770000Y-98650000D03*
X89770000Y-99950000D03*
%TD*%
D11*
%TO.N,+3V3*%
%TO.C,J2*%
X91080000Y-83930000D03*
D12*
%TO.N,UART_TXD*%
X91080000Y-85200000D03*
%TO.N,UART_RXD*%
X91080000Y-86470000D03*
%TO.N,EN*%
X91080000Y-87740000D03*
%TO.N,IO9{slash}BOOT*%
X91080000Y-89010000D03*
%TO.N,GND*%
X91080000Y-90280000D03*
%TD*%
D13*
%TO.N,Net-(SW2-A)*%
%TO.C,SW2*%
X58000000Y-83300000D03*
D14*
%TO.N,GND*%
X63080000Y-83300000D03*
%TO.N,+3V3*%
X68160000Y-83300000D03*
%TD*%
D15*
%TO.N,Net-(J4-Pin_1)*%
%TO.C,J4*%
X95395000Y-93930000D03*
D16*
%TO.N,Net-(J4-Pin_2)*%
X92855000Y-93930000D03*
%TD*%
D15*
%TO.N,Net-(J1-Pin_1)*%
%TO.C,J1*%
X71490000Y-98610000D03*
D16*
%TO.N,+12V*%
X71490000Y-101150000D03*
%TD*%
D13*
%TO.N,Net-(SW1-A)*%
%TO.C,SW1*%
X63000000Y-90000000D03*
D14*
%TO.N,GND*%
X57920000Y-90000000D03*
%TO.N,+3V3*%
X52840000Y-90000000D03*
%TD*%
D17*
%TO.N,GND*%
%TO.C,J3*%
X74460000Y-95700000D03*
D18*
X74460000Y-99880000D03*
D17*
X83100000Y-95700000D03*
D18*
X83100000Y-99880000D03*
%TD*%
D19*
%TO.N,GND*%
X96400000Y-84600000D03*
X55500000Y-96000000D03*
X80200000Y-88900000D03*
X73920000Y-92180000D03*
X67400000Y-99800000D03*
X60800000Y-92700000D03*
X65181250Y-98918750D03*
X98500000Y-96300000D03*
X88600000Y-95400000D03*
X86700000Y-88300000D03*
X55500000Y-95200000D03*
X97500000Y-99300000D03*
X86700000Y-81800000D03*
X89300000Y-80600000D03*
X53300000Y-100800000D03*
X83000000Y-88700000D03*
X53300000Y-95900000D03*
X56700000Y-97500000D03*
X51600000Y-82900000D03*
X53300000Y-96800000D03*
X54300000Y-93700000D03*
X53300000Y-93700000D03*
X55500000Y-96700000D03*
X49500000Y-95900000D03*
X56000000Y-100500000D03*
X97700000Y-94800000D03*
X96600000Y-101300000D03*
X97700000Y-95800000D03*
X78100000Y-92000000D03*
X86800000Y-89300000D03*
X95400000Y-100700000D03*
X96300000Y-90500000D03*
X87800000Y-91370000D03*
X92600000Y-87500000D03*
X78800000Y-88900000D03*
X68800000Y-100400000D03*
X87300000Y-95400000D03*
X98500000Y-98900000D03*
X79600000Y-81900000D03*
X89700000Y-95400000D03*
X50900000Y-93900000D03*
X82000000Y-81800000D03*
X51100000Y-95800000D03*
X77500000Y-84100000D03*
X81500000Y-88900000D03*
X71300000Y-83500000D03*
X92500000Y-86100000D03*
X84600000Y-94300000D03*
X53300000Y-94900000D03*
X72000000Y-88200000D03*
X77300000Y-88800000D03*
X50700000Y-100600000D03*
X84500000Y-81800000D03*
X69200000Y-97500000D03*
X98600000Y-97700000D03*
X69700000Y-90500000D03*
X86700000Y-86000000D03*
X86700000Y-83800000D03*
X50700000Y-99800000D03*
X72200000Y-93800000D03*
X71500000Y-86100000D03*
X64700000Y-96500000D03*
X55500000Y-97500000D03*
X84500000Y-89300000D03*
X57100000Y-99200000D03*
X97700000Y-91800000D03*
X69400000Y-87400000D03*
X71700000Y-89900000D03*
X60900000Y-96800000D03*
X77500000Y-81900000D03*
X66817500Y-95117500D03*
X94000000Y-96000000D03*
X97700000Y-83200000D03*
X77400000Y-86200000D03*
X58000000Y-94900000D03*
X63600000Y-95000000D03*
X50400000Y-95400000D03*
X74600000Y-80900000D03*
X79000000Y-100600000D03*
X55500000Y-94400000D03*
X66400000Y-98800000D03*
%TO.N,+3V3*%
X52140000Y-91700000D03*
X75100000Y-86200000D03*
X84880000Y-93000000D03*
X84660000Y-100630000D03*
X52140000Y-92700000D03*
X74002500Y-81767500D03*
X52140000Y-93700000D03*
X75150000Y-83160000D03*
%TO.N,EN*%
X75100000Y-87160000D03*
%TO.N,CC1*%
X77540000Y-96460000D03*
X77450000Y-97650000D03*
%TO.N,JTAG_DM*%
X78500000Y-96040000D03*
D20*
%TO.N,+12V*%
X76210000Y-93260000D03*
D19*
X69910000Y-91580000D03*
D20*
X50800000Y-101950000D03*
X58430000Y-101870000D03*
X92100000Y-102020000D03*
X81250000Y-93390000D03*
D19*
%TO.N,LED_CTRL*%
X67260000Y-97720000D03*
X82770000Y-89730000D03*
%TO.N,MOTOR_IN1*%
X89130000Y-89900000D03*
X84630000Y-99290000D03*
%TO.N,MOTOR_IN2*%
X84700000Y-98030000D03*
X89450000Y-89150000D03*
%TD*%
%TA.AperFunction,Conductor*%
%TO.N,GND*%
G36*
X90990000Y-101600000D02*
G01*
X87600000Y-101600000D01*
X87600000Y-101300000D01*
X87400000Y-101100000D01*
X87400000Y-96000000D01*
X87600000Y-96000000D01*
X87600000Y-94600000D01*
X90200000Y-94600000D01*
X90890000Y-94600000D01*
X90990000Y-101600000D01*
G37*
%TD.AperFunction*%
%TD*%
%TA.AperFunction,Conductor*%
%TO.N,GND*%
G36*
X98958691Y-80019407D02*
G01*
X98994655Y-80068907D01*
X98999500Y-80099500D01*
X98999500Y-102900500D01*
X98980593Y-102958691D01*
X98931093Y-102994655D01*
X98900500Y-102999500D01*
X49099500Y-102999500D01*
X49041309Y-102980593D01*
X49005345Y-102931093D01*
X49000500Y-102900500D01*
X49000500Y-101881004D01*
X50099500Y-101881004D01*
X50099500Y-102018995D01*
X50126420Y-102154327D01*
X50126420Y-102154329D01*
X50179222Y-102281806D01*
X50179228Y-102281817D01*
X50255885Y-102396541D01*
X50353458Y-102494114D01*
X50468182Y-102570771D01*
X50468193Y-102570777D01*
X50515283Y-102590282D01*
X50595672Y-102623580D01*
X50731007Y-102650500D01*
X50731008Y-102650500D01*
X50868992Y-102650500D01*
X50868993Y-102650500D01*
X51004328Y-102623580D01*
X51131811Y-102570775D01*
X51246542Y-102494114D01*
X51344114Y-102396542D01*
X51420775Y-102281811D01*
X51473580Y-102154328D01*
X51500500Y-102018993D01*
X51500500Y-101881007D01*
X51484586Y-101801004D01*
X57729500Y-101801004D01*
X57729500Y-101938995D01*
X57756420Y-102074327D01*
X57756420Y-102074329D01*
X57809222Y-102201806D01*
X57809228Y-102201817D01*
X57885885Y-102316541D01*
X57983458Y-102414114D01*
X58098182Y-102490771D01*
X58098193Y-102490777D01*
X58145283Y-102510282D01*
X58225672Y-102543580D01*
X58361007Y-102570500D01*
X58361008Y-102570500D01*
X58498992Y-102570500D01*
X58498993Y-102570500D01*
X58634328Y-102543580D01*
X58761811Y-102490775D01*
X58876542Y-102414114D01*
X58974114Y-102316542D01*
X59050775Y-102201811D01*
X59103580Y-102074328D01*
X59130500Y-101938993D01*
X59130500Y-101801007D01*
X59103580Y-101665672D01*
X59050775Y-101538189D01*
X59050774Y-101538187D01*
X59050771Y-101538182D01*
X58974114Y-101423458D01*
X58876541Y-101325885D01*
X58761817Y-101249228D01*
X58761806Y-101249222D01*
X58634328Y-101196420D01*
X58498995Y-101169500D01*
X58498993Y-101169500D01*
X58361007Y-101169500D01*
X58361004Y-101169500D01*
X58225672Y-101196420D01*
X58225670Y-101196420D01*
X58098193Y-101249222D01*
X58098182Y-101249228D01*
X57983458Y-101325885D01*
X57885885Y-101423458D01*
X57809228Y-101538182D01*
X57809222Y-101538193D01*
X57756420Y-101665670D01*
X57756420Y-101665672D01*
X57729500Y-101801004D01*
X51484586Y-101801004D01*
X51473580Y-101745672D01*
X51420775Y-101618189D01*
X51420774Y-101618187D01*
X51420771Y-101618182D01*
X51344114Y-101503458D01*
X51246541Y-101405885D01*
X51131817Y-101329228D01*
X51131806Y-101329222D01*
X51004328Y-101276420D01*
X50868995Y-101249500D01*
X50868993Y-101249500D01*
X50731007Y-101249500D01*
X50731004Y-101249500D01*
X50595672Y-101276420D01*
X50595670Y-101276420D01*
X50468193Y-101329222D01*
X50468182Y-101329228D01*
X50353458Y-101405885D01*
X50255885Y-101503458D01*
X50179228Y-101618182D01*
X50179222Y-101618193D01*
X50126420Y-101745670D01*
X50126420Y-101745672D01*
X50099500Y-101881004D01*
X49000500Y-101881004D01*
X49000500Y-101059450D01*
X70339500Y-101059450D01*
X70339500Y-101240549D01*
X70367828Y-101419406D01*
X70417881Y-101573458D01*
X70423789Y-101591639D01*
X70506004Y-101752994D01*
X70612447Y-101899501D01*
X70740499Y-102027553D01*
X70887006Y-102133996D01*
X71048361Y-102216211D01*
X71220591Y-102272171D01*
X71281456Y-102281811D01*
X71399451Y-102300500D01*
X71399454Y-102300500D01*
X71580549Y-102300500D01*
X71669977Y-102286335D01*
X71759409Y-102272171D01*
X71931639Y-102216211D01*
X72092994Y-102133996D01*
X72239501Y-102027553D01*
X72316050Y-101951004D01*
X91399500Y-101951004D01*
X91399500Y-101951007D01*
X91399500Y-102088993D01*
X91424805Y-102216211D01*
X91426420Y-102224327D01*
X91426420Y-102224329D01*
X91479222Y-102351806D01*
X91479228Y-102351817D01*
X91555885Y-102466541D01*
X91653458Y-102564114D01*
X91768182Y-102640771D01*
X91768193Y-102640777D01*
X91791667Y-102650500D01*
X91895672Y-102693580D01*
X92031007Y-102720500D01*
X92031008Y-102720500D01*
X92168992Y-102720500D01*
X92168993Y-102720500D01*
X92304328Y-102693580D01*
X92431811Y-102640775D01*
X92546542Y-102564114D01*
X92644114Y-102466542D01*
X92720775Y-102351811D01*
X92773580Y-102224328D01*
X92800500Y-102088993D01*
X92800500Y-101951007D01*
X92773580Y-101815672D01*
X92720775Y-101688189D01*
X92720774Y-101688187D01*
X92720771Y-101688182D01*
X92644114Y-101573458D01*
X92546541Y-101475885D01*
X92431817Y-101399228D01*
X92431806Y-101399222D01*
X92304328Y-101346420D01*
X92168995Y-101319500D01*
X92168993Y-101319500D01*
X92031007Y-101319500D01*
X92031004Y-101319500D01*
X91895672Y-101346420D01*
X91895670Y-101346420D01*
X91768193Y-101399222D01*
X91768182Y-101399228D01*
X91653458Y-101475885D01*
X91555885Y-101573458D01*
X91479228Y-101688182D01*
X91479222Y-101688193D01*
X91426420Y-101815670D01*
X91426420Y-101815672D01*
X91399500Y-101951004D01*
X72316050Y-101951004D01*
X72367553Y-101899501D01*
X72473996Y-101752994D01*
X72556211Y-101591639D01*
X72612171Y-101419409D01*
X72639125Y-101249228D01*
X72640500Y-101240549D01*
X72640500Y-101059450D01*
X72612171Y-100880593D01*
X72612171Y-100880591D01*
X72556211Y-100708361D01*
X72473996Y-100547006D01*
X72367553Y-100400499D01*
X72239501Y-100272447D01*
X72092994Y-100166004D01*
X72092993Y-100166003D01*
X71931637Y-100083788D01*
X71759406Y-100027828D01*
X71580549Y-99999500D01*
X71580546Y-99999500D01*
X71399454Y-99999500D01*
X71399451Y-99999500D01*
X71220593Y-100027828D01*
X71048362Y-100083788D01*
X70887008Y-100166002D01*
X70813752Y-100219225D01*
X70740499Y-100272447D01*
X70612447Y-100400499D01*
X70569540Y-100459556D01*
X70506002Y-100547008D01*
X70423788Y-100708362D01*
X70367828Y-100880593D01*
X70339500Y-101059450D01*
X49000500Y-101059450D01*
X49000500Y-97647525D01*
X66709500Y-97647525D01*
X66709500Y-97792475D01*
X66739087Y-97902896D01*
X66747017Y-97932489D01*
X66819487Y-98058010D01*
X66819489Y-98058012D01*
X66819491Y-98058015D01*
X66921985Y-98160509D01*
X66921987Y-98160510D01*
X66921989Y-98160512D01*
X67047511Y-98232982D01*
X67047512Y-98232982D01*
X67047515Y-98232984D01*
X67187525Y-98270500D01*
X67187526Y-98270500D01*
X67332474Y-98270500D01*
X67332475Y-98270500D01*
X67472485Y-98232984D01*
X67472487Y-98232982D01*
X67472489Y-98232982D01*
X67598010Y-98160512D01*
X67598010Y-98160511D01*
X67598015Y-98160509D01*
X67700509Y-98058015D01*
X67718005Y-98027711D01*
X67772982Y-97932489D01*
X67772982Y-97932487D01*
X67772984Y-97932485D01*
X67810500Y-97792475D01*
X67810500Y-97715130D01*
X70339500Y-97715130D01*
X70339500Y-99504860D01*
X70339501Y-99504863D01*
X70342414Y-99529990D01*
X70367756Y-99587385D01*
X70387794Y-99632765D01*
X70467235Y-99712206D01*
X70570009Y-99757585D01*
X70595135Y-99760500D01*
X72384864Y-99760499D01*
X72409991Y-99757585D01*
X72512765Y-99712206D01*
X72592206Y-99632765D01*
X72637585Y-99529991D01*
X72640500Y-99504865D01*
X72640500Y-99501204D01*
X73660000Y-99501204D01*
X73660000Y-99629999D01*
X73660001Y-99630000D01*
X74160000Y-99630000D01*
X74160000Y-100130000D01*
X73660001Y-100130000D01*
X73660000Y-100130001D01*
X73660000Y-100258795D01*
X73690742Y-100413349D01*
X73751048Y-100558940D01*
X73751052Y-100558949D01*
X73838599Y-100689969D01*
X73838602Y-100689973D01*
X73950026Y-100801397D01*
X73950030Y-100801400D01*
X74081058Y-100888951D01*
X74209999Y-100942360D01*
X74210000Y-100942359D01*
X74210000Y-100346988D01*
X74219940Y-100364205D01*
X74275795Y-100420060D01*
X74344204Y-100459556D01*
X74420504Y-100480000D01*
X74499496Y-100480000D01*
X74575796Y-100459556D01*
X74644205Y-100420060D01*
X74700060Y-100364205D01*
X74710000Y-100346988D01*
X74710000Y-100942360D01*
X74838941Y-100888951D01*
X74969969Y-100801400D01*
X74969973Y-100801397D01*
X75081397Y-100689973D01*
X75081400Y-100689969D01*
X75168947Y-100558949D01*
X75168951Y-100558940D01*
X75229257Y-100413349D01*
X75259999Y-100258795D01*
X75260000Y-100258792D01*
X75260000Y-100130001D01*
X75259999Y-100130000D01*
X74760000Y-100130000D01*
X74760000Y-99630000D01*
X75259999Y-99630000D01*
X75260000Y-99629999D01*
X75260000Y-99501207D01*
X75259999Y-99501204D01*
X82300000Y-99501204D01*
X82300000Y-99629999D01*
X82300001Y-99630000D01*
X82800000Y-99630000D01*
X82800000Y-100130000D01*
X82300001Y-100130000D01*
X82300000Y-100130001D01*
X82300000Y-100258795D01*
X82330742Y-100413349D01*
X82391048Y-100558940D01*
X82391052Y-100558949D01*
X82478599Y-100689969D01*
X82478602Y-100689973D01*
X82590026Y-100801397D01*
X82590030Y-100801400D01*
X82721058Y-100888951D01*
X82849999Y-100942360D01*
X82850000Y-100942359D01*
X82850000Y-100346988D01*
X82859940Y-100364205D01*
X82915795Y-100420060D01*
X82984204Y-100459556D01*
X83060504Y-100480000D01*
X83139496Y-100480000D01*
X83215796Y-100459556D01*
X83284205Y-100420060D01*
X83340060Y-100364205D01*
X83350000Y-100346988D01*
X83350000Y-100942360D01*
X83478941Y-100888951D01*
X83609969Y-100801400D01*
X83609973Y-100801397D01*
X83721397Y-100689973D01*
X83721400Y-100689969D01*
X83808947Y-100558949D01*
X83808951Y-100558940D01*
X83809537Y-100557525D01*
X84109500Y-100557525D01*
X84109500Y-100702475D01*
X84136006Y-100801397D01*
X84147017Y-100842489D01*
X84219487Y-100968010D01*
X84219489Y-100968012D01*
X84219491Y-100968015D01*
X84321985Y-101070509D01*
X84321987Y-101070510D01*
X84321989Y-101070512D01*
X84447511Y-101142982D01*
X84447512Y-101142982D01*
X84447515Y-101142984D01*
X84587525Y-101180500D01*
X84587526Y-101180500D01*
X84732474Y-101180500D01*
X84732475Y-101180500D01*
X84872485Y-101142984D01*
X84872487Y-101142982D01*
X84872489Y-101142982D01*
X84998010Y-101070512D01*
X84998010Y-101070511D01*
X84998015Y-101070509D01*
X85100509Y-100968015D01*
X85146157Y-100888951D01*
X85172982Y-100842489D01*
X85172982Y-100842487D01*
X85172984Y-100842485D01*
X85210500Y-100702475D01*
X85210500Y-100557525D01*
X85172984Y-100417515D01*
X85172981Y-100417509D01*
X85100512Y-100291989D01*
X85100510Y-100291987D01*
X85100509Y-100291985D01*
X84998015Y-100189491D01*
X84998012Y-100189489D01*
X84998010Y-100189487D01*
X84872488Y-100117017D01*
X84872489Y-100117017D01*
X84842896Y-100109087D01*
X84732475Y-100079500D01*
X84587525Y-100079500D01*
X84548783Y-100089881D01*
X84447510Y-100117017D01*
X84321989Y-100189487D01*
X84219487Y-100291989D01*
X84147017Y-100417510D01*
X84147016Y-100417515D01*
X84109500Y-100557525D01*
X83809537Y-100557525D01*
X83827919Y-100513150D01*
X83827919Y-100513149D01*
X83869256Y-100413352D01*
X83869256Y-100413350D01*
X83899999Y-100258795D01*
X83900000Y-100258792D01*
X83900000Y-100130001D01*
X83899999Y-100130000D01*
X83400000Y-100130000D01*
X83400000Y-99630000D01*
X83899999Y-99630000D01*
X83900000Y-99629999D01*
X83900000Y-99501207D01*
X83899999Y-99501204D01*
X83869256Y-99346649D01*
X83869256Y-99346647D01*
X83828777Y-99248921D01*
X83815772Y-99217525D01*
X84079500Y-99217525D01*
X84079500Y-99362474D01*
X84117017Y-99502489D01*
X84189487Y-99628010D01*
X84189489Y-99628012D01*
X84189491Y-99628015D01*
X84291985Y-99730509D01*
X84291987Y-99730510D01*
X84291989Y-99730512D01*
X84417511Y-99802982D01*
X84417512Y-99802982D01*
X84417515Y-99802984D01*
X84557525Y-99840500D01*
X84557526Y-99840500D01*
X84702474Y-99840500D01*
X84702475Y-99840500D01*
X84842485Y-99802984D01*
X84849685Y-99798826D01*
X84849688Y-99798826D01*
X84968010Y-99730512D01*
X84968010Y-99730511D01*
X84968015Y-99730509D01*
X85070509Y-99628015D01*
X85121034Y-99540504D01*
X85142982Y-99502489D01*
X85142982Y-99502487D01*
X85142984Y-99502485D01*
X85180500Y-99362475D01*
X85180500Y-99217525D01*
X85142984Y-99077515D01*
X85142982Y-99077512D01*
X85142982Y-99077510D01*
X85070512Y-98951989D01*
X85070510Y-98951987D01*
X85070509Y-98951985D01*
X84968015Y-98849491D01*
X84968012Y-98849489D01*
X84968010Y-98849487D01*
X84842488Y-98777017D01*
X84842484Y-98777015D01*
X84797658Y-98765004D01*
X84746344Y-98731680D01*
X84724418Y-98674559D01*
X84740254Y-98615458D01*
X84787804Y-98576953D01*
X84797643Y-98573756D01*
X84912485Y-98542984D01*
X84988967Y-98498827D01*
X84988970Y-98498826D01*
X85038010Y-98470512D01*
X85038010Y-98470511D01*
X85038015Y-98470509D01*
X85140509Y-98368015D01*
X85181830Y-98296445D01*
X85212982Y-98242489D01*
X85212982Y-98242487D01*
X85212984Y-98242485D01*
X85250500Y-98102475D01*
X85250500Y-97957525D01*
X85212984Y-97817515D01*
X85212982Y-97817512D01*
X85212982Y-97817510D01*
X85140512Y-97691989D01*
X85140510Y-97691987D01*
X85140509Y-97691985D01*
X85038015Y-97589491D01*
X85038012Y-97589489D01*
X85038010Y-97589487D01*
X84912488Y-97517017D01*
X84912489Y-97517017D01*
X84877027Y-97507515D01*
X84772475Y-97479500D01*
X84627525Y-97479500D01*
X84588783Y-97489881D01*
X84487510Y-97517017D01*
X84361989Y-97589487D01*
X84259487Y-97691989D01*
X84187017Y-97817510D01*
X84149500Y-97957525D01*
X84149500Y-98102474D01*
X84187017Y-98242489D01*
X84259487Y-98368010D01*
X84259489Y-98368012D01*
X84259491Y-98368015D01*
X84361985Y-98470509D01*
X84361987Y-98470510D01*
X84361989Y-98470512D01*
X84487511Y-98542982D01*
X84487509Y-98542982D01*
X84487513Y-98542983D01*
X84487515Y-98542984D01*
X84532342Y-98554995D01*
X84583654Y-98588318D01*
X84605581Y-98645439D01*
X84589746Y-98704540D01*
X84542196Y-98743045D01*
X84532341Y-98746247D01*
X84417515Y-98777015D01*
X84417511Y-98777017D01*
X84291989Y-98849487D01*
X84189487Y-98951989D01*
X84117017Y-99077510D01*
X84079500Y-99217525D01*
X83815772Y-99217525D01*
X83808951Y-99201059D01*
X83808947Y-99201050D01*
X83721400Y-99070030D01*
X83721397Y-99070026D01*
X83609973Y-98958602D01*
X83609969Y-98958599D01*
X83478949Y-98871052D01*
X83478940Y-98871048D01*
X83350000Y-98817639D01*
X83350000Y-99413011D01*
X83340060Y-99395795D01*
X83284205Y-99339940D01*
X83215796Y-99300444D01*
X83139496Y-99280000D01*
X83060504Y-99280000D01*
X82984204Y-99300444D01*
X82915795Y-99339940D01*
X82859940Y-99395795D01*
X82850000Y-99413011D01*
X82850000Y-98817639D01*
X82721059Y-98871048D01*
X82721050Y-98871052D01*
X82590030Y-98958599D01*
X82590026Y-98958602D01*
X82478602Y-99070026D01*
X82478599Y-99070030D01*
X82391052Y-99201050D01*
X82391048Y-99201059D01*
X82330742Y-99346650D01*
X82300000Y-99501204D01*
X75259999Y-99501204D01*
X75229257Y-99346650D01*
X75168951Y-99201059D01*
X75168947Y-99201050D01*
X75081400Y-99070030D01*
X75081397Y-99070026D01*
X74969973Y-98958602D01*
X74969969Y-98958599D01*
X74838949Y-98871052D01*
X74838940Y-98871048D01*
X74710000Y-98817639D01*
X74710000Y-99413011D01*
X74700060Y-99395795D01*
X74644205Y-99339940D01*
X74575796Y-99300444D01*
X74499496Y-99280000D01*
X74420504Y-99280000D01*
X74344204Y-99300444D01*
X74275795Y-99339940D01*
X74219940Y-99395795D01*
X74210000Y-99413011D01*
X74210000Y-98817639D01*
X74081059Y-98871048D01*
X74081050Y-98871052D01*
X73950030Y-98958599D01*
X73950026Y-98958602D01*
X73838602Y-99070026D01*
X73838599Y-99070030D01*
X73751052Y-99201050D01*
X73751048Y-99201059D01*
X73690742Y-99346650D01*
X73660000Y-99501204D01*
X72640500Y-99501204D01*
X72640499Y-97715136D01*
X72637585Y-97690009D01*
X72592206Y-97587235D01*
X72582496Y-97577525D01*
X76899500Y-97577525D01*
X76899500Y-97722474D01*
X76937017Y-97862489D01*
X77009487Y-97988010D01*
X77009489Y-97988012D01*
X77009491Y-97988015D01*
X77111985Y-98090509D01*
X77111987Y-98090510D01*
X77111989Y-98090512D01*
X77237511Y-98162982D01*
X77237512Y-98162982D01*
X77237515Y-98162984D01*
X77377525Y-98200500D01*
X77377526Y-98200500D01*
X77522474Y-98200500D01*
X77522475Y-98200500D01*
X77662485Y-98162984D01*
X77662487Y-98162982D01*
X77662489Y-98162982D01*
X77788010Y-98090512D01*
X77788010Y-98090511D01*
X77788015Y-98090509D01*
X77890509Y-97988015D01*
X77902900Y-97966554D01*
X77962982Y-97862489D01*
X77962982Y-97862487D01*
X77962984Y-97862485D01*
X78000500Y-97722475D01*
X78000500Y-97577525D01*
X77962984Y-97437515D01*
X77962982Y-97437512D01*
X77962982Y-97437510D01*
X77903258Y-97334067D01*
X77903256Y-97334064D01*
X77890509Y-97311985D01*
X77788015Y-97209491D01*
X77788012Y-97209489D01*
X77788010Y-97209487D01*
X77703948Y-97160954D01*
X77663007Y-97115485D01*
X77656611Y-97054635D01*
X77687204Y-97001647D01*
X77727822Y-96979592D01*
X77752485Y-96972984D01*
X77752487Y-96972982D01*
X77752489Y-96972982D01*
X77878010Y-96900512D01*
X77878010Y-96900511D01*
X77878015Y-96900509D01*
X77980509Y-96798015D01*
X78002473Y-96759973D01*
X78052982Y-96672489D01*
X78052982Y-96672487D01*
X78052984Y-96672485D01*
X78078743Y-96576349D01*
X78112066Y-96525038D01*
X78169188Y-96503111D01*
X78223869Y-96516238D01*
X78287511Y-96552982D01*
X78287515Y-96552984D01*
X78427525Y-96590500D01*
X78427526Y-96590500D01*
X78572474Y-96590500D01*
X78572475Y-96590500D01*
X78712485Y-96552984D01*
X78712487Y-96552982D01*
X78712489Y-96552982D01*
X78838010Y-96480512D01*
X78838010Y-96480511D01*
X78838015Y-96480509D01*
X78940509Y-96378015D01*
X79012984Y-96252485D01*
X79021183Y-96221883D01*
X79030491Y-96187147D01*
X81344500Y-96187147D01*
X81344500Y-96272853D01*
X81366682Y-96355638D01*
X81409535Y-96429862D01*
X81470138Y-96490465D01*
X81544362Y-96533318D01*
X81627147Y-96555500D01*
X81627149Y-96555500D01*
X81712851Y-96555500D01*
X81712853Y-96555500D01*
X81795638Y-96533318D01*
X81869862Y-96490465D01*
X81930465Y-96429862D01*
X81973318Y-96355638D01*
X81995500Y-96272853D01*
X81995500Y-96187147D01*
X81973318Y-96104362D01*
X81930465Y-96030138D01*
X81869862Y-95969535D01*
X81795638Y-95926682D01*
X81712853Y-95904500D01*
X81627147Y-95904500D01*
X81544362Y-95926682D01*
X81470138Y-95969535D01*
X81409535Y-96030138D01*
X81366682Y-96104362D01*
X81344500Y-96187147D01*
X79030491Y-96187147D01*
X79039096Y-96155037D01*
X79039096Y-96155035D01*
X79050500Y-96112474D01*
X79050500Y-95967525D01*
X79045005Y-95947017D01*
X79012984Y-95827515D01*
X79012982Y-95827511D01*
X79012982Y-95827510D01*
X78940512Y-95701989D01*
X78940510Y-95701987D01*
X78940509Y-95701985D01*
X78838015Y-95599491D01*
X78838012Y-95599489D01*
X78838010Y-95599487D01*
X78712488Y-95527017D01*
X78712489Y-95527017D01*
X78682896Y-95519087D01*
X78572475Y-95489500D01*
X78427525Y-95489500D01*
X78365790Y-95506041D01*
X78287510Y-95527017D01*
X78161989Y-95599487D01*
X78059487Y-95701989D01*
X77987017Y-95827511D01*
X77987015Y-95827515D01*
X77961256Y-95923648D01*
X77927932Y-95974962D01*
X77870810Y-95996888D01*
X77816131Y-95983761D01*
X77752488Y-95947017D01*
X77752485Y-95947016D01*
X77612475Y-95909500D01*
X77467525Y-95909500D01*
X77414725Y-95923648D01*
X77327510Y-95947017D01*
X77201989Y-96019487D01*
X77099487Y-96121989D01*
X77027017Y-96247510D01*
X77005237Y-96328795D01*
X76989500Y-96387525D01*
X76989500Y-96532475D01*
X76995670Y-96555500D01*
X77027017Y-96672489D01*
X77099487Y-96798010D01*
X77099489Y-96798012D01*
X77099491Y-96798015D01*
X77201985Y-96900509D01*
X77286052Y-96949045D01*
X77326992Y-96994514D01*
X77333388Y-97055364D01*
X77302795Y-97108352D01*
X77262177Y-97130407D01*
X77237512Y-97137016D01*
X77237511Y-97137017D01*
X77111989Y-97209487D01*
X77009487Y-97311989D01*
X76937017Y-97437510D01*
X76899500Y-97577525D01*
X72582496Y-97577525D01*
X72512765Y-97507794D01*
X72409991Y-97462415D01*
X72409990Y-97462414D01*
X72409988Y-97462414D01*
X72384868Y-97459500D01*
X70595139Y-97459500D01*
X70595136Y-97459501D01*
X70570009Y-97462414D01*
X70467235Y-97507794D01*
X70387794Y-97587235D01*
X70342414Y-97690011D01*
X70339500Y-97715130D01*
X67810500Y-97715130D01*
X67810500Y-97647525D01*
X67772984Y-97507515D01*
X67772982Y-97507512D01*
X67772982Y-97507510D01*
X67700512Y-97381989D01*
X67700510Y-97381987D01*
X67700509Y-97381985D01*
X67598015Y-97279491D01*
X67598012Y-97279489D01*
X67598010Y-97279487D01*
X67472488Y-97207017D01*
X67472489Y-97207017D01*
X67390321Y-97185000D01*
X67332475Y-97169500D01*
X67187525Y-97169500D01*
X67129679Y-97185000D01*
X67047510Y-97207017D01*
X66921989Y-97279487D01*
X66819487Y-97381989D01*
X66747017Y-97507510D01*
X66719280Y-97611025D01*
X66709500Y-97647525D01*
X49000500Y-97647525D01*
X49000500Y-95071204D01*
X73660000Y-95071204D01*
X73660000Y-95449999D01*
X73660001Y-95450000D01*
X74160000Y-95450000D01*
X74160000Y-95950000D01*
X73660001Y-95950000D01*
X73660000Y-95950001D01*
X73660000Y-96328795D01*
X73690742Y-96483349D01*
X73751048Y-96628940D01*
X73751052Y-96628949D01*
X73838599Y-96759969D01*
X73838602Y-96759973D01*
X73950026Y-96871397D01*
X73950030Y-96871400D01*
X74081058Y-96958951D01*
X74209999Y-97012360D01*
X74210000Y-97012359D01*
X74210000Y-96416988D01*
X74219940Y-96434205D01*
X74275795Y-96490060D01*
X74344204Y-96529556D01*
X74420504Y-96550000D01*
X74499496Y-96550000D01*
X74575796Y-96529556D01*
X74644205Y-96490060D01*
X74700060Y-96434205D01*
X74710000Y-96416988D01*
X74710000Y-97012360D01*
X74838941Y-96958951D01*
X74969969Y-96871400D01*
X74969973Y-96871397D01*
X75081397Y-96759973D01*
X75081400Y-96759969D01*
X75168947Y-96628949D01*
X75168951Y-96628940D01*
X75229257Y-96483349D01*
X75259999Y-96328795D01*
X75260000Y-96328792D01*
X75260000Y-96187147D01*
X75564500Y-96187147D01*
X75564500Y-96272853D01*
X75586682Y-96355638D01*
X75629535Y-96429862D01*
X75690138Y-96490465D01*
X75764362Y-96533318D01*
X75847147Y-96555500D01*
X75847149Y-96555500D01*
X75932851Y-96555500D01*
X75932853Y-96555500D01*
X76015638Y-96533318D01*
X76089862Y-96490465D01*
X76150465Y-96429862D01*
X76193318Y-96355638D01*
X76215500Y-96272853D01*
X76215500Y-96187147D01*
X76193318Y-96104362D01*
X76150465Y-96030138D01*
X76089862Y-95969535D01*
X76015638Y-95926682D01*
X75932853Y-95904500D01*
X75847147Y-95904500D01*
X75764362Y-95926682D01*
X75690138Y-95969535D01*
X75629535Y-96030138D01*
X75586682Y-96104362D01*
X75564500Y-96187147D01*
X75260000Y-96187147D01*
X75260000Y-95950001D01*
X75259999Y-95950000D01*
X74760000Y-95950000D01*
X74760000Y-95450000D01*
X75259999Y-95450000D01*
X75260000Y-95449999D01*
X75260000Y-95071207D01*
X75259999Y-95071204D01*
X82300000Y-95071204D01*
X82300000Y-95449999D01*
X82300001Y-95450000D01*
X82800000Y-95450000D01*
X82800000Y-95950000D01*
X82300001Y-95950000D01*
X82300000Y-95950001D01*
X82300000Y-96328795D01*
X82330742Y-96483349D01*
X82391048Y-96628940D01*
X82391052Y-96628949D01*
X82478599Y-96759969D01*
X82478602Y-96759973D01*
X82590026Y-96871397D01*
X82590030Y-96871400D01*
X82721058Y-96958951D01*
X82849999Y-97012360D01*
X82850000Y-97012359D01*
X82850000Y-96416988D01*
X82859940Y-96434205D01*
X82915795Y-96490060D01*
X82984204Y-96529556D01*
X83060504Y-96550000D01*
X83139496Y-96550000D01*
X83215796Y-96529556D01*
X83284205Y-96490060D01*
X83340060Y-96434205D01*
X83350000Y-96416988D01*
X83350000Y-97012360D01*
X83478941Y-96958951D01*
X83609969Y-96871400D01*
X83609973Y-96871397D01*
X83721397Y-96759973D01*
X83721399Y-96759970D01*
X83725840Y-96753326D01*
X83725840Y-96753325D01*
X83808947Y-96628949D01*
X83808951Y-96628940D01*
X83869257Y-96483349D01*
X83899999Y-96328795D01*
X83900000Y-96328792D01*
X83900000Y-96000000D01*
X87400000Y-96000000D01*
X87400000Y-101100000D01*
X87600000Y-101300000D01*
X87600000Y-101600000D01*
X90990000Y-101600000D01*
X90890000Y-94600000D01*
X90200000Y-94600000D01*
X87600000Y-94600000D01*
X87600000Y-96000000D01*
X87400000Y-96000000D01*
X83900000Y-96000000D01*
X83900000Y-95950001D01*
X83899999Y-95950000D01*
X83400000Y-95950000D01*
X83400000Y-95450000D01*
X83899999Y-95450000D01*
X83900000Y-95449999D01*
X83900000Y-95071207D01*
X83899999Y-95071204D01*
X83869257Y-94916650D01*
X83808951Y-94771059D01*
X83808947Y-94771050D01*
X83721400Y-94640030D01*
X83721397Y-94640026D01*
X83609973Y-94528602D01*
X83609969Y-94528599D01*
X83478949Y-94441052D01*
X83478940Y-94441048D01*
X83350000Y-94387639D01*
X83350000Y-94983011D01*
X83340060Y-94965795D01*
X83284205Y-94909940D01*
X83215796Y-94870444D01*
X83139496Y-94850000D01*
X83060504Y-94850000D01*
X82984204Y-94870444D01*
X82915795Y-94909940D01*
X82859940Y-94965795D01*
X82850000Y-94983011D01*
X82850000Y-94387639D01*
X82721059Y-94441048D01*
X82721050Y-94441052D01*
X82590030Y-94528599D01*
X82590026Y-94528602D01*
X82478602Y-94640026D01*
X82478599Y-94640030D01*
X82391052Y-94771050D01*
X82391048Y-94771059D01*
X82330742Y-94916650D01*
X82300000Y-95071204D01*
X75259999Y-95071204D01*
X75229257Y-94916650D01*
X75168951Y-94771059D01*
X75168947Y-94771050D01*
X75081400Y-94640030D01*
X75081397Y-94640026D01*
X74969973Y-94528602D01*
X74969969Y-94528599D01*
X74838949Y-94441052D01*
X74838940Y-94441048D01*
X74710000Y-94387639D01*
X74710000Y-94983011D01*
X74700060Y-94965795D01*
X74644205Y-94909940D01*
X74575796Y-94870444D01*
X74499496Y-94850000D01*
X74420504Y-94850000D01*
X74344204Y-94870444D01*
X74275795Y-94909940D01*
X74219940Y-94965795D01*
X74210000Y-94983011D01*
X74210000Y-94387639D01*
X74081059Y-94441048D01*
X74081050Y-94441052D01*
X73950030Y-94528599D01*
X73950026Y-94528602D01*
X73838602Y-94640026D01*
X73838599Y-94640030D01*
X73751052Y-94771050D01*
X73751048Y-94771059D01*
X73690742Y-94916650D01*
X73660000Y-95071204D01*
X49000500Y-95071204D01*
X49000500Y-89897644D01*
X51539500Y-89897644D01*
X51539500Y-90102355D01*
X51571521Y-90304529D01*
X51634780Y-90499219D01*
X51727712Y-90681609D01*
X51727714Y-90681613D01*
X51848029Y-90847213D01*
X51848031Y-90847215D01*
X51848034Y-90847219D01*
X51992781Y-90991966D01*
X51992784Y-90991968D01*
X52003409Y-90999688D01*
X52039372Y-91049189D01*
X52039371Y-91110374D01*
X52003406Y-91159874D01*
X51970841Y-91175406D01*
X51927515Y-91187015D01*
X51927511Y-91187017D01*
X51801989Y-91259487D01*
X51699487Y-91361989D01*
X51627017Y-91487510D01*
X51589500Y-91627525D01*
X51589500Y-91772474D01*
X51627017Y-91912489D01*
X51699487Y-92038010D01*
X51699489Y-92038012D01*
X51699491Y-92038015D01*
X51791474Y-92129998D01*
X51819250Y-92184513D01*
X51809679Y-92244945D01*
X51791475Y-92270000D01*
X51699491Y-92361985D01*
X51699488Y-92361988D01*
X51699487Y-92361989D01*
X51627017Y-92487510D01*
X51627016Y-92487515D01*
X51589500Y-92627525D01*
X51589500Y-92772475D01*
X51604323Y-92827794D01*
X51627017Y-92912489D01*
X51699487Y-93038010D01*
X51699489Y-93038012D01*
X51699491Y-93038015D01*
X51791474Y-93129998D01*
X51819250Y-93184513D01*
X51809679Y-93244945D01*
X51791475Y-93270000D01*
X51740472Y-93321004D01*
X51699488Y-93361988D01*
X51699487Y-93361989D01*
X51627017Y-93487510D01*
X51589500Y-93627525D01*
X51589500Y-93772474D01*
X51627017Y-93912489D01*
X51699487Y-94038010D01*
X51699489Y-94038012D01*
X51699491Y-94038015D01*
X51801985Y-94140509D01*
X51801987Y-94140510D01*
X51801989Y-94140512D01*
X51927511Y-94212982D01*
X51927512Y-94212982D01*
X51927515Y-94212984D01*
X52067525Y-94250500D01*
X52067526Y-94250500D01*
X52212474Y-94250500D01*
X52212475Y-94250500D01*
X52352485Y-94212984D01*
X52352487Y-94212982D01*
X52352489Y-94212982D01*
X52478010Y-94140512D01*
X52478010Y-94140511D01*
X52478015Y-94140509D01*
X52580509Y-94038015D01*
X52596236Y-94010775D01*
X52652982Y-93912489D01*
X52652982Y-93912487D01*
X52652984Y-93912485D01*
X52690500Y-93772475D01*
X52690500Y-93627525D01*
X52652984Y-93487515D01*
X52652982Y-93487512D01*
X52652982Y-93487510D01*
X52580512Y-93361989D01*
X52580510Y-93361987D01*
X52580509Y-93361985D01*
X52488525Y-93270001D01*
X52481408Y-93256032D01*
X52470321Y-93244945D01*
X52467868Y-93229457D01*
X52460750Y-93215487D01*
X52463202Y-93200000D01*
X52461778Y-93191004D01*
X75509500Y-93191004D01*
X75509500Y-93328995D01*
X75516063Y-93361988D01*
X75535358Y-93458991D01*
X75536420Y-93464327D01*
X75536420Y-93464329D01*
X75589222Y-93591806D01*
X75589228Y-93591817D01*
X75665885Y-93706541D01*
X75763458Y-93804114D01*
X75878182Y-93880771D01*
X75878193Y-93880777D01*
X75925283Y-93900282D01*
X76005672Y-93933580D01*
X76141007Y-93960500D01*
X76141008Y-93960500D01*
X76278992Y-93960500D01*
X76278993Y-93960500D01*
X76414328Y-93933580D01*
X76541811Y-93880775D01*
X76656542Y-93804114D01*
X76754114Y-93706542D01*
X76830775Y-93591811D01*
X76883580Y-93464328D01*
X76910500Y-93328993D01*
X76910500Y-93321004D01*
X80549500Y-93321004D01*
X80549500Y-93458995D01*
X80567446Y-93549216D01*
X80575919Y-93591811D01*
X80576420Y-93594327D01*
X80576420Y-93594329D01*
X80629222Y-93721806D01*
X80629228Y-93721817D01*
X80705885Y-93836541D01*
X80803458Y-93934114D01*
X80918182Y-94010771D01*
X80918193Y-94010777D01*
X80965283Y-94030282D01*
X81045672Y-94063580D01*
X81181007Y-94090500D01*
X81181008Y-94090500D01*
X81318992Y-94090500D01*
X81318993Y-94090500D01*
X81454328Y-94063580D01*
X81581811Y-94010775D01*
X81696542Y-93934114D01*
X81791206Y-93839450D01*
X91704500Y-93839450D01*
X91704500Y-94020549D01*
X91732828Y-94199406D01*
X91788788Y-94371637D01*
X91868764Y-94528599D01*
X91871004Y-94532994D01*
X91977447Y-94679501D01*
X92105499Y-94807553D01*
X92252006Y-94913996D01*
X92413361Y-94996211D01*
X92585591Y-95052171D01*
X92657136Y-95063502D01*
X92764451Y-95080500D01*
X92764454Y-95080500D01*
X92945549Y-95080500D01*
X93034977Y-95066335D01*
X93124409Y-95052171D01*
X93296639Y-94996211D01*
X93457994Y-94913996D01*
X93604501Y-94807553D01*
X93732553Y-94679501D01*
X93838996Y-94532994D01*
X93921211Y-94371639D01*
X93977171Y-94199409D01*
X93991335Y-94109977D01*
X94005500Y-94020549D01*
X94005500Y-93839450D01*
X93977171Y-93660593D01*
X93977171Y-93660591D01*
X93921211Y-93488361D01*
X93838996Y-93327006D01*
X93732553Y-93180499D01*
X93604501Y-93052447D01*
X93580666Y-93035130D01*
X94244500Y-93035130D01*
X94244500Y-94824860D01*
X94244501Y-94824863D01*
X94247414Y-94849990D01*
X94272756Y-94907385D01*
X94292794Y-94952765D01*
X94372235Y-95032206D01*
X94475009Y-95077585D01*
X94500135Y-95080500D01*
X96289864Y-95080499D01*
X96314991Y-95077585D01*
X96417765Y-95032206D01*
X96497206Y-94952765D01*
X96542585Y-94849991D01*
X96545500Y-94824865D01*
X96545499Y-93035136D01*
X96542585Y-93010009D01*
X96497206Y-92907235D01*
X96417765Y-92827794D01*
X96314991Y-92782415D01*
X96314990Y-92782414D01*
X96314988Y-92782414D01*
X96289868Y-92779500D01*
X94500139Y-92779500D01*
X94500136Y-92779501D01*
X94475009Y-92782414D01*
X94372235Y-92827794D01*
X94292794Y-92907235D01*
X94247414Y-93010011D01*
X94244500Y-93035130D01*
X93580666Y-93035130D01*
X93457994Y-92946004D01*
X93457993Y-92946003D01*
X93457991Y-92946002D01*
X93296637Y-92863788D01*
X93124406Y-92807828D01*
X92945549Y-92779500D01*
X92945546Y-92779500D01*
X92764454Y-92779500D01*
X92764451Y-92779500D01*
X92585593Y-92807828D01*
X92413362Y-92863788D01*
X92252008Y-92946002D01*
X92178752Y-92999225D01*
X92105499Y-93052447D01*
X91977447Y-93180499D01*
X91924225Y-93253752D01*
X91871002Y-93327008D01*
X91788788Y-93488362D01*
X91732828Y-93660593D01*
X91704500Y-93839450D01*
X81791206Y-93839450D01*
X81794114Y-93836542D01*
X81836923Y-93772475D01*
X81870771Y-93721817D01*
X81870771Y-93721816D01*
X81870775Y-93721811D01*
X81923580Y-93594328D01*
X81950500Y-93458993D01*
X81950500Y-93321007D01*
X81923580Y-93185672D01*
X81894779Y-93116139D01*
X81870777Y-93058193D01*
X81870771Y-93058182D01*
X81815883Y-92976038D01*
X81794114Y-92943458D01*
X81778181Y-92927525D01*
X84329500Y-92927525D01*
X84329500Y-93072474D01*
X84367017Y-93212489D01*
X84439487Y-93338010D01*
X84439489Y-93338012D01*
X84439491Y-93338015D01*
X84541985Y-93440509D01*
X84541987Y-93440510D01*
X84541989Y-93440512D01*
X84667511Y-93512982D01*
X84667512Y-93512982D01*
X84667515Y-93512984D01*
X84807525Y-93550500D01*
X84807526Y-93550500D01*
X84952474Y-93550500D01*
X84952475Y-93550500D01*
X85092485Y-93512984D01*
X85092487Y-93512982D01*
X85092489Y-93512982D01*
X85218010Y-93440512D01*
X85218010Y-93440511D01*
X85218015Y-93440509D01*
X85320509Y-93338015D01*
X85330330Y-93321004D01*
X85392982Y-93212489D01*
X85392982Y-93212487D01*
X85392984Y-93212485D01*
X85430500Y-93072475D01*
X85430500Y-92927525D01*
X85392984Y-92787515D01*
X85392982Y-92787512D01*
X85392982Y-92787510D01*
X85320512Y-92661989D01*
X85320510Y-92661987D01*
X85320509Y-92661985D01*
X85218015Y-92559491D01*
X85218012Y-92559489D01*
X85218010Y-92559487D01*
X85092488Y-92487017D01*
X85092489Y-92487017D01*
X85062896Y-92479087D01*
X84952475Y-92449500D01*
X84807525Y-92449500D01*
X84745790Y-92466041D01*
X84667510Y-92487017D01*
X84541989Y-92559487D01*
X84439487Y-92661989D01*
X84367017Y-92787510D01*
X84329500Y-92927525D01*
X81778181Y-92927525D01*
X81696542Y-92845886D01*
X81696541Y-92845885D01*
X81581817Y-92769228D01*
X81581806Y-92769222D01*
X81454328Y-92716420D01*
X81318995Y-92689500D01*
X81318993Y-92689500D01*
X81181007Y-92689500D01*
X81181004Y-92689500D01*
X81045672Y-92716420D01*
X81045670Y-92716420D01*
X80918193Y-92769222D01*
X80918182Y-92769228D01*
X80803458Y-92845885D01*
X80705885Y-92943458D01*
X80629228Y-93058182D01*
X80629222Y-93058193D01*
X80576420Y-93185670D01*
X80576420Y-93185672D01*
X80549500Y-93321004D01*
X76910500Y-93321004D01*
X76910500Y-93191007D01*
X76883580Y-93055672D01*
X76838154Y-92946004D01*
X76830777Y-92928193D01*
X76830771Y-92928182D01*
X76754114Y-92813458D01*
X76656541Y-92715885D01*
X76541817Y-92639228D01*
X76541806Y-92639222D01*
X76414328Y-92586420D01*
X76278995Y-92559500D01*
X76278993Y-92559500D01*
X76141007Y-92559500D01*
X76141004Y-92559500D01*
X76005672Y-92586420D01*
X76005670Y-92586420D01*
X75878193Y-92639222D01*
X75878182Y-92639228D01*
X75763458Y-92715885D01*
X75665885Y-92813458D01*
X75589228Y-92928182D01*
X75589222Y-92928193D01*
X75536420Y-93055670D01*
X75536420Y-93055672D01*
X75509500Y-93191004D01*
X52461778Y-93191004D01*
X52460750Y-93184513D01*
X52467868Y-93170542D01*
X52470321Y-93155055D01*
X52488524Y-93129999D01*
X52580509Y-93038015D01*
X52580512Y-93038010D01*
X52652982Y-92912489D01*
X52652982Y-92912487D01*
X52652984Y-92912485D01*
X52690500Y-92772475D01*
X52690500Y-92627525D01*
X52652984Y-92487515D01*
X52652982Y-92487512D01*
X52652982Y-92487510D01*
X52580512Y-92361989D01*
X52580510Y-92361987D01*
X52580509Y-92361985D01*
X52488525Y-92270001D01*
X52460750Y-92215487D01*
X52470321Y-92155055D01*
X52488524Y-92129999D01*
X52580509Y-92038015D01*
X52580512Y-92038010D01*
X52652982Y-91912489D01*
X52652982Y-91912487D01*
X52652984Y-91912485D01*
X52690500Y-91772475D01*
X52690500Y-91627525D01*
X52658346Y-91507525D01*
X69359500Y-91507525D01*
X69359500Y-91652474D01*
X69397017Y-91792489D01*
X69469487Y-91918010D01*
X69469489Y-91918012D01*
X69469491Y-91918015D01*
X69571985Y-92020509D01*
X69571987Y-92020510D01*
X69571989Y-92020512D01*
X69697511Y-92092982D01*
X69697512Y-92092982D01*
X69697515Y-92092984D01*
X69837525Y-92130500D01*
X69837526Y-92130500D01*
X69982474Y-92130500D01*
X69982475Y-92130500D01*
X70122485Y-92092984D01*
X70122487Y-92092982D01*
X70122489Y-92092982D01*
X70248010Y-92020512D01*
X70248010Y-92020511D01*
X70248015Y-92020509D01*
X70350509Y-91918015D01*
X70350512Y-91918010D01*
X70422982Y-91792489D01*
X70422982Y-91792487D01*
X70422984Y-91792485D01*
X70460500Y-91652475D01*
X70460500Y-91507525D01*
X70422984Y-91367515D01*
X70422982Y-91367512D01*
X70422982Y-91367510D01*
X70350512Y-91241989D01*
X70350510Y-91241987D01*
X70350509Y-91241985D01*
X70248015Y-91139491D01*
X70248012Y-91139489D01*
X70248010Y-91139487D01*
X70122490Y-91067018D01*
X70122487Y-91067017D01*
X70122485Y-91067016D01*
X69982475Y-91029500D01*
X69837525Y-91029500D01*
X69780183Y-91044865D01*
X69697510Y-91067017D01*
X69571989Y-91139487D01*
X69469487Y-91241989D01*
X69397017Y-91367510D01*
X69359500Y-91507525D01*
X52658346Y-91507525D01*
X52652984Y-91487515D01*
X52626349Y-91441382D01*
X52623968Y-91435756D01*
X52621833Y-91411067D01*
X52616680Y-91386821D01*
X52619241Y-91381068D01*
X52618699Y-91374798D01*
X52631484Y-91353568D01*
X52641566Y-91330926D01*
X52647017Y-91327778D01*
X52650266Y-91322385D01*
X52673091Y-91312724D01*
X52694554Y-91300333D01*
X52702885Y-91300114D01*
X52706613Y-91298537D01*
X52712345Y-91299866D01*
X52730626Y-91299388D01*
X52737646Y-91300500D01*
X52737648Y-91300500D01*
X52942355Y-91300500D01*
X53144529Y-91268478D01*
X53144530Y-91268477D01*
X53144534Y-91268477D01*
X53339219Y-91205220D01*
X53521610Y-91112287D01*
X53522201Y-91111858D01*
X53614409Y-91044865D01*
X53687219Y-90991966D01*
X53831966Y-90847219D01*
X53952287Y-90681610D01*
X54045220Y-90499219D01*
X54108477Y-90304534D01*
X54108478Y-90304529D01*
X54140500Y-90102355D01*
X54140500Y-89897684D01*
X56620000Y-89897684D01*
X56620000Y-90102315D01*
X56652008Y-90304412D01*
X56715243Y-90499027D01*
X56808139Y-90681348D01*
X56808143Y-90681353D01*
X56840523Y-90725920D01*
X56840524Y-90725920D01*
X57396212Y-90170232D01*
X57407482Y-90212292D01*
X57479890Y-90337708D01*
X57582292Y-90440110D01*
X57707708Y-90512518D01*
X57749765Y-90523787D01*
X57194078Y-91079475D01*
X57238647Y-91111858D01*
X57420972Y-91204756D01*
X57615587Y-91267991D01*
X57817685Y-91300000D01*
X58022315Y-91300000D01*
X58224412Y-91267991D01*
X58419027Y-91204756D01*
X58601342Y-91111863D01*
X58601350Y-91111858D01*
X58645920Y-91079475D01*
X58090232Y-90523787D01*
X58132292Y-90512518D01*
X58257708Y-90440110D01*
X58360110Y-90337708D01*
X58432518Y-90212292D01*
X58443787Y-90170232D01*
X58999475Y-90725920D01*
X59031858Y-90681350D01*
X59031863Y-90681342D01*
X59124756Y-90499027D01*
X59187991Y-90304412D01*
X59220000Y-90102315D01*
X59220000Y-89897684D01*
X59187991Y-89695587D01*
X59124756Y-89500972D01*
X59031858Y-89318647D01*
X58999475Y-89274078D01*
X58443787Y-89829765D01*
X58432518Y-89787708D01*
X58360110Y-89662292D01*
X58257708Y-89559890D01*
X58132292Y-89487482D01*
X58090232Y-89476212D01*
X58611314Y-88955130D01*
X61699500Y-88955130D01*
X61699500Y-91044860D01*
X61699501Y-91044863D01*
X61702414Y-91069990D01*
X61721090Y-91112287D01*
X61747794Y-91172765D01*
X61827235Y-91252206D01*
X61930009Y-91297585D01*
X61955135Y-91300500D01*
X64044864Y-91300499D01*
X64069991Y-91297585D01*
X64172765Y-91252206D01*
X64252206Y-91172765D01*
X64297585Y-91069991D01*
X64300500Y-91044865D01*
X64300500Y-90995845D01*
X90717706Y-90995845D01*
X90846645Y-91049255D01*
X90846651Y-91049257D01*
X91001204Y-91079999D01*
X91001208Y-91080000D01*
X91158792Y-91080000D01*
X91158795Y-91079999D01*
X91313348Y-91049257D01*
X91313354Y-91049255D01*
X91442292Y-90995846D01*
X91079999Y-90633553D01*
X90717706Y-90995845D01*
X64300500Y-90995845D01*
X64300499Y-89657525D01*
X82219500Y-89657525D01*
X82219500Y-89802475D01*
X82249087Y-89912896D01*
X82257017Y-89942489D01*
X82329487Y-90068010D01*
X82329489Y-90068012D01*
X82329491Y-90068015D01*
X82431985Y-90170509D01*
X82431987Y-90170510D01*
X82431989Y-90170512D01*
X82557511Y-90242982D01*
X82557512Y-90242982D01*
X82557515Y-90242984D01*
X82697525Y-90280500D01*
X82697526Y-90280500D01*
X82842474Y-90280500D01*
X82842475Y-90280500D01*
X82982485Y-90242984D01*
X82982487Y-90242982D01*
X82982489Y-90242982D01*
X83108010Y-90170512D01*
X83108010Y-90170511D01*
X83108015Y-90170509D01*
X83210509Y-90068015D01*
X83265670Y-89972474D01*
X83282982Y-89942489D01*
X83282982Y-89942487D01*
X83282984Y-89942485D01*
X83313788Y-89827525D01*
X88579500Y-89827525D01*
X88579500Y-89972475D01*
X88592217Y-90019936D01*
X88617017Y-90112489D01*
X88689487Y-90238010D01*
X88689489Y-90238012D01*
X88689491Y-90238015D01*
X88791985Y-90340509D01*
X88791987Y-90340510D01*
X88791989Y-90340512D01*
X88917511Y-90412982D01*
X88917512Y-90412982D01*
X88917515Y-90412984D01*
X89057525Y-90450500D01*
X89057526Y-90450500D01*
X89202474Y-90450500D01*
X89202475Y-90450500D01*
X89342485Y-90412984D01*
X89342487Y-90412982D01*
X89342489Y-90412982D01*
X89468010Y-90340512D01*
X89468010Y-90340511D01*
X89468015Y-90340509D01*
X89570509Y-90238015D01*
X89591762Y-90201204D01*
X90280000Y-90201204D01*
X90280000Y-90358795D01*
X90310742Y-90513349D01*
X90364152Y-90642292D01*
X90726446Y-90279999D01*
X90683660Y-90237213D01*
X90755000Y-90237213D01*
X90755000Y-90322787D01*
X90777149Y-90405445D01*
X90819936Y-90479554D01*
X90880446Y-90540064D01*
X90954555Y-90582851D01*
X91037213Y-90605000D01*
X91122787Y-90605000D01*
X91205445Y-90582851D01*
X91279554Y-90540064D01*
X91340064Y-90479554D01*
X91382851Y-90405445D01*
X91405000Y-90322787D01*
X91405000Y-90279999D01*
X91433553Y-90279999D01*
X91795846Y-90642292D01*
X91849255Y-90513354D01*
X91849257Y-90513348D01*
X91879999Y-90358795D01*
X91880000Y-90358792D01*
X91880000Y-90201207D01*
X91879999Y-90201204D01*
X91849257Y-90046651D01*
X91849255Y-90046645D01*
X91795845Y-89917706D01*
X91433553Y-90279999D01*
X91405000Y-90279999D01*
X91405000Y-90237213D01*
X91382851Y-90154555D01*
X91340064Y-90080446D01*
X91279554Y-90019936D01*
X91205445Y-89977149D01*
X91122787Y-89955000D01*
X91037213Y-89955000D01*
X90954555Y-89977149D01*
X90880446Y-90019936D01*
X90819936Y-90080446D01*
X90777149Y-90154555D01*
X90755000Y-90237213D01*
X90683660Y-90237213D01*
X90364153Y-89917706D01*
X90364152Y-89917706D01*
X90310743Y-90046647D01*
X90310743Y-90046649D01*
X90280000Y-90201204D01*
X89591762Y-90201204D01*
X89642984Y-90112485D01*
X89680500Y-89972475D01*
X89680500Y-89827525D01*
X89659565Y-89749395D01*
X89662767Y-89688296D01*
X89701272Y-89640746D01*
X89705671Y-89638050D01*
X89788015Y-89590509D01*
X89890509Y-89488015D01*
X89890817Y-89487482D01*
X89962982Y-89362489D01*
X89962982Y-89362487D01*
X89962984Y-89362485D01*
X90000500Y-89222475D01*
X90000500Y-89077525D01*
X89962984Y-88937515D01*
X89962982Y-88937512D01*
X89962982Y-88937510D01*
X89890512Y-88811989D01*
X89890510Y-88811987D01*
X89890509Y-88811985D01*
X89788015Y-88709491D01*
X89788012Y-88709489D01*
X89788010Y-88709487D01*
X89662488Y-88637017D01*
X89662489Y-88637017D01*
X89632896Y-88629087D01*
X89522475Y-88599500D01*
X89377525Y-88599500D01*
X89315790Y-88616041D01*
X89237510Y-88637017D01*
X89111989Y-88709487D01*
X89009487Y-88811989D01*
X88937017Y-88937510D01*
X88899500Y-89077525D01*
X88899500Y-89222474D01*
X88920434Y-89300601D01*
X88917231Y-89361702D01*
X88878726Y-89409252D01*
X88874308Y-89411960D01*
X88791987Y-89459489D01*
X88689487Y-89561989D01*
X88617017Y-89687510D01*
X88614884Y-89695470D01*
X88579500Y-89827525D01*
X83313788Y-89827525D01*
X83320500Y-89802475D01*
X83320500Y-89657525D01*
X83282984Y-89517515D01*
X83282982Y-89517512D01*
X83282982Y-89517510D01*
X83210512Y-89391989D01*
X83210510Y-89391987D01*
X83210509Y-89391985D01*
X83108015Y-89289491D01*
X83108012Y-89289489D01*
X83108010Y-89289487D01*
X82982488Y-89217017D01*
X82982489Y-89217017D01*
X82952896Y-89209087D01*
X82842475Y-89179500D01*
X82697525Y-89179500D01*
X82635790Y-89196041D01*
X82557510Y-89217017D01*
X82431989Y-89289487D01*
X82329487Y-89391989D01*
X82257017Y-89517510D01*
X82245100Y-89561985D01*
X82219500Y-89657525D01*
X64300499Y-89657525D01*
X64300499Y-88955136D01*
X64297585Y-88930009D01*
X64252206Y-88827235D01*
X64172765Y-88747794D01*
X64069991Y-88702415D01*
X64069990Y-88702414D01*
X64069988Y-88702414D01*
X64044868Y-88699500D01*
X61955139Y-88699500D01*
X61955136Y-88699501D01*
X61930009Y-88702414D01*
X61827235Y-88747794D01*
X61747794Y-88827235D01*
X61702414Y-88930011D01*
X61699500Y-88955130D01*
X58611314Y-88955130D01*
X58645920Y-88920524D01*
X58645920Y-88920523D01*
X58601353Y-88888143D01*
X58601348Y-88888139D01*
X58419027Y-88795243D01*
X58224412Y-88732008D01*
X58022315Y-88700000D01*
X57817685Y-88700000D01*
X57615587Y-88732008D01*
X57420972Y-88795243D01*
X57238651Y-88888139D01*
X57238647Y-88888141D01*
X57194078Y-88920523D01*
X57749767Y-89476212D01*
X57707708Y-89487482D01*
X57582292Y-89559890D01*
X57479890Y-89662292D01*
X57407482Y-89787708D01*
X57396212Y-89829767D01*
X56840523Y-89274078D01*
X56808141Y-89318647D01*
X56808139Y-89318651D01*
X56715243Y-89500972D01*
X56652008Y-89695587D01*
X56620000Y-89897684D01*
X54140500Y-89897684D01*
X54140500Y-89897644D01*
X54108478Y-89695470D01*
X54106147Y-89688296D01*
X54045220Y-89500781D01*
X53952287Y-89318390D01*
X53952285Y-89318386D01*
X53831970Y-89152786D01*
X53831968Y-89152784D01*
X53831966Y-89152781D01*
X53687219Y-89008034D01*
X53687215Y-89008031D01*
X53687213Y-89008029D01*
X53521613Y-88887714D01*
X53521609Y-88887712D01*
X53339219Y-88794780D01*
X53144529Y-88731521D01*
X52942355Y-88699500D01*
X52942352Y-88699500D01*
X52737648Y-88699500D01*
X52737645Y-88699500D01*
X52535470Y-88731521D01*
X52340780Y-88794780D01*
X52158390Y-88887712D01*
X52158386Y-88887714D01*
X51992786Y-89008029D01*
X51848029Y-89152786D01*
X51727714Y-89318386D01*
X51727712Y-89318390D01*
X51634780Y-89500780D01*
X51571521Y-89695470D01*
X51539500Y-89897644D01*
X49000500Y-89897644D01*
X49000500Y-86127525D01*
X74549500Y-86127525D01*
X74549500Y-86272474D01*
X74587017Y-86412489D01*
X74659487Y-86538010D01*
X74659489Y-86538012D01*
X74659491Y-86538015D01*
X74731474Y-86609998D01*
X74759250Y-86664513D01*
X74749679Y-86724945D01*
X74731475Y-86750000D01*
X74659491Y-86821985D01*
X74659488Y-86821988D01*
X74659487Y-86821989D01*
X74587017Y-86947510D01*
X74549500Y-87087525D01*
X74549500Y-87232474D01*
X74587017Y-87372489D01*
X74659487Y-87498010D01*
X74659489Y-87498012D01*
X74659491Y-87498015D01*
X74761985Y-87600509D01*
X74761987Y-87600510D01*
X74761989Y-87600512D01*
X74887511Y-87672982D01*
X74887512Y-87672982D01*
X74887515Y-87672984D01*
X75027525Y-87710500D01*
X75027526Y-87710500D01*
X75172474Y-87710500D01*
X75172475Y-87710500D01*
X75312485Y-87672984D01*
X75312487Y-87672982D01*
X75312489Y-87672982D01*
X75438010Y-87600512D01*
X75438010Y-87600511D01*
X75438015Y-87600509D01*
X75540509Y-87498015D01*
X75612984Y-87372485D01*
X75650500Y-87232475D01*
X75650500Y-87087525D01*
X75612984Y-86947515D01*
X75612982Y-86947512D01*
X75612982Y-86947510D01*
X75540512Y-86821989D01*
X75540510Y-86821987D01*
X75540509Y-86821985D01*
X75468525Y-86750001D01*
X75440750Y-86695487D01*
X75450321Y-86635055D01*
X75468524Y-86609999D01*
X75540509Y-86538015D01*
X75612984Y-86412485D01*
X75650500Y-86272475D01*
X75650500Y-86127525D01*
X75612984Y-85987515D01*
X75612982Y-85987512D01*
X75612982Y-85987510D01*
X75540512Y-85861989D01*
X75540510Y-85861987D01*
X75540509Y-85861985D01*
X75438015Y-85759491D01*
X75438012Y-85759489D01*
X75438010Y-85759487D01*
X75312488Y-85687017D01*
X75312489Y-85687017D01*
X75282896Y-85679087D01*
X75172475Y-85649500D01*
X75027525Y-85649500D01*
X74965790Y-85666041D01*
X74887510Y-85687017D01*
X74761989Y-85759487D01*
X74659487Y-85861989D01*
X74587017Y-85987510D01*
X74549500Y-86127525D01*
X49000500Y-86127525D01*
X49000500Y-82255130D01*
X56699500Y-82255130D01*
X56699500Y-84344860D01*
X56699501Y-84344863D01*
X56702414Y-84369990D01*
X56721090Y-84412287D01*
X56747794Y-84472765D01*
X56827235Y-84552206D01*
X56930009Y-84597585D01*
X56955135Y-84600500D01*
X59044864Y-84600499D01*
X59069991Y-84597585D01*
X59172765Y-84552206D01*
X59252206Y-84472765D01*
X59297585Y-84369991D01*
X59300500Y-84344865D01*
X59300499Y-83197684D01*
X61780000Y-83197684D01*
X61780000Y-83402315D01*
X61812008Y-83604412D01*
X61875243Y-83799027D01*
X61968139Y-83981348D01*
X61968143Y-83981353D01*
X62000523Y-84025920D01*
X62000524Y-84025920D01*
X62556212Y-83470232D01*
X62567482Y-83512292D01*
X62639890Y-83637708D01*
X62742292Y-83740110D01*
X62867708Y-83812518D01*
X62909765Y-83823787D01*
X62354078Y-84379475D01*
X62398647Y-84411858D01*
X62580972Y-84504756D01*
X62775587Y-84567991D01*
X62977685Y-84600000D01*
X63182315Y-84600000D01*
X63384412Y-84567991D01*
X63579027Y-84504756D01*
X63761342Y-84411863D01*
X63761350Y-84411858D01*
X63805920Y-84379475D01*
X63250232Y-83823787D01*
X63292292Y-83812518D01*
X63417708Y-83740110D01*
X63520110Y-83637708D01*
X63592518Y-83512292D01*
X63603787Y-83470232D01*
X64159475Y-84025920D01*
X64191858Y-83981350D01*
X64191863Y-83981342D01*
X64284756Y-83799027D01*
X64347991Y-83604412D01*
X64380000Y-83402315D01*
X64380000Y-83197684D01*
X64379994Y-83197644D01*
X66859500Y-83197644D01*
X66859500Y-83402355D01*
X66891521Y-83604529D01*
X66954780Y-83799219D01*
X67047712Y-83981609D01*
X67047714Y-83981613D01*
X67168029Y-84147213D01*
X67168031Y-84147215D01*
X67168034Y-84147219D01*
X67312781Y-84291966D01*
X67312784Y-84291968D01*
X67312786Y-84291970D01*
X67478386Y-84412285D01*
X67478390Y-84412287D01*
X67660781Y-84505220D01*
X67855466Y-84568477D01*
X67855467Y-84568477D01*
X67855470Y-84568478D01*
X68057645Y-84600500D01*
X68057648Y-84600500D01*
X68262355Y-84600500D01*
X68464529Y-84568478D01*
X68464530Y-84568477D01*
X68464534Y-84568477D01*
X68659219Y-84505220D01*
X68841610Y-84412287D01*
X68842201Y-84411858D01*
X68934409Y-84344865D01*
X69007219Y-84291966D01*
X69151966Y-84147219D01*
X69272287Y-83981610D01*
X69365220Y-83799219D01*
X69428477Y-83604534D01*
X69428478Y-83604529D01*
X69460500Y-83402355D01*
X69460500Y-83197644D01*
X69444484Y-83096523D01*
X69443059Y-83087525D01*
X74599500Y-83087525D01*
X74599500Y-83232475D01*
X74629087Y-83342896D01*
X74637017Y-83372489D01*
X74709487Y-83498010D01*
X74709489Y-83498012D01*
X74709491Y-83498015D01*
X74811985Y-83600509D01*
X74811987Y-83600510D01*
X74811989Y-83600512D01*
X74937511Y-83672982D01*
X74937512Y-83672982D01*
X74937515Y-83672984D01*
X75077525Y-83710500D01*
X75077526Y-83710500D01*
X75222474Y-83710500D01*
X75222475Y-83710500D01*
X75362485Y-83672984D01*
X75362487Y-83672982D01*
X75362489Y-83672982D01*
X75488010Y-83600512D01*
X75488010Y-83600511D01*
X75488015Y-83600509D01*
X75590509Y-83498015D01*
X75655683Y-83385130D01*
X90279500Y-83385130D01*
X90279500Y-84474860D01*
X90279501Y-84474863D01*
X90282414Y-84499990D01*
X90305470Y-84552205D01*
X90327794Y-84602765D01*
X90383349Y-84658320D01*
X90411125Y-84712835D01*
X90401554Y-84773267D01*
X90395661Y-84783321D01*
X90370605Y-84820821D01*
X90310263Y-84966501D01*
X90310263Y-84966503D01*
X90279500Y-85121155D01*
X90279500Y-85278844D01*
X90310263Y-85433496D01*
X90310263Y-85433498D01*
X90370603Y-85579174D01*
X90370609Y-85579185D01*
X90417593Y-85649500D01*
X90458211Y-85710289D01*
X90458214Y-85710292D01*
X90512918Y-85764996D01*
X90540695Y-85819513D01*
X90531124Y-85879945D01*
X90512918Y-85905004D01*
X90458214Y-85959707D01*
X90458211Y-85959711D01*
X90370609Y-86090814D01*
X90370603Y-86090825D01*
X90310263Y-86236501D01*
X90310263Y-86236503D01*
X90279500Y-86391155D01*
X90279500Y-86548844D01*
X90310263Y-86703496D01*
X90310263Y-86703498D01*
X90370603Y-86849174D01*
X90370609Y-86849185D01*
X90423312Y-86928059D01*
X90458211Y-86980289D01*
X90458214Y-86980292D01*
X90512918Y-87034996D01*
X90540695Y-87089513D01*
X90531124Y-87149945D01*
X90512918Y-87175004D01*
X90458214Y-87229707D01*
X90458211Y-87229711D01*
X90370609Y-87360814D01*
X90370603Y-87360825D01*
X90310263Y-87506501D01*
X90310263Y-87506503D01*
X90279500Y-87661155D01*
X90279500Y-87818844D01*
X90310263Y-87973496D01*
X90310263Y-87973498D01*
X90370603Y-88119174D01*
X90370609Y-88119185D01*
X90423312Y-88198059D01*
X90458211Y-88250289D01*
X90458214Y-88250292D01*
X90512918Y-88304996D01*
X90540695Y-88359513D01*
X90531124Y-88419945D01*
X90512918Y-88445004D01*
X90458214Y-88499707D01*
X90458211Y-88499711D01*
X90370609Y-88630814D01*
X90370603Y-88630825D01*
X90310263Y-88776501D01*
X90310263Y-88776503D01*
X90279500Y-88931155D01*
X90279500Y-88931158D01*
X90279500Y-89088842D01*
X90306081Y-89222475D01*
X90310263Y-89243496D01*
X90310263Y-89243498D01*
X90370603Y-89389174D01*
X90370609Y-89389185D01*
X90411245Y-89450000D01*
X90458211Y-89520289D01*
X90569711Y-89631789D01*
X90616398Y-89662984D01*
X90700814Y-89719390D01*
X90700825Y-89719396D01*
X90797942Y-89759622D01*
X90846503Y-89779737D01*
X90925385Y-89795427D01*
X90976074Y-89822521D01*
X91079999Y-89926445D01*
X91183922Y-89822522D01*
X91234609Y-89795428D01*
X91313497Y-89779737D01*
X91459179Y-89719394D01*
X91590289Y-89631789D01*
X91701789Y-89520289D01*
X91789394Y-89389179D01*
X91849737Y-89243497D01*
X91880500Y-89088842D01*
X91880500Y-88931158D01*
X91849737Y-88776503D01*
X91817842Y-88699500D01*
X91789396Y-88630825D01*
X91789390Y-88630814D01*
X91754017Y-88577876D01*
X91701789Y-88499711D01*
X91701784Y-88499706D01*
X91701781Y-88499702D01*
X91647082Y-88445004D01*
X91619304Y-88390488D01*
X91628875Y-88330056D01*
X91647082Y-88304996D01*
X91701781Y-88250297D01*
X91701789Y-88250289D01*
X91789394Y-88119179D01*
X91849737Y-87973497D01*
X91880500Y-87818842D01*
X91880500Y-87661158D01*
X91849737Y-87506503D01*
X91794227Y-87372489D01*
X91789396Y-87360825D01*
X91789390Y-87360814D01*
X91754017Y-87307876D01*
X91701789Y-87229711D01*
X91701784Y-87229706D01*
X91701781Y-87229702D01*
X91647082Y-87175004D01*
X91619304Y-87120488D01*
X91628875Y-87060056D01*
X91647082Y-87034996D01*
X91701781Y-86980297D01*
X91701789Y-86980289D01*
X91789394Y-86849179D01*
X91849737Y-86703497D01*
X91880500Y-86548842D01*
X91880500Y-86391158D01*
X91849737Y-86236503D01*
X91789394Y-86090821D01*
X91789393Y-86090819D01*
X91789390Y-86090814D01*
X91754017Y-86037876D01*
X91701789Y-85959711D01*
X91701784Y-85959706D01*
X91701781Y-85959702D01*
X91647082Y-85905004D01*
X91619304Y-85850488D01*
X91628875Y-85790056D01*
X91647082Y-85764996D01*
X91701781Y-85710297D01*
X91701789Y-85710289D01*
X91789394Y-85579179D01*
X91849737Y-85433497D01*
X91880500Y-85278842D01*
X91880500Y-85121158D01*
X91849737Y-84966503D01*
X91789394Y-84820821D01*
X91764338Y-84783323D01*
X91747731Y-84724436D01*
X91768909Y-84667033D01*
X91776643Y-84658327D01*
X91832206Y-84602765D01*
X91877585Y-84499991D01*
X91880500Y-84474865D01*
X91880499Y-83385136D01*
X91877585Y-83360009D01*
X91832206Y-83257235D01*
X91752765Y-83177794D01*
X91649991Y-83132415D01*
X91649990Y-83132414D01*
X91649988Y-83132414D01*
X91624868Y-83129500D01*
X90535139Y-83129500D01*
X90535136Y-83129501D01*
X90510009Y-83132414D01*
X90407235Y-83177794D01*
X90327794Y-83257235D01*
X90282414Y-83360011D01*
X90279500Y-83385130D01*
X75655683Y-83385130D01*
X75662984Y-83372485D01*
X75664932Y-83365211D01*
X75667226Y-83356655D01*
X75667226Y-83356653D01*
X75700500Y-83232475D01*
X75700500Y-83087525D01*
X75662984Y-82947515D01*
X75662982Y-82947512D01*
X75662982Y-82947510D01*
X75590512Y-82821989D01*
X75590510Y-82821987D01*
X75590509Y-82821985D01*
X75488015Y-82719491D01*
X75488012Y-82719489D01*
X75488010Y-82719487D01*
X75362488Y-82647017D01*
X75362489Y-82647017D01*
X75332896Y-82639087D01*
X75222475Y-82609500D01*
X75077525Y-82609500D01*
X75015790Y-82626041D01*
X74937510Y-82647017D01*
X74811989Y-82719487D01*
X74709487Y-82821989D01*
X74637017Y-82947510D01*
X74624166Y-82995470D01*
X74599500Y-83087525D01*
X69443059Y-83087525D01*
X69428496Y-82995587D01*
X69428477Y-82995466D01*
X69365220Y-82800781D01*
X69272287Y-82618390D01*
X69272285Y-82618386D01*
X69151970Y-82452786D01*
X69151968Y-82452784D01*
X69151966Y-82452781D01*
X69007219Y-82308034D01*
X69007215Y-82308031D01*
X69007213Y-82308029D01*
X68841613Y-82187714D01*
X68841609Y-82187712D01*
X68659219Y-82094780D01*
X68464529Y-82031521D01*
X68262355Y-81999500D01*
X68262352Y-81999500D01*
X68057648Y-81999500D01*
X68057645Y-81999500D01*
X67855470Y-82031521D01*
X67660780Y-82094780D01*
X67478390Y-82187712D01*
X67478386Y-82187714D01*
X67312786Y-82308029D01*
X67168029Y-82452786D01*
X67047714Y-82618386D01*
X67047712Y-82618390D01*
X66954780Y-82800780D01*
X66891521Y-82995470D01*
X66859500Y-83197644D01*
X64379994Y-83197644D01*
X64347991Y-82995587D01*
X64284756Y-82800972D01*
X64191858Y-82618647D01*
X64159475Y-82574078D01*
X63603787Y-83129765D01*
X63592518Y-83087708D01*
X63520110Y-82962292D01*
X63417708Y-82859890D01*
X63292292Y-82787482D01*
X63250232Y-82776212D01*
X63805920Y-82220524D01*
X63805920Y-82220523D01*
X63761353Y-82188143D01*
X63761348Y-82188139D01*
X63579027Y-82095243D01*
X63384412Y-82032008D01*
X63182315Y-82000000D01*
X62977685Y-82000000D01*
X62775587Y-82032008D01*
X62580972Y-82095243D01*
X62398651Y-82188139D01*
X62398647Y-82188141D01*
X62354078Y-82220523D01*
X62909767Y-82776212D01*
X62867708Y-82787482D01*
X62742292Y-82859890D01*
X62639890Y-82962292D01*
X62567482Y-83087708D01*
X62556212Y-83129767D01*
X62000523Y-82574078D01*
X61968141Y-82618647D01*
X61968139Y-82618651D01*
X61875243Y-82800972D01*
X61812008Y-82995587D01*
X61780000Y-83197684D01*
X59300499Y-83197684D01*
X59300499Y-82255136D01*
X59297585Y-82230009D01*
X59252206Y-82127235D01*
X59172765Y-82047794D01*
X59069991Y-82002415D01*
X59069990Y-82002414D01*
X59069988Y-82002414D01*
X59044868Y-81999500D01*
X56955139Y-81999500D01*
X56955136Y-81999501D01*
X56930009Y-82002414D01*
X56827235Y-82047794D01*
X56747794Y-82127235D01*
X56702414Y-82230011D01*
X56699500Y-82255130D01*
X49000500Y-82255130D01*
X49000500Y-81695025D01*
X73452000Y-81695025D01*
X73452000Y-81839974D01*
X73489517Y-81979989D01*
X73561987Y-82105510D01*
X73561989Y-82105512D01*
X73561991Y-82105515D01*
X73664485Y-82208009D01*
X73664487Y-82208010D01*
X73664489Y-82208012D01*
X73790011Y-82280482D01*
X73790012Y-82280482D01*
X73790015Y-82280484D01*
X73930025Y-82318000D01*
X73930026Y-82318000D01*
X74074974Y-82318000D01*
X74074975Y-82318000D01*
X74214985Y-82280484D01*
X74214987Y-82280482D01*
X74214989Y-82280482D01*
X74340510Y-82208012D01*
X74340510Y-82208011D01*
X74340515Y-82208009D01*
X74443009Y-82105515D01*
X74449207Y-82094780D01*
X74515482Y-81979989D01*
X74515482Y-81979987D01*
X74515484Y-81979985D01*
X74553000Y-81839975D01*
X74553000Y-81695025D01*
X74515484Y-81555015D01*
X74515482Y-81555012D01*
X74515482Y-81555010D01*
X74443012Y-81429489D01*
X74443010Y-81429487D01*
X74443009Y-81429485D01*
X74340515Y-81326991D01*
X74340512Y-81326989D01*
X74340510Y-81326987D01*
X74214988Y-81254517D01*
X74214989Y-81254517D01*
X74185396Y-81246587D01*
X74074975Y-81217000D01*
X73930025Y-81217000D01*
X73868290Y-81233541D01*
X73790010Y-81254517D01*
X73664489Y-81326987D01*
X73561987Y-81429489D01*
X73489517Y-81555010D01*
X73452000Y-81695025D01*
X49000500Y-81695025D01*
X49000500Y-80099500D01*
X49019407Y-80041309D01*
X49068907Y-80005345D01*
X49099500Y-80000500D01*
X98900500Y-80000500D01*
X98958691Y-80019407D01*
G37*
%TD.AperFunction*%
%TD*%
M02*
