%TF.GenerationSoftware,KiCad,Pcbnew,9.0.7-9.0.7~ubuntu24.04.1*%
%TF.CreationDate,2026-02-26T22:41:37+11:00*%
%TF.ProjectId,flipcab-rounded,666c6970-6361-4622-9d72-6f756e646564,rev?*%
%TF.SameCoordinates,Original*%
%TF.FileFunction,Legend,Top*%
%TF.FilePolarity,Positive*%
%FSLAX46Y46*%
G04 Gerber Fmt 4.6, Leading zero omitted, Abs format (unit mm)*
G04 Created by KiCad (PCBNEW 9.0.7-9.0.7~ubuntu24.04.1) date 2026-02-26 22:41:37*
%MOMM*%
%LPD*%
G01*
G04 APERTURE LIST*
G04 Aperture macros list*
%AMRoundRect*
0 Rectangle with rounded corners*
0 $1 Rounding radius*
0 $2 $3 $4 $5 $6 $7 $8 $9 X,Y pos of 4 corners*
0 Add a 4 corners polygon primitive as box body*
4,1,4,$2,$3,$4,$5,$6,$7,$8,$9,$2,$3,0*
0 Add four circle primitives for the rounded corners*
1,1,$1+$1,$2,$3*
1,1,$1+$1,$4,$5*
1,1,$1+$1,$6,$7*
1,1,$1+$1,$8,$9*
0 Add four rect primitives between the rounded corners*
20,1,$1+$1,$2,$3,$4,$5,0*
20,1,$1+$1,$4,$5,$6,$7,0*
20,1,$1+$1,$6,$7,$8,$9,0*
20,1,$1+$1,$8,$9,$2,$3,0*%
%AMOutline5P*
0 Free polygon, 5 corners , with rotation*
0 The origin of the aperture is its center*
0 number of corners: always 5*
0 $1 to $10 corner X, Y*
0 $11 Rotation angle, in degrees counterclockwise*
0 create outline with 5 corners*
4,1,5,$1,$2,$3,$4,$5,$6,$7,$8,$9,$10,$1,$2,$11*%
%AMOutline6P*
0 Free polygon, 6 corners , with rotation*
0 The origin of the aperture is its center*
0 number of corners: always 6*
0 $1 to $12 corner X, Y*
0 $13 Rotation angle, in degrees counterclockwise*
0 create outline with 6 corners*
4,1,6,$1,$2,$3,$4,$5,$6,$7,$8,$9,$10,$11,$12,$1,$2,$13*%
%AMOutline7P*
0 Free polygon, 7 corners , with rotation*
0 The origin of the aperture is its center*
0 number of corners: always 7*
0 $1 to $14 corner X, Y*
0 $15 Rotation angle, in degrees counterclockwise*
0 create outline with 7 corners*
4,1,7,$1,$2,$3,$4,$5,$6,$7,$8,$9,$10,$11,$12,$13,$14,$1,$2,$15*%
%AMOutline8P*
0 Free polygon, 8 corners , with rotation*
0 The origin of the aperture is its center*
0 number of corners: always 8*
0 $1 to $16 corner X, Y*
0 $17 Rotation angle, in degrees counterclockwise*
0 create outline with 8 corners*
4,1,8,$1,$2,$3,$4,$5,$6,$7,$8,$9,$10,$11,$12,$13,$14,$15,$16,$1,$2,$17*%
G04 Aperture macros list end*
%ADD10C,0.150000*%
%ADD11C,0.120000*%
%ADD12R,2.400000X3.100000*%
%ADD13RoundRect,0.070000X-1.100000X-0.250000X1.100000X-0.250000X1.100000X0.250000X-1.100000X0.250000X0*%
%ADD14C,0.770000*%
%ADD15RoundRect,0.135000X-0.135000X-0.185000X0.135000X-0.185000X0.135000X0.185000X-0.135000X0.185000X0*%
%ADD16RoundRect,0.140000X-0.170000X0.140000X-0.170000X-0.140000X0.170000X-0.140000X0.170000X0.140000X0*%
%ADD17R,1.000000X1.000000*%
%ADD18C,1.000000*%
%ADD19R,2.000000X2.000000*%
%ADD20C,2.000000*%
%ADD21RoundRect,0.250000X-0.312500X-0.625000X0.312500X-0.625000X0.312500X0.625000X-0.312500X0.625000X0*%
%ADD22RoundRect,0.150000X-0.512500X-0.150000X0.512500X-0.150000X0.512500X0.150000X-0.512500X0.150000X0*%
%ADD23RoundRect,0.135000X-0.185000X0.135000X-0.185000X-0.135000X0.185000X-0.135000X0.185000X0.135000X0*%
%ADD24RoundRect,0.140000X-0.140000X-0.170000X0.140000X-0.170000X0.140000X0.170000X-0.140000X0.170000X0*%
%ADD25RoundRect,0.225000X-0.250000X0.225000X-0.250000X-0.225000X0.250000X-0.225000X0.250000X0.225000X0*%
%ADD26R,0.800000X0.400000*%
%ADD27R,0.400000X0.800000*%
%ADD28Outline5P,-0.725000X0.130500X-0.130500X0.725000X0.725000X0.725000X0.725000X-0.725000X-0.725000X-0.725000X0.000000*%
%ADD29R,1.450000X1.450000*%
%ADD30R,0.700000X0.700000*%
%ADD31R,1.700000X1.700000*%
%ADD32C,1.700000*%
%ADD33RoundRect,0.225000X-0.225000X-0.250000X0.225000X-0.250000X0.225000X0.250000X-0.225000X0.250000X0*%
%ADD34RoundRect,0.250000X1.045000X-0.785000X1.045000X0.785000X-1.045000X0.785000X-1.045000X-0.785000X0*%
%ADD35RoundRect,0.150000X-0.587500X-0.150000X0.587500X-0.150000X0.587500X0.150000X-0.587500X0.150000X0*%
%ADD36RoundRect,0.140000X0.140000X0.170000X-0.140000X0.170000X-0.140000X-0.170000X0.140000X-0.170000X0*%
%ADD37RoundRect,0.225000X0.250000X-0.225000X0.250000X0.225000X-0.250000X0.225000X-0.250000X-0.225000X0*%
%ADD38R,0.750000X1.000000*%
%ADD39RoundRect,0.225000X0.225000X0.250000X-0.225000X0.250000X-0.225000X-0.250000X0.225000X-0.250000X0*%
%ADD40RoundRect,0.135000X0.185000X-0.135000X0.185000X0.135000X-0.185000X0.135000X-0.185000X-0.135000X0*%
%ADD41RoundRect,0.200000X0.200000X1.150000X-0.200000X1.150000X-0.200000X-1.150000X0.200000X-1.150000X0*%
%ADD42C,0.650000*%
%ADD43R,0.600000X1.450000*%
%ADD44R,0.300000X1.450000*%
%ADD45O,1.000000X2.100000*%
%ADD46O,1.000000X1.600000*%
G04 APERTURE END LIST*
D10*
X93674819Y-101311904D02*
X94484342Y-101311904D01*
X94484342Y-101311904D02*
X94579580Y-101264285D01*
X94579580Y-101264285D02*
X94627200Y-101216666D01*
X94627200Y-101216666D02*
X94674819Y-101121428D01*
X94674819Y-101121428D02*
X94674819Y-100930952D01*
X94674819Y-100930952D02*
X94627200Y-100835714D01*
X94627200Y-100835714D02*
X94579580Y-100788095D01*
X94579580Y-100788095D02*
X94484342Y-100740476D01*
X94484342Y-100740476D02*
X93674819Y-100740476D01*
X94008152Y-99835714D02*
X94674819Y-99835714D01*
X93627200Y-100073809D02*
X94341485Y-100311904D01*
X94341485Y-100311904D02*
X94341485Y-99692857D01*
X85734999Y-93659164D02*
X85484999Y-93302021D01*
X85306428Y-93659164D02*
X85306428Y-92909164D01*
X85306428Y-92909164D02*
X85592142Y-92909164D01*
X85592142Y-92909164D02*
X85663571Y-92944878D01*
X85663571Y-92944878D02*
X85699285Y-92980592D01*
X85699285Y-92980592D02*
X85734999Y-93052021D01*
X85734999Y-93052021D02*
X85734999Y-93159164D01*
X85734999Y-93159164D02*
X85699285Y-93230592D01*
X85699285Y-93230592D02*
X85663571Y-93266307D01*
X85663571Y-93266307D02*
X85592142Y-93302021D01*
X85592142Y-93302021D02*
X85306428Y-93302021D01*
X86413571Y-92909164D02*
X86056428Y-92909164D01*
X86056428Y-92909164D02*
X86020714Y-93266307D01*
X86020714Y-93266307D02*
X86056428Y-93230592D01*
X86056428Y-93230592D02*
X86127857Y-93194878D01*
X86127857Y-93194878D02*
X86306428Y-93194878D01*
X86306428Y-93194878D02*
X86377857Y-93230592D01*
X86377857Y-93230592D02*
X86413571Y-93266307D01*
X86413571Y-93266307D02*
X86449285Y-93337735D01*
X86449285Y-93337735D02*
X86449285Y-93516307D01*
X86449285Y-93516307D02*
X86413571Y-93587735D01*
X86413571Y-93587735D02*
X86377857Y-93623450D01*
X86377857Y-93623450D02*
X86306428Y-93659164D01*
X86306428Y-93659164D02*
X86127857Y-93659164D01*
X86127857Y-93659164D02*
X86056428Y-93623450D01*
X86056428Y-93623450D02*
X86020714Y-93587735D01*
X57489580Y-99059166D02*
X57537200Y-99106785D01*
X57537200Y-99106785D02*
X57584819Y-99249642D01*
X57584819Y-99249642D02*
X57584819Y-99344880D01*
X57584819Y-99344880D02*
X57537200Y-99487737D01*
X57537200Y-99487737D02*
X57441961Y-99582975D01*
X57441961Y-99582975D02*
X57346723Y-99630594D01*
X57346723Y-99630594D02*
X57156247Y-99678213D01*
X57156247Y-99678213D02*
X57013390Y-99678213D01*
X57013390Y-99678213D02*
X56822914Y-99630594D01*
X56822914Y-99630594D02*
X56727676Y-99582975D01*
X56727676Y-99582975D02*
X56632438Y-99487737D01*
X56632438Y-99487737D02*
X56584819Y-99344880D01*
X56584819Y-99344880D02*
X56584819Y-99249642D01*
X56584819Y-99249642D02*
X56632438Y-99106785D01*
X56632438Y-99106785D02*
X56680057Y-99059166D01*
X56584819Y-98202023D02*
X56584819Y-98392499D01*
X56584819Y-98392499D02*
X56632438Y-98487737D01*
X56632438Y-98487737D02*
X56680057Y-98535356D01*
X56680057Y-98535356D02*
X56822914Y-98630594D01*
X56822914Y-98630594D02*
X57013390Y-98678213D01*
X57013390Y-98678213D02*
X57394342Y-98678213D01*
X57394342Y-98678213D02*
X57489580Y-98630594D01*
X57489580Y-98630594D02*
X57537200Y-98582975D01*
X57537200Y-98582975D02*
X57584819Y-98487737D01*
X57584819Y-98487737D02*
X57584819Y-98297261D01*
X57584819Y-98297261D02*
X57537200Y-98202023D01*
X57537200Y-98202023D02*
X57489580Y-98154404D01*
X57489580Y-98154404D02*
X57394342Y-98106785D01*
X57394342Y-98106785D02*
X57156247Y-98106785D01*
X57156247Y-98106785D02*
X57061009Y-98154404D01*
X57061009Y-98154404D02*
X57013390Y-98202023D01*
X57013390Y-98202023D02*
X56965771Y-98297261D01*
X56965771Y-98297261D02*
X56965771Y-98487737D01*
X56965771Y-98487737D02*
X57013390Y-98582975D01*
X57013390Y-98582975D02*
X57061009Y-98630594D01*
X57061009Y-98630594D02*
X57156247Y-98678213D01*
X90746666Y-81639819D02*
X90746666Y-82354104D01*
X90746666Y-82354104D02*
X90699047Y-82496961D01*
X90699047Y-82496961D02*
X90603809Y-82592200D01*
X90603809Y-82592200D02*
X90460952Y-82639819D01*
X90460952Y-82639819D02*
X90365714Y-82639819D01*
X91175238Y-81735057D02*
X91222857Y-81687438D01*
X91222857Y-81687438D02*
X91318095Y-81639819D01*
X91318095Y-81639819D02*
X91556190Y-81639819D01*
X91556190Y-81639819D02*
X91651428Y-81687438D01*
X91651428Y-81687438D02*
X91699047Y-81735057D01*
X91699047Y-81735057D02*
X91746666Y-81830295D01*
X91746666Y-81830295D02*
X91746666Y-81925533D01*
X91746666Y-81925533D02*
X91699047Y-82068390D01*
X91699047Y-82068390D02*
X91127619Y-82639819D01*
X91127619Y-82639819D02*
X91746666Y-82639819D01*
X64466667Y-85507200D02*
X64609524Y-85554819D01*
X64609524Y-85554819D02*
X64847619Y-85554819D01*
X64847619Y-85554819D02*
X64942857Y-85507200D01*
X64942857Y-85507200D02*
X64990476Y-85459580D01*
X64990476Y-85459580D02*
X65038095Y-85364342D01*
X65038095Y-85364342D02*
X65038095Y-85269104D01*
X65038095Y-85269104D02*
X64990476Y-85173866D01*
X64990476Y-85173866D02*
X64942857Y-85126247D01*
X64942857Y-85126247D02*
X64847619Y-85078628D01*
X64847619Y-85078628D02*
X64657143Y-85031009D01*
X64657143Y-85031009D02*
X64561905Y-84983390D01*
X64561905Y-84983390D02*
X64514286Y-84935771D01*
X64514286Y-84935771D02*
X64466667Y-84840533D01*
X64466667Y-84840533D02*
X64466667Y-84745295D01*
X64466667Y-84745295D02*
X64514286Y-84650057D01*
X64514286Y-84650057D02*
X64561905Y-84602438D01*
X64561905Y-84602438D02*
X64657143Y-84554819D01*
X64657143Y-84554819D02*
X64895238Y-84554819D01*
X64895238Y-84554819D02*
X65038095Y-84602438D01*
X65371429Y-84554819D02*
X65609524Y-85554819D01*
X65609524Y-85554819D02*
X65800000Y-84840533D01*
X65800000Y-84840533D02*
X65990476Y-85554819D01*
X65990476Y-85554819D02*
X66228572Y-84554819D01*
X66561905Y-84650057D02*
X66609524Y-84602438D01*
X66609524Y-84602438D02*
X66704762Y-84554819D01*
X66704762Y-84554819D02*
X66942857Y-84554819D01*
X66942857Y-84554819D02*
X67038095Y-84602438D01*
X67038095Y-84602438D02*
X67085714Y-84650057D01*
X67085714Y-84650057D02*
X67133333Y-84745295D01*
X67133333Y-84745295D02*
X67133333Y-84840533D01*
X67133333Y-84840533D02*
X67085714Y-84983390D01*
X67085714Y-84983390D02*
X66514286Y-85554819D01*
X66514286Y-85554819D02*
X67133333Y-85554819D01*
X83914999Y-93569164D02*
X83664999Y-93212021D01*
X83486428Y-93569164D02*
X83486428Y-92819164D01*
X83486428Y-92819164D02*
X83772142Y-92819164D01*
X83772142Y-92819164D02*
X83843571Y-92854878D01*
X83843571Y-92854878D02*
X83879285Y-92890592D01*
X83879285Y-92890592D02*
X83914999Y-92962021D01*
X83914999Y-92962021D02*
X83914999Y-93069164D01*
X83914999Y-93069164D02*
X83879285Y-93140592D01*
X83879285Y-93140592D02*
X83843571Y-93176307D01*
X83843571Y-93176307D02*
X83772142Y-93212021D01*
X83772142Y-93212021D02*
X83486428Y-93212021D01*
X84557857Y-92819164D02*
X84414999Y-92819164D01*
X84414999Y-92819164D02*
X84343571Y-92854878D01*
X84343571Y-92854878D02*
X84307857Y-92890592D01*
X84307857Y-92890592D02*
X84236428Y-92997735D01*
X84236428Y-92997735D02*
X84200714Y-93140592D01*
X84200714Y-93140592D02*
X84200714Y-93426307D01*
X84200714Y-93426307D02*
X84236428Y-93497735D01*
X84236428Y-93497735D02*
X84272142Y-93533450D01*
X84272142Y-93533450D02*
X84343571Y-93569164D01*
X84343571Y-93569164D02*
X84486428Y-93569164D01*
X84486428Y-93569164D02*
X84557857Y-93533450D01*
X84557857Y-93533450D02*
X84593571Y-93497735D01*
X84593571Y-93497735D02*
X84629285Y-93426307D01*
X84629285Y-93426307D02*
X84629285Y-93247735D01*
X84629285Y-93247735D02*
X84593571Y-93176307D01*
X84593571Y-93176307D02*
X84557857Y-93140592D01*
X84557857Y-93140592D02*
X84486428Y-93104878D01*
X84486428Y-93104878D02*
X84343571Y-93104878D01*
X84343571Y-93104878D02*
X84272142Y-93140592D01*
X84272142Y-93140592D02*
X84236428Y-93176307D01*
X84236428Y-93176307D02*
X84200714Y-93247735D01*
X96497142Y-99994819D02*
X96163809Y-99518628D01*
X95925714Y-99994819D02*
X95925714Y-98994819D01*
X95925714Y-98994819D02*
X96306666Y-98994819D01*
X96306666Y-98994819D02*
X96401904Y-99042438D01*
X96401904Y-99042438D02*
X96449523Y-99090057D01*
X96449523Y-99090057D02*
X96497142Y-99185295D01*
X96497142Y-99185295D02*
X96497142Y-99328152D01*
X96497142Y-99328152D02*
X96449523Y-99423390D01*
X96449523Y-99423390D02*
X96401904Y-99471009D01*
X96401904Y-99471009D02*
X96306666Y-99518628D01*
X96306666Y-99518628D02*
X95925714Y-99518628D01*
X97449523Y-99994819D02*
X96878095Y-99994819D01*
X97163809Y-99994819D02*
X97163809Y-98994819D01*
X97163809Y-98994819D02*
X97068571Y-99137676D01*
X97068571Y-99137676D02*
X96973333Y-99232914D01*
X96973333Y-99232914D02*
X96878095Y-99280533D01*
X98068571Y-98994819D02*
X98163809Y-98994819D01*
X98163809Y-98994819D02*
X98259047Y-99042438D01*
X98259047Y-99042438D02*
X98306666Y-99090057D01*
X98306666Y-99090057D02*
X98354285Y-99185295D01*
X98354285Y-99185295D02*
X98401904Y-99375771D01*
X98401904Y-99375771D02*
X98401904Y-99613866D01*
X98401904Y-99613866D02*
X98354285Y-99804342D01*
X98354285Y-99804342D02*
X98306666Y-99899580D01*
X98306666Y-99899580D02*
X98259047Y-99947200D01*
X98259047Y-99947200D02*
X98163809Y-99994819D01*
X98163809Y-99994819D02*
X98068571Y-99994819D01*
X98068571Y-99994819D02*
X97973333Y-99947200D01*
X97973333Y-99947200D02*
X97925714Y-99899580D01*
X97925714Y-99899580D02*
X97878095Y-99804342D01*
X97878095Y-99804342D02*
X97830476Y-99613866D01*
X97830476Y-99613866D02*
X97830476Y-99375771D01*
X97830476Y-99375771D02*
X97878095Y-99185295D01*
X97878095Y-99185295D02*
X97925714Y-99090057D01*
X97925714Y-99090057D02*
X97973333Y-99042438D01*
X97973333Y-99042438D02*
X98068571Y-98994819D01*
X55738095Y-100154819D02*
X55738095Y-100964342D01*
X55738095Y-100964342D02*
X55785714Y-101059580D01*
X55785714Y-101059580D02*
X55833333Y-101107200D01*
X55833333Y-101107200D02*
X55928571Y-101154819D01*
X55928571Y-101154819D02*
X56119047Y-101154819D01*
X56119047Y-101154819D02*
X56214285Y-101107200D01*
X56214285Y-101107200D02*
X56261904Y-101059580D01*
X56261904Y-101059580D02*
X56309523Y-100964342D01*
X56309523Y-100964342D02*
X56309523Y-100154819D01*
X56738095Y-100250057D02*
X56785714Y-100202438D01*
X56785714Y-100202438D02*
X56880952Y-100154819D01*
X56880952Y-100154819D02*
X57119047Y-100154819D01*
X57119047Y-100154819D02*
X57214285Y-100202438D01*
X57214285Y-100202438D02*
X57261904Y-100250057D01*
X57261904Y-100250057D02*
X57309523Y-100345295D01*
X57309523Y-100345295D02*
X57309523Y-100440533D01*
X57309523Y-100440533D02*
X57261904Y-100583390D01*
X57261904Y-100583390D02*
X56690476Y-101154819D01*
X56690476Y-101154819D02*
X57309523Y-101154819D01*
X73644819Y-87106666D02*
X73168628Y-87439999D01*
X73644819Y-87678094D02*
X72644819Y-87678094D01*
X72644819Y-87678094D02*
X72644819Y-87297142D01*
X72644819Y-87297142D02*
X72692438Y-87201904D01*
X72692438Y-87201904D02*
X72740057Y-87154285D01*
X72740057Y-87154285D02*
X72835295Y-87106666D01*
X72835295Y-87106666D02*
X72978152Y-87106666D01*
X72978152Y-87106666D02*
X73073390Y-87154285D01*
X73073390Y-87154285D02*
X73121009Y-87201904D01*
X73121009Y-87201904D02*
X73168628Y-87297142D01*
X73168628Y-87297142D02*
X73168628Y-87678094D01*
X73644819Y-86154285D02*
X73644819Y-86725713D01*
X73644819Y-86439999D02*
X72644819Y-86439999D01*
X72644819Y-86439999D02*
X72787676Y-86535237D01*
X72787676Y-86535237D02*
X72882914Y-86630475D01*
X72882914Y-86630475D02*
X72930533Y-86725713D01*
X71404999Y-93059164D02*
X71154999Y-92702021D01*
X70976428Y-93059164D02*
X70976428Y-92309164D01*
X70976428Y-92309164D02*
X71262142Y-92309164D01*
X71262142Y-92309164D02*
X71333571Y-92344878D01*
X71333571Y-92344878D02*
X71369285Y-92380592D01*
X71369285Y-92380592D02*
X71404999Y-92452021D01*
X71404999Y-92452021D02*
X71404999Y-92559164D01*
X71404999Y-92559164D02*
X71369285Y-92630592D01*
X71369285Y-92630592D02*
X71333571Y-92666307D01*
X71333571Y-92666307D02*
X71262142Y-92702021D01*
X71262142Y-92702021D02*
X70976428Y-92702021D01*
X71833571Y-92630592D02*
X71762142Y-92594878D01*
X71762142Y-92594878D02*
X71726428Y-92559164D01*
X71726428Y-92559164D02*
X71690714Y-92487735D01*
X71690714Y-92487735D02*
X71690714Y-92452021D01*
X71690714Y-92452021D02*
X71726428Y-92380592D01*
X71726428Y-92380592D02*
X71762142Y-92344878D01*
X71762142Y-92344878D02*
X71833571Y-92309164D01*
X71833571Y-92309164D02*
X71976428Y-92309164D01*
X71976428Y-92309164D02*
X72047857Y-92344878D01*
X72047857Y-92344878D02*
X72083571Y-92380592D01*
X72083571Y-92380592D02*
X72119285Y-92452021D01*
X72119285Y-92452021D02*
X72119285Y-92487735D01*
X72119285Y-92487735D02*
X72083571Y-92559164D01*
X72083571Y-92559164D02*
X72047857Y-92594878D01*
X72047857Y-92594878D02*
X71976428Y-92630592D01*
X71976428Y-92630592D02*
X71833571Y-92630592D01*
X71833571Y-92630592D02*
X71762142Y-92666307D01*
X71762142Y-92666307D02*
X71726428Y-92702021D01*
X71726428Y-92702021D02*
X71690714Y-92773450D01*
X71690714Y-92773450D02*
X71690714Y-92916307D01*
X71690714Y-92916307D02*
X71726428Y-92987735D01*
X71726428Y-92987735D02*
X71762142Y-93023450D01*
X71762142Y-93023450D02*
X71833571Y-93059164D01*
X71833571Y-93059164D02*
X71976428Y-93059164D01*
X71976428Y-93059164D02*
X72047857Y-93023450D01*
X72047857Y-93023450D02*
X72083571Y-92987735D01*
X72083571Y-92987735D02*
X72119285Y-92916307D01*
X72119285Y-92916307D02*
X72119285Y-92773450D01*
X72119285Y-92773450D02*
X72083571Y-92702021D01*
X72083571Y-92702021D02*
X72047857Y-92666307D01*
X72047857Y-92666307D02*
X71976428Y-92630592D01*
X87477142Y-102569580D02*
X87429523Y-102617200D01*
X87429523Y-102617200D02*
X87286666Y-102664819D01*
X87286666Y-102664819D02*
X87191428Y-102664819D01*
X87191428Y-102664819D02*
X87048571Y-102617200D01*
X87048571Y-102617200D02*
X86953333Y-102521961D01*
X86953333Y-102521961D02*
X86905714Y-102426723D01*
X86905714Y-102426723D02*
X86858095Y-102236247D01*
X86858095Y-102236247D02*
X86858095Y-102093390D01*
X86858095Y-102093390D02*
X86905714Y-101902914D01*
X86905714Y-101902914D02*
X86953333Y-101807676D01*
X86953333Y-101807676D02*
X87048571Y-101712438D01*
X87048571Y-101712438D02*
X87191428Y-101664819D01*
X87191428Y-101664819D02*
X87286666Y-101664819D01*
X87286666Y-101664819D02*
X87429523Y-101712438D01*
X87429523Y-101712438D02*
X87477142Y-101760057D01*
X88429523Y-102664819D02*
X87858095Y-102664819D01*
X88143809Y-102664819D02*
X88143809Y-101664819D01*
X88143809Y-101664819D02*
X88048571Y-101807676D01*
X88048571Y-101807676D02*
X87953333Y-101902914D01*
X87953333Y-101902914D02*
X87858095Y-101950533D01*
X89048571Y-101664819D02*
X89143809Y-101664819D01*
X89143809Y-101664819D02*
X89239047Y-101712438D01*
X89239047Y-101712438D02*
X89286666Y-101760057D01*
X89286666Y-101760057D02*
X89334285Y-101855295D01*
X89334285Y-101855295D02*
X89381904Y-102045771D01*
X89381904Y-102045771D02*
X89381904Y-102283866D01*
X89381904Y-102283866D02*
X89334285Y-102474342D01*
X89334285Y-102474342D02*
X89286666Y-102569580D01*
X89286666Y-102569580D02*
X89239047Y-102617200D01*
X89239047Y-102617200D02*
X89143809Y-102664819D01*
X89143809Y-102664819D02*
X89048571Y-102664819D01*
X89048571Y-102664819D02*
X88953333Y-102617200D01*
X88953333Y-102617200D02*
X88905714Y-102569580D01*
X88905714Y-102569580D02*
X88858095Y-102474342D01*
X88858095Y-102474342D02*
X88810476Y-102283866D01*
X88810476Y-102283866D02*
X88810476Y-102045771D01*
X88810476Y-102045771D02*
X88858095Y-101855295D01*
X88858095Y-101855295D02*
X88905714Y-101760057D01*
X88905714Y-101760057D02*
X88953333Y-101712438D01*
X88953333Y-101712438D02*
X89048571Y-101664819D01*
X65069580Y-95136666D02*
X65117200Y-95184285D01*
X65117200Y-95184285D02*
X65164819Y-95327142D01*
X65164819Y-95327142D02*
X65164819Y-95422380D01*
X65164819Y-95422380D02*
X65117200Y-95565237D01*
X65117200Y-95565237D02*
X65021961Y-95660475D01*
X65021961Y-95660475D02*
X64926723Y-95708094D01*
X64926723Y-95708094D02*
X64736247Y-95755713D01*
X64736247Y-95755713D02*
X64593390Y-95755713D01*
X64593390Y-95755713D02*
X64402914Y-95708094D01*
X64402914Y-95708094D02*
X64307676Y-95660475D01*
X64307676Y-95660475D02*
X64212438Y-95565237D01*
X64212438Y-95565237D02*
X64164819Y-95422380D01*
X64164819Y-95422380D02*
X64164819Y-95327142D01*
X64164819Y-95327142D02*
X64212438Y-95184285D01*
X64212438Y-95184285D02*
X64260057Y-95136666D01*
X64593390Y-94565237D02*
X64545771Y-94660475D01*
X64545771Y-94660475D02*
X64498152Y-94708094D01*
X64498152Y-94708094D02*
X64402914Y-94755713D01*
X64402914Y-94755713D02*
X64355295Y-94755713D01*
X64355295Y-94755713D02*
X64260057Y-94708094D01*
X64260057Y-94708094D02*
X64212438Y-94660475D01*
X64212438Y-94660475D02*
X64164819Y-94565237D01*
X64164819Y-94565237D02*
X64164819Y-94374761D01*
X64164819Y-94374761D02*
X64212438Y-94279523D01*
X64212438Y-94279523D02*
X64260057Y-94231904D01*
X64260057Y-94231904D02*
X64355295Y-94184285D01*
X64355295Y-94184285D02*
X64402914Y-94184285D01*
X64402914Y-94184285D02*
X64498152Y-94231904D01*
X64498152Y-94231904D02*
X64545771Y-94279523D01*
X64545771Y-94279523D02*
X64593390Y-94374761D01*
X64593390Y-94374761D02*
X64593390Y-94565237D01*
X64593390Y-94565237D02*
X64641009Y-94660475D01*
X64641009Y-94660475D02*
X64688628Y-94708094D01*
X64688628Y-94708094D02*
X64783866Y-94755713D01*
X64783866Y-94755713D02*
X64974342Y-94755713D01*
X64974342Y-94755713D02*
X65069580Y-94708094D01*
X65069580Y-94708094D02*
X65117200Y-94660475D01*
X65117200Y-94660475D02*
X65164819Y-94565237D01*
X65164819Y-94565237D02*
X65164819Y-94374761D01*
X65164819Y-94374761D02*
X65117200Y-94279523D01*
X65117200Y-94279523D02*
X65069580Y-94231904D01*
X65069580Y-94231904D02*
X64974342Y-94184285D01*
X64974342Y-94184285D02*
X64783866Y-94184285D01*
X64783866Y-94184285D02*
X64688628Y-94231904D01*
X64688628Y-94231904D02*
X64641009Y-94279523D01*
X64641009Y-94279523D02*
X64593390Y-94374761D01*
X85213095Y-88314819D02*
X85213095Y-89124342D01*
X85213095Y-89124342D02*
X85260714Y-89219580D01*
X85260714Y-89219580D02*
X85308333Y-89267200D01*
X85308333Y-89267200D02*
X85403571Y-89314819D01*
X85403571Y-89314819D02*
X85594047Y-89314819D01*
X85594047Y-89314819D02*
X85689285Y-89267200D01*
X85689285Y-89267200D02*
X85736904Y-89219580D01*
X85736904Y-89219580D02*
X85784523Y-89124342D01*
X85784523Y-89124342D02*
X85784523Y-88314819D01*
X86784523Y-89314819D02*
X86213095Y-89314819D01*
X86498809Y-89314819D02*
X86498809Y-88314819D01*
X86498809Y-88314819D02*
X86403571Y-88457676D01*
X86403571Y-88457676D02*
X86308333Y-88552914D01*
X86308333Y-88552914D02*
X86213095Y-88600533D01*
X97394819Y-93323333D02*
X98109104Y-93323333D01*
X98109104Y-93323333D02*
X98251961Y-93370952D01*
X98251961Y-93370952D02*
X98347200Y-93466190D01*
X98347200Y-93466190D02*
X98394819Y-93609047D01*
X98394819Y-93609047D02*
X98394819Y-93704285D01*
X97728152Y-92418571D02*
X98394819Y-92418571D01*
X97347200Y-92656666D02*
X98061485Y-92894761D01*
X98061485Y-92894761D02*
X98061485Y-92275714D01*
X74239164Y-92922143D02*
X73882021Y-93172143D01*
X74239164Y-93350714D02*
X73489164Y-93350714D01*
X73489164Y-93350714D02*
X73489164Y-93065000D01*
X73489164Y-93065000D02*
X73524878Y-92993571D01*
X73524878Y-92993571D02*
X73560592Y-92957857D01*
X73560592Y-92957857D02*
X73632021Y-92922143D01*
X73632021Y-92922143D02*
X73739164Y-92922143D01*
X73739164Y-92922143D02*
X73810592Y-92957857D01*
X73810592Y-92957857D02*
X73846307Y-92993571D01*
X73846307Y-92993571D02*
X73882021Y-93065000D01*
X73882021Y-93065000D02*
X73882021Y-93350714D01*
X74239164Y-92207857D02*
X74239164Y-92636428D01*
X74239164Y-92422143D02*
X73489164Y-92422143D01*
X73489164Y-92422143D02*
X73596307Y-92493571D01*
X73596307Y-92493571D02*
X73667735Y-92565000D01*
X73667735Y-92565000D02*
X73703450Y-92636428D01*
X74239164Y-91493571D02*
X74239164Y-91922142D01*
X74239164Y-91707857D02*
X73489164Y-91707857D01*
X73489164Y-91707857D02*
X73596307Y-91779285D01*
X73596307Y-91779285D02*
X73667735Y-91850714D01*
X73667735Y-91850714D02*
X73703450Y-91922142D01*
X71319164Y-95441428D02*
X71926307Y-95441428D01*
X71926307Y-95441428D02*
X71997735Y-95405714D01*
X71997735Y-95405714D02*
X72033450Y-95370000D01*
X72033450Y-95370000D02*
X72069164Y-95298571D01*
X72069164Y-95298571D02*
X72069164Y-95155714D01*
X72069164Y-95155714D02*
X72033450Y-95084285D01*
X72033450Y-95084285D02*
X71997735Y-95048571D01*
X71997735Y-95048571D02*
X71926307Y-95012857D01*
X71926307Y-95012857D02*
X71319164Y-95012857D01*
X71319164Y-94727143D02*
X71319164Y-94262857D01*
X71319164Y-94262857D02*
X71604878Y-94512857D01*
X71604878Y-94512857D02*
X71604878Y-94405714D01*
X71604878Y-94405714D02*
X71640592Y-94334286D01*
X71640592Y-94334286D02*
X71676307Y-94298571D01*
X71676307Y-94298571D02*
X71747735Y-94262857D01*
X71747735Y-94262857D02*
X71926307Y-94262857D01*
X71926307Y-94262857D02*
X71997735Y-94298571D01*
X71997735Y-94298571D02*
X72033450Y-94334286D01*
X72033450Y-94334286D02*
X72069164Y-94405714D01*
X72069164Y-94405714D02*
X72069164Y-94620000D01*
X72069164Y-94620000D02*
X72033450Y-94691428D01*
X72033450Y-94691428D02*
X71997735Y-94727143D01*
X54993333Y-102409580D02*
X54945714Y-102457200D01*
X54945714Y-102457200D02*
X54802857Y-102504819D01*
X54802857Y-102504819D02*
X54707619Y-102504819D01*
X54707619Y-102504819D02*
X54564762Y-102457200D01*
X54564762Y-102457200D02*
X54469524Y-102361961D01*
X54469524Y-102361961D02*
X54421905Y-102266723D01*
X54421905Y-102266723D02*
X54374286Y-102076247D01*
X54374286Y-102076247D02*
X54374286Y-101933390D01*
X54374286Y-101933390D02*
X54421905Y-101742914D01*
X54421905Y-101742914D02*
X54469524Y-101647676D01*
X54469524Y-101647676D02*
X54564762Y-101552438D01*
X54564762Y-101552438D02*
X54707619Y-101504819D01*
X54707619Y-101504819D02*
X54802857Y-101504819D01*
X54802857Y-101504819D02*
X54945714Y-101552438D01*
X54945714Y-101552438D02*
X54993333Y-101600057D01*
X55850476Y-101838152D02*
X55850476Y-102504819D01*
X55612381Y-101457200D02*
X55374286Y-102171485D01*
X55374286Y-102171485D02*
X55993333Y-102171485D01*
X61199580Y-98296666D02*
X61247200Y-98344285D01*
X61247200Y-98344285D02*
X61294819Y-98487142D01*
X61294819Y-98487142D02*
X61294819Y-98582380D01*
X61294819Y-98582380D02*
X61247200Y-98725237D01*
X61247200Y-98725237D02*
X61151961Y-98820475D01*
X61151961Y-98820475D02*
X61056723Y-98868094D01*
X61056723Y-98868094D02*
X60866247Y-98915713D01*
X60866247Y-98915713D02*
X60723390Y-98915713D01*
X60723390Y-98915713D02*
X60532914Y-98868094D01*
X60532914Y-98868094D02*
X60437676Y-98820475D01*
X60437676Y-98820475D02*
X60342438Y-98725237D01*
X60342438Y-98725237D02*
X60294819Y-98582380D01*
X60294819Y-98582380D02*
X60294819Y-98487142D01*
X60294819Y-98487142D02*
X60342438Y-98344285D01*
X60342438Y-98344285D02*
X60390057Y-98296666D01*
X61294819Y-97820475D02*
X61294819Y-97629999D01*
X61294819Y-97629999D02*
X61247200Y-97534761D01*
X61247200Y-97534761D02*
X61199580Y-97487142D01*
X61199580Y-97487142D02*
X61056723Y-97391904D01*
X61056723Y-97391904D02*
X60866247Y-97344285D01*
X60866247Y-97344285D02*
X60485295Y-97344285D01*
X60485295Y-97344285D02*
X60390057Y-97391904D01*
X60390057Y-97391904D02*
X60342438Y-97439523D01*
X60342438Y-97439523D02*
X60294819Y-97534761D01*
X60294819Y-97534761D02*
X60294819Y-97725237D01*
X60294819Y-97725237D02*
X60342438Y-97820475D01*
X60342438Y-97820475D02*
X60390057Y-97868094D01*
X60390057Y-97868094D02*
X60485295Y-97915713D01*
X60485295Y-97915713D02*
X60723390Y-97915713D01*
X60723390Y-97915713D02*
X60818628Y-97868094D01*
X60818628Y-97868094D02*
X60866247Y-97820475D01*
X60866247Y-97820475D02*
X60913866Y-97725237D01*
X60913866Y-97725237D02*
X60913866Y-97534761D01*
X60913866Y-97534761D02*
X60866247Y-97439523D01*
X60866247Y-97439523D02*
X60818628Y-97391904D01*
X60818628Y-97391904D02*
X60723390Y-97344285D01*
X66732261Y-101680057D02*
X66637023Y-101632438D01*
X66637023Y-101632438D02*
X66541785Y-101537200D01*
X66541785Y-101537200D02*
X66398928Y-101394342D01*
X66398928Y-101394342D02*
X66303690Y-101346723D01*
X66303690Y-101346723D02*
X66208452Y-101346723D01*
X66256071Y-101584819D02*
X66160833Y-101537200D01*
X66160833Y-101537200D02*
X66065595Y-101441961D01*
X66065595Y-101441961D02*
X66017976Y-101251485D01*
X66017976Y-101251485D02*
X66017976Y-100918152D01*
X66017976Y-100918152D02*
X66065595Y-100727676D01*
X66065595Y-100727676D02*
X66160833Y-100632438D01*
X66160833Y-100632438D02*
X66256071Y-100584819D01*
X66256071Y-100584819D02*
X66446547Y-100584819D01*
X66446547Y-100584819D02*
X66541785Y-100632438D01*
X66541785Y-100632438D02*
X66637023Y-100727676D01*
X66637023Y-100727676D02*
X66684642Y-100918152D01*
X66684642Y-100918152D02*
X66684642Y-101251485D01*
X66684642Y-101251485D02*
X66637023Y-101441961D01*
X66637023Y-101441961D02*
X66541785Y-101537200D01*
X66541785Y-101537200D02*
X66446547Y-101584819D01*
X66446547Y-101584819D02*
X66256071Y-101584819D01*
X67637023Y-101584819D02*
X67065595Y-101584819D01*
X67351309Y-101584819D02*
X67351309Y-100584819D01*
X67351309Y-100584819D02*
X67256071Y-100727676D01*
X67256071Y-100727676D02*
X67160833Y-100822914D01*
X67160833Y-100822914D02*
X67065595Y-100870533D01*
X71763333Y-82889580D02*
X71715714Y-82937200D01*
X71715714Y-82937200D02*
X71572857Y-82984819D01*
X71572857Y-82984819D02*
X71477619Y-82984819D01*
X71477619Y-82984819D02*
X71334762Y-82937200D01*
X71334762Y-82937200D02*
X71239524Y-82841961D01*
X71239524Y-82841961D02*
X71191905Y-82746723D01*
X71191905Y-82746723D02*
X71144286Y-82556247D01*
X71144286Y-82556247D02*
X71144286Y-82413390D01*
X71144286Y-82413390D02*
X71191905Y-82222914D01*
X71191905Y-82222914D02*
X71239524Y-82127676D01*
X71239524Y-82127676D02*
X71334762Y-82032438D01*
X71334762Y-82032438D02*
X71477619Y-81984819D01*
X71477619Y-81984819D02*
X71572857Y-81984819D01*
X71572857Y-81984819D02*
X71715714Y-82032438D01*
X71715714Y-82032438D02*
X71763333Y-82080057D01*
X72715714Y-82984819D02*
X72144286Y-82984819D01*
X72430000Y-82984819D02*
X72430000Y-81984819D01*
X72430000Y-81984819D02*
X72334762Y-82127676D01*
X72334762Y-82127676D02*
X72239524Y-82222914D01*
X72239524Y-82222914D02*
X72144286Y-82270533D01*
X71834819Y-85166666D02*
X71358628Y-85499999D01*
X71834819Y-85738094D02*
X70834819Y-85738094D01*
X70834819Y-85738094D02*
X70834819Y-85357142D01*
X70834819Y-85357142D02*
X70882438Y-85261904D01*
X70882438Y-85261904D02*
X70930057Y-85214285D01*
X70930057Y-85214285D02*
X71025295Y-85166666D01*
X71025295Y-85166666D02*
X71168152Y-85166666D01*
X71168152Y-85166666D02*
X71263390Y-85214285D01*
X71263390Y-85214285D02*
X71311009Y-85261904D01*
X71311009Y-85261904D02*
X71358628Y-85357142D01*
X71358628Y-85357142D02*
X71358628Y-85738094D01*
X70834819Y-84833332D02*
X70834819Y-84214285D01*
X70834819Y-84214285D02*
X71215771Y-84547618D01*
X71215771Y-84547618D02*
X71215771Y-84404761D01*
X71215771Y-84404761D02*
X71263390Y-84309523D01*
X71263390Y-84309523D02*
X71311009Y-84261904D01*
X71311009Y-84261904D02*
X71406247Y-84214285D01*
X71406247Y-84214285D02*
X71644342Y-84214285D01*
X71644342Y-84214285D02*
X71739580Y-84261904D01*
X71739580Y-84261904D02*
X71787200Y-84309523D01*
X71787200Y-84309523D02*
X71834819Y-84404761D01*
X71834819Y-84404761D02*
X71834819Y-84690475D01*
X71834819Y-84690475D02*
X71787200Y-84785713D01*
X71787200Y-84785713D02*
X71739580Y-84833332D01*
X81679164Y-92245000D02*
X81322021Y-92495000D01*
X81679164Y-92673571D02*
X80929164Y-92673571D01*
X80929164Y-92673571D02*
X80929164Y-92387857D01*
X80929164Y-92387857D02*
X80964878Y-92316428D01*
X80964878Y-92316428D02*
X81000592Y-92280714D01*
X81000592Y-92280714D02*
X81072021Y-92245000D01*
X81072021Y-92245000D02*
X81179164Y-92245000D01*
X81179164Y-92245000D02*
X81250592Y-92280714D01*
X81250592Y-92280714D02*
X81286307Y-92316428D01*
X81286307Y-92316428D02*
X81322021Y-92387857D01*
X81322021Y-92387857D02*
X81322021Y-92673571D01*
X81679164Y-91887857D02*
X81679164Y-91745000D01*
X81679164Y-91745000D02*
X81643450Y-91673571D01*
X81643450Y-91673571D02*
X81607735Y-91637857D01*
X81607735Y-91637857D02*
X81500592Y-91566428D01*
X81500592Y-91566428D02*
X81357735Y-91530714D01*
X81357735Y-91530714D02*
X81072021Y-91530714D01*
X81072021Y-91530714D02*
X81000592Y-91566428D01*
X81000592Y-91566428D02*
X80964878Y-91602143D01*
X80964878Y-91602143D02*
X80929164Y-91673571D01*
X80929164Y-91673571D02*
X80929164Y-91816428D01*
X80929164Y-91816428D02*
X80964878Y-91887857D01*
X80964878Y-91887857D02*
X81000592Y-91923571D01*
X81000592Y-91923571D02*
X81072021Y-91959285D01*
X81072021Y-91959285D02*
X81250592Y-91959285D01*
X81250592Y-91959285D02*
X81322021Y-91923571D01*
X81322021Y-91923571D02*
X81357735Y-91887857D01*
X81357735Y-91887857D02*
X81393450Y-91816428D01*
X81393450Y-91816428D02*
X81393450Y-91673571D01*
X81393450Y-91673571D02*
X81357735Y-91602143D01*
X81357735Y-91602143D02*
X81322021Y-91566428D01*
X81322021Y-91566428D02*
X81250592Y-91530714D01*
X50759580Y-95166666D02*
X50807200Y-95214285D01*
X50807200Y-95214285D02*
X50854819Y-95357142D01*
X50854819Y-95357142D02*
X50854819Y-95452380D01*
X50854819Y-95452380D02*
X50807200Y-95595237D01*
X50807200Y-95595237D02*
X50711961Y-95690475D01*
X50711961Y-95690475D02*
X50616723Y-95738094D01*
X50616723Y-95738094D02*
X50426247Y-95785713D01*
X50426247Y-95785713D02*
X50283390Y-95785713D01*
X50283390Y-95785713D02*
X50092914Y-95738094D01*
X50092914Y-95738094D02*
X49997676Y-95690475D01*
X49997676Y-95690475D02*
X49902438Y-95595237D01*
X49902438Y-95595237D02*
X49854819Y-95452380D01*
X49854819Y-95452380D02*
X49854819Y-95357142D01*
X49854819Y-95357142D02*
X49902438Y-95214285D01*
X49902438Y-95214285D02*
X49950057Y-95166666D01*
X49854819Y-94833332D02*
X49854819Y-94166666D01*
X49854819Y-94166666D02*
X50854819Y-94595237D01*
X68964999Y-91819164D02*
X68714999Y-91462021D01*
X68536428Y-91819164D02*
X68536428Y-91069164D01*
X68536428Y-91069164D02*
X68822142Y-91069164D01*
X68822142Y-91069164D02*
X68893571Y-91104878D01*
X68893571Y-91104878D02*
X68929285Y-91140592D01*
X68929285Y-91140592D02*
X68964999Y-91212021D01*
X68964999Y-91212021D02*
X68964999Y-91319164D01*
X68964999Y-91319164D02*
X68929285Y-91390592D01*
X68929285Y-91390592D02*
X68893571Y-91426307D01*
X68893571Y-91426307D02*
X68822142Y-91462021D01*
X68822142Y-91462021D02*
X68536428Y-91462021D01*
X69214999Y-91069164D02*
X69714999Y-91069164D01*
X69714999Y-91069164D02*
X69393571Y-91819164D01*
X96142200Y-88833332D02*
X96189819Y-88690475D01*
X96189819Y-88690475D02*
X96189819Y-88452380D01*
X96189819Y-88452380D02*
X96142200Y-88357142D01*
X96142200Y-88357142D02*
X96094580Y-88309523D01*
X96094580Y-88309523D02*
X95999342Y-88261904D01*
X95999342Y-88261904D02*
X95904104Y-88261904D01*
X95904104Y-88261904D02*
X95808866Y-88309523D01*
X95808866Y-88309523D02*
X95761247Y-88357142D01*
X95761247Y-88357142D02*
X95713628Y-88452380D01*
X95713628Y-88452380D02*
X95666009Y-88642856D01*
X95666009Y-88642856D02*
X95618390Y-88738094D01*
X95618390Y-88738094D02*
X95570771Y-88785713D01*
X95570771Y-88785713D02*
X95475533Y-88833332D01*
X95475533Y-88833332D02*
X95380295Y-88833332D01*
X95380295Y-88833332D02*
X95285057Y-88785713D01*
X95285057Y-88785713D02*
X95237438Y-88738094D01*
X95237438Y-88738094D02*
X95189819Y-88642856D01*
X95189819Y-88642856D02*
X95189819Y-88404761D01*
X95189819Y-88404761D02*
X95237438Y-88261904D01*
X95189819Y-87928570D02*
X96189819Y-87690475D01*
X96189819Y-87690475D02*
X95475533Y-87499999D01*
X95475533Y-87499999D02*
X96189819Y-87309523D01*
X96189819Y-87309523D02*
X95189819Y-87071428D01*
X95189819Y-86785713D02*
X95189819Y-86166666D01*
X95189819Y-86166666D02*
X95570771Y-86499999D01*
X95570771Y-86499999D02*
X95570771Y-86357142D01*
X95570771Y-86357142D02*
X95618390Y-86261904D01*
X95618390Y-86261904D02*
X95666009Y-86214285D01*
X95666009Y-86214285D02*
X95761247Y-86166666D01*
X95761247Y-86166666D02*
X95999342Y-86166666D01*
X95999342Y-86166666D02*
X96094580Y-86214285D01*
X96094580Y-86214285D02*
X96142200Y-86261904D01*
X96142200Y-86261904D02*
X96189819Y-86357142D01*
X96189819Y-86357142D02*
X96189819Y-86642856D01*
X96189819Y-86642856D02*
X96142200Y-86738094D01*
X96142200Y-86738094D02*
X96094580Y-86785713D01*
X74919580Y-81396666D02*
X74967200Y-81444285D01*
X74967200Y-81444285D02*
X75014819Y-81587142D01*
X75014819Y-81587142D02*
X75014819Y-81682380D01*
X75014819Y-81682380D02*
X74967200Y-81825237D01*
X74967200Y-81825237D02*
X74871961Y-81920475D01*
X74871961Y-81920475D02*
X74776723Y-81968094D01*
X74776723Y-81968094D02*
X74586247Y-82015713D01*
X74586247Y-82015713D02*
X74443390Y-82015713D01*
X74443390Y-82015713D02*
X74252914Y-81968094D01*
X74252914Y-81968094D02*
X74157676Y-81920475D01*
X74157676Y-81920475D02*
X74062438Y-81825237D01*
X74062438Y-81825237D02*
X74014819Y-81682380D01*
X74014819Y-81682380D02*
X74014819Y-81587142D01*
X74014819Y-81587142D02*
X74062438Y-81444285D01*
X74062438Y-81444285D02*
X74110057Y-81396666D01*
X74014819Y-81063332D02*
X74014819Y-80444285D01*
X74014819Y-80444285D02*
X74395771Y-80777618D01*
X74395771Y-80777618D02*
X74395771Y-80634761D01*
X74395771Y-80634761D02*
X74443390Y-80539523D01*
X74443390Y-80539523D02*
X74491009Y-80491904D01*
X74491009Y-80491904D02*
X74586247Y-80444285D01*
X74586247Y-80444285D02*
X74824342Y-80444285D01*
X74824342Y-80444285D02*
X74919580Y-80491904D01*
X74919580Y-80491904D02*
X74967200Y-80539523D01*
X74967200Y-80539523D02*
X75014819Y-80634761D01*
X75014819Y-80634761D02*
X75014819Y-80920475D01*
X75014819Y-80920475D02*
X74967200Y-81015713D01*
X74967200Y-81015713D02*
X74919580Y-81063332D01*
X64714819Y-100426666D02*
X64238628Y-100759999D01*
X64714819Y-100998094D02*
X63714819Y-100998094D01*
X63714819Y-100998094D02*
X63714819Y-100617142D01*
X63714819Y-100617142D02*
X63762438Y-100521904D01*
X63762438Y-100521904D02*
X63810057Y-100474285D01*
X63810057Y-100474285D02*
X63905295Y-100426666D01*
X63905295Y-100426666D02*
X64048152Y-100426666D01*
X64048152Y-100426666D02*
X64143390Y-100474285D01*
X64143390Y-100474285D02*
X64191009Y-100521904D01*
X64191009Y-100521904D02*
X64238628Y-100617142D01*
X64238628Y-100617142D02*
X64238628Y-100998094D01*
X64048152Y-99569523D02*
X64714819Y-99569523D01*
X63667200Y-99807618D02*
X64381485Y-100045713D01*
X64381485Y-100045713D02*
X64381485Y-99426666D01*
X87804999Y-93767735D02*
X87769285Y-93803450D01*
X87769285Y-93803450D02*
X87662142Y-93839164D01*
X87662142Y-93839164D02*
X87590714Y-93839164D01*
X87590714Y-93839164D02*
X87483571Y-93803450D01*
X87483571Y-93803450D02*
X87412142Y-93732021D01*
X87412142Y-93732021D02*
X87376428Y-93660592D01*
X87376428Y-93660592D02*
X87340714Y-93517735D01*
X87340714Y-93517735D02*
X87340714Y-93410592D01*
X87340714Y-93410592D02*
X87376428Y-93267735D01*
X87376428Y-93267735D02*
X87412142Y-93196307D01*
X87412142Y-93196307D02*
X87483571Y-93124878D01*
X87483571Y-93124878D02*
X87590714Y-93089164D01*
X87590714Y-93089164D02*
X87662142Y-93089164D01*
X87662142Y-93089164D02*
X87769285Y-93124878D01*
X87769285Y-93124878D02*
X87804999Y-93160592D01*
X88483571Y-93089164D02*
X88126428Y-93089164D01*
X88126428Y-93089164D02*
X88090714Y-93446307D01*
X88090714Y-93446307D02*
X88126428Y-93410592D01*
X88126428Y-93410592D02*
X88197857Y-93374878D01*
X88197857Y-93374878D02*
X88376428Y-93374878D01*
X88376428Y-93374878D02*
X88447857Y-93410592D01*
X88447857Y-93410592D02*
X88483571Y-93446307D01*
X88483571Y-93446307D02*
X88519285Y-93517735D01*
X88519285Y-93517735D02*
X88519285Y-93696307D01*
X88519285Y-93696307D02*
X88483571Y-93767735D01*
X88483571Y-93767735D02*
X88447857Y-93803450D01*
X88447857Y-93803450D02*
X88376428Y-93839164D01*
X88376428Y-93839164D02*
X88197857Y-93839164D01*
X88197857Y-93839164D02*
X88126428Y-93803450D01*
X88126428Y-93803450D02*
X88090714Y-93767735D01*
X53744819Y-95939166D02*
X53744819Y-96415356D01*
X53744819Y-96415356D02*
X52744819Y-96415356D01*
X53744819Y-95082023D02*
X53744819Y-95653451D01*
X53744819Y-95367737D02*
X52744819Y-95367737D01*
X52744819Y-95367737D02*
X52887676Y-95462975D01*
X52887676Y-95462975D02*
X52982914Y-95558213D01*
X52982914Y-95558213D02*
X53030533Y-95653451D01*
X68074999Y-89329164D02*
X67824999Y-88972021D01*
X67646428Y-89329164D02*
X67646428Y-88579164D01*
X67646428Y-88579164D02*
X67932142Y-88579164D01*
X67932142Y-88579164D02*
X68003571Y-88614878D01*
X68003571Y-88614878D02*
X68039285Y-88650592D01*
X68039285Y-88650592D02*
X68074999Y-88722021D01*
X68074999Y-88722021D02*
X68074999Y-88829164D01*
X68074999Y-88829164D02*
X68039285Y-88900592D01*
X68039285Y-88900592D02*
X68003571Y-88936307D01*
X68003571Y-88936307D02*
X67932142Y-88972021D01*
X67932142Y-88972021D02*
X67646428Y-88972021D01*
X68360714Y-88650592D02*
X68396428Y-88614878D01*
X68396428Y-88614878D02*
X68467857Y-88579164D01*
X68467857Y-88579164D02*
X68646428Y-88579164D01*
X68646428Y-88579164D02*
X68717857Y-88614878D01*
X68717857Y-88614878D02*
X68753571Y-88650592D01*
X68753571Y-88650592D02*
X68789285Y-88722021D01*
X68789285Y-88722021D02*
X68789285Y-88793450D01*
X68789285Y-88793450D02*
X68753571Y-88900592D01*
X68753571Y-88900592D02*
X68324999Y-89329164D01*
X68324999Y-89329164D02*
X68789285Y-89329164D01*
X72560000Y-95819164D02*
X72560000Y-96354878D01*
X72560000Y-96354878D02*
X72524285Y-96462021D01*
X72524285Y-96462021D02*
X72452857Y-96533450D01*
X72452857Y-96533450D02*
X72345714Y-96569164D01*
X72345714Y-96569164D02*
X72274285Y-96569164D01*
X73310000Y-96569164D02*
X72881429Y-96569164D01*
X73095714Y-96569164D02*
X73095714Y-95819164D01*
X73095714Y-95819164D02*
X73024286Y-95926307D01*
X73024286Y-95926307D02*
X72952857Y-95997735D01*
X72952857Y-95997735D02*
X72881429Y-96033450D01*
X56733332Y-90792800D02*
X56590475Y-90745180D01*
X56590475Y-90745180D02*
X56352380Y-90745180D01*
X56352380Y-90745180D02*
X56257142Y-90792800D01*
X56257142Y-90792800D02*
X56209523Y-90840419D01*
X56209523Y-90840419D02*
X56161904Y-90935657D01*
X56161904Y-90935657D02*
X56161904Y-91030895D01*
X56161904Y-91030895D02*
X56209523Y-91126133D01*
X56209523Y-91126133D02*
X56257142Y-91173752D01*
X56257142Y-91173752D02*
X56352380Y-91221371D01*
X56352380Y-91221371D02*
X56542856Y-91268990D01*
X56542856Y-91268990D02*
X56638094Y-91316609D01*
X56638094Y-91316609D02*
X56685713Y-91364228D01*
X56685713Y-91364228D02*
X56733332Y-91459466D01*
X56733332Y-91459466D02*
X56733332Y-91554704D01*
X56733332Y-91554704D02*
X56685713Y-91649942D01*
X56685713Y-91649942D02*
X56638094Y-91697561D01*
X56638094Y-91697561D02*
X56542856Y-91745180D01*
X56542856Y-91745180D02*
X56304761Y-91745180D01*
X56304761Y-91745180D02*
X56161904Y-91697561D01*
X55828570Y-91745180D02*
X55590475Y-90745180D01*
X55590475Y-90745180D02*
X55399999Y-91459466D01*
X55399999Y-91459466D02*
X55209523Y-90745180D01*
X55209523Y-90745180D02*
X54971428Y-91745180D01*
X54066666Y-90745180D02*
X54638094Y-90745180D01*
X54352380Y-90745180D02*
X54352380Y-91745180D01*
X54352380Y-91745180D02*
X54447618Y-91602323D01*
X54447618Y-91602323D02*
X54542856Y-91507085D01*
X54542856Y-91507085D02*
X54638094Y-91459466D01*
X78196666Y-98734819D02*
X78196666Y-99449104D01*
X78196666Y-99449104D02*
X78149047Y-99591961D01*
X78149047Y-99591961D02*
X78053809Y-99687200D01*
X78053809Y-99687200D02*
X77910952Y-99734819D01*
X77910952Y-99734819D02*
X77815714Y-99734819D01*
X78577619Y-98734819D02*
X79196666Y-98734819D01*
X79196666Y-98734819D02*
X78863333Y-99115771D01*
X78863333Y-99115771D02*
X79006190Y-99115771D01*
X79006190Y-99115771D02*
X79101428Y-99163390D01*
X79101428Y-99163390D02*
X79149047Y-99211009D01*
X79149047Y-99211009D02*
X79196666Y-99306247D01*
X79196666Y-99306247D02*
X79196666Y-99544342D01*
X79196666Y-99544342D02*
X79149047Y-99639580D01*
X79149047Y-99639580D02*
X79101428Y-99687200D01*
X79101428Y-99687200D02*
X79006190Y-99734819D01*
X79006190Y-99734819D02*
X78720476Y-99734819D01*
X78720476Y-99734819D02*
X78625238Y-99687200D01*
X78625238Y-99687200D02*
X78577619Y-99639580D01*
X73539580Y-89066666D02*
X73587200Y-89114285D01*
X73587200Y-89114285D02*
X73634819Y-89257142D01*
X73634819Y-89257142D02*
X73634819Y-89352380D01*
X73634819Y-89352380D02*
X73587200Y-89495237D01*
X73587200Y-89495237D02*
X73491961Y-89590475D01*
X73491961Y-89590475D02*
X73396723Y-89638094D01*
X73396723Y-89638094D02*
X73206247Y-89685713D01*
X73206247Y-89685713D02*
X73063390Y-89685713D01*
X73063390Y-89685713D02*
X72872914Y-89638094D01*
X72872914Y-89638094D02*
X72777676Y-89590475D01*
X72777676Y-89590475D02*
X72682438Y-89495237D01*
X72682438Y-89495237D02*
X72634819Y-89352380D01*
X72634819Y-89352380D02*
X72634819Y-89257142D01*
X72634819Y-89257142D02*
X72682438Y-89114285D01*
X72682438Y-89114285D02*
X72730057Y-89066666D01*
X72730057Y-88685713D02*
X72682438Y-88638094D01*
X72682438Y-88638094D02*
X72634819Y-88542856D01*
X72634819Y-88542856D02*
X72634819Y-88304761D01*
X72634819Y-88304761D02*
X72682438Y-88209523D01*
X72682438Y-88209523D02*
X72730057Y-88161904D01*
X72730057Y-88161904D02*
X72825295Y-88114285D01*
X72825295Y-88114285D02*
X72920533Y-88114285D01*
X72920533Y-88114285D02*
X73063390Y-88161904D01*
X73063390Y-88161904D02*
X73634819Y-88733332D01*
X73634819Y-88733332D02*
X73634819Y-88114285D01*
%TO.C,U4*%
X87045000Y-96075000D02*
X91195000Y-96075000D01*
X87045000Y-101225000D02*
X91195000Y-101225000D01*
D11*
X86445000Y-96175000D02*
X86205000Y-95845000D01*
X86685000Y-95845000D01*
X86445000Y-96175000D01*
G36*
X86445000Y-96175000D02*
G01*
X86205000Y-95845000D01*
X86685000Y-95845000D01*
X86445000Y-96175000D01*
G37*
%TO.C,R5*%
X85676359Y-91840000D02*
X85983641Y-91840000D01*
X85676359Y-92600000D02*
X85983641Y-92600000D01*
%TO.C,C6*%
X55610000Y-98784664D02*
X55610000Y-99000336D01*
X56330000Y-98784664D02*
X56330000Y-99000336D01*
%TO.C,J2*%
X89920000Y-83120000D02*
X91080000Y-83120000D01*
X89920000Y-83930000D02*
X89920000Y-83120000D01*
X89920000Y-84740000D02*
X89920000Y-91025000D01*
X89920000Y-84740000D02*
X90413292Y-84740000D01*
X89920000Y-91025000D02*
X90762077Y-91025000D01*
X91397923Y-91025000D02*
X92240000Y-91025000D01*
X91746708Y-84740000D02*
X92240000Y-84740000D01*
X92240000Y-84740000D02*
X92240000Y-91025000D01*
%TO.C,SW2*%
X60400000Y-82030000D02*
X61600000Y-82030000D01*
X61600000Y-84570000D01*
X60400000Y-84570000D01*
X60400000Y-82030000D01*
X69938000Y-80252000D02*
X56222000Y-80252000D01*
X56222000Y-86348000D01*
X69938000Y-86348000D01*
X69938000Y-80252000D01*
%TO.C,R6*%
X83686359Y-91830000D02*
X83993641Y-91830000D01*
X83686359Y-92590000D02*
X83993641Y-92590000D01*
%TO.C,R10*%
X95212936Y-96760000D02*
X96667064Y-96760000D01*
X95212936Y-98580000D02*
X96667064Y-98580000D01*
%TO.C,U2*%
X52390000Y-97840000D02*
X54210000Y-97840000D01*
X52390000Y-97890000D02*
X52390000Y-97840000D01*
X52390000Y-100960000D02*
X52390000Y-100910000D01*
X54210000Y-97840000D02*
X54210000Y-97890000D01*
X54210000Y-100910000D02*
X54210000Y-100960000D01*
X54210000Y-100960000D02*
X52390000Y-100960000D01*
X51850000Y-97890000D02*
X51610000Y-97560000D01*
X52090000Y-97560000D01*
X51850000Y-97890000D01*
G36*
X51850000Y-97890000D02*
G01*
X51610000Y-97560000D01*
X52090000Y-97560000D01*
X51850000Y-97890000D01*
G37*
%TO.C,R1*%
X73960000Y-86766359D02*
X73960000Y-87073641D01*
X74720000Y-86766359D02*
X74720000Y-87073641D01*
%TO.C,R8*%
X69736359Y-92300000D02*
X70043641Y-92300000D01*
X69736359Y-93060000D02*
X70043641Y-93060000D01*
%TO.C,C10*%
X90382164Y-101670000D02*
X90597836Y-101670000D01*
X90382164Y-102390000D02*
X90597836Y-102390000D01*
%TO.C,C8*%
X65580000Y-94929420D02*
X65580000Y-95210580D01*
X66600000Y-94929420D02*
X66600000Y-95210580D01*
%TO.C,U1*%
X75225000Y-74410000D02*
X88725000Y-74410000D01*
X75225000Y-91310000D02*
X75225000Y-74410000D01*
X88725000Y-74410000D02*
X88725000Y-91310000D01*
X88725000Y-91310000D02*
X75225000Y-91310000D01*
X74875000Y-81560000D02*
X74539000Y-81800000D01*
X74539000Y-81320000D01*
X74875000Y-81560000D01*
G36*
X74875000Y-81560000D02*
G01*
X74539000Y-81800000D01*
X74539000Y-81320000D01*
X74875000Y-81560000D01*
G37*
%TO.C,J4*%
X91475000Y-92550000D02*
X91475000Y-95310000D01*
X94125000Y-92550000D02*
X91475000Y-92550000D01*
X94125000Y-92550000D02*
X94125000Y-95310000D01*
X94125000Y-95310000D02*
X91475000Y-95310000D01*
X95395000Y-92550000D02*
X96775000Y-92550000D01*
X96775000Y-92550000D02*
X96775000Y-93930000D01*
%TO.C,R11*%
X74660000Y-92306359D02*
X74660000Y-92613641D01*
X75420000Y-92306359D02*
X75420000Y-92613641D01*
%TO.C,U3*%
X68117500Y-93460000D02*
X69937500Y-93460000D01*
X68117500Y-93510000D02*
X68117500Y-93460000D01*
X68117500Y-96580000D02*
X68117500Y-96530000D01*
X69937500Y-93460000D02*
X69937500Y-93510000D01*
X69937500Y-96530000D02*
X69937500Y-96580000D01*
X69937500Y-96580000D02*
X68117500Y-96580000D01*
X67577500Y-93510000D02*
X67337500Y-93180000D01*
X67817500Y-93180000D01*
X67577500Y-93510000D01*
G36*
X67577500Y-93510000D02*
G01*
X67337500Y-93180000D01*
X67817500Y-93180000D01*
X67577500Y-93510000D01*
G37*
%TO.C,C4*%
X52379420Y-101390000D02*
X52660580Y-101390000D01*
X52379420Y-102410000D02*
X52660580Y-102410000D01*
%TO.C,C9*%
X58580000Y-94460000D02*
X58580000Y-102525000D01*
X58580000Y-102525000D02*
X63100000Y-102525000D01*
X63100000Y-102525000D02*
X63100000Y-94460000D01*
%TO.C,Q1*%
X66140000Y-97190000D02*
X67660000Y-97190000D01*
X66140000Y-97240000D02*
X66140000Y-97190000D01*
X66140000Y-99140000D02*
X66140000Y-98360000D01*
X66140000Y-100310000D02*
X66140000Y-100260000D01*
X67660000Y-97190000D02*
X67660000Y-98190000D01*
X67660000Y-99310000D02*
X67660000Y-100310000D01*
X67660000Y-100310000D02*
X66140000Y-100310000D01*
X65840000Y-98700000D02*
X65360000Y-98700000D01*
X65600000Y-98370000D01*
X65840000Y-98700000D01*
G36*
X65840000Y-98700000D02*
G01*
X65360000Y-98700000D01*
X65600000Y-98370000D01*
X65840000Y-98700000D01*
G37*
%TO.C,C1*%
X73917836Y-82340000D02*
X73702164Y-82340000D01*
X73917836Y-83060000D02*
X73702164Y-83060000D01*
%TO.C,R3*%
X72916359Y-84380000D02*
X73223641Y-84380000D01*
X72916359Y-85140000D02*
X73223641Y-85140000D01*
%TO.C,R9*%
X81950000Y-92296359D02*
X81950000Y-92603641D01*
X82710000Y-92296359D02*
X82710000Y-92603641D01*
%TO.C,C7*%
X49890000Y-97840580D02*
X49890000Y-97559420D01*
X50910000Y-97840580D02*
X50910000Y-97559420D01*
%TO.C,R7*%
X67450000Y-91886359D02*
X67450000Y-92193641D01*
X68210000Y-91886359D02*
X68210000Y-92193641D01*
%TO.C,SW3*%
X92985000Y-86200000D02*
X92985000Y-88800000D01*
X93435000Y-85750000D02*
X92985000Y-86200000D01*
X93435000Y-89250000D02*
X92985000Y-88800000D01*
X96735000Y-84750000D02*
X94735000Y-84750000D01*
X96735000Y-90250000D02*
X94735000Y-90250000D01*
X98035000Y-85750000D02*
X98485000Y-86200000D01*
X98035000Y-89250000D02*
X98485000Y-88800000D01*
X98485000Y-86200000D02*
X98485000Y-88800000D01*
%TO.C,C3*%
X72550580Y-80440000D02*
X72269420Y-80440000D01*
X72550580Y-81460000D02*
X72269420Y-81460000D01*
%TO.C,R4*%
X63940000Y-98353641D02*
X63940000Y-98046359D01*
X64700000Y-98353641D02*
X64700000Y-98046359D01*
%TO.C,C5*%
X87742164Y-91870000D02*
X87957836Y-91870000D01*
X87742164Y-92590000D02*
X87957836Y-92590000D01*
%TO.C,L1*%
X51680000Y-94162500D02*
X54900000Y-94162500D01*
X54900000Y-97382500D02*
X51680000Y-97382500D01*
%TO.C,R2*%
X68046359Y-89780000D02*
X68353641Y-89780000D01*
X68046359Y-90540000D02*
X68353641Y-90540000D01*
%TO.C,J1*%
X70110000Y-97230000D02*
X71490000Y-97230000D01*
X70110000Y-98610000D02*
X70110000Y-97230000D01*
X70110000Y-99880000D02*
X70110000Y-102530000D01*
X70110000Y-99880000D02*
X72870000Y-99880000D01*
X70110000Y-102530000D02*
X72870000Y-102530000D01*
X72870000Y-99880000D02*
X72870000Y-102530000D01*
%TO.C,SW1*%
X51062000Y-93048000D02*
X64778000Y-93048000D01*
X64778000Y-86952000D01*
X51062000Y-86952000D01*
X51062000Y-93048000D01*
X60600000Y-91270000D02*
X59400000Y-91270000D01*
X59400000Y-88730000D01*
X60600000Y-88730000D01*
X60600000Y-91270000D01*
%TO.C,J3*%
X74080000Y-96930000D02*
X74080000Y-98930000D01*
X74080000Y-100830000D02*
X74080000Y-102730000D01*
X74080000Y-102730000D02*
X83480000Y-102730000D01*
X83480000Y-96930000D02*
X83480000Y-98930000D01*
X83480000Y-100830000D02*
X83480000Y-102730000D01*
%TO.C,C2*%
X73980000Y-88772164D02*
X73980000Y-88987836D01*
X74700000Y-88772164D02*
X74700000Y-88987836D01*
%TD*%
%LPC*%
D12*
%TO.C,U4*%
X89120000Y-98650000D03*
D13*
X86245000Y-96745000D03*
X86245000Y-98015000D03*
X86245000Y-99285000D03*
X86245000Y-100555000D03*
X91995000Y-100555000D03*
X91995000Y-99285000D03*
X91995000Y-98015000D03*
X91995000Y-96745000D03*
D14*
X88470000Y-97350000D03*
X88470000Y-98650000D03*
X88470000Y-99950000D03*
X89770000Y-97350000D03*
X89770000Y-98650000D03*
X89770000Y-99950000D03*
%TD*%
D15*
%TO.C,R5*%
X85320000Y-92220000D03*
X86340000Y-92220000D03*
%TD*%
D16*
%TO.C,C6*%
X55970000Y-98412500D03*
X55970000Y-99372500D03*
%TD*%
D17*
%TO.C,J2*%
X91080000Y-83930000D03*
D18*
X91080000Y-85200000D03*
X91080000Y-86470000D03*
X91080000Y-87740000D03*
X91080000Y-89010000D03*
X91080000Y-90280000D03*
%TD*%
D19*
%TO.C,SW2*%
X58000000Y-83300000D03*
D20*
X63080000Y-83300000D03*
X68160000Y-83300000D03*
%TD*%
D15*
%TO.C,R6*%
X83330000Y-92210000D03*
X84350000Y-92210000D03*
%TD*%
D21*
%TO.C,R10*%
X94477500Y-97670000D03*
X97402500Y-97670000D03*
%TD*%
D22*
%TO.C,U2*%
X52162500Y-98450000D03*
X52162500Y-99400000D03*
X52162500Y-100350000D03*
X54437500Y-100350000D03*
X54437500Y-99400000D03*
X54437500Y-98450000D03*
%TD*%
D23*
%TO.C,R1*%
X74340000Y-86410000D03*
X74340000Y-87430000D03*
%TD*%
D15*
%TO.C,R8*%
X69380000Y-92680000D03*
X70400000Y-92680000D03*
%TD*%
D24*
%TO.C,C10*%
X90010000Y-102030000D03*
X90970000Y-102030000D03*
%TD*%
D25*
%TO.C,C8*%
X66090000Y-94295000D03*
X66090000Y-95845000D03*
%TD*%
D26*
%TO.C,U1*%
X76075000Y-81560000D03*
X76075000Y-82360000D03*
X76075000Y-83160000D03*
X76075000Y-83960000D03*
X76075000Y-84760000D03*
X76075000Y-85560000D03*
X76075000Y-86360000D03*
X76075000Y-87160000D03*
X76075000Y-87960000D03*
X76075000Y-88760000D03*
X76075000Y-89560000D03*
D27*
X77175000Y-90460000D03*
X77975000Y-90460000D03*
X78775000Y-90460000D03*
X79575000Y-90460000D03*
X80375000Y-90460000D03*
X81175000Y-90460000D03*
X81975000Y-90460000D03*
X82775000Y-90460000D03*
X83575000Y-90460000D03*
X84375000Y-90460000D03*
X85175000Y-90460000D03*
X85975000Y-90460000D03*
X86775000Y-90460000D03*
D26*
X87875000Y-89560000D03*
X87875000Y-88760000D03*
X87875000Y-87960000D03*
X87875000Y-87160000D03*
X87875000Y-86360000D03*
X87875000Y-85560000D03*
X87875000Y-84760000D03*
X87875000Y-83960000D03*
X87875000Y-83160000D03*
X87875000Y-82360000D03*
X87875000Y-81560000D03*
D27*
X86775000Y-80660000D03*
X85975000Y-80660000D03*
X85175000Y-80660000D03*
X84375000Y-80660000D03*
X83575000Y-80660000D03*
X82775000Y-80660000D03*
X81975000Y-80660000D03*
X81175000Y-80660000D03*
X80375000Y-80660000D03*
X79575000Y-80660000D03*
X78775000Y-80660000D03*
X77975000Y-80660000D03*
X77175000Y-80660000D03*
D28*
X80000000Y-83585000D03*
D29*
X80000000Y-85560000D03*
X80000000Y-87535000D03*
X81975000Y-83585000D03*
X81975000Y-85560000D03*
X81975000Y-87535000D03*
X83950000Y-83585000D03*
X83950000Y-85560000D03*
X83950000Y-87535000D03*
D30*
X87925000Y-80610000D03*
X87925000Y-90510000D03*
X76025000Y-90510000D03*
X76025000Y-80610000D03*
%TD*%
D31*
%TO.C,J4*%
X95395000Y-93930000D03*
D32*
X92855000Y-93930000D03*
%TD*%
D23*
%TO.C,R11*%
X75040000Y-91950000D03*
X75040000Y-92970000D03*
%TD*%
D22*
%TO.C,U3*%
X67890000Y-94070000D03*
X67890000Y-95020000D03*
X67890000Y-95970000D03*
X70165000Y-95970000D03*
X70165000Y-95020000D03*
X70165000Y-94070000D03*
%TD*%
D33*
%TO.C,C4*%
X51745000Y-101900000D03*
X53295000Y-101900000D03*
%TD*%
D34*
%TO.C,C9*%
X60840000Y-101230000D03*
X60840000Y-94990000D03*
%TD*%
D35*
%TO.C,Q1*%
X65962500Y-97800000D03*
X65962500Y-99700000D03*
X67837500Y-98750000D03*
%TD*%
D36*
%TO.C,C1*%
X74290000Y-82700000D03*
X73330000Y-82700000D03*
%TD*%
D15*
%TO.C,R3*%
X72560000Y-84760000D03*
X73580000Y-84760000D03*
%TD*%
D23*
%TO.C,R9*%
X82330000Y-91940000D03*
X82330000Y-92960000D03*
%TD*%
D37*
%TO.C,C7*%
X50400000Y-98475000D03*
X50400000Y-96925000D03*
%TD*%
D23*
%TO.C,R7*%
X67830000Y-91530000D03*
X67830000Y-92550000D03*
%TD*%
D38*
%TO.C,SW3*%
X97610000Y-84500000D03*
X97610000Y-90500000D03*
X93860000Y-84500000D03*
X93860000Y-90500000D03*
%TD*%
D39*
%TO.C,C3*%
X73185000Y-80950000D03*
X71635000Y-80950000D03*
%TD*%
D40*
%TO.C,R4*%
X64320000Y-98710000D03*
X64320000Y-97690000D03*
%TD*%
D24*
%TO.C,C5*%
X87370000Y-92230000D03*
X88330000Y-92230000D03*
%TD*%
D41*
%TO.C,L1*%
X54440000Y-95772500D03*
X52140000Y-95772500D03*
%TD*%
D15*
%TO.C,R2*%
X67690000Y-90160000D03*
X68710000Y-90160000D03*
%TD*%
D31*
%TO.C,J1*%
X71490000Y-98610000D03*
D32*
X71490000Y-101150000D03*
%TD*%
D19*
%TO.C,SW1*%
X63000000Y-90000000D03*
D20*
X57920000Y-90000000D03*
X52840000Y-90000000D03*
%TD*%
D42*
%TO.C,J3*%
X75890000Y-96230000D03*
X81670000Y-96230000D03*
D43*
X75530000Y-94785000D03*
X76330000Y-94785000D03*
D44*
X77530000Y-94785000D03*
X78530000Y-94785000D03*
X79030000Y-94785000D03*
X80030000Y-94785000D03*
D43*
X81230000Y-94785000D03*
X82030000Y-94785000D03*
X82030000Y-94785000D03*
X81230000Y-94785000D03*
D44*
X80530000Y-94785000D03*
X79530000Y-94785000D03*
X78030000Y-94785000D03*
X77030000Y-94785000D03*
D43*
X76330000Y-94785000D03*
X75530000Y-94785000D03*
D45*
X74460000Y-95700000D03*
D46*
X74460000Y-99880000D03*
D45*
X83100000Y-95700000D03*
D46*
X83100000Y-99880000D03*
%TD*%
D16*
%TO.C,C2*%
X74340000Y-88400000D03*
X74340000Y-89360000D03*
%TD*%
%LPD*%
M02*
