%TF.GenerationSoftware,KiCad,Pcbnew,9.0.7-9.0.7~ubuntu24.04.1*%
%TF.CreationDate,2026-02-26T22:41:37+11:00*%
%TF.ProjectId,flipcab-rounded,666c6970-6361-4622-9d72-6f756e646564,rev?*%
%TF.SameCoordinates,Original*%
%TF.FileFunction,Soldermask,Top*%
%TF.FilePolarity,Negative*%
%FSLAX46Y46*%
G04 Gerber Fmt 4.6, Leading zero omitted, Abs format (unit mm)*
G04 Created by KiCad (PCBNEW 9.0.7-9.0.7~ubuntu24.04.1) date 2026-02-26 22:41:37*
%MOMM*%
%LPD*%
G01*
G04 APERTURE LIST*
G04 Aperture macros list*
%AMRoundRect*
0 Rectangle with rounded corners*
0 $1 Rounding radius*
0 $2 $3 $4 $5 $6 $7 $8 $9 X,Y pos of 4 corners*
0 Add a 4 corners polygon primitive as box body*
4,1,4,$2,$3,$4,$5,$6,$7,$8,$9,$2,$3,0*
0 Add four circle primitives for the rounded corners*
1,1,$1+$1,$2,$3*
1,1,$1+$1,$4,$5*
1,1,$1+$1,$6,$7*
1,1,$1+$1,$8,$9*
0 Add four rect primitives between the rounded corners*
20,1,$1+$1,$2,$3,$4,$5,0*
20,1,$1+$1,$4,$5,$6,$7,0*
20,1,$1+$1,$6,$7,$8,$9,0*
20,1,$1+$1,$8,$9,$2,$3,0*%
%AMOutline5P*
0 Free polygon, 5 corners , with rotation*
0 The origin of the aperture is its center*
0 number of corners: always 5*
0 $1 to $10 corner X, Y*
0 $11 Rotation angle, in degrees counterclockwise*
0 create outline with 5 corners*
4,1,5,$1,$2,$3,$4,$5,$6,$7,$8,$9,$10,$1,$2,$11*%
%AMOutline6P*
0 Free polygon, 6 corners , with rotation*
0 The origin of the aperture is its center*
0 number of corners: always 6*
0 $1 to $12 corner X, Y*
0 $13 Rotation angle, in degrees counterclockwise*
0 create outline with 6 corners*
4,1,6,$1,$2,$3,$4,$5,$6,$7,$8,$9,$10,$11,$12,$1,$2,$13*%
%AMOutline7P*
0 Free polygon, 7 corners , with rotation*
0 The origin of the aperture is its center*
0 number of corners: always 7*
0 $1 to $14 corner X, Y*
0 $15 Rotation angle, in degrees counterclockwise*
0 create outline with 7 corners*
4,1,7,$1,$2,$3,$4,$5,$6,$7,$8,$9,$10,$11,$12,$13,$14,$1,$2,$15*%
%AMOutline8P*
0 Free polygon, 8 corners , with rotation*
0 The origin of the aperture is its center*
0 number of corners: always 8*
0 $1 to $16 corner X, Y*
0 $17 Rotation angle, in degrees counterclockwise*
0 create outline with 8 corners*
4,1,8,$1,$2,$3,$4,$5,$6,$7,$8,$9,$10,$11,$12,$13,$14,$15,$16,$1,$2,$17*%
G04 Aperture macros list end*
%ADD10R,2.400000X3.100000*%
%ADD11RoundRect,0.070000X-1.100000X-0.250000X1.100000X-0.250000X1.100000X0.250000X-1.100000X0.250000X0*%
%ADD12C,0.770000*%
%ADD13RoundRect,0.135000X-0.135000X-0.185000X0.135000X-0.185000X0.135000X0.185000X-0.135000X0.185000X0*%
%ADD14RoundRect,0.140000X-0.170000X0.140000X-0.170000X-0.140000X0.170000X-0.140000X0.170000X0.140000X0*%
%ADD15R,1.000000X1.000000*%
%ADD16C,1.000000*%
%ADD17R,2.000000X2.000000*%
%ADD18C,2.000000*%
%ADD19RoundRect,0.250000X-0.312500X-0.625000X0.312500X-0.625000X0.312500X0.625000X-0.312500X0.625000X0*%
%ADD20RoundRect,0.150000X-0.512500X-0.150000X0.512500X-0.150000X0.512500X0.150000X-0.512500X0.150000X0*%
%ADD21RoundRect,0.135000X-0.185000X0.135000X-0.185000X-0.135000X0.185000X-0.135000X0.185000X0.135000X0*%
%ADD22RoundRect,0.140000X-0.140000X-0.170000X0.140000X-0.170000X0.140000X0.170000X-0.140000X0.170000X0*%
%ADD23RoundRect,0.225000X-0.250000X0.225000X-0.250000X-0.225000X0.250000X-0.225000X0.250000X0.225000X0*%
%ADD24R,0.800000X0.400000*%
%ADD25R,0.400000X0.800000*%
%ADD26Outline5P,-0.725000X0.130500X-0.130500X0.725000X0.725000X0.725000X0.725000X-0.725000X-0.725000X-0.725000X0.000000*%
%ADD27R,1.450000X1.450000*%
%ADD28R,0.700000X0.700000*%
%ADD29R,1.700000X1.700000*%
%ADD30C,1.700000*%
%ADD31RoundRect,0.225000X-0.225000X-0.250000X0.225000X-0.250000X0.225000X0.250000X-0.225000X0.250000X0*%
%ADD32RoundRect,0.250000X1.045000X-0.785000X1.045000X0.785000X-1.045000X0.785000X-1.045000X-0.785000X0*%
%ADD33RoundRect,0.150000X-0.587500X-0.150000X0.587500X-0.150000X0.587500X0.150000X-0.587500X0.150000X0*%
%ADD34RoundRect,0.140000X0.140000X0.170000X-0.140000X0.170000X-0.140000X-0.170000X0.140000X-0.170000X0*%
%ADD35RoundRect,0.225000X0.250000X-0.225000X0.250000X0.225000X-0.250000X0.225000X-0.250000X-0.225000X0*%
%ADD36R,0.750000X1.000000*%
%ADD37RoundRect,0.225000X0.225000X0.250000X-0.225000X0.250000X-0.225000X-0.250000X0.225000X-0.250000X0*%
%ADD38RoundRect,0.135000X0.185000X-0.135000X0.185000X0.135000X-0.185000X0.135000X-0.185000X-0.135000X0*%
%ADD39RoundRect,0.200000X0.200000X1.150000X-0.200000X1.150000X-0.200000X-1.150000X0.200000X-1.150000X0*%
%ADD40R,0.600000X1.450000*%
%ADD41R,0.300000X1.450000*%
%ADD42O,1.000000X2.100000*%
%ADD43O,1.000000X1.600000*%
G04 APERTURE END LIST*
D10*
%TO.C,U4*%
X89120000Y-98650000D03*
D11*
X86245000Y-96745000D03*
X86245000Y-98015000D03*
X86245000Y-99285000D03*
X86245000Y-100555000D03*
X91995000Y-100555000D03*
X91995000Y-99285000D03*
X91995000Y-98015000D03*
X91995000Y-96745000D03*
D12*
X88470000Y-97350000D03*
X88470000Y-98650000D03*
X88470000Y-99950000D03*
X89770000Y-97350000D03*
X89770000Y-98650000D03*
X89770000Y-99950000D03*
%TD*%
D13*
%TO.C,R5*%
X85320000Y-92220000D03*
X86340000Y-92220000D03*
%TD*%
D14*
%TO.C,C6*%
X55970000Y-98412500D03*
X55970000Y-99372500D03*
%TD*%
D15*
%TO.C,J2*%
X91080000Y-83930000D03*
D16*
X91080000Y-85200000D03*
X91080000Y-86470000D03*
X91080000Y-87740000D03*
X91080000Y-89010000D03*
X91080000Y-90280000D03*
%TD*%
D17*
%TO.C,SW2*%
X58000000Y-83300000D03*
D18*
X63080000Y-83300000D03*
X68160000Y-83300000D03*
%TD*%
D13*
%TO.C,R6*%
X83330000Y-92210000D03*
X84350000Y-92210000D03*
%TD*%
D19*
%TO.C,R10*%
X94477500Y-97670000D03*
X97402500Y-97670000D03*
%TD*%
D20*
%TO.C,U2*%
X52162500Y-98450000D03*
X52162500Y-99400000D03*
X52162500Y-100350000D03*
X54437500Y-100350000D03*
X54437500Y-99400000D03*
X54437500Y-98450000D03*
%TD*%
D21*
%TO.C,R1*%
X74340000Y-86410000D03*
X74340000Y-87430000D03*
%TD*%
D13*
%TO.C,R8*%
X69380000Y-92680000D03*
X70400000Y-92680000D03*
%TD*%
D22*
%TO.C,C10*%
X90010000Y-102030000D03*
X90970000Y-102030000D03*
%TD*%
D23*
%TO.C,C8*%
X66090000Y-94295000D03*
X66090000Y-95845000D03*
%TD*%
D24*
%TO.C,U1*%
X76075000Y-81560000D03*
X76075000Y-82360000D03*
X76075000Y-83160000D03*
X76075000Y-83960000D03*
X76075000Y-84760000D03*
X76075000Y-85560000D03*
X76075000Y-86360000D03*
X76075000Y-87160000D03*
X76075000Y-87960000D03*
X76075000Y-88760000D03*
X76075000Y-89560000D03*
D25*
X77175000Y-90460000D03*
X77975000Y-90460000D03*
X78775000Y-90460000D03*
X79575000Y-90460000D03*
X80375000Y-90460000D03*
X81175000Y-90460000D03*
X81975000Y-90460000D03*
X82775000Y-90460000D03*
X83575000Y-90460000D03*
X84375000Y-90460000D03*
X85175000Y-90460000D03*
X85975000Y-90460000D03*
X86775000Y-90460000D03*
D24*
X87875000Y-89560000D03*
X87875000Y-88760000D03*
X87875000Y-87960000D03*
X87875000Y-87160000D03*
X87875000Y-86360000D03*
X87875000Y-85560000D03*
X87875000Y-84760000D03*
X87875000Y-83960000D03*
X87875000Y-83160000D03*
X87875000Y-82360000D03*
X87875000Y-81560000D03*
D25*
X86775000Y-80660000D03*
X85975000Y-80660000D03*
X85175000Y-80660000D03*
X84375000Y-80660000D03*
X83575000Y-80660000D03*
X82775000Y-80660000D03*
X81975000Y-80660000D03*
X81175000Y-80660000D03*
X80375000Y-80660000D03*
X79575000Y-80660000D03*
X78775000Y-80660000D03*
X77975000Y-80660000D03*
X77175000Y-80660000D03*
D26*
X80000000Y-83585000D03*
D27*
X80000000Y-85560000D03*
X80000000Y-87535000D03*
X81975000Y-83585000D03*
X81975000Y-85560000D03*
X81975000Y-87535000D03*
X83950000Y-83585000D03*
X83950000Y-85560000D03*
X83950000Y-87535000D03*
D28*
X87925000Y-80610000D03*
X87925000Y-90510000D03*
X76025000Y-90510000D03*
X76025000Y-80610000D03*
%TD*%
D29*
%TO.C,J4*%
X95395000Y-93930000D03*
D30*
X92855000Y-93930000D03*
%TD*%
D21*
%TO.C,R11*%
X75040000Y-91950000D03*
X75040000Y-92970000D03*
%TD*%
D20*
%TO.C,U3*%
X67890000Y-94070000D03*
X67890000Y-95020000D03*
X67890000Y-95970000D03*
X70165000Y-95970000D03*
X70165000Y-95020000D03*
X70165000Y-94070000D03*
%TD*%
D31*
%TO.C,C4*%
X51745000Y-101900000D03*
X53295000Y-101900000D03*
%TD*%
D32*
%TO.C,C9*%
X60840000Y-101230000D03*
X60840000Y-94990000D03*
%TD*%
D33*
%TO.C,Q1*%
X65962500Y-97800000D03*
X65962500Y-99700000D03*
X67837500Y-98750000D03*
%TD*%
D34*
%TO.C,C1*%
X74290000Y-82700000D03*
X73330000Y-82700000D03*
%TD*%
D13*
%TO.C,R3*%
X72560000Y-84760000D03*
X73580000Y-84760000D03*
%TD*%
D21*
%TO.C,R9*%
X82330000Y-91940000D03*
X82330000Y-92960000D03*
%TD*%
D35*
%TO.C,C7*%
X50400000Y-98475000D03*
X50400000Y-96925000D03*
%TD*%
D21*
%TO.C,R7*%
X67830000Y-91530000D03*
X67830000Y-92550000D03*
%TD*%
D36*
%TO.C,SW3*%
X97610000Y-84500000D03*
X97610000Y-90500000D03*
X93860000Y-84500000D03*
X93860000Y-90500000D03*
%TD*%
D37*
%TO.C,C3*%
X73185000Y-80950000D03*
X71635000Y-80950000D03*
%TD*%
D38*
%TO.C,R4*%
X64320000Y-98710000D03*
X64320000Y-97690000D03*
%TD*%
D22*
%TO.C,C5*%
X87370000Y-92230000D03*
X88330000Y-92230000D03*
%TD*%
D39*
%TO.C,L1*%
X54440000Y-95772500D03*
X52140000Y-95772500D03*
%TD*%
D13*
%TO.C,R2*%
X67690000Y-90160000D03*
X68710000Y-90160000D03*
%TD*%
D29*
%TO.C,J1*%
X71490000Y-98610000D03*
D30*
X71490000Y-101150000D03*
%TD*%
D17*
%TO.C,SW1*%
X63000000Y-90000000D03*
D18*
X57920000Y-90000000D03*
X52840000Y-90000000D03*
%TD*%
D40*
%TO.C,J3*%
X75530000Y-94785000D03*
X76330000Y-94785000D03*
D41*
X77530000Y-94785000D03*
X78530000Y-94785000D03*
X79030000Y-94785000D03*
X80030000Y-94785000D03*
D40*
X81230000Y-94785000D03*
X82030000Y-94785000D03*
X82030000Y-94785000D03*
X81230000Y-94785000D03*
D41*
X80530000Y-94785000D03*
X79530000Y-94785000D03*
X78030000Y-94785000D03*
X77030000Y-94785000D03*
D40*
X76330000Y-94785000D03*
X75530000Y-94785000D03*
D42*
X74460000Y-95700000D03*
D43*
X74460000Y-99880000D03*
D42*
X83100000Y-95700000D03*
D43*
X83100000Y-99880000D03*
%TD*%
D14*
%TO.C,C2*%
X74340000Y-88400000D03*
X74340000Y-89360000D03*
%TD*%
M02*
