%TF.GenerationSoftware,KiCad,Pcbnew,9.0.7-9.0.7~ubuntu24.04.1*%
%TF.CreationDate,2026-02-26T22:41:37+11:00*%
%TF.ProjectId,flipcab-rounded,666c6970-6361-4622-9d72-6f756e646564,rev?*%
%TF.SameCoordinates,Original*%
%TF.FileFunction,Legend,Bot*%
%TF.FilePolarity,Positive*%
%FSLAX46Y46*%
G04 Gerber Fmt 4.6, Leading zero omitted, Abs format (unit mm)*
G04 Created by KiCad (PCBNEW 9.0.7-9.0.7~ubuntu24.04.1) date 2026-02-26 22:41:37*
%MOMM*%
%LPD*%
G01*
G04 APERTURE LIST*
%ADD10C,0.150000*%
%ADD11C,0.770000*%
%ADD12R,1.000000X1.000000*%
%ADD13C,1.000000*%
%ADD14R,2.000000X2.000000*%
%ADD15C,2.000000*%
%ADD16R,1.700000X1.700000*%
%ADD17C,1.700000*%
%ADD18C,0.650000*%
%ADD19O,1.000000X2.100000*%
%ADD20O,1.000000X1.600000*%
G04 APERTURE END LIST*
D10*
X66829887Y-96326121D02*
X67163220Y-96326121D01*
X67163220Y-96849931D02*
X67163220Y-95849931D01*
X67163220Y-95849931D02*
X66687030Y-95849931D01*
X66163220Y-96849931D02*
X66258458Y-96802312D01*
X66258458Y-96802312D02*
X66306077Y-96707073D01*
X66306077Y-96707073D02*
X66306077Y-95849931D01*
X65782267Y-96849931D02*
X65782267Y-96183264D01*
X65782267Y-95849931D02*
X65829886Y-95897550D01*
X65829886Y-95897550D02*
X65782267Y-95945169D01*
X65782267Y-95945169D02*
X65734648Y-95897550D01*
X65734648Y-95897550D02*
X65782267Y-95849931D01*
X65782267Y-95849931D02*
X65782267Y-95945169D01*
X65306077Y-96183264D02*
X65306077Y-97183264D01*
X65306077Y-96230883D02*
X65210839Y-96183264D01*
X65210839Y-96183264D02*
X65020363Y-96183264D01*
X65020363Y-96183264D02*
X64925125Y-96230883D01*
X64925125Y-96230883D02*
X64877506Y-96278502D01*
X64877506Y-96278502D02*
X64829887Y-96373740D01*
X64829887Y-96373740D02*
X64829887Y-96659454D01*
X64829887Y-96659454D02*
X64877506Y-96754692D01*
X64877506Y-96754692D02*
X64925125Y-96802312D01*
X64925125Y-96802312D02*
X65020363Y-96849931D01*
X65020363Y-96849931D02*
X65210839Y-96849931D01*
X65210839Y-96849931D02*
X65306077Y-96802312D01*
X63829887Y-96754692D02*
X63877506Y-96802312D01*
X63877506Y-96802312D02*
X64020363Y-96849931D01*
X64020363Y-96849931D02*
X64115601Y-96849931D01*
X64115601Y-96849931D02*
X64258458Y-96802312D01*
X64258458Y-96802312D02*
X64353696Y-96707073D01*
X64353696Y-96707073D02*
X64401315Y-96611835D01*
X64401315Y-96611835D02*
X64448934Y-96421359D01*
X64448934Y-96421359D02*
X64448934Y-96278502D01*
X64448934Y-96278502D02*
X64401315Y-96088026D01*
X64401315Y-96088026D02*
X64353696Y-95992788D01*
X64353696Y-95992788D02*
X64258458Y-95897550D01*
X64258458Y-95897550D02*
X64115601Y-95849931D01*
X64115601Y-95849931D02*
X64020363Y-95849931D01*
X64020363Y-95849931D02*
X63877506Y-95897550D01*
X63877506Y-95897550D02*
X63829887Y-95945169D01*
X62972744Y-96849931D02*
X62972744Y-96326121D01*
X62972744Y-96326121D02*
X63020363Y-96230883D01*
X63020363Y-96230883D02*
X63115601Y-96183264D01*
X63115601Y-96183264D02*
X63306077Y-96183264D01*
X63306077Y-96183264D02*
X63401315Y-96230883D01*
X62972744Y-96802312D02*
X63067982Y-96849931D01*
X63067982Y-96849931D02*
X63306077Y-96849931D01*
X63306077Y-96849931D02*
X63401315Y-96802312D01*
X63401315Y-96802312D02*
X63448934Y-96707073D01*
X63448934Y-96707073D02*
X63448934Y-96611835D01*
X63448934Y-96611835D02*
X63401315Y-96516597D01*
X63401315Y-96516597D02*
X63306077Y-96468978D01*
X63306077Y-96468978D02*
X63067982Y-96468978D01*
X63067982Y-96468978D02*
X62972744Y-96421359D01*
X62496553Y-96849931D02*
X62496553Y-95849931D01*
X62496553Y-96230883D02*
X62401315Y-96183264D01*
X62401315Y-96183264D02*
X62210839Y-96183264D01*
X62210839Y-96183264D02*
X62115601Y-96230883D01*
X62115601Y-96230883D02*
X62067982Y-96278502D01*
X62067982Y-96278502D02*
X62020363Y-96373740D01*
X62020363Y-96373740D02*
X62020363Y-96659454D01*
X62020363Y-96659454D02*
X62067982Y-96754692D01*
X62067982Y-96754692D02*
X62115601Y-96802312D01*
X62115601Y-96802312D02*
X62210839Y-96849931D01*
X62210839Y-96849931D02*
X62401315Y-96849931D01*
X62401315Y-96849931D02*
X62496553Y-96802312D01*
X60829886Y-96849931D02*
X60829886Y-95849931D01*
X60829886Y-95849931D02*
X60591791Y-95849931D01*
X60591791Y-95849931D02*
X60448934Y-95897550D01*
X60448934Y-95897550D02*
X60353696Y-95992788D01*
X60353696Y-95992788D02*
X60306077Y-96088026D01*
X60306077Y-96088026D02*
X60258458Y-96278502D01*
X60258458Y-96278502D02*
X60258458Y-96421359D01*
X60258458Y-96421359D02*
X60306077Y-96611835D01*
X60306077Y-96611835D02*
X60353696Y-96707073D01*
X60353696Y-96707073D02*
X60448934Y-96802312D01*
X60448934Y-96802312D02*
X60591791Y-96849931D01*
X60591791Y-96849931D02*
X60829886Y-96849931D01*
X59829886Y-96849931D02*
X59829886Y-96183264D01*
X59829886Y-96373740D02*
X59782267Y-96278502D01*
X59782267Y-96278502D02*
X59734648Y-96230883D01*
X59734648Y-96230883D02*
X59639410Y-96183264D01*
X59639410Y-96183264D02*
X59544172Y-96183264D01*
X59210838Y-96849931D02*
X59210838Y-96183264D01*
X59210838Y-95849931D02*
X59258457Y-95897550D01*
X59258457Y-95897550D02*
X59210838Y-95945169D01*
X59210838Y-95945169D02*
X59163219Y-95897550D01*
X59163219Y-95897550D02*
X59210838Y-95849931D01*
X59210838Y-95849931D02*
X59210838Y-95945169D01*
X58829886Y-96183264D02*
X58591791Y-96849931D01*
X58591791Y-96849931D02*
X58353696Y-96183264D01*
X57591791Y-96802312D02*
X57687029Y-96849931D01*
X57687029Y-96849931D02*
X57877505Y-96849931D01*
X57877505Y-96849931D02*
X57972743Y-96802312D01*
X57972743Y-96802312D02*
X58020362Y-96707073D01*
X58020362Y-96707073D02*
X58020362Y-96326121D01*
X58020362Y-96326121D02*
X57972743Y-96230883D01*
X57972743Y-96230883D02*
X57877505Y-96183264D01*
X57877505Y-96183264D02*
X57687029Y-96183264D01*
X57687029Y-96183264D02*
X57591791Y-96230883D01*
X57591791Y-96230883D02*
X57544172Y-96326121D01*
X57544172Y-96326121D02*
X57544172Y-96421359D01*
X57544172Y-96421359D02*
X58020362Y-96516597D01*
X57115600Y-96849931D02*
X57115600Y-96183264D01*
X57115600Y-96373740D02*
X57067981Y-96278502D01*
X57067981Y-96278502D02*
X57020362Y-96230883D01*
X57020362Y-96230883D02*
X56925124Y-96183264D01*
X56925124Y-96183264D02*
X56829886Y-96183264D01*
X66877506Y-97459875D02*
X66877506Y-98174160D01*
X66877506Y-98174160D02*
X66925125Y-98317017D01*
X66925125Y-98317017D02*
X67020363Y-98412256D01*
X67020363Y-98412256D02*
X67163220Y-98459875D01*
X67163220Y-98459875D02*
X67258458Y-98459875D01*
X65972744Y-98459875D02*
X65972744Y-97936065D01*
X65972744Y-97936065D02*
X66020363Y-97840827D01*
X66020363Y-97840827D02*
X66115601Y-97793208D01*
X66115601Y-97793208D02*
X66306077Y-97793208D01*
X66306077Y-97793208D02*
X66401315Y-97840827D01*
X65972744Y-98412256D02*
X66067982Y-98459875D01*
X66067982Y-98459875D02*
X66306077Y-98459875D01*
X66306077Y-98459875D02*
X66401315Y-98412256D01*
X66401315Y-98412256D02*
X66448934Y-98317017D01*
X66448934Y-98317017D02*
X66448934Y-98221779D01*
X66448934Y-98221779D02*
X66401315Y-98126541D01*
X66401315Y-98126541D02*
X66306077Y-98078922D01*
X66306077Y-98078922D02*
X66067982Y-98078922D01*
X66067982Y-98078922D02*
X65972744Y-98031303D01*
X65067982Y-98412256D02*
X65163220Y-98459875D01*
X65163220Y-98459875D02*
X65353696Y-98459875D01*
X65353696Y-98459875D02*
X65448934Y-98412256D01*
X65448934Y-98412256D02*
X65496553Y-98364636D01*
X65496553Y-98364636D02*
X65544172Y-98269398D01*
X65544172Y-98269398D02*
X65544172Y-97983684D01*
X65544172Y-97983684D02*
X65496553Y-97888446D01*
X65496553Y-97888446D02*
X65448934Y-97840827D01*
X65448934Y-97840827D02*
X65353696Y-97793208D01*
X65353696Y-97793208D02*
X65163220Y-97793208D01*
X65163220Y-97793208D02*
X65067982Y-97840827D01*
X64639410Y-98459875D02*
X64639410Y-97459875D01*
X64544172Y-98078922D02*
X64258458Y-98459875D01*
X64258458Y-97793208D02*
X64639410Y-98174160D01*
X63877505Y-98412256D02*
X63782267Y-98459875D01*
X63782267Y-98459875D02*
X63591791Y-98459875D01*
X63591791Y-98459875D02*
X63496553Y-98412256D01*
X63496553Y-98412256D02*
X63448934Y-98317017D01*
X63448934Y-98317017D02*
X63448934Y-98269398D01*
X63448934Y-98269398D02*
X63496553Y-98174160D01*
X63496553Y-98174160D02*
X63591791Y-98126541D01*
X63591791Y-98126541D02*
X63734648Y-98126541D01*
X63734648Y-98126541D02*
X63829886Y-98078922D01*
X63829886Y-98078922D02*
X63877505Y-97983684D01*
X63877505Y-97983684D02*
X63877505Y-97936065D01*
X63877505Y-97936065D02*
X63829886Y-97840827D01*
X63829886Y-97840827D02*
X63734648Y-97793208D01*
X63734648Y-97793208D02*
X63591791Y-97793208D01*
X63591791Y-97793208D02*
X63496553Y-97840827D01*
X62877505Y-98459875D02*
X62972743Y-98412256D01*
X62972743Y-98412256D02*
X63020362Y-98364636D01*
X63020362Y-98364636D02*
X63067981Y-98269398D01*
X63067981Y-98269398D02*
X63067981Y-97983684D01*
X63067981Y-97983684D02*
X63020362Y-97888446D01*
X63020362Y-97888446D02*
X62972743Y-97840827D01*
X62972743Y-97840827D02*
X62877505Y-97793208D01*
X62877505Y-97793208D02*
X62734648Y-97793208D01*
X62734648Y-97793208D02*
X62639410Y-97840827D01*
X62639410Y-97840827D02*
X62591791Y-97888446D01*
X62591791Y-97888446D02*
X62544172Y-97983684D01*
X62544172Y-97983684D02*
X62544172Y-98269398D01*
X62544172Y-98269398D02*
X62591791Y-98364636D01*
X62591791Y-98364636D02*
X62639410Y-98412256D01*
X62639410Y-98412256D02*
X62734648Y-98459875D01*
X62734648Y-98459875D02*
X62877505Y-98459875D01*
X62115600Y-97793208D02*
X62115600Y-98459875D01*
X62115600Y-97888446D02*
X62067981Y-97840827D01*
X62067981Y-97840827D02*
X61972743Y-97793208D01*
X61972743Y-97793208D02*
X61829886Y-97793208D01*
X61829886Y-97793208D02*
X61734648Y-97840827D01*
X61734648Y-97840827D02*
X61687029Y-97936065D01*
X61687029Y-97936065D02*
X61687029Y-98459875D01*
X60448933Y-98459875D02*
X60448933Y-97459875D01*
X60448933Y-97459875D02*
X60115600Y-98174160D01*
X60115600Y-98174160D02*
X59782267Y-97459875D01*
X59782267Y-97459875D02*
X59782267Y-98459875D01*
X58544171Y-98459875D02*
X58544171Y-97459875D01*
X58544171Y-97936065D02*
X57972743Y-97936065D01*
X57972743Y-98459875D02*
X57972743Y-97459875D01*
X57067981Y-97793208D02*
X57067981Y-98459875D01*
X57496552Y-97793208D02*
X57496552Y-98317017D01*
X57496552Y-98317017D02*
X57448933Y-98412256D01*
X57448933Y-98412256D02*
X57353695Y-98459875D01*
X57353695Y-98459875D02*
X57210838Y-98459875D01*
X57210838Y-98459875D02*
X57115600Y-98412256D01*
X57115600Y-98412256D02*
X57067981Y-98364636D01*
X55020361Y-97697970D02*
X55115600Y-97650351D01*
X55115600Y-97650351D02*
X55306076Y-97650351D01*
X55306076Y-97650351D02*
X55401314Y-97697970D01*
X55401314Y-97697970D02*
X55496552Y-97793208D01*
X55496552Y-97793208D02*
X55544171Y-97888446D01*
X55544171Y-97888446D02*
X55544171Y-98078922D01*
X55544171Y-98078922D02*
X55496552Y-98174160D01*
X55496552Y-98174160D02*
X55401314Y-98269398D01*
X55401314Y-98269398D02*
X55306076Y-98317017D01*
X55306076Y-98317017D02*
X55115600Y-98317017D01*
X55115600Y-98317017D02*
X55020361Y-98269398D01*
X55210838Y-97317017D02*
X55448933Y-97364636D01*
X55448933Y-97364636D02*
X55687028Y-97507494D01*
X55687028Y-97507494D02*
X55829885Y-97745589D01*
X55829885Y-97745589D02*
X55877504Y-97983684D01*
X55877504Y-97983684D02*
X55829885Y-98221779D01*
X55829885Y-98221779D02*
X55687028Y-98459875D01*
X55687028Y-98459875D02*
X55448933Y-98602732D01*
X55448933Y-98602732D02*
X55210838Y-98650351D01*
X55210838Y-98650351D02*
X54972742Y-98602732D01*
X54972742Y-98602732D02*
X54734647Y-98459875D01*
X54734647Y-98459875D02*
X54591790Y-98221779D01*
X54591790Y-98221779D02*
X54544171Y-97983684D01*
X54544171Y-97983684D02*
X54591790Y-97745589D01*
X54591790Y-97745589D02*
X54734647Y-97507494D01*
X54734647Y-97507494D02*
X54972742Y-97364636D01*
X54972742Y-97364636D02*
X55210838Y-97317017D01*
X53401313Y-97555113D02*
X53353694Y-97507494D01*
X53353694Y-97507494D02*
X53258456Y-97459875D01*
X53258456Y-97459875D02*
X53020361Y-97459875D01*
X53020361Y-97459875D02*
X52925123Y-97507494D01*
X52925123Y-97507494D02*
X52877504Y-97555113D01*
X52877504Y-97555113D02*
X52829885Y-97650351D01*
X52829885Y-97650351D02*
X52829885Y-97745589D01*
X52829885Y-97745589D02*
X52877504Y-97888446D01*
X52877504Y-97888446D02*
X53448932Y-98459875D01*
X53448932Y-98459875D02*
X52829885Y-98459875D01*
X52210837Y-97459875D02*
X52115599Y-97459875D01*
X52115599Y-97459875D02*
X52020361Y-97507494D01*
X52020361Y-97507494D02*
X51972742Y-97555113D01*
X51972742Y-97555113D02*
X51925123Y-97650351D01*
X51925123Y-97650351D02*
X51877504Y-97840827D01*
X51877504Y-97840827D02*
X51877504Y-98078922D01*
X51877504Y-98078922D02*
X51925123Y-98269398D01*
X51925123Y-98269398D02*
X51972742Y-98364636D01*
X51972742Y-98364636D02*
X52020361Y-98412256D01*
X52020361Y-98412256D02*
X52115599Y-98459875D01*
X52115599Y-98459875D02*
X52210837Y-98459875D01*
X52210837Y-98459875D02*
X52306075Y-98412256D01*
X52306075Y-98412256D02*
X52353694Y-98364636D01*
X52353694Y-98364636D02*
X52401313Y-98269398D01*
X52401313Y-98269398D02*
X52448932Y-98078922D01*
X52448932Y-98078922D02*
X52448932Y-97840827D01*
X52448932Y-97840827D02*
X52401313Y-97650351D01*
X52401313Y-97650351D02*
X52353694Y-97555113D01*
X52353694Y-97555113D02*
X52306075Y-97507494D01*
X52306075Y-97507494D02*
X52210837Y-97459875D01*
X51496551Y-97555113D02*
X51448932Y-97507494D01*
X51448932Y-97507494D02*
X51353694Y-97459875D01*
X51353694Y-97459875D02*
X51115599Y-97459875D01*
X51115599Y-97459875D02*
X51020361Y-97507494D01*
X51020361Y-97507494D02*
X50972742Y-97555113D01*
X50972742Y-97555113D02*
X50925123Y-97650351D01*
X50925123Y-97650351D02*
X50925123Y-97745589D01*
X50925123Y-97745589D02*
X50972742Y-97888446D01*
X50972742Y-97888446D02*
X51544170Y-98459875D01*
X51544170Y-98459875D02*
X50925123Y-98459875D01*
X50067980Y-97459875D02*
X50258456Y-97459875D01*
X50258456Y-97459875D02*
X50353694Y-97507494D01*
X50353694Y-97507494D02*
X50401313Y-97555113D01*
X50401313Y-97555113D02*
X50496551Y-97697970D01*
X50496551Y-97697970D02*
X50544170Y-97888446D01*
X50544170Y-97888446D02*
X50544170Y-98269398D01*
X50544170Y-98269398D02*
X50496551Y-98364636D01*
X50496551Y-98364636D02*
X50448932Y-98412256D01*
X50448932Y-98412256D02*
X50353694Y-98459875D01*
X50353694Y-98459875D02*
X50163218Y-98459875D01*
X50163218Y-98459875D02*
X50067980Y-98412256D01*
X50067980Y-98412256D02*
X50020361Y-98364636D01*
X50020361Y-98364636D02*
X49972742Y-98269398D01*
X49972742Y-98269398D02*
X49972742Y-98031303D01*
X49972742Y-98031303D02*
X50020361Y-97936065D01*
X50020361Y-97936065D02*
X50067980Y-97888446D01*
X50067980Y-97888446D02*
X50163218Y-97840827D01*
X50163218Y-97840827D02*
X50353694Y-97840827D01*
X50353694Y-97840827D02*
X50448932Y-97888446D01*
X50448932Y-97888446D02*
X50496551Y-97936065D01*
X50496551Y-97936065D02*
X50544170Y-98031303D01*
X66591792Y-100069819D02*
X66925125Y-99593628D01*
X67163220Y-100069819D02*
X67163220Y-99069819D01*
X67163220Y-99069819D02*
X66782268Y-99069819D01*
X66782268Y-99069819D02*
X66687030Y-99117438D01*
X66687030Y-99117438D02*
X66639411Y-99165057D01*
X66639411Y-99165057D02*
X66591792Y-99260295D01*
X66591792Y-99260295D02*
X66591792Y-99403152D01*
X66591792Y-99403152D02*
X66639411Y-99498390D01*
X66639411Y-99498390D02*
X66687030Y-99546009D01*
X66687030Y-99546009D02*
X66782268Y-99593628D01*
X66782268Y-99593628D02*
X67163220Y-99593628D01*
X65782268Y-100022200D02*
X65877506Y-100069819D01*
X65877506Y-100069819D02*
X66067982Y-100069819D01*
X66067982Y-100069819D02*
X66163220Y-100022200D01*
X66163220Y-100022200D02*
X66210839Y-99926961D01*
X66210839Y-99926961D02*
X66210839Y-99546009D01*
X66210839Y-99546009D02*
X66163220Y-99450771D01*
X66163220Y-99450771D02*
X66067982Y-99403152D01*
X66067982Y-99403152D02*
X65877506Y-99403152D01*
X65877506Y-99403152D02*
X65782268Y-99450771D01*
X65782268Y-99450771D02*
X65734649Y-99546009D01*
X65734649Y-99546009D02*
X65734649Y-99641247D01*
X65734649Y-99641247D02*
X66210839Y-99736485D01*
X65401315Y-99403152D02*
X65163220Y-100069819D01*
X65163220Y-100069819D02*
X64925125Y-99403152D01*
X63258458Y-100069819D02*
X63829886Y-100069819D01*
X63544172Y-100069819D02*
X63544172Y-99069819D01*
X63544172Y-99069819D02*
X63639410Y-99212676D01*
X63639410Y-99212676D02*
X63734648Y-99307914D01*
X63734648Y-99307914D02*
X63829886Y-99355533D01*
X60972743Y-99546009D02*
X61306076Y-99546009D01*
X61306076Y-100069819D02*
X61306076Y-99069819D01*
X61306076Y-99069819D02*
X60829886Y-99069819D01*
X60067981Y-100022200D02*
X60163219Y-100069819D01*
X60163219Y-100069819D02*
X60353695Y-100069819D01*
X60353695Y-100069819D02*
X60448933Y-100022200D01*
X60448933Y-100022200D02*
X60496552Y-99926961D01*
X60496552Y-99926961D02*
X60496552Y-99546009D01*
X60496552Y-99546009D02*
X60448933Y-99450771D01*
X60448933Y-99450771D02*
X60353695Y-99403152D01*
X60353695Y-99403152D02*
X60163219Y-99403152D01*
X60163219Y-99403152D02*
X60067981Y-99450771D01*
X60067981Y-99450771D02*
X60020362Y-99546009D01*
X60020362Y-99546009D02*
X60020362Y-99641247D01*
X60020362Y-99641247D02*
X60496552Y-99736485D01*
X59591790Y-100069819D02*
X59591790Y-99069819D01*
X59591790Y-99450771D02*
X59496552Y-99403152D01*
X59496552Y-99403152D02*
X59306076Y-99403152D01*
X59306076Y-99403152D02*
X59210838Y-99450771D01*
X59210838Y-99450771D02*
X59163219Y-99498390D01*
X59163219Y-99498390D02*
X59115600Y-99593628D01*
X59115600Y-99593628D02*
X59115600Y-99879342D01*
X59115600Y-99879342D02*
X59163219Y-99974580D01*
X59163219Y-99974580D02*
X59210838Y-100022200D01*
X59210838Y-100022200D02*
X59306076Y-100069819D01*
X59306076Y-100069819D02*
X59496552Y-100069819D01*
X59496552Y-100069819D02*
X59591790Y-100022200D01*
X57972742Y-99165057D02*
X57925123Y-99117438D01*
X57925123Y-99117438D02*
X57829885Y-99069819D01*
X57829885Y-99069819D02*
X57591790Y-99069819D01*
X57591790Y-99069819D02*
X57496552Y-99117438D01*
X57496552Y-99117438D02*
X57448933Y-99165057D01*
X57448933Y-99165057D02*
X57401314Y-99260295D01*
X57401314Y-99260295D02*
X57401314Y-99355533D01*
X57401314Y-99355533D02*
X57448933Y-99498390D01*
X57448933Y-99498390D02*
X58020361Y-100069819D01*
X58020361Y-100069819D02*
X57401314Y-100069819D01*
X56782266Y-99069819D02*
X56687028Y-99069819D01*
X56687028Y-99069819D02*
X56591790Y-99117438D01*
X56591790Y-99117438D02*
X56544171Y-99165057D01*
X56544171Y-99165057D02*
X56496552Y-99260295D01*
X56496552Y-99260295D02*
X56448933Y-99450771D01*
X56448933Y-99450771D02*
X56448933Y-99688866D01*
X56448933Y-99688866D02*
X56496552Y-99879342D01*
X56496552Y-99879342D02*
X56544171Y-99974580D01*
X56544171Y-99974580D02*
X56591790Y-100022200D01*
X56591790Y-100022200D02*
X56687028Y-100069819D01*
X56687028Y-100069819D02*
X56782266Y-100069819D01*
X56782266Y-100069819D02*
X56877504Y-100022200D01*
X56877504Y-100022200D02*
X56925123Y-99974580D01*
X56925123Y-99974580D02*
X56972742Y-99879342D01*
X56972742Y-99879342D02*
X57020361Y-99688866D01*
X57020361Y-99688866D02*
X57020361Y-99450771D01*
X57020361Y-99450771D02*
X56972742Y-99260295D01*
X56972742Y-99260295D02*
X56925123Y-99165057D01*
X56925123Y-99165057D02*
X56877504Y-99117438D01*
X56877504Y-99117438D02*
X56782266Y-99069819D01*
X56067980Y-99165057D02*
X56020361Y-99117438D01*
X56020361Y-99117438D02*
X55925123Y-99069819D01*
X55925123Y-99069819D02*
X55687028Y-99069819D01*
X55687028Y-99069819D02*
X55591790Y-99117438D01*
X55591790Y-99117438D02*
X55544171Y-99165057D01*
X55544171Y-99165057D02*
X55496552Y-99260295D01*
X55496552Y-99260295D02*
X55496552Y-99355533D01*
X55496552Y-99355533D02*
X55544171Y-99498390D01*
X55544171Y-99498390D02*
X56115599Y-100069819D01*
X56115599Y-100069819D02*
X55496552Y-100069819D01*
X54639409Y-99069819D02*
X54829885Y-99069819D01*
X54829885Y-99069819D02*
X54925123Y-99117438D01*
X54925123Y-99117438D02*
X54972742Y-99165057D01*
X54972742Y-99165057D02*
X55067980Y-99307914D01*
X55067980Y-99307914D02*
X55115599Y-99498390D01*
X55115599Y-99498390D02*
X55115599Y-99879342D01*
X55115599Y-99879342D02*
X55067980Y-99974580D01*
X55067980Y-99974580D02*
X55020361Y-100022200D01*
X55020361Y-100022200D02*
X54925123Y-100069819D01*
X54925123Y-100069819D02*
X54734647Y-100069819D01*
X54734647Y-100069819D02*
X54639409Y-100022200D01*
X54639409Y-100022200D02*
X54591790Y-99974580D01*
X54591790Y-99974580D02*
X54544171Y-99879342D01*
X54544171Y-99879342D02*
X54544171Y-99641247D01*
X54544171Y-99641247D02*
X54591790Y-99546009D01*
X54591790Y-99546009D02*
X54639409Y-99498390D01*
X54639409Y-99498390D02*
X54734647Y-99450771D01*
X54734647Y-99450771D02*
X54925123Y-99450771D01*
X54925123Y-99450771D02*
X55020361Y-99498390D01*
X55020361Y-99498390D02*
X55067980Y-99546009D01*
X55067980Y-99546009D02*
X55115599Y-99641247D01*
%LPC*%
D11*
%TO.C,U4*%
X88470000Y-97350000D03*
X88470000Y-98650000D03*
X88470000Y-99950000D03*
X89770000Y-97350000D03*
X89770000Y-98650000D03*
X89770000Y-99950000D03*
%TD*%
D12*
%TO.C,J2*%
X91080000Y-83930000D03*
D13*
X91080000Y-85200000D03*
X91080000Y-86470000D03*
X91080000Y-87740000D03*
X91080000Y-89010000D03*
X91080000Y-90280000D03*
%TD*%
D14*
%TO.C,SW2*%
X58000000Y-83300000D03*
D15*
X63080000Y-83300000D03*
X68160000Y-83300000D03*
%TD*%
D16*
%TO.C,J4*%
X95395000Y-93930000D03*
D17*
X92855000Y-93930000D03*
%TD*%
D16*
%TO.C,J1*%
X71490000Y-98610000D03*
D17*
X71490000Y-101150000D03*
%TD*%
D14*
%TO.C,SW1*%
X63000000Y-90000000D03*
D15*
X57920000Y-90000000D03*
X52840000Y-90000000D03*
%TD*%
D18*
%TO.C,J3*%
X75890000Y-96230000D03*
X81670000Y-96230000D03*
D19*
X74460000Y-95700000D03*
D20*
X74460000Y-99880000D03*
D19*
X83100000Y-95700000D03*
D20*
X83100000Y-99880000D03*
%TD*%
%LPD*%
M02*
